<mxfile host="65bd71144e">
    <diagram id="Bk3sqymCMazbLXjnxJex" name="Page-1">
        <mxGraphModel dx="883" dy="652" grid="1" gridSize="10" guides="1" tooltips="1" connect="1" arrows="1" fold="1" page="1" pageScale="1" pageWidth="850" pageHeight="1100" math="0" shadow="0">
            <root>
                <mxCell id="0"/>
                <mxCell id="1" parent="0"/>
                <mxCell id="8" value="" style="edgeStyle=none;html=1;" parent="1" source="3" target="7" edge="1">
                    <mxGeometry relative="1" as="geometry"/>
                </mxCell>
                <mxCell id="3" value="" style="shape=image;verticalLabelPosition=bottom;verticalAlign=top;imageAspect=0;aspect=fixed;image=data:image/png,iVBORw0KGgoAAAANSUhEUgAAAIkAAAB8CAYAAABde5NjAAABQ2lDQ1BJQ0MgUHJvZmlsZQAAKJFjYGASSSwoyGFhYGDIzSspCnJ3UoiIjFJgf8bAyCDMIMjAymCVmFxc4BgQ4ANUwgCjUcG3a0DVQHBZF2RWXSC38XPz4l9xSROTlxomsWKqRwFcKanFyUD6DxCnJhcUlTAwMKYA2crlJQUgdgeQLVIEdBSQPQfEToewN4DYSRD2EbCakCBnIPsGkC2QnJEINIPxBZCtk4Qkno7EhtoLAtzB/n6RCiFhChFhBFxLBihJrSgB0c75BZVFmekZJQqOwFBKVfDMS9bTUTAyMDJiYACFOUT150xwWDJmiCDEcuUZGCzvMDAw/UWIxVUwMKwHhodEBEJM246BQQwYXtuvFyQWJcIdwPiNpTjN2AjClowHelf2//+XwPDh62Jg+Cv2//8P+///f79lYGCbwsAwxRwAF9pckZ/eqHMAAAA4ZVhJZk1NACoAAAAIAAGHaQAEAAAAAQAAABoAAAAAAAKgAgAEAAAAAQAAAImgAwAEAAAAAQAAAHwAAAAAhzQfzAAAQABJREFUeAHtvQmc3Fd15/urvar3RbssWatt2bIxlm3MeIkdHLPFGIeBhN0hkwm8ABmS94E38yDDYxKSDy+ZycyETCYkLyQQEjYTEhaDbcB2bCzvuy1ZsmXtW6v37trrfX/3X9VqyVJXS2q1lQ99pa7613+75577u+ece+6958ZqUVIjxWIxcUr+dqrVqhzH+Za44g+O+Ygu1x/jPCdi/qrfo6pP+YlJ7/Jl/z7y4XA2XKnn28j/6O/GjY3z/l2tVhWPx8O3aT5M9+F8A/HkWYPAGLRXnU+chzkOxYhV+OG/dCA/lNXXI+rDt1TmWfjgJ8wbs8Llm0SznzhW/o17fN3p6N/R2eizUZ5j3RNxefLdPo7OBj6Hn/WKiUiE2lARXKmf9z0nmGIQE6r2uM/VzDwqgUzigZFkWkmpmqwoXkuExyowuaaEklSYuV+KVZXi7jMjUbwqDOJ/FfoDzWZgoDkeQBODXoVypiKS+R3YAiiABiUzB8wHWB6KZV6cPNNPlC9uqFUAaQpS5Gty3SIrBj0USslwzRCOVxPhei1Bud2Y4+PhumouW1SLAVgG+jRTstl95RiVT34xFVWtpBXjiUBktahisU+1+C6lK0la0EJV0u0wt1MpmHumYMRsrARyYGAd1JYaMY7dOqqAJVatqFKE3UMVDfaVVBiB7ZmUsl1ltfYmVUvGlEwDlVgpVIK5MbvlMzJdwREgnLmleZWKqFQpV7mokdKgXty3Ub1tZ2tRx2olkK7xMsCoZRVPQC/kmxduHJafdRnarPrD9aYgSarE292WjES3ygpSpKpD+/5GO7feru7ePs1rQdilVirZ8XplMzdDUHZamc/GTQZCEMVuVf4Bs+FQkBRmu2h5I9tjevHeirY9PqqR/nEVxmFwKqmWDmnxeUktvyqpxRcCFHhQA3FuKLOZqFcqnT+3/gp/HFepl9H8QT389Pe0sGutiokh3Xr3f9Gr19ygqy+8RS9ue1r9wwd1zaX/FiXaFWrPwEAm8S8ZpON0yzB1ca2JxioqP/cgrYnjc9YrmapqtO8zyhXu0Pi+EY3sHFL7Oaib7NMaz9+reNsLSvd+lPxb+XMLeGWTraKgRAJAAActzGK7poKS+Zi23l/SxlvHdPAZWuVgQdUiqtTgQWogNrT3oXFtvSOl9W+SNrxtvqodtEfEPDCatYLVqKVGjrU4JbJ2TBiwSd23+XYNj39NrZ0t6svv0WCpT9++/0t6atdPdeMlv4L0BBAUp4Y6NURsOKiGRIoHrkyrDFPbJICkODKi1Jf+RJVv/1DJW96t0pVlFcpf1ku7rtW89i5VU99UPP+0EilaGLZKvKVF7Yv/Tsn2q2G0JdArnWCKDQm+lKD9BYuVw4L0wu013fM3B5CIBTCRhYnob8BUq+a4GTAk8qrls8q10Pa6pQtuyumaD3YEQRla9SwVDbgatpAfFIYqtp+w/8qlojYNPaHPffHXVM2MKpEYVS4+X6XxhNace6l+48pPqqd1DbqThgHgrWDjts9sDkwfI0p8mnTcsiLeEomMCi29OvTYI6p+6+tqWfQjbaxcoT/83f165KlRXX/DVcpmN6IbC5CAmVfEOMwBrNabzhCQUDqrGnMZ3gSNXClq4NmE7v3KgHY+OqK4bS3AUzXz4yinalnlfElp7i+XKxqlTGkeHjxQVrK1pgWr0jQKv3B2UkJj5A4xpbiGKsPaNPiQ/mXrt/Wjp76pnbuf1KGRPajIPJqoX6NxzAGM1EXJJSr3tmpf8SW1tLUoE89iW6JwAIythxm1SZSEWeecLf27j2jrl/6blvfco6VLRrTugjatPXeNUskBVYfd+mBYrAUmF2DwPgAThDbfTm4Bs8fUkGX9I+Rfx0hEEUAZLWnLvWVteRwLlVYVrxVBA0BANJvKIvp+3Zs7dMlbW2iVNd31xQH13e9batr844JWrG/VvPNms0zwlYIU0iU9u+0+fffO/609B7ZoNOluOZdq44HbsUoHjSBBecrauu0hbdr9iDqLSb323Dfq5rd8XLH0vCBQLZkyk5nU5Hhqm8QPuxeQyar3qqvVsapHxfHfUG/yfv3up39O5dozGu//CdSPq4ytmobYGgowHj8rZGuTxr4J+xjcBZuAycRBuO20foTsJ+WXrJXUvy+nTXcMKj6CRKiUaHllFVNpbPKKkoWYWlZmdNm7c1p+GWVByvQs6tSfvXMIlVTU7ifL2v10Sb1r8KnQ6wnvr5cgKuuJtdLpFD7qupfoNWa0ani+brwTqfbwmPZ0VDXcGdP+hVU9/hqr+3atfaqmFS9axea1YldSHQPjSl/woLRos6pXzwNAuCfqKnc6efue5iCBwbEqFYy0a1m4XJmRm7Vv7x9L47ehG8vYQPxhTKUtskFFLZ5Wpu0ajsGqnzVSeNhQiToYRQQnDJ61FCEk+D1Qn3aIDR+s6cDuAVRkLipbAj9DuYZ6wbQrW3dzH7rbwrFapdsrbBREeQ2jtjRYUd92pOVYWql2DHbsLhvHLpz/cTDjJbOvJkV3NtF3UMm//aHmf/0FzS+XtBQKW7j23WulfCaj195V1HW3VTWvv4akcDmSykN98q49GvjsF9T56W7lXrUKc4DKPAGjpDlIYKp7XuHGFIS2vUMd3Y+pcPC72IMFpIb9ELjSAEyqDDBa29E6r+VaBAZjJHC7wbrYCVhMjWdO8Tuqtqgia4BgsA+9nbdkK0I7VQv9SeiyrySVLmtgd1xP3zam9nibCmPSnV/doRj3Z7I4CpE8QzxfHKkAEpxuVIULGFxuzsjMmuFkgKMNNfqdO9T3R9+kX9ZP1QfXmTME2DH93B0VveEbRc2jAWLCco+hZVuqDHUFHfrB/aqt+ZoySz6g+LKlfmzaqSlIQh0jU+O2rKtZejNL1drzKWWSl2l0+J9h9iYlygdQ9BQEjGQ6PsA9KylCTCV0fRymxd3LCTXljpwdQrMMlHrlmS+xQAsWUxk2U64Kkq9Wc3vDnLJBhw2WqLXq4a+VtPXHh1REbI/3xdXWjpS01LQ4DKUzOAAbnz46nSmFQR3vH9Wh3/9r2HiQ/OzrCBRrCBqu/xcEO3aU7YxR7sDs5tPXKzgiSurKJjSYH9Hgl7+n9tddobalCykCdTBNQPtNUyb7E1zhsbj71nS7QHUps1ax+UiUhZ9RquUcGIvBl8S/UMAnEW9VovioEngAU9goCXtqA9HQZAbbCzibiSzNC6sCSzXT0tGFasyUUDdccPe4hvoDNIqVVSplcFwV0dtFDe6XhvfFOU4DeECCEzHOcUt7RqksLZjnEULh3aFIHDcb5TjhoptobKXCj+7SwEsvUeXmp8vhrgHihW9Kg9qxcnEnF7uKK75mqIygKvP5MnVYUpICFe7GPhlAPPq900xNJUkMpsTcNYQUjxUkYV5VWRULi3D7fg/d/CTDAxAxjOYei6vQ//9otDujWOd6tXX8kpJtb1I8e1awRyiLOTq7yZVLjuGPvOMYm+290vzFHTqwk25jEYcJV602zFolGFqojgIGxDmgyOB5TeDyLIRuMq2VjkbvsoRSHbwsAbhcY261ZGD3w+lI1VJZB+68B67bz5rgn6VXVCpkTJAmztqN2f0zW0kMJgATN4kcHegSnxXsk7KGH3lCuQODynVgFkyT3qYgCYVulB5J4haZLMHSxPMaHPgyramIwymj5DDcwiubwqeggSIN8wEdqDylbPkeWu4naLlrGWuAfLrJx8aJC+107KvRtak/Q+Pw4z4IohQVGbof0TurqMzyaEIvPnVAo6MIaHS5WWofbJxxkCpioYz0Qz7guIoBkBKvynDfeBj/sDm16LyKlp7ney3wqRYzOgDFtDXK4OOZS/j0lHzqJV7oKk/ZkiInU2mIxNTBJ5Ry3uW0PeJ6qtKsbbcwFsV9OY4y/NX2A5Ahd/1N9PQUZVMsBcsdhltTRPa+D/jLb1F5+DGYSAnGII/xjhJMNp5qJQgYoMczPKzK3ttU3vundDc3B9Fshh5u2w1GRq3ipJlsUET//QVwEcbOhx8RuzhJASpI2ce/Kd3zv8Y0coAyuHuP8yl8c7N7PnHus1RxJSBKVMA4x5qlYcSU7U5o9fWt6l1rleTqqSdzkT9Dzv9mNFGGGCpxaHSILFyx/vOnv02DDYKonG7xlh+GhiEU3WkbxSoetcn5arEaQOY7p5uaShJnZyvZLc7GkP9iqJyR4hbyKcFYsi7Zywcp8CdeRhTjK8mOIxo5rqLnC6PfR8x3K19tV7ayUInuD1Byjxw3kHyKjOXxqmnhuwZDE35v4JAJghWAJj8obfzqqB79BiXABll6fgZ1A20DXPcIGgLaUyDiCOWArjgCm+cyvC+ZKivd064LfiGudb+AisHrakjMVjKQ07ksRqlrwimq4EiuH7+yG7XmOxjn5qkkEhGJk0oEOya8ahofZmGTBDPMD//ZnxtECqTC0yoV7aF2vGgYR1zHj12gS5mAuaGXXkC9INJrlbxGBr+ikT1/qvzAV6kDPJyhFicXsJEJl04whbcEMgOEgxSxOqglYA1qZHQspo1/268nvtavfHlUV7w/p4vfnFIuE3VgawCiArBjGdhOuWJ4MqvJMVQJtFOmGjbMhndl9Jp35hiXwkC0tTpbyWzBjkotX8yBG6mtw0hR2DCdmpLQQoLPxPfSjMRgjtJIxlCfvGc6qbkkgYqoxddxaaKRKrn0+YgtiLAq6oG5u6j2PUllFuDU5pkCvaEcfeIUIKkCilo5j6QhO/eEYH6kzMPLQsO1FDj5RAUHAPMGjIQy2QSWoHMKh+L66VdGtfk7eFbxkbzhYx3qWpHU7X80oBGuYZfS4cKb2ZrWvPlVwIz3dczu47K6F6e17OKaNrxxkTJLa8p2Yoe4d2beT6N5nXx5jnyylkmGruvQP/6IcjXkRwRwCszNx4aKDViDo5M/j4W7vtrWr1Wqp5PBy4YUPzKvY/1qCpLJiIvqMRJbydir6ApepeLAnWEgIInFP7q1pq4cd+FTSDHvoYpXsAogyum00gwsjbrL2HkDRqJ15Cmh4hhliWqN6S42JQLbagM5Pf2Ngp75e7q2/HvTxxZq6RUZff3De3VwO2ZftqS116W07vpuxbE3zl6BkTpa0yAeyxy+ha5OqMT5gNsE4Lm1WJIeI+vTeYrWU6Jhdbzl5/XCRz5P82SiV/gX9WTcFT5ecic4ZZGPqmFiBL861HH1a1SZ30UdTJ//02gPkfkTLNKJ9/JYqhep8UnmV1yqcrVV5SU0rstKGqbbiF8tYiiTkQrzqaCOcY1Xk0p3X6bWtlu4aMInXhZsiUj91PPi6okml7lmu4R69GS+2GBGj30rr3tv3a1ErqzX/3a32i5I6hu/PqT+F7mOLyRr8yKZ0fJVrVpzfpbhhJjaFsTpvSTUvZLuYw/9hK4hBKc9l4h83m8Jhdg6UfJO6f6MHV/dC7Xg028nf09jcLVZpU/NL5u1KaDBRAi6wUjKt16r5OUXIcytbg7zvxlxTSWJX2XkhleGyo/0YgxjqpJbr5Yln8LO+HNVRh5TMX2QQcCyKnl8KhYWSI9YMqG2xAJGIC9Vbt4nKB/TvUIhJxMZXhxy4uOkklsUHQ6I9RgnLByI69m7+gFCuy67BbXXk9Dtvz+kA3ssdGOad3ZW63+egctVYKALduNyNwAwU/l2splnuHHGrthQH7jyJxgRbpqdD6Qj3jt1/vubFXvgGQ1+j0lgVLuN0clcPNzwohL4GpMXNUg5Wi9epwXvf4uSK5dN2OnTJb45SLDugxGIgepZTh74CjPo6NVgT1H51yqx8HwdevLzGtt/h3resAY3Pb6GZFYjW3dpBJf2WZe9S8mut2Kb9NSZfGTRDhfu6PPTK0bUsLGNsEfc9TOLKhjYibakNryOFnRWRnfT7d37NP4BBumS7Qn1npfWhve1KtVmZDWSkd2gJtLZ9JWii5NvO6pqohtO46cnNZPii1dq/n/+KF7hP9Xo7Q9A2dCELKk340lE+Iy7xxml161T7//575S+8RoKR5VP8h1NeuC4h01BYgeTjXm3KD5C8kz5aolJRgMlje3brRTKe//GFBb4ryiNhzUIuP68YoUt6n/kMXWu2qDunhaVg+eJ+Sl+1wwnM8Q9KtwZ8CCvZG9cV97SLqa26Cd/OaSDz8I0/CDLr2jV2quxnS7MKUxAm2E6TsvrzH9qym735AXnq/sPPqbk+f+ooW/cofiufZTb/RbLUhu1big2WQ3uTuXedoVyv36TWv7N5UhDlA9+iqaVflQhmt4fGUk4ZNxK3SWkx5CkpzL404e199EndZAZay1LF6FuhrX29W+iy7talYGDeu4vvqBDTz3JDPRxLbziEDq+RZ5wXrPRenIC4yjSD//0DPAgPpB6NRCNp0aJlmJg1T3/MKK+5zimV5Ii77aemi69GR8lEuQE1PLhzF6JIwi1tktVGD9ryar91ReqfeF89V5/lUZuu1N9jz6l6rN7lOjHW2jr6cIF6rhwtea98Q2KbThP1fPOBjoeyES18hfAFBrs9ArTFCRmvgfmMnWO4vpQbXRM+x54VPf/3ueUGGReKJVy9rvQd/OWqlw4pOf/8gvaf+89OnDHwzye0vgH+lRKeVApE8ZEjPOZTKEzCJ24RsKM8oS5Uc5hlFa0YnVG7Riu+QFaYUtKHeci0bJFRrHtbXCaeakWvXcmP+mn4Kz0WFGKoQU3hNgCJhC97mp1X7FBnSOMNZXGVB5nQJU+fTzXxsR0Rmu6WsOs/4TFEM/4n1VN5MWafrmbgiQMdHlcI2QQNdgKiN39/E61tTL/Fb9CJcOk/cvXK9eD+5oKKg+PApCnAE2P1n7wl7Xk6qupCgb98MDSRZhJ7oV3uZ1V8ctYNSawlQKVGJs9F1V03Tnt2Cd4Upnm4I5Jsr0AYLMwnWN3wyIzZMZpmtkX0oGdcBvgE6IxVFm1kKJToAz9dNR9cEE1MqVYsCI0mkIYY+KHl8KwLsPO+mDinEA7nXq2PJlazMXxoAaDBErsJfEEIxZ9aHRPn8YHBhTLtqht5ULFcvhDii3acfdd2vOPX9dZN92oBde+loK4z9BWfxvPModjphNsABtY+0i9kpdDUPvWzjGsbLcZjyvZsaekJxrRmihSyk6QE2CWs3hFEtLDyVMT8CS4uUYShSGPajDWKSfnfL5RnIgfPmEToRwNVeDlrAGUsBS1cSO3NEvTA4nFt2UJGUbrYW2jRAZtglHgKtMJwmQiZ4xoGzm4k2UI7YpnGHtMs1QB6JcxGkNvaHJJmlF3QtfdvCIRWgqtJ9K/foV7PUHU8hn3CGQ91aArglDjzBn6Dc/CaAj1UA18pwycM9hdsggipr0BFR+7xFFPz3UXllJQf6GdnGAdNAWJs5tLP9scONysfrb5MFf6KTgwB5IpmDN3KeLAHEjmkNCUA3MgacqiuRvmQDKHgaYcmANJUxbN3TAHkjkMNOXAHEiasmjuhjmQzGGgKQfmQNKURXM3zIFkDgNNOTAHkqYsmruhKUjCALD55JFD//HhiMo+9CyTifPhmmeIMVocjn1v/RF/h5O+MOmibzjtaVKeHDZ+Nb5D9hM/PCXCf437XM6orI1bGt/hpjPhwwSR/NWgvlE7E4UNd0zmfP2h+vlmX81BEuYd8FJPEWSeRpWgcx5gLxMRo+phd8975bKHoMOsHkI4eC6Pl0jWPA+C/+HPX55+NxlBfmRWUkSHSXE6TNLho+iKC+O5KNEkYhfJw/CeN+y/MzNFDTXQCo2ebMTQfp3PJtrQ8bf/onSi4TGaThUIr65XrAmpMrGhWB3X07v+X7WllmlJ52vUklvORB/mlICBAy/s1J49W7Vk1WotWryUNcDEIvODvCgUxB/hyN+zlFwI8jVzoigDUVuLZo421jibxAY4PK26cdWPuiLqTA7TOJu2rVkqWASBwFfnaBLrZPpn0YvhoT0Eq4B+zzIMc09cllAO39U8NZ2+WEV9ODiDM3f+JqhSG9bjL3xR+doYK/ZW6oIVb9Wqnrdrz5ZD+tRv/Zq6WJZ4w/t+S2+9+d8CKpATpvEHdARV5VWes5ZMtwk39czkYipS+DMMQoFcIv67vfkgOu8JVtF0Hs8IDed8E5IzvMuP8HcmpDBrMIi5qARh+Swr1PwrTbTrqLx1Sif4cGKUNwVJVKGI4DoKo1X7LYQHb9fg6D7t7X9AQ+UHVWU984v3ZTR2YEg9Z3frddddxwp2wGXeBuSaMHP3xAg81bs9oyvK1hyCaa5oa85QMH6bJOjzlMwoVBY0w+EEcpsFGjxjqeFyIGdombbDoiULPv/KJ0e4NkZqrIUOwK3z118O3mQqY6j9id0zuMkS80SobwoSczEQ0Hgtucdh4OLeS7Vn6AXmiTr+RVWPbv6Wnr67QzFma7/pPR8jcM08KsLLJwKZgZu2U7ztyGyn0IBgjKcqBoCYAKYuelmoA/vGaizlrDKbn7BTiDoKSCETbUwPbOebSdPAxUw2s7xYq14Ps12MY+cHuZYaXjDncnqSNIGvsU2IVMJ8Xk85dfTqEBOfcllCnuikzaYgccaeY20KfOwp2AnUx+olb9fmkTvVPzaiDBJj9/Yn9dQzrbrqul/UtW+5EQ3jdR4RQKAxPByhORTFb3pFUoRZuFg7SDS6rYqPPa1K4Sns1Rc4R1i6CtIFYMRTS1ideA7rc9YrkbmQCcgO/eAmYz3vZFH+yicvzBomutQh4tWNoF4cHS3hubvuZVJPcYDfSqOel2PNESRbiZ5ocMOmIDFO/c+RAEKM0/FRlQ72qXtPmy7O36gtldtU6i1q/wiRks89V7/xno8o8fQmjFvMpXm9qs1jFj3x5gn/EQmVVwgjjhZkm6QaI1Ag65ZrI8R7GybMc34ry4cJy82EbjPDwDYbqzTHOGCpZc6C/nWKd70RJX82Mpzw15lFTFdfxd3EVwtixVLKTZnChd/hY+YQZJ5ZBFKEEGOEfPYQqfqxvoIeGapq39CY+ka8KN8SxfRbvUAiUr2FSE1nEWMl25LULyzp1ms6s0R4ML0vTy5LpIqOvNq8d1P3e7i7W9n3kvLf+o6G7sAG6TtELkRXXjaqwlUL9dDBktYcWKBr+lM6sPdF4pHAy95epV9zidrf+UtKLDg7LFVkn4LZTTDYPCYQKxXMzP6hr7LC8MuKDW0iDv4oF+DsMZJVLCwPwE6w0KvQBdhZfJ4sALR5b1Oq+xaEyWKbOLzfLdc9B94V+DuzhbS5nQTEXk9RAARPHsrrC8/t1X0HxvTUGNAucocDvdZtwAisEOJuZa6mN7S3qpUwG1UWd/3HC5fo4vlezchLA2P4ridHtPYpl2Ryag4SlxuIVrY8rgN//HmN/+helXYNExDFhp2FLouuurPKE8OjlVhplX3DxEBHDxKbi7ao+JIWdb/mUnX/l48rfs46QnhCgKMWzlqiALTCCjZHeeB/KrHjr4kkcQCeEoWd5mbH4DGTJacrH6Ck2OMmbCHidTrYVNVlH2GtMdu1xDo4b8Y6j9AH5JzfdySTj/n+EzoZ8dILyp5g/fV/emi3bt9dAASAwwuI7Jiy6AjGeL08JsGigWvxRFEfWTNfz40kddOKnH71nE4lQrhR32QZGORgRLr5Ed5zmMCp1Y3zhob87i0a/pO/0L6/v5M1tV5vSgwy4OGIfgmYWCUQbZbAL2apgaFiFHrJJl5y97j2f+tuje/aq5U//CvWsp5lZM1aChrAYm3gr1Tb8SXWZrGCnOgI3t3LBjdK+5i0OIi/VaTFe+idoa4qaZbNt72W5aKoHqJFO0V7FFLyiQA3ZvzMJtPghY/jAPAxYrDevp1AbwZsIJ38JvjJTRTJVeDK938oZPFeBoCMakVbSv3YLkV+txGXxZcj2VFXl+FMeMgPTqSp5SKqpjJ+SIO33qrtX/wnFooXoIdgNHy28e3egqMNWJuP8+ewwM7OOt1ZOc6f446mM0DpgU3a8dE/ZuMhSna81jtB1swdxNyDGbmN0JR/RVz8feyDAJPiJQACcAhOc9xEdyEWAhPTe0NalBIsZ01igxCIp5ZbTRkoqxtR+Dc1G4+bxzQvmNMEGCOAMmbqWMiU36hP02+AhJ4B3wEg3Ovf3Ba+LQZQOyPQW2Lpa54lryNIyXgoHzXIfUdQ76yOSkdcP+oaUpru4fPbVLj1BwDDQX69UUYVQDh4ikNMWQx64aehYArDtkKhSIYLvlY+gVB7tOC274dIlCcxFmcRJCq9pMoh4s2yJ4wy0IyUjoVAeubi8VMQDF4uCoMTRGu0RE16M4ISC+Rtr7gu4J73yTGbLW2iVnn8d578FaJX01PJEOeshwYXKt9RgsIf5bC6aUgQV7KL5q48UTGDygEJrVxvR8WmgnokPJa7w0Gt1AEVHopeczSdU4MEY2jo+a3KP7YdOWEPQRRI1kyxBPFvSw6imvIrelVLOOOrFuduZ4hiNFSyM622vQNsbnFbVICjKTldv8cA5eCjvB10mEb+O65awuE4w3jBsTO2KrJKd/x5h0wPWrtCcJ7ydnQ3XeXAWzjvCuGHu/eNBn3sN578WUdmsNS2+puHyuhJo2qciBLp8oQUvusVHnw9nA1dSr4B8ABg3laiozFe0t6hmrbTG+3jvmIguv5csKei103+nNomqSAntrxIp8CSI3IiGbBeiu2mZKhYYPvP3PI/RxWL7PxIz/kuu/bTEGlW51/cxh1+emaT8w7vdO15IBJjNU60RY0+zhYk/Vyj5WDkhdYPJaaxWaUGw9sMh3lRiW3o0jQsVkgTZZg4OJUy+Z28CPpdBEdNJHBAOOUAxCW6siWCWxHvL9gWh4gXL3bMCEMeVjmmMICe86anCpBC3BYupsb1wEEkD72jty6J6eH949RhmTG3nLoJg76iPa3lIfjhYcz5jY00NUioXBHzwvmHrUVpXcEYpQCjHDvYnJnnSndyRUQU+jMSvi5nOk/ltNpuQew5fudpSAF4EXdpYRbJMItWr/HnqGPHjY142GgsDlMxVfLVBOWP01csNvbCAVXxJDHfJkKfU3oXeSId8WPi7HQOzCfzEu3sMC4cmwKri0ha54txvTBS0q4+YpDY50Mww7BxggHrQjk4i19Qpefo8JPUjqogADnvvXrQubo89qwWplbrpfHV8IYF/Pi8ckMxvXSopPO6S1rfA2jsoziqGFODBEOntmRhEFvEwQ2GqRWLd0qINjZy0V6eXDxf8Z/BEuc9JYs+x0Ht7Hn5AzNyBlDCMAfyC+I/hOs/RA+x76Tebvhb1RSQpmWCAseJtSbc9PHUOiRQXdyf1JuP/ZAVtPll8uOWEC4GHyOIvuf2DejRMfbpwXFWoFyrMgN6MM1QQhnAYpASIIY/6HPgEQ/F65CWJA5obW2vLqht1eqW7VpX2oy0GNfduc9qi84jHzah5PYaWnicLVr6sbXa2Qu5lZ248KIcgZMpQWKGt1x4PkFuMyofJChdEFJBCEP+sQFiFhiIljiWJTZr1UFBkCDE1FX6oguOIMD3z0wyNC1+PSZDsSxVUDk1jM2jGsa0sksCkBLviWO8uy0niDdWSS9TrO06nqcGZzi5i+t4b3m8odkgKWIapLVvxO/0KODI43catbpEuFzRvU+/M/4pjY0Pqy/RA4/dRSBMGeHc25DX85Hz82PD6kYCenDPOjbOhpv3dtyol5IApDqE+iKoD+rYYzkeCEyXUtpG6LIVBMQhLM4RaUqQ2HEUX7hQuVefo4HbN2K8OgXZwHfkFwmnjvFhNhpGRC8Lobdj/bSV7ja1OKjNUc6aYzx+YqfMh6g7AlVYG8YHgIkDEM9/OZkUWhld5TTdxUQesBEaPdl5JTEv15kFpyU5SlQCcBbNH3bufHh/Xo8dKGgYyVKrEHMO0JbYwWZXaoMOdL9Fr9I/6cLifjAAfTzigD0WDxV6QaX4Qr3U0au+2Dna0rpOu3Kv1WDyXLbBg1mo3xidEu+4XkbCtwG8DM61rpacslw+Ok0JEoeWTs5foPS1V6pyOxsdgVkbqQAPwLjfcuzkfDyobqAQQZUC0uWiJbRff6WSa1a6Ro/94CmedQ8jKiNU2hMZyxGD1RuMnXiyqR6nRZcBCqGcFO/dwEY373NN1Ok3F2YuRcFpsOqoZEfT3oGrfTf2YB4JZolcq4yGsGNpgD/GFkh3tH9QT2avU3dxL+wcIX4PdPo+V3ysS4XaYvVlejWeJOihbSvKk6YeyhjABpS7xA6W2BLP0LWuaGGuorVE884GW+3I+pkSJJYkyW4297vqtWq99NvKP7QNa6SCVrTjzFr0yJc1WOZC2TqnigjyBtGHQO78FvV+6L1EZ2b4faZBQusLlITmZJjAMOtqZtDZHX8yyUPsSZhbo0cQ775I5Xm/T5jx8+hxWIHSRI5d9JPJqv7M4RcGoNBA40iIFAap7e5RggRW8O/E0A1pYOJezd7Mem3PXmxsUH43WYPEtWKHBfWEqozjTMww7uMGW8E2dAz+HFI3gQSxehsvjGgJGzxduahDi2wLU7DDlESkTQ0S7nHWKWKHdt78epV2/r0ye/s5Z6Huf1Y5Udu1qdMYz/EZV1u0wwoe2VxS3e99o1KXvJrSzLw+D1wKmbpbazoI0snsOQ3/gD0C98EYmEbJvY+Uk7uUToGt3O/SWPZ5aiP/sf+4DrOL9kd0blBm/u/SUXg1b3UmjajQfsPMJTdgZ2uawIJ6IXhVV5v6832EYiekGIOMtrGwPGxKQKvpJXY8D5le75Fo4i0zXNFRQyGmNUBPIE1T8N2TpvL2fZXy2l/MaxEzCDeAjMt6slrawZZJx6mbpiAJGzS2d6jtPe/V8MPPKXHrPWhF+xmMXuPVyLMF4M9Y2CjQHS+frRKrvTZSVOsNGzT/A7+K8UR2Hqmc4eSq8waK7gXacI1hR9TYPLI0fg/+pjEYh4rwdZhnUNt7aT56fMaTc8zf4EBxa6WXgNzD9mhXpusN1Na/p7d5Ps43nFmuyWAYR3bPDBcjOE4hM4AxTVku7MiyG8g8fe+lQebtjKMKEoQbbWereSrc6hRWVmxjGLx1x5n5HshE3tToKZTpMIzheT1AlO59zP0pFDFumbpx/dlduoC9BC8hCHMOe6QaeEPxAi+OLFlTkHi/mAQzzNKLVmrhf/iIdm7dq8zjm1A3bMlugiDQAs4QcWIGBp/2whK/eJTqWb9EPb/zYSVWnIsQMcp9daYT3UdeGia9IV7dhfNcj1jybHZ4YLdRb9oEXQkma5s877fj3wFTrhQ73ujWlgFCgR5dK6CIdd1Cr+zNGFXs2o3KSRlVEG9++JD/M57cfCJJ4DwqaiO/i7MprV7doWeH0rp9z0GmZPTpEHqilT1rKCFqwxIA/ruSkRolVEwRz2qZb5yqOgg4xomQvbwlo2sWzdO1SxZrHeDroEG0Ms8kHubYRDH0Q/zbwJUjpX3TqQJwFObAUsRfjQ0Zh++4U4c+8p80/tJeimSfSRXbA+bCdKsca2yf7+DX2Noe9f7f/0Gd73ibkmlad8Ku8HCZj5lLztGKJImuDjt5IY/d29fYA0xA+0PFRh5BRHt8iRGnYFMYFEhB1zblSnlGlxtm61lMLvoVNpm8CXCcDRI4z3t9WxL54l3S/Wb/nmmQhJn85BWmLpjXzteQMb3MlgtqFIHYD52bBkbp9Qxqc9+QtrHR5BA7n4+iQkrcm0FXdaRy4e9sBqovmj9flxJP9yxswxakTdJ/vLxkHFAI52NwBukT1JW7/G5kh1NTkNjOsEXtVmQpUEOnjf34J9r3u59T8YUdeMChnFQaxEDqQYcju8sMQsVXLteCD/+qet72dpoq/Xj227WYTxl0VNBMJxvLDrcfr0WyrESLT9vfUOunevtRF0xuYBRbhZ14NTchp3fzBwQY8q9m2Zm05XycBZdxv70ERjJ00tp8FDYy4Wdwx5sJdaBwMGPJOZkrYQYdmXpjJ+ft3OxtCr8wOoPMDirSfIRkOzlIoffr4nLsZ6LEk9S+pay3gfX+G4afr8dw2/teZ2pDOcxNAWBlWsDR6qUpSLyZkLdAL6G3kojlGCK5gp4vb9qi0W99n/64x2USGtuxXy2rFjO6CEGjReWuYz3OhtfQ1yKENZS4KCW6aQawDdoZTS4tf1FcU1gLMx3w19LEvoeoXUZgtvEXMdwPWVnyD8aE3XXrqsQSI9LNlo++B3rNWR5x67YkCdz11wylaMzLTjtzqp5clFCJNNKgSyPTOdASIOTRMHeRI0nqp/x0UBYGs+0VpFJ0v0vtAgTiOeUus2Fj/vg9XKPc4Q3RLRxHqTlIeDaF547uemCSP6KAsTbeIlTam1qxOEed1Ijoa2LM2hhiPPREqRi784Oo5jV1OuskzMCXy8drLD08Tu3phpYC0RRE51pnPNd9X8RK6PAP/sK4GNd8viH2eYhrE0+G5zy9z6z2WbfoGU282m+3RAicCuCObC1Hua6Twx2+i1/1L38HSvzbqX7J34Hc6Gx0ftK9FTaFcmfaQ1y0KYpq0NCY/SO8sPGg32OuTJEC67BJAmO509P1/JZAQJ0gH0eIjN4ejEifM6HcHV3j24WNbpkix5O9VDdEXYkuaIOLR+Rn2p0aJ6OyROcmf5pip0Y5/SuCfjgXrs3wR5008yzi12TaInojieh8G/RPoqH+/MQZ3zLxCr8xusFwc9OOJEfILLwuagDHLl1TkExkOnfwM8uBSQrwZ5YHcwVvwoE5kDRh0NzlYGjMsWGOA1NzYE6STM2fuatwYA4kczBoyoE5kDRl0dwNcyCZw0BTDsyBpCmL5m6YA8kcBppyYA4kTVk0d8McSOYw0JQDcyBpyqK5G5qCxGPEYZy4/h0GhD2g6LkO0QcHDDN7Cle40UsqvVSoPizfeIGfD1c8JD2bifFPh58I80jI10SEPxfAo9sTJzjyb86YZiZPVXgmmh/LHBRmfYX7G7eHO8/sD88aDEWqFzXUiMvsMpxAagqSsM6EF1YNBEJKhYVAzJlk3SN5Mf8ijFozNM8SwxJzK2thLSrzLZg8wzIPGM4NzCXwZOPA+zAx5QQoPOVbPSzuiZWePFx/mWn27LgwQy4UgBPR3JiqV8l5PoP/823shwe51yvwvT7mX0ua2G6e2YQxyuWpo2GxWmjM0y9F06kCZqyBYUhGk3g84caZmZkwzBNp3QaZNhjCNHDsZzyjw1GEqsx2qniRA/dFkQlmfh2tszpuatQpREc0e4a/SwN5XIvmdhoQ0RssRfznObAUZSLly6wITBPAJzA4IGji2pl6YFJjNGxmvhLyxk3Fc9G8wO7oWaxTl+Do6YwvvztMMrIKYbYXKczgN484H2eKWqHCvHlmNSXDHvMsIhrtV2smS0yuLIvoMuF+r/uIWqqhzGFz+eWsZiZBa1TXtCSvvgss8nTKUAgKEmUTFvz5FGgJ4DdYfJEZ0mOscGMVg5JIStDOTW4C9QdnhsrT8xZm27mRxitDavFKP8IV1JjPW2Xh14mkptVlVtVqXhjkozyLe3YyO3s7RwSUio/qxb136JkXvqpxFkH1Dz6njU99VoPj+wi7RAgm1r6MVTYzi3sYllqCNMfkiRA/nXsNkAgkFNWqjuURng7o9Tae72o7JFw/ihOeXVcDVAf379KOH9yl57//I40NDnJvmJg5naxf8Xss6KsxAu+MPazytg+psvMTihXuoy68qjHiynSInEatWaf7nW5BVe08+FNt3f8DdXbP1+J5V6m/sk2PP/93SrFkYuuuu7Rv4AldcOG79cL+z6u/b7M6U8u0/qz3KJ1ieWeSibd+zXQom7F7zAz+PNmWVKX2KyhnVqdACBOPg0zxsnZaF4RFIprJfSzcqg2P6id/9Gfa9L27NEZ8lXd85v/SBW9+PVCf3RIEwk/iw/aTpQfLGFSZz6KQsfuUKXQrlTkHibiYN05PokwDJJYkZIYh6gjDna3nMOH5bv302b/WkjX3wsgW9bFM4f7nPq+B0QNqae/U/Ts+pT39W5UrLdHSlVexaLs12DVVzwTHTrFtMlvJEPc/V34VcIxrWNsOPKs9g9vVnurUynnr1NE2D3IACiv/jCdDoIpqee4n/6L7iVs7vH2v1lx/WVh+mXQZZo/8U2JTNKkZYzt9oZId70Zm/p4KpXsIJPQs9UCZj7Os8+hMmxqu1uFwNyxXSFgGEwZhsLZTD+78su4b/gtli4S0eWmI9Theo8oi5V4iFC5OqLd6jq5f8gktmnclC5dz0Ux6Hg9tMHwcTcrp+W0TyIoy4Wgt5bT2x0b1mX96m14c3qJUIaWlLQt13trLdMO579FZXatYXN3J0tCSXrjrx/qHP/gfWtg7Xwsvv1gb3ni9upedpXQngWMoxVHa6fQQf6pvRZ16xWFYq1DZT4P+JEtff6BUC7uHdH6WMnhxS11OMHncUp7KflnpmkoSLxkKbZE3mOEFQlF3jCzT5T3vZgH5NgKsfE9ji6Sh0bzSLWyVhJF39taVumH9e7Use6kSBYKlYLc6XKfX4lqnz64ksboxOpES5J+CacuQHg/tvF2lYkLbn9ump158TD9++Af6+Dv/q9Zlr9HY5l267c+/oq6F8/T6T/225q8APMkcZXAkBaf6O8PxGfyBinW7TvERKx2A+vFAf6V8uzIVghXHl0N8JBa9ctAYOamoAu7gpm3xW6dj3CeHD6ry0KMqfuWfddGjO9U+nFTf6naNeakLq/l6dsW0fFNKuYu+r4Grdqj17dcTTQBxh2gn7BddSCgJiJ0d5hrgTkVaCtpS7awF+sXz36fHt/5QWzc/p+KBiga3FlVY8KL+OPmb+tz1t+qJr34NQBd04yc+oZ5zVmNyA3QH9PG76AaF7UNmh/xTywVyHWU3ln+Q+K+fVL7yjMp5QoKwRjvW+qe8+5PEZ+sC8uYSIiBIE/cAj9SniU+TpqLE8QMq7uJSuZUdezT2P76kl/6Pzyn/xDOq7t+njsG0FrwY1/Lns1q8NadFB9Is1CqrsGePRjY+qcH7HlMnIrpy3mprfZDUqLapcp25a8ZkMEhcwfw3DVnQQkBJbdu9ibiBw+hsgnuN0hsbrWj06RdYQrxLV33017Xy8ssBCIbfxEL3uk/WjcYvO6MTtNowL+1VpfifVRl9DJWPw5MllvueI6BNx2YliMEVSxHfhFV+XuhnkFTo0QUjflLZmoKEJbwAhEWBRMk99Pm/1cBnvwQ2h0GfV5da+DpgTUWl5SytbCOU07A316gqtYb+eZaexLYDKjz4vFouI678kqVR4LtZ5K/tEVPosC4xeizeDCnFmtezFlygaveYdonufHWEmHkZQjqwq8ODg7r5/R/WhW96i9L27wDqsHTVJYVuPx9cRwDlTE8ud6z0dxod/AdK71WWRH1A6x7aCU9YYJ5btBWoX4IPaFlUFAxZh6DwiuPJqalN4savQkGxx57R+HfvQqsdUup8gh4MF1XcYdRZOBH5aDtReXi5+y4eyBnb4hAQkXdzZM9OZf/8y8pdfiFc9oLsI4ngxGlLYaUa3tPIiwq1GHMxgsp1ZTK6adWHtLL1Aj27+jFidnRp99/cowVL5+tVb7kJZyD3Rm0g7OgQgc2Uzx7tp8YUmjBx9AvjX2ZkBaeanZ2oyhSbQ7AVkfL9BLipjDDU8D1lkxvom7SFknlDpVDuSZmbDVMmL1p32KTCxmdVfmQHMqKm8R3Edt0RFBHPRgaPwWL3e+slUew+B5M1RIxgMKzhb96vCn6HMJYzZY4ze9GValsi7AMTfCVQSmuxr2NR+zL9wtp36f1Xf1y/vPJDyj1S0es+8CGlOlppXRh9lN2PBMcbZAVvrMk743GCkkVqVvN/iw2yDTVDLwcTIAyb0GC8U4jrJM65SvF57iWyJjyxanZ9HZ2agiTh0VBCTVe3blOhyu4IvKRl2CGnosB5ugAbhLOAk29UzuBYkC4W714pn0KnZ69ow0M7rPFtuxF/6K/ZTNYRrm1SVLc20TDm6qN9rIWnRWV1/5e+qvbeBZq3YQ132ohz9Cb/c+miMW2zz/e7sc1q8uioM+XLNEyMsJsITpSpZF8Og6gOE8JfpWwj9RucrxCSk6Xh/LmBE9TRm4ig9m2A04QcfiNEn3JjoqzH8J00BUmMcBHx4TEVhkcAghlmeeG+tI/aNLw5khQeRnL0o6GtI5ASD257bkE9FZXfPApU0ioc6m/UlC/NUjL7iHgAKIp0f/MFpGAen8koEC6gEgkPlRnPa/N992vZFRfiYDPco0SkMQBPSRm/SSBOYwUYbhbMdiKArxd0GwSGuFt7BHLvAkIdE6UpspPAjA8I21kc/28qFvYhNYi4yCnf4GEn9oUiUB+DJN5rjRAGceLAhri3LpPtLPI5OjWxSdya2NkBA7SAskqu6FDrki6N37efKidmCRHS0oSdMAYhk3PGosUW+i6cxYrm+dqhyKHTjl4Mxt/RVJzW3y44jj7KHj+4R+l7HlThvoc0lGJs9Jy1aiHY33hrSjtGhvXuW95Ho8JZ5lZH8/HQuj3NRUJpu+teoZWFmP/mI6+dreSgwwlvC+dKdMx4A9XdTXOc3ki0547VBxfKu+jB/He2E7xHKcdCwxdUce+DaEmOuDh6iFA/Y7gpLuLWPAOxXYQpCzsXWShZZrgGbTwcTk1A4uFlNs9ha67s0gXKDzH0PzoSXuFQnQaHw6rYl+LB59zajIafH+TtxrujvjqGGvZMAE1WqZUrMKCO7mBxw2lNMNaTQtgarvLnX9Tw//y69YsS/cyH6c5p/OI1GlixUOeX8+p44kmNt2xibAMJsvws1RYswsjNBLnpKrG4DnykfLOZvMOXAWGZHUMa2pIO6oWzcSRk3IZTZQ8CcyMAuRWv6gNgiK69iWb42pMDklYtjP7mD9BQ2bsn00PwMPbOySSuoWB2FHIrc4ReHucIdnFt6oTzKUaoytj5K1Vq7aBHMxAkhrmVfHVWlRcwiAiF5VflC1HvxvIksYYu8gjd4b3+lVT2otWqLl1OIZtquKnpOcGr5lMsnlfx69+W/r9/VHloCPha2kHHoRHlf/RYmATxpiU5FYkFVzVTuxlrupKxmvfcrNpFFxHGu9XwoDUbJLNLv4sbVItxAhgstz0OZZwGbhOntlK8T9XCd1Qq382oyR5sEC5aZHNjlTCOCUKCO+Z8MZ/S8MGYFqwgeqlVZ8taJCd+Ejd2305Nxdjbx++enKYBEl5BhL+2yy7RyKpViu/YB+ocagrjdQd6fdAqBYMV6yO13ZIlqoLaFvR+SO5bxNX6jp+DELILkJ1Mwuk9rjEBprZ9t0p3/ItiewaBayTlLFwMFROUNoh3E62Q7n2SVltN7Fdpx0HF9x9Sy+/9jrT8PGKYuRQkGH8s17Uvna4U6MTRBcFkj9qxLqzuJszZRjYP+BG9mMfxdu+APuQ74AjbrSDGHbc14dBJdqrhAzq4FVuSKuhaSvgyNi9obf0wUunwoObxZEbzZpEACIi39LIV6rn2Muhsha1mNG5qdvA0YKxW6lG3OLJX0rAxHN3HIfboiiXqeuPPE/aa4jbPcWZ5TTTk2IOPK7VzJ3RFfTJvweKYYZh05OWy4AwMShEbDPFdI0ZcjIHM4h0bVdv0vIqIZ5sACccBczMOTXlmyZz6bSh1/DtYpNhIDKYWv6v8yKeVH/0Dtq/9FvsKbuE80tyqxxOrmAVYSQEYei1oEIZE2DuY2McDL7Gp0iouU5/dmeuYQnBNAJWbiucpOyhyqMyjiGlaZdXQJaL10JIyv/Z2ZTacT/xQ3r/Be/FZgwGKDqIqriHCIsc+l70uB/vtYrPhG9f8D75P6ZXrMaCoHMfAnsXkzZNLe3epOMrODNBmo8weYksQQ9ii1qrH+wc60a5IZjRx1xnnKD/1LOKaJ/0Iet3qJpgI4b7Z+fCEbGQBNgcTuIY/qvHhj9NLuZ163Ul3lrkxqEgLaGCMfRIdl6A/hCEFIJXxFu18qKoFy7ExFzju60pi1P5HiuL9mqkxihXmQfjgGLqlKUjMVu9AFUPP1eZ1a97vfUDlRfOJxojRB2MNk8QYpisToM1HdlFR4cfepc9VElf369j98vWvVYx9+EKUw2P0w12805XM3jh+HrZ3wYj2fFub0Z6MmYZWwyHyOkRz1CJt6OMUdVKgNeQPDQMS2jC9u6qREpqduTpbCfqpvHjxEQ0NvA+w341q6aNXyag7kTBzACiD48wotlfHXTIHJk7hBbU0ybHV1qY7impnL+Cu8zlf6VSm/bPgaYlFCoVolKXx/fJyTQMkMAiu1hgcSjN3NXvdFWq95SbVNlpU2yiltTH/IvWCDUIrGceCrrKPApLkrLPU+pvvUvLclfRqKAyPREE6X07I6TpjoHpOp3tVptVeEEs8bxttSdJgQOPbPYgEatH6JUa/uX3ZMo6jGXW0lEBmwMnpIvhl7yW3yi4MzQ8rS/cWawKbA8sKSeHdJyo0zjJ2h+PLZzE640zPtA0Sz+LP2hfTI9+Pq+ucmla+2u+Zz6bXn6Aur+YeutLTTMcQLkc9CV/QEgCVA8RaLNGmBR//oGqAYuxr/xycZZY2tlM8dlOifXrUJqEF6v7gO9R2/VXB8PXEhhKtMW2j5PigPSrzGfgJQBKLmarX7iDAB9HqVoOGtzvpFgyucvcZTJRLgc+nDVMWOstZtm248Fxutt/Hz0QAi+7lx2wkG8qjX0Os4f9AcngXsjJSw0o77j14aMExuiYVXO9l6sgdsBJe9gECdlf6alq2HvtjeTtq6WylWt9PT/oXkejWANOvhKYgKeKpS7tLBSH+sv5Lt89X7+9/hE2j2an79vsABQ6zRVlEMq1wl51qLer67RuVev9bVW5vCwafbb54vSXOBm8becSgN75hvTLMMBtnxDeNovEMVyLJ88+QiKShpYsHJLPEYE/x58D98WtepTKz0dzjiYxVz95qAKqRw+n9NoQfvu0BLVpdoutKJzUPYOm1VOzcdNYY1UVsJ/vb7U0d6QcwMJs9BtR5CSBio6NK7AolWn+VuSPXUsLpS5BGyZqCJO3+NsyMBC1HXntAK4svXqSuz3yUHgu2xnfuwnNNO6O7SWdZXR97l3p+852qLlgYKiJc4jVsZReA1hDtDSJO57c3PdCqFYrddINqL9LD2TOuNB7k1DBMJWM7Ai0jLPtaehHXjKV7X4vCysXKvOPNAVyWHzbgaQOkyPydPXGIl3Ts1XrwgY36pfNGNc5Ed29N7M0SivxVmOhVHEcuwvs0KqZ9Hm5NysCKFtXsB0neoGTu9YBpLbRHZrk7Z8b9dFNTkLibbQnid9qpY9Ovgks7Rv86x4yz+Z/+LQ325jTwjbtUa29V7x++R63vfasqi5bSAumnuyZISQwqG65hXxb3EmYtAfAM2zP9ytvUzdjRwJ/8vcZxMCXZpCkBgJJ0/VLYK+4JxNhqBdcUO4hn1H3zzyt21ZU4I5kWEQph33IDGoePZqMYr/rFX9YLT++gor8dfB/uutv55Q0U4rm4eroAML9rqFZR1lhqPd3e17HG5ufg+UrqrotKhP8e1wEhUSOdfh1MYyL08dngORpigMxLD4b3HwDB7OE2vxc3Pt2qJKidPh3Hz+QUr9jm8NgGTY/RRnbA/OHdGvjCV6RHnmGeJ3NgKEKFjedGsgjiYRTOUtTLR39Z6be/ib0JPKOcQpxIsztFel/+OCqGIX0MDBxiT6mUvw/p8QROMvbeYyihytyYWLwbs2kV4Dhf8cw6DPWzgdGCoD6jcZhTk92nDJKGAVRl1nzcSAbSoZ29ooydxGqrR+rZfoOUdTdd4OoYk4I3Pqrag0+rtmMvDqkx1dowUi89X6lr/o1iK9Yg+tDdOJ3OhBQGJ41Vk19jsRUz/sPev6xCUNwLrUwnx2Gyt/0+ltqeyxOpl1MtwymBJGRuaRKhIvrJj7Dg+lQpm6nnoc1WRzCc+bbPI2J25CEpIYLd00khbSwZS6z39fobb8F2xpTDkrDhqjbxjAjbfBDk/XoAAAGASURBVC7T5Q17IZtX0GsHRPTPJ0gzhPFTAklQNxO0mCILd2g7U6RIoCjY0wHItmEpMMe0NY7NaIPBtnngPfe7AL7mdGpCOnrHzHzaiYeUDsz1G/kdoO9zdSrN/oneo6V5Q8b7/lNLTQ3XqV4fwYI7AIXp90cAiCviDAGKaYwK6dZ4mK64rfF6Mu1BuvBt4y7y+vj6mQETj5OZ3Ia9fxgAVin1cjQKYJpdIKfDRYx+n+TnKUkSE4OQDsSY/3YfB7o8kaFRopMkbKYeC7INcW2PSBgW8ItNnhujMUDrK0G3Df8wYjoZF5OP/dwrlaxuJkBgDtvuiLAQye7DeIjUja86zQxKThEkEYlGeRDdposCBWf3zNDnN55aqvMrCA6OA3sDvXU9PwFsflOKSh3c0Sj2GVKIiTrnwK0xoNvk+hgaJ5MZjt107Sq04Tr5Ij9PIp0aSE4iw7lH/vVx4EwRqP/6OPczRPEcSH6GKvtkizoHkpPl3M/Qc3Mg+Rmq7JMt6v8PnddAZTmvEzkAAAAASUVORK5CYII=;shadow=0;" parent="1" vertex="1">
                    <mxGeometry x="50" y="488" width="137" height="124" as="geometry"/>
                </mxCell>
                <mxCell id="16" value="" style="edgeStyle=none;html=1;" parent="1" source="6" target="15" edge="1">
                    <mxGeometry relative="1" as="geometry"/>
                </mxCell>
                <mxCell id="6" value="" style="sketch=0;aspect=fixed;html=1;points=[];align=center;image;fontSize=12;image=img/lib/mscae/Cognitive_Services.svg;shadow=0;" parent="1" vertex="1">
                    <mxGeometry x="540" y="532.5" width="50" height="30" as="geometry"/>
                </mxCell>
                <mxCell id="12" value="" style="edgeStyle=none;html=1;" parent="1" source="7" target="9" edge="1">
                    <mxGeometry relative="1" as="geometry"/>
                </mxCell>
                <mxCell id="7" value="" style="sketch=0;aspect=fixed;html=1;points=[];align=center;image;fontSize=12;image=img/lib/mscae/Person.svg;shadow=0;" parent="1" vertex="1">
                    <mxGeometry x="240" y="525" width="37" height="50" as="geometry"/>
                </mxCell>
                <mxCell id="14" value="" style="edgeStyle=none;html=1;" parent="1" source="9" target="6" edge="1">
                    <mxGeometry relative="1" as="geometry"/>
                </mxCell>
                <mxCell id="62" style="edgeStyle=orthogonalEdgeStyle;html=1;exitX=1;exitY=0.25;exitDx=0;exitDy=0;" edge="1" parent="1" source="9" target="61">
                    <mxGeometry relative="1" as="geometry"/>
                </mxCell>
                <mxCell id="9" value="" style="shape=image;verticalLabelPosition=bottom;verticalAlign=top;imageAspect=0;aspect=fixed;image=data:image/png,iVBORw0KGgoAAAANSUhEUgAAAIkAAAB8CAYAAABde5NjAAABQ2lDQ1BJQ0MgUHJvZmlsZQAAKJFjYGASSSwoyGFhYGDIzSspCnJ3UoiIjFJgf8bAyCDMIMjAymCVmFxc4BgQ4ANUwgCjUcG3a0DVQHBZF2RWXSC38XPz4l9xSROTlxomsWKqRwFcKanFyUD6DxCnJhcUlTAwMKYA2crlJQUgdgeQLVIEdBSQPQfEToewN4DYSRD2EbCakCBnIPsGkC2QnJEINIPxBZCtk4Qkno7EhtoLAtzB/n6RCiFhChFhBFxLBihJrSgB0c75BZVFmekZJQqOwFBKVfDMS9bTUTAyMDJiYACFOUT150xwWDJmiCDEcuUZGCzvMDAw/UWIxVUwMKwHhodEBEJM246BQQwYXtuvFyQWJcIdwPiNpTjN2AjClowHelf2//+XwPDh62Jg+Cv2//8P+///f79lYGCbwsAwxRwAF9pckZ/eqHMAAAA4ZVhJZk1NACoAAAAIAAGHaQAEAAAAAQAAABoAAAAAAAKgAgAEAAAAAQAAAImgAwAEAAAAAQAAAHwAAAAAhzQfzAAAQABJREFUeAHtvQmc3Fd15/urvar3RbssWatt2bIxlm3MeIkdHLPFGIeBhN0hkwm8ABmS94E38yDDYxKSDy+ZycyETCYkLyQQEjYTEhaDbcB2bCzvuy1ZsmXtW6v37trrfX/3X9VqyVJXS2q1lQ99pa7613+75577u+ece+6958ZqUVIjxWIxcUr+dqrVqhzH+Za44g+O+Ygu1x/jPCdi/qrfo6pP+YlJ7/Jl/z7y4XA2XKnn28j/6O/GjY3z/l2tVhWPx8O3aT5M9+F8A/HkWYPAGLRXnU+chzkOxYhV+OG/dCA/lNXXI+rDt1TmWfjgJ8wbs8Llm0SznzhW/o17fN3p6N/R2eizUZ5j3RNxefLdPo7OBj6Hn/WKiUiE2lARXKmf9z0nmGIQE6r2uM/VzDwqgUzigZFkWkmpmqwoXkuExyowuaaEklSYuV+KVZXi7jMjUbwqDOJ/FfoDzWZgoDkeQBODXoVypiKS+R3YAiiABiUzB8wHWB6KZV6cPNNPlC9uqFUAaQpS5Gty3SIrBj0USslwzRCOVxPhei1Bud2Y4+PhumouW1SLAVgG+jRTstl95RiVT34xFVWtpBXjiUBktahisU+1+C6lK0la0EJV0u0wt1MpmHumYMRsrARyYGAd1JYaMY7dOqqAJVatqFKE3UMVDfaVVBiB7ZmUsl1ltfYmVUvGlEwDlVgpVIK5MbvlMzJdwREgnLmleZWKqFQpV7mokdKgXty3Ub1tZ2tRx2olkK7xMsCoZRVPQC/kmxduHJafdRnarPrD9aYgSarE292WjES3ygpSpKpD+/5GO7feru7ePs1rQdilVirZ8XplMzdDUHZamc/GTQZCEMVuVf4Bs+FQkBRmu2h5I9tjevHeirY9PqqR/nEVxmFwKqmWDmnxeUktvyqpxRcCFHhQA3FuKLOZqFcqnT+3/gp/HFepl9H8QT389Pe0sGutiokh3Xr3f9Gr19ygqy+8RS9ue1r9wwd1zaX/FiXaFWrPwEAm8S8ZpON0yzB1ca2JxioqP/cgrYnjc9YrmapqtO8zyhXu0Pi+EY3sHFL7Oaib7NMaz9+reNsLSvd+lPxb+XMLeGWTraKgRAJAAActzGK7poKS+Zi23l/SxlvHdPAZWuVgQdUiqtTgQWogNrT3oXFtvSOl9W+SNrxtvqodtEfEPDCatYLVqKVGjrU4JbJ2TBiwSd23+XYNj39NrZ0t6svv0WCpT9++/0t6atdPdeMlv4L0BBAUp4Y6NURsOKiGRIoHrkyrDFPbJICkODKi1Jf+RJVv/1DJW96t0pVlFcpf1ku7rtW89i5VU99UPP+0EilaGLZKvKVF7Yv/Tsn2q2G0JdArnWCKDQm+lKD9BYuVw4L0wu013fM3B5CIBTCRhYnob8BUq+a4GTAk8qrls8q10Pa6pQtuyumaD3YEQRla9SwVDbgatpAfFIYqtp+w/8qlojYNPaHPffHXVM2MKpEYVS4+X6XxhNace6l+48pPqqd1DbqThgHgrWDjts9sDkwfI0p8mnTcsiLeEomMCi29OvTYI6p+6+tqWfQjbaxcoT/83f165KlRXX/DVcpmN6IbC5CAmVfEOMwBrNabzhCQUDqrGnMZ3gSNXClq4NmE7v3KgHY+OqK4bS3AUzXz4yinalnlfElp7i+XKxqlTGkeHjxQVrK1pgWr0jQKv3B2UkJj5A4xpbiGKsPaNPiQ/mXrt/Wjp76pnbuf1KGRPajIPJqoX6NxzAGM1EXJJSr3tmpf8SW1tLUoE89iW6JwAIythxm1SZSEWeecLf27j2jrl/6blvfco6VLRrTugjatPXeNUskBVYfd+mBYrAUmF2DwPgAThDbfTm4Bs8fUkGX9I+Rfx0hEEUAZLWnLvWVteRwLlVYVrxVBA0BANJvKIvp+3Zs7dMlbW2iVNd31xQH13e9batr844JWrG/VvPNms0zwlYIU0iU9u+0+fffO/609B7ZoNOluOZdq44HbsUoHjSBBecrauu0hbdr9iDqLSb323Dfq5rd8XLH0vCBQLZkyk5nU5Hhqm8QPuxeQyar3qqvVsapHxfHfUG/yfv3up39O5dozGu//CdSPq4ytmobYGgowHj8rZGuTxr4J+xjcBZuAycRBuO20foTsJ+WXrJXUvy+nTXcMKj6CRKiUaHllFVNpbPKKkoWYWlZmdNm7c1p+GWVByvQs6tSfvXMIlVTU7ifL2v10Sb1r8KnQ6wnvr5cgKuuJtdLpFD7qupfoNWa0ani+brwTqfbwmPZ0VDXcGdP+hVU9/hqr+3atfaqmFS9axea1YldSHQPjSl/woLRos6pXzwNAuCfqKnc6efue5iCBwbEqFYy0a1m4XJmRm7Vv7x9L47ehG8vYQPxhTKUtskFFLZ5Wpu0ajsGqnzVSeNhQiToYRQQnDJ61FCEk+D1Qn3aIDR+s6cDuAVRkLipbAj9DuYZ6wbQrW3dzH7rbwrFapdsrbBREeQ2jtjRYUd92pOVYWql2DHbsLhvHLpz/cTDjJbOvJkV3NtF3UMm//aHmf/0FzS+XtBQKW7j23WulfCaj195V1HW3VTWvv4akcDmSykN98q49GvjsF9T56W7lXrUKc4DKPAGjpDlIYKp7XuHGFIS2vUMd3Y+pcPC72IMFpIb9ELjSAEyqDDBa29E6r+VaBAZjJHC7wbrYCVhMjWdO8Tuqtqgia4BgsA+9nbdkK0I7VQv9SeiyrySVLmtgd1xP3zam9nibCmPSnV/doRj3Z7I4CpE8QzxfHKkAEpxuVIULGFxuzsjMmuFkgKMNNfqdO9T3R9+kX9ZP1QfXmTME2DH93B0VveEbRc2jAWLCco+hZVuqDHUFHfrB/aqt+ZoySz6g+LKlfmzaqSlIQh0jU+O2rKtZejNL1drzKWWSl2l0+J9h9iYlygdQ9BQEjGQ6PsA9KylCTCV0fRymxd3LCTXljpwdQrMMlHrlmS+xQAsWUxk2U64Kkq9Wc3vDnLJBhw2WqLXq4a+VtPXHh1REbI/3xdXWjpS01LQ4DKUzOAAbnz46nSmFQR3vH9Wh3/9r2HiQ/OzrCBRrCBqu/xcEO3aU7YxR7sDs5tPXKzgiSurKJjSYH9Hgl7+n9tddobalCykCdTBNQPtNUyb7E1zhsbj71nS7QHUps1ax+UiUhZ9RquUcGIvBl8S/UMAnEW9VovioEngAU9goCXtqA9HQZAbbCzibiSzNC6sCSzXT0tGFasyUUDdccPe4hvoDNIqVVSplcFwV0dtFDe6XhvfFOU4DeECCEzHOcUt7RqksLZjnEULh3aFIHDcb5TjhoptobKXCj+7SwEsvUeXmp8vhrgHihW9Kg9qxcnEnF7uKK75mqIygKvP5MnVYUpICFe7GPhlAPPq900xNJUkMpsTcNYQUjxUkYV5VWRULi3D7fg/d/CTDAxAxjOYei6vQ//9otDujWOd6tXX8kpJtb1I8e1awRyiLOTq7yZVLjuGPvOMYm+290vzFHTqwk25jEYcJV602zFolGFqojgIGxDmgyOB5TeDyLIRuMq2VjkbvsoRSHbwsAbhcY261ZGD3w+lI1VJZB+68B67bz5rgn6VXVCpkTJAmztqN2f0zW0kMJgATN4kcHegSnxXsk7KGH3lCuQODynVgFkyT3qYgCYVulB5J4haZLMHSxPMaHPgyramIwymj5DDcwiubwqeggSIN8wEdqDylbPkeWu4naLlrGWuAfLrJx8aJC+107KvRtak/Q+Pw4z4IohQVGbof0TurqMzyaEIvPnVAo6MIaHS5WWofbJxxkCpioYz0Qz7guIoBkBKvynDfeBj/sDm16LyKlp7ney3wqRYzOgDFtDXK4OOZS/j0lHzqJV7oKk/ZkiInU2mIxNTBJ5Ry3uW0PeJ6qtKsbbcwFsV9OY4y/NX2A5Ahd/1N9PQUZVMsBcsdhltTRPa+D/jLb1F5+DGYSAnGII/xjhJMNp5qJQgYoMczPKzK3ttU3vundDc3B9Fshh5u2w1GRq3ipJlsUET//QVwEcbOhx8RuzhJASpI2ce/Kd3zv8Y0coAyuHuP8yl8c7N7PnHus1RxJSBKVMA4x5qlYcSU7U5o9fWt6l1rleTqqSdzkT9Dzv9mNFGGGCpxaHSILFyx/vOnv02DDYKonG7xlh+GhiEU3WkbxSoetcn5arEaQOY7p5uaShJnZyvZLc7GkP9iqJyR4hbyKcFYsi7Zywcp8CdeRhTjK8mOIxo5rqLnC6PfR8x3K19tV7ayUInuD1Byjxw3kHyKjOXxqmnhuwZDE35v4JAJghWAJj8obfzqqB79BiXABll6fgZ1A20DXPcIGgLaUyDiCOWArjgCm+cyvC+ZKivd064LfiGudb+AisHrakjMVjKQ07ksRqlrwimq4EiuH7+yG7XmOxjn5qkkEhGJk0oEOya8ahofZmGTBDPMD//ZnxtECqTC0yoV7aF2vGgYR1zHj12gS5mAuaGXXkC9INJrlbxGBr+ikT1/qvzAV6kDPJyhFicXsJEJl04whbcEMgOEgxSxOqglYA1qZHQspo1/268nvtavfHlUV7w/p4vfnFIuE3VgawCiArBjGdhOuWJ4MqvJMVQJtFOmGjbMhndl9Jp35hiXwkC0tTpbyWzBjkotX8yBG6mtw0hR2DCdmpLQQoLPxPfSjMRgjtJIxlCfvGc6qbkkgYqoxddxaaKRKrn0+YgtiLAq6oG5u6j2PUllFuDU5pkCvaEcfeIUIKkCilo5j6QhO/eEYH6kzMPLQsO1FDj5RAUHAPMGjIQy2QSWoHMKh+L66VdGtfk7eFbxkbzhYx3qWpHU7X80oBGuYZfS4cKb2ZrWvPlVwIz3dczu47K6F6e17OKaNrxxkTJLa8p2Yoe4d2beT6N5nXx5jnyylkmGruvQP/6IcjXkRwRwCszNx4aKDViDo5M/j4W7vtrWr1Wqp5PBy4YUPzKvY/1qCpLJiIvqMRJbydir6ApepeLAnWEgIInFP7q1pq4cd+FTSDHvoYpXsAogyum00gwsjbrL2HkDRqJ15Cmh4hhliWqN6S42JQLbagM5Pf2Ngp75e7q2/HvTxxZq6RUZff3De3VwO2ZftqS116W07vpuxbE3zl6BkTpa0yAeyxy+ha5OqMT5gNsE4Lm1WJIeI+vTeYrWU6Jhdbzl5/XCRz5P82SiV/gX9WTcFT5ecic4ZZGPqmFiBL861HH1a1SZ30UdTJ//02gPkfkTLNKJ9/JYqhep8UnmV1yqcrVV5SU0rstKGqbbiF8tYiiTkQrzqaCOcY1Xk0p3X6bWtlu4aMInXhZsiUj91PPi6okml7lmu4R69GS+2GBGj30rr3tv3a1ErqzX/3a32i5I6hu/PqT+F7mOLyRr8yKZ0fJVrVpzfpbhhJjaFsTpvSTUvZLuYw/9hK4hBKc9l4h83m8Jhdg6UfJO6f6MHV/dC7Xg028nf09jcLVZpU/NL5u1KaDBRAi6wUjKt16r5OUXIcytbg7zvxlxTSWJX2XkhleGyo/0YgxjqpJbr5Yln8LO+HNVRh5TMX2QQcCyKnl8KhYWSI9YMqG2xAJGIC9Vbt4nKB/TvUIhJxMZXhxy4uOkklsUHQ6I9RgnLByI69m7+gFCuy67BbXXk9Dtvz+kA3ssdGOad3ZW63+egctVYKALduNyNwAwU/l2splnuHHGrthQH7jyJxgRbpqdD6Qj3jt1/vubFXvgGQ1+j0lgVLuN0clcPNzwohL4GpMXNUg5Wi9epwXvf4uSK5dN2OnTJb45SLDugxGIgepZTh74CjPo6NVgT1H51yqx8HwdevLzGtt/h3resAY3Pb6GZFYjW3dpBJf2WZe9S8mut2Kb9NSZfGTRDhfu6PPTK0bUsLGNsEfc9TOLKhjYibakNryOFnRWRnfT7d37NP4BBumS7Qn1npfWhve1KtVmZDWSkd2gJtLZ9JWii5NvO6pqohtO46cnNZPii1dq/n/+KF7hP9Xo7Q9A2dCELKk340lE+Iy7xxml161T7//575S+8RoKR5VP8h1NeuC4h01BYgeTjXm3KD5C8kz5aolJRgMlje3brRTKe//GFBb4ryiNhzUIuP68YoUt6n/kMXWu2qDunhaVg+eJ+Sl+1wwnM8Q9KtwZ8CCvZG9cV97SLqa26Cd/OaSDz8I0/CDLr2jV2quxnS7MKUxAm2E6TsvrzH9qym735AXnq/sPPqbk+f+ooW/cofiufZTb/RbLUhu1big2WQ3uTuXedoVyv36TWv7N5UhDlA9+iqaVflQhmt4fGUk4ZNxK3SWkx5CkpzL404e199EndZAZay1LF6FuhrX29W+iy7talYGDeu4vvqBDTz3JDPRxLbziEDq+RZ5wXrPRenIC4yjSD//0DPAgPpB6NRCNp0aJlmJg1T3/MKK+5zimV5Ii77aemi69GR8lEuQE1PLhzF6JIwi1tktVGD9ryar91ReqfeF89V5/lUZuu1N9jz6l6rN7lOjHW2jr6cIF6rhwtea98Q2KbThP1fPOBjoeyES18hfAFBrs9ArTFCRmvgfmMnWO4vpQbXRM+x54VPf/3ueUGGReKJVy9rvQd/OWqlw4pOf/8gvaf+89OnDHwzye0vgH+lRKeVApE8ZEjPOZTKEzCJ24RsKM8oS5Uc5hlFa0YnVG7Riu+QFaYUtKHeci0bJFRrHtbXCaeakWvXcmP+mn4Kz0WFGKoQU3hNgCJhC97mp1X7FBnSOMNZXGVB5nQJU+fTzXxsR0Rmu6WsOs/4TFEM/4n1VN5MWafrmbgiQMdHlcI2QQNdgKiN39/E61tTL/Fb9CJcOk/cvXK9eD+5oKKg+PApCnAE2P1n7wl7Xk6qupCgb98MDSRZhJ7oV3uZ1V8ctYNSawlQKVGJs9F1V03Tnt2Cd4Upnm4I5Jsr0AYLMwnWN3wyIzZMZpmtkX0oGdcBvgE6IxVFm1kKJToAz9dNR9cEE1MqVYsCI0mkIYY+KHl8KwLsPO+mDinEA7nXq2PJlazMXxoAaDBErsJfEEIxZ9aHRPn8YHBhTLtqht5ULFcvhDii3acfdd2vOPX9dZN92oBde+loK4z9BWfxvPModjphNsABtY+0i9kpdDUPvWzjGsbLcZjyvZsaekJxrRmihSyk6QE2CWs3hFEtLDyVMT8CS4uUYShSGPajDWKSfnfL5RnIgfPmEToRwNVeDlrAGUsBS1cSO3NEvTA4nFt2UJGUbrYW2jRAZtglHgKtMJwmQiZ4xoGzm4k2UI7YpnGHtMs1QB6JcxGkNvaHJJmlF3QtfdvCIRWgqtJ9K/foV7PUHU8hn3CGQ91aArglDjzBn6Dc/CaAj1UA18pwycM9hdsggipr0BFR+7xFFPz3UXllJQf6GdnGAdNAWJs5tLP9scONysfrb5MFf6KTgwB5IpmDN3KeLAHEjmkNCUA3MgacqiuRvmQDKHgaYcmANJUxbN3TAHkjkMNOXAHEiasmjuhjmQzGGgKQfmQNKURXM3zIFkDgNNOTAHkqYsmruhKUjCALD55JFD//HhiMo+9CyTifPhmmeIMVocjn1v/RF/h5O+MOmibzjtaVKeHDZ+Nb5D9hM/PCXCf437XM6orI1bGt/hpjPhwwSR/NWgvlE7E4UNd0zmfP2h+vlmX81BEuYd8FJPEWSeRpWgcx5gLxMRo+phd8975bKHoMOsHkI4eC6Pl0jWPA+C/+HPX55+NxlBfmRWUkSHSXE6TNLho+iKC+O5KNEkYhfJw/CeN+y/MzNFDTXQCo2ebMTQfp3PJtrQ8bf/onSi4TGaThUIr65XrAmpMrGhWB3X07v+X7WllmlJ52vUklvORB/mlICBAy/s1J49W7Vk1WotWryUNcDEIvODvCgUxB/hyN+zlFwI8jVzoigDUVuLZo421jibxAY4PK26cdWPuiLqTA7TOJu2rVkqWASBwFfnaBLrZPpn0YvhoT0Eq4B+zzIMc09cllAO39U8NZ2+WEV9ODiDM3f+JqhSG9bjL3xR+doYK/ZW6oIVb9Wqnrdrz5ZD+tRv/Zq6WJZ4w/t+S2+9+d8CKpATpvEHdARV5VWes5ZMtwk39czkYipS+DMMQoFcIv67vfkgOu8JVtF0Hs8IDed8E5IzvMuP8HcmpDBrMIi5qARh+Swr1PwrTbTrqLx1Sif4cGKUNwVJVKGI4DoKo1X7LYQHb9fg6D7t7X9AQ+UHVWU984v3ZTR2YEg9Z3frddddxwp2wGXeBuSaMHP3xAg81bs9oyvK1hyCaa5oa85QMH6bJOjzlMwoVBY0w+EEcpsFGjxjqeFyIGdombbDoiULPv/KJ0e4NkZqrIUOwK3z118O3mQqY6j9id0zuMkS80SobwoSczEQ0Hgtucdh4OLeS7Vn6AXmiTr+RVWPbv6Wnr67QzFma7/pPR8jcM08KsLLJwKZgZu2U7ztyGyn0IBgjKcqBoCYAKYuelmoA/vGaizlrDKbn7BTiDoKSCETbUwPbOebSdPAxUw2s7xYq14Ps12MY+cHuZYaXjDncnqSNIGvsU2IVMJ8Xk85dfTqEBOfcllCnuikzaYgccaeY20KfOwp2AnUx+olb9fmkTvVPzaiDBJj9/Yn9dQzrbrqul/UtW+5EQ3jdR4RQKAxPByhORTFb3pFUoRZuFg7SDS6rYqPPa1K4Sns1Rc4R1i6CtIFYMRTS1ideA7rc9YrkbmQCcgO/eAmYz3vZFH+yicvzBomutQh4tWNoF4cHS3hubvuZVJPcYDfSqOel2PNESRbiZ5ocMOmIDFO/c+RAEKM0/FRlQ72qXtPmy7O36gtldtU6i1q/wiRks89V7/xno8o8fQmjFvMpXm9qs1jFj3x5gn/EQmVVwgjjhZkm6QaI1Ag65ZrI8R7GybMc34ry4cJy82EbjPDwDYbqzTHOGCpZc6C/nWKd70RJX82Mpzw15lFTFdfxd3EVwtixVLKTZnChd/hY+YQZJ5ZBFKEEGOEfPYQqfqxvoIeGapq39CY+ka8KN8SxfRbvUAiUr2FSE1nEWMl25LULyzp1ms6s0R4ML0vTy5LpIqOvNq8d1P3e7i7W9n3kvLf+o6G7sAG6TtELkRXXjaqwlUL9dDBktYcWKBr+lM6sPdF4pHAy95epV9zidrf+UtKLDg7LFVkn4LZTTDYPCYQKxXMzP6hr7LC8MuKDW0iDv4oF+DsMZJVLCwPwE6w0KvQBdhZfJ4sALR5b1Oq+xaEyWKbOLzfLdc9B94V+DuzhbS5nQTEXk9RAARPHsrrC8/t1X0HxvTUGNAucocDvdZtwAisEOJuZa6mN7S3qpUwG1UWd/3HC5fo4vlezchLA2P4ridHtPYpl2Ryag4SlxuIVrY8rgN//HmN/+helXYNExDFhp2FLouuurPKE8OjlVhplX3DxEBHDxKbi7ao+JIWdb/mUnX/l48rfs46QnhCgKMWzlqiALTCCjZHeeB/KrHjr4kkcQCeEoWd5mbH4DGTJacrH6Ck2OMmbCHidTrYVNVlH2GtMdu1xDo4b8Y6j9AH5JzfdySTj/n+EzoZ8dILyp5g/fV/emi3bt9dAASAwwuI7Jiy6AjGeL08JsGigWvxRFEfWTNfz40kddOKnH71nE4lQrhR32QZGORgRLr5Ed5zmMCp1Y3zhob87i0a/pO/0L6/v5M1tV5vSgwy4OGIfgmYWCUQbZbAL2apgaFiFHrJJl5y97j2f+tuje/aq5U//CvWsp5lZM1aChrAYm3gr1Tb8SXWZrGCnOgI3t3LBjdK+5i0OIi/VaTFe+idoa4qaZbNt72W5aKoHqJFO0V7FFLyiQA3ZvzMJtPghY/jAPAxYrDevp1AbwZsIJ38JvjJTRTJVeDK938oZPFeBoCMakVbSv3YLkV+txGXxZcj2VFXl+FMeMgPTqSp5SKqpjJ+SIO33qrtX/wnFooXoIdgNHy28e3egqMNWJuP8+ewwM7OOt1ZOc6f446mM0DpgU3a8dE/ZuMhSna81jtB1swdxNyDGbmN0JR/RVz8feyDAJPiJQACcAhOc9xEdyEWAhPTe0NalBIsZ01igxCIp5ZbTRkoqxtR+Dc1G4+bxzQvmNMEGCOAMmbqWMiU36hP02+AhJ4B3wEg3Ovf3Ba+LQZQOyPQW2Lpa54lryNIyXgoHzXIfUdQ76yOSkdcP+oaUpru4fPbVLj1BwDDQX69UUYVQDh4ikNMWQx64aehYArDtkKhSIYLvlY+gVB7tOC274dIlCcxFmcRJCq9pMoh4s2yJ4wy0IyUjoVAeubi8VMQDF4uCoMTRGu0RE16M4ISC+Rtr7gu4J73yTGbLW2iVnn8d578FaJX01PJEOeshwYXKt9RgsIf5bC6aUgQV7KL5q48UTGDygEJrVxvR8WmgnokPJa7w0Gt1AEVHopeczSdU4MEY2jo+a3KP7YdOWEPQRRI1kyxBPFvSw6imvIrelVLOOOrFuduZ4hiNFSyM622vQNsbnFbVICjKTldv8cA5eCjvB10mEb+O65awuE4w3jBsTO2KrJKd/x5h0wPWrtCcJ7ydnQ3XeXAWzjvCuGHu/eNBn3sN578WUdmsNS2+puHyuhJo2qciBLp8oQUvusVHnw9nA1dSr4B8ABg3laiozFe0t6hmrbTG+3jvmIguv5csKei103+nNomqSAntrxIp8CSI3IiGbBeiu2mZKhYYPvP3PI/RxWL7PxIz/kuu/bTEGlW51/cxh1+emaT8w7vdO15IBJjNU60RY0+zhYk/Vyj5WDkhdYPJaaxWaUGw9sMh3lRiW3o0jQsVkgTZZg4OJUy+Z28CPpdBEdNJHBAOOUAxCW6siWCWxHvL9gWh4gXL3bMCEMeVjmmMICe86anCpBC3BYupsb1wEEkD72jty6J6eH949RhmTG3nLoJg76iPa3lIfjhYcz5jY00NUioXBHzwvmHrUVpXcEYpQCjHDvYnJnnSndyRUQU+jMSvi5nOk/ltNpuQew5fudpSAF4EXdpYRbJMItWr/HnqGPHjY142GgsDlMxVfLVBOWP01csNvbCAVXxJDHfJkKfU3oXeSId8WPi7HQOzCfzEu3sMC4cmwKri0ha54txvTBS0q4+YpDY50Mww7BxggHrQjk4i19Qpefo8JPUjqogADnvvXrQubo89qwWplbrpfHV8IYF/Pi8ckMxvXSopPO6S1rfA2jsoziqGFODBEOntmRhEFvEwQ2GqRWLd0qINjZy0V6eXDxf8Z/BEuc9JYs+x0Ht7Hn5AzNyBlDCMAfyC+I/hOs/RA+x76Tebvhb1RSQpmWCAseJtSbc9PHUOiRQXdyf1JuP/ZAVtPll8uOWEC4GHyOIvuf2DejRMfbpwXFWoFyrMgN6MM1QQhnAYpASIIY/6HPgEQ/F65CWJA5obW2vLqht1eqW7VpX2oy0GNfduc9qi84jHzah5PYaWnicLVr6sbXa2Qu5lZ248KIcgZMpQWKGt1x4PkFuMyofJChdEFJBCEP+sQFiFhiIljiWJTZr1UFBkCDE1FX6oguOIMD3z0wyNC1+PSZDsSxVUDk1jM2jGsa0sksCkBLviWO8uy0niDdWSS9TrO06nqcGZzi5i+t4b3m8odkgKWIapLVvxO/0KODI43catbpEuFzRvU+/M/4pjY0Pqy/RA4/dRSBMGeHc25DX85Hz82PD6kYCenDPOjbOhpv3dtyol5IApDqE+iKoD+rYYzkeCEyXUtpG6LIVBMQhLM4RaUqQ2HEUX7hQuVefo4HbN2K8OgXZwHfkFwmnjvFhNhpGRC8Lobdj/bSV7ja1OKjNUc6aYzx+YqfMh6g7AlVYG8YHgIkDEM9/OZkUWhld5TTdxUQesBEaPdl5JTEv15kFpyU5SlQCcBbNH3bufHh/Xo8dKGgYyVKrEHMO0JbYwWZXaoMOdL9Fr9I/6cLifjAAfTzigD0WDxV6QaX4Qr3U0au+2Dna0rpOu3Kv1WDyXLbBg1mo3xidEu+4XkbCtwG8DM61rpacslw+Ok0JEoeWTs5foPS1V6pyOxsdgVkbqQAPwLjfcuzkfDyobqAQQZUC0uWiJbRff6WSa1a6Ro/94CmedQ8jKiNU2hMZyxGD1RuMnXiyqR6nRZcBCqGcFO/dwEY373NN1Ok3F2YuRcFpsOqoZEfT3oGrfTf2YB4JZolcq4yGsGNpgD/GFkh3tH9QT2avU3dxL+wcIX4PdPo+V3ysS4XaYvVlejWeJOihbSvKk6YeyhjABpS7xA6W2BLP0LWuaGGuorVE884GW+3I+pkSJJYkyW4297vqtWq99NvKP7QNa6SCVrTjzFr0yJc1WOZC2TqnigjyBtGHQO78FvV+6L1EZ2b4faZBQusLlITmZJjAMOtqZtDZHX8yyUPsSZhbo0cQ775I5Xm/T5jx8+hxWIHSRI5d9JPJqv7M4RcGoNBA40iIFAap7e5RggRW8O/E0A1pYOJezd7Mem3PXmxsUH43WYPEtWKHBfWEqozjTMww7uMGW8E2dAz+HFI3gQSxehsvjGgJGzxduahDi2wLU7DDlESkTQ0S7nHWKWKHdt78epV2/r0ye/s5Z6Huf1Y5Udu1qdMYz/EZV1u0wwoe2VxS3e99o1KXvJrSzLw+D1wKmbpbazoI0snsOQ3/gD0C98EYmEbJvY+Uk7uUToGt3O/SWPZ5aiP/sf+4DrOL9kd0blBm/u/SUXg1b3UmjajQfsPMJTdgZ2uawIJ6IXhVV5v6832EYiekGIOMtrGwPGxKQKvpJXY8D5le75Fo4i0zXNFRQyGmNUBPIE1T8N2TpvL2fZXy2l/MaxEzCDeAjMt6slrawZZJx6mbpiAJGzS2d6jtPe/V8MPPKXHrPWhF+xmMXuPVyLMF4M9Y2CjQHS+frRKrvTZSVOsNGzT/A7+K8UR2Hqmc4eSq8waK7gXacI1hR9TYPLI0fg/+pjEYh4rwdZhnUNt7aT56fMaTc8zf4EBxa6WXgNzD9mhXpusN1Na/p7d5Ps43nFmuyWAYR3bPDBcjOE4hM4AxTVku7MiyG8g8fe+lQebtjKMKEoQbbWereSrc6hRWVmxjGLx1x5n5HshE3tToKZTpMIzheT1AlO59zP0pFDFumbpx/dlduoC9BC8hCHMOe6QaeEPxAi+OLFlTkHi/mAQzzNKLVmrhf/iIdm7dq8zjm1A3bMlugiDQAs4QcWIGBp/2whK/eJTqWb9EPb/zYSVWnIsQMcp9daYT3UdeGia9IV7dhfNcj1jybHZ4YLdRb9oEXQkma5s877fj3wFTrhQ73ujWlgFCgR5dK6CIdd1Cr+zNGFXs2o3KSRlVEG9++JD/M57cfCJJ4DwqaiO/i7MprV7doWeH0rp9z0GmZPTpEHqilT1rKCFqwxIA/ruSkRolVEwRz2qZb5yqOgg4xomQvbwlo2sWzdO1SxZrHeDroEG0Ms8kHubYRDH0Q/zbwJUjpX3TqQJwFObAUsRfjQ0Zh++4U4c+8p80/tJeimSfSRXbA+bCdKsca2yf7+DX2Noe9f7f/0Gd73ibkmlad8Ku8HCZj5lLztGKJImuDjt5IY/d29fYA0xA+0PFRh5BRHt8iRGnYFMYFEhB1zblSnlGlxtm61lMLvoVNpm8CXCcDRI4z3t9WxL54l3S/Wb/nmmQhJn85BWmLpjXzteQMb3MlgtqFIHYD52bBkbp9Qxqc9+QtrHR5BA7n4+iQkrcm0FXdaRy4e9sBqovmj9flxJP9yxswxakTdJ/vLxkHFAI52NwBukT1JW7/G5kh1NTkNjOsEXtVmQpUEOnjf34J9r3u59T8YUdeMChnFQaxEDqQYcju8sMQsVXLteCD/+qet72dpoq/Xj227WYTxl0VNBMJxvLDrcfr0WyrESLT9vfUOunevtRF0xuYBRbhZ14NTchp3fzBwQY8q9m2Zm05XycBZdxv70ERjJ00tp8FDYy4Wdwx5sJdaBwMGPJOZkrYQYdmXpjJ+ft3OxtCr8wOoPMDirSfIRkOzlIoffr4nLsZ6LEk9S+pay3gfX+G4afr8dw2/teZ2pDOcxNAWBlWsDR6qUpSLyZkLdAL6G3kojlGCK5gp4vb9qi0W99n/64x2USGtuxXy2rFjO6CEGjReWuYz3OhtfQ1yKENZS4KCW6aQawDdoZTS4tf1FcU1gLMx3w19LEvoeoXUZgtvEXMdwPWVnyD8aE3XXrqsQSI9LNlo++B3rNWR5x67YkCdz11wylaMzLTjtzqp5clFCJNNKgSyPTOdASIOTRMHeRI0nqp/x0UBYGs+0VpFJ0v0vtAgTiOeUus2Fj/vg9XKPc4Q3RLRxHqTlIeDaF547uemCSP6KAsTbeIlTam1qxOEed1Ijoa2LM2hhiPPREqRi784Oo5jV1OuskzMCXy8drLD08Tu3phpYC0RRE51pnPNd9X8RK6PAP/sK4GNd8viH2eYhrE0+G5zy9z6z2WbfoGU282m+3RAicCuCObC1Hua6Twx2+i1/1L38HSvzbqX7J34Hc6Gx0ftK9FTaFcmfaQ1y0KYpq0NCY/SO8sPGg32OuTJEC67BJAmO509P1/JZAQJ0gH0eIjN4ejEifM6HcHV3j24WNbpkix5O9VDdEXYkuaIOLR+Rn2p0aJ6OyROcmf5pip0Y5/SuCfjgXrs3wR5008yzi12TaInojieh8G/RPoqH+/MQZ3zLxCr8xusFwc9OOJEfILLwuagDHLl1TkExkOnfwM8uBSQrwZ5YHcwVvwoE5kDRh0NzlYGjMsWGOA1NzYE6STM2fuatwYA4kczBoyoE5kDRl0dwNcyCZw0BTDsyBpCmL5m6YA8kcBppyYA4kTVk0d8McSOYw0JQDcyBpyqK5G5qCxGPEYZy4/h0GhD2g6LkO0QcHDDN7Cle40UsqvVSoPizfeIGfD1c8JD2bifFPh58I80jI10SEPxfAo9sTJzjyb86YZiZPVXgmmh/LHBRmfYX7G7eHO8/sD88aDEWqFzXUiMvsMpxAagqSsM6EF1YNBEJKhYVAzJlk3SN5Mf8ijFozNM8SwxJzK2thLSrzLZg8wzIPGM4NzCXwZOPA+zAx5QQoPOVbPSzuiZWePFx/mWn27LgwQy4UgBPR3JiqV8l5PoP/823shwe51yvwvT7mX0ua2G6e2YQxyuWpo2GxWmjM0y9F06kCZqyBYUhGk3g84caZmZkwzBNp3QaZNhjCNHDsZzyjw1GEqsx2qniRA/dFkQlmfh2tszpuatQpREc0e4a/SwN5XIvmdhoQ0RssRfznObAUZSLly6wITBPAJzA4IGji2pl6YFJjNGxmvhLyxk3Fc9G8wO7oWaxTl+Do6YwvvztMMrIKYbYXKczgN484H2eKWqHCvHlmNSXDHvMsIhrtV2smS0yuLIvoMuF+r/uIWqqhzGFz+eWsZiZBa1TXtCSvvgss8nTKUAgKEmUTFvz5FGgJ4DdYfJEZ0mOscGMVg5JIStDOTW4C9QdnhsrT8xZm27mRxitDavFKP8IV1JjPW2Xh14mkptVlVtVqXhjkozyLe3YyO3s7RwSUio/qxb136JkXvqpxFkH1Dz6njU99VoPj+wi7RAgm1r6MVTYzi3sYllqCNMfkiRA/nXsNkAgkFNWqjuURng7o9Tae72o7JFw/ihOeXVcDVAf379KOH9yl57//I40NDnJvmJg5naxf8Xss6KsxAu+MPazytg+psvMTihXuoy68qjHiynSInEatWaf7nW5BVe08+FNt3f8DdXbP1+J5V6m/sk2PP/93SrFkYuuuu7Rv4AldcOG79cL+z6u/b7M6U8u0/qz3KJ1ieWeSibd+zXQom7F7zAz+PNmWVKX2KyhnVqdACBOPg0zxsnZaF4RFIprJfSzcqg2P6id/9Gfa9L27NEZ8lXd85v/SBW9+PVCf3RIEwk/iw/aTpQfLGFSZz6KQsfuUKXQrlTkHibiYN05PokwDJJYkZIYh6gjDna3nMOH5bv302b/WkjX3wsgW9bFM4f7nPq+B0QNqae/U/Ts+pT39W5UrLdHSlVexaLs12DVVzwTHTrFtMlvJEPc/V34VcIxrWNsOPKs9g9vVnurUynnr1NE2D3IACiv/jCdDoIpqee4n/6L7iVs7vH2v1lx/WVh+mXQZZo/8U2JTNKkZYzt9oZId70Zm/p4KpXsIJPQs9UCZj7Os8+hMmxqu1uFwNyxXSFgGEwZhsLZTD+78su4b/gtli4S0eWmI9Theo8oi5V4iFC5OqLd6jq5f8gktmnclC5dz0Ux6Hg9tMHwcTcrp+W0TyIoy4Wgt5bT2x0b1mX96m14c3qJUIaWlLQt13trLdMO579FZXatYXN3J0tCSXrjrx/qHP/gfWtg7Xwsvv1gb3ni9upedpXQngWMoxVHa6fQQf6pvRZ16xWFYq1DZT4P+JEtff6BUC7uHdH6WMnhxS11OMHncUp7KflnpmkoSLxkKbZE3mOEFQlF3jCzT5T3vZgH5NgKsfE9ji6Sh0bzSLWyVhJF39taVumH9e7Use6kSBYKlYLc6XKfX4lqnz64ksboxOpES5J+CacuQHg/tvF2lYkLbn9ump158TD9++Af6+Dv/q9Zlr9HY5l267c+/oq6F8/T6T/225q8APMkcZXAkBaf6O8PxGfyBinW7TvERKx2A+vFAf6V8uzIVghXHl0N8JBa9ctAYOamoAu7gpm3xW6dj3CeHD6ry0KMqfuWfddGjO9U+nFTf6naNeakLq/l6dsW0fFNKuYu+r4Grdqj17dcTTQBxh2gn7BddSCgJiJ0d5hrgTkVaCtpS7awF+sXz36fHt/5QWzc/p+KBiga3FlVY8KL+OPmb+tz1t+qJr34NQBd04yc+oZ5zVmNyA3QH9PG76AaF7UNmh/xTywVyHWU3ln+Q+K+fVL7yjMp5QoKwRjvW+qe8+5PEZ+sC8uYSIiBIE/cAj9SniU+TpqLE8QMq7uJSuZUdezT2P76kl/6Pzyn/xDOq7t+njsG0FrwY1/Lns1q8NadFB9Is1CqrsGePRjY+qcH7HlMnIrpy3mprfZDUqLapcp25a8ZkMEhcwfw3DVnQQkBJbdu9ibiBw+hsgnuN0hsbrWj06RdYQrxLV33017Xy8ssBCIbfxEL3uk/WjcYvO6MTtNowL+1VpfifVRl9DJWPw5MllvueI6BNx2YliMEVSxHfhFV+XuhnkFTo0QUjflLZmoKEJbwAhEWBRMk99Pm/1cBnvwQ2h0GfV5da+DpgTUWl5SytbCOU07A316gqtYb+eZaexLYDKjz4vFouI678kqVR4LtZ5K/tEVPosC4xeizeDCnFmtezFlygaveYdonufHWEmHkZQjqwq8ODg7r5/R/WhW96i9L27wDqsHTVJYVuPx9cRwDlTE8ud6z0dxod/AdK71WWRH1A6x7aCU9YYJ5btBWoX4IPaFlUFAxZh6DwiuPJqalN4savQkGxx57R+HfvQqsdUup8gh4MF1XcYdRZOBH5aDtReXi5+y4eyBnb4hAQkXdzZM9OZf/8y8pdfiFc9oLsI4ngxGlLYaUa3tPIiwq1GHMxgsp1ZTK6adWHtLL1Aj27+jFidnRp99/cowVL5+tVb7kJZyD3Rm0g7OgQgc2Uzx7tp8YUmjBx9AvjX2ZkBaeanZ2oyhSbQ7AVkfL9BLipjDDU8D1lkxvom7SFknlDpVDuSZmbDVMmL1p32KTCxmdVfmQHMqKm8R3Edt0RFBHPRgaPwWL3e+slUew+B5M1RIxgMKzhb96vCn6HMJYzZY4ze9GValsi7AMTfCVQSmuxr2NR+zL9wtp36f1Xf1y/vPJDyj1S0es+8CGlOlppXRh9lN2PBMcbZAVvrMk743GCkkVqVvN/iw2yDTVDLwcTIAyb0GC8U4jrJM65SvF57iWyJjyxanZ9HZ2agiTh0VBCTVe3blOhyu4IvKRl2CGnosB5ugAbhLOAk29UzuBYkC4W714pn0KnZ69ow0M7rPFtuxF/6K/ZTNYRrm1SVLc20TDm6qN9rIWnRWV1/5e+qvbeBZq3YQ132ohz9Cb/c+miMW2zz/e7sc1q8uioM+XLNEyMsJsITpSpZF8Og6gOE8JfpWwj9RucrxCSk6Xh/LmBE9TRm4ig9m2A04QcfiNEn3JjoqzH8J00BUmMcBHx4TEVhkcAghlmeeG+tI/aNLw5khQeRnL0o6GtI5ASD257bkE9FZXfPApU0ioc6m/UlC/NUjL7iHgAKIp0f/MFpGAen8koEC6gEgkPlRnPa/N992vZFRfiYDPco0SkMQBPSRm/SSBOYwUYbhbMdiKArxd0GwSGuFt7BHLvAkIdE6UpspPAjA8I21kc/28qFvYhNYi4yCnf4GEn9oUiUB+DJN5rjRAGceLAhri3LpPtLPI5OjWxSdya2NkBA7SAskqu6FDrki6N37efKidmCRHS0oSdMAYhk3PGosUW+i6cxYrm+dqhyKHTjl4Mxt/RVJzW3y44jj7KHj+4R+l7HlThvoc0lGJs9Jy1aiHY33hrSjtGhvXuW95Ho8JZ5lZH8/HQuj3NRUJpu+teoZWFmP/mI6+dreSgwwlvC+dKdMx4A9XdTXOc3ki0547VBxfKu+jB/He2E7xHKcdCwxdUce+DaEmOuDh6iFA/Y7gpLuLWPAOxXYQpCzsXWShZZrgGbTwcTk1A4uFlNs9ha67s0gXKDzH0PzoSXuFQnQaHw6rYl+LB59zajIafH+TtxrujvjqGGvZMAE1WqZUrMKCO7mBxw2lNMNaTQtgarvLnX9Tw//y69YsS/cyH6c5p/OI1GlixUOeX8+p44kmNt2xibAMJsvws1RYswsjNBLnpKrG4DnykfLOZvMOXAWGZHUMa2pIO6oWzcSRk3IZTZQ8CcyMAuRWv6gNgiK69iWb42pMDklYtjP7mD9BQ2bsn00PwMPbOySSuoWB2FHIrc4ReHucIdnFt6oTzKUaoytj5K1Vq7aBHMxAkhrmVfHVWlRcwiAiF5VflC1HvxvIksYYu8gjd4b3+lVT2otWqLl1OIZtquKnpOcGr5lMsnlfx69+W/r9/VHloCPha2kHHoRHlf/RYmATxpiU5FYkFVzVTuxlrupKxmvfcrNpFFxHGu9XwoDUbJLNLv4sbVItxAhgstz0OZZwGbhOntlK8T9XCd1Qq382oyR5sEC5aZHNjlTCOCUKCO+Z8MZ/S8MGYFqwgeqlVZ8taJCd+Ejd2305Nxdjbx++enKYBEl5BhL+2yy7RyKpViu/YB+ocagrjdQd6fdAqBYMV6yO13ZIlqoLaFvR+SO5bxNX6jp+DELILkJ1Mwuk9rjEBprZ9t0p3/ItiewaBayTlLFwMFROUNoh3E62Q7n2SVltN7Fdpx0HF9x9Sy+/9jrT8PGKYuRQkGH8s17Uvna4U6MTRBcFkj9qxLqzuJszZRjYP+BG9mMfxdu+APuQ74AjbrSDGHbc14dBJdqrhAzq4FVuSKuhaSvgyNi9obf0wUunwoObxZEbzZpEACIi39LIV6rn2Muhsha1mNG5qdvA0YKxW6lG3OLJX0rAxHN3HIfboiiXqeuPPE/aa4jbPcWZ5TTTk2IOPK7VzJ3RFfTJvweKYYZh05OWy4AwMShEbDPFdI0ZcjIHM4h0bVdv0vIqIZ5sACccBczMOTXlmyZz6bSh1/DtYpNhIDKYWv6v8yKeVH/0Dtq/9FvsKbuE80tyqxxOrmAVYSQEYei1oEIZE2DuY2McDL7Gp0iouU5/dmeuYQnBNAJWbiucpOyhyqMyjiGlaZdXQJaL10JIyv/Z2ZTacT/xQ3r/Be/FZgwGKDqIqriHCIsc+l70uB/vtYrPhG9f8D75P6ZXrMaCoHMfAnsXkzZNLe3epOMrODNBmo8weYksQQ9ii1qrH+wc60a5IZjRx1xnnKD/1LOKaJ/0Iet3qJpgI4b7Z+fCEbGQBNgcTuIY/qvHhj9NLuZ163Ul3lrkxqEgLaGCMfRIdl6A/hCEFIJXxFu18qKoFy7ExFzju60pi1P5HiuL9mqkxihXmQfjgGLqlKUjMVu9AFUPP1eZ1a97vfUDlRfOJxojRB2MNk8QYpisToM1HdlFR4cfepc9VElf369j98vWvVYx9+EKUw2P0w12805XM3jh+HrZ3wYj2fFub0Z6MmYZWwyHyOkRz1CJt6OMUdVKgNeQPDQMS2jC9u6qREpqduTpbCfqpvHjxEQ0NvA+w341q6aNXyag7kTBzACiD48wotlfHXTIHJk7hBbU0ybHV1qY7impnL+Cu8zlf6VSm/bPgaYlFCoVolKXx/fJyTQMkMAiu1hgcSjN3NXvdFWq95SbVNlpU2yiltTH/IvWCDUIrGceCrrKPApLkrLPU+pvvUvLclfRqKAyPREE6X07I6TpjoHpOp3tVptVeEEs8bxttSdJgQOPbPYgEatH6JUa/uX3ZMo6jGXW0lEBmwMnpIvhl7yW3yi4MzQ8rS/cWawKbA8sKSeHdJyo0zjJ2h+PLZzE640zPtA0Sz+LP2hfTI9+Pq+ucmla+2u+Zz6bXn6Aur+YeutLTTMcQLkc9CV/QEgCVA8RaLNGmBR//oGqAYuxr/xycZZY2tlM8dlOifXrUJqEF6v7gO9R2/VXB8PXEhhKtMW2j5PigPSrzGfgJQBKLmarX7iDAB9HqVoOGtzvpFgyucvcZTJRLgc+nDVMWOstZtm248Fxutt/Hz0QAi+7lx2wkG8qjX0Os4f9AcngXsjJSw0o77j14aMExuiYVXO9l6sgdsBJe9gECdlf6alq2HvtjeTtq6WylWt9PT/oXkejWANOvhKYgKeKpS7tLBSH+sv5Lt89X7+9/hE2j2an79vsABQ6zRVlEMq1wl51qLer67RuVev9bVW5vCwafbb54vSXOBm8becSgN75hvTLMMBtnxDeNovEMVyLJ88+QiKShpYsHJLPEYE/x58D98WtepTKz0dzjiYxVz95qAKqRw+n9NoQfvu0BLVpdoutKJzUPYOm1VOzcdNYY1UVsJ/vb7U0d6QcwMJs9BtR5CSBio6NK7AolWn+VuSPXUsLpS5BGyZqCJO3+NsyMBC1HXntAK4svXqSuz3yUHgu2xnfuwnNNO6O7SWdZXR97l3p+852qLlgYKiJc4jVsZReA1hDtDSJO57c3PdCqFYrddINqL9LD2TOuNB7k1DBMJWM7Ai0jLPtaehHXjKV7X4vCysXKvOPNAVyWHzbgaQOkyPydPXGIl3Ts1XrwgY36pfNGNc5Ed29N7M0SivxVmOhVHEcuwvs0KqZ9Hm5NysCKFtXsB0neoGTu9YBpLbRHZrk7Z8b9dFNTkLibbQnid9qpY9Ovgks7Rv86x4yz+Z/+LQ325jTwjbtUa29V7x++R63vfasqi5bSAumnuyZISQwqG65hXxb3EmYtAfAM2zP9ytvUzdjRwJ/8vcZxMCXZpCkBgJJ0/VLYK+4JxNhqBdcUO4hn1H3zzyt21ZU4I5kWEQph33IDGoePZqMYr/rFX9YLT++gor8dfB/uutv55Q0U4rm4eroAML9rqFZR1lhqPd3e17HG5ufg+UrqrotKhP8e1wEhUSOdfh1MYyL08dngORpigMxLD4b3HwDB7OE2vxc3Pt2qJKidPh3Hz+QUr9jm8NgGTY/RRnbA/OHdGvjCV6RHnmGeJ3NgKEKFjedGsgjiYRTOUtTLR39Z6be/ib0JPKOcQpxIsztFel/+OCqGIX0MDBxiT6mUvw/p8QROMvbeYyihytyYWLwbs2kV4Dhf8cw6DPWzgdGCoD6jcZhTk92nDJKGAVRl1nzcSAbSoZ29ooydxGqrR+rZfoOUdTdd4OoYk4I3Pqrag0+rtmMvDqkx1dowUi89X6lr/o1iK9Yg+tDdOJ3OhBQGJ41Vk19jsRUz/sPev6xCUNwLrUwnx2Gyt/0+ltqeyxOpl1MtwymBJGRuaRKhIvrJj7Dg+lQpm6nnoc1WRzCc+bbPI2J25CEpIYLd00khbSwZS6z39fobb8F2xpTDkrDhqjbxjAjbfBDk/XoAAAGASURBVC7T5Q17IZtX0GsHRPTPJ0gzhPFTAklQNxO0mCILd2g7U6RIoCjY0wHItmEpMMe0NY7NaIPBtnngPfe7AL7mdGpCOnrHzHzaiYeUDsz1G/kdoO9zdSrN/oneo6V5Q8b7/lNLTQ3XqV4fwYI7AIXp90cAiCviDAGKaYwK6dZ4mK64rfF6Mu1BuvBt4y7y+vj6mQETj5OZ3Ia9fxgAVin1cjQKYJpdIKfDRYx+n+TnKUkSE4OQDsSY/3YfB7o8kaFRopMkbKYeC7INcW2PSBgW8ItNnhujMUDrK0G3Df8wYjoZF5OP/dwrlaxuJkBgDtvuiLAQye7DeIjUja86zQxKThEkEYlGeRDdposCBWf3zNDnN55aqvMrCA6OA3sDvXU9PwFsflOKSh3c0Sj2GVKIiTrnwK0xoNvk+hgaJ5MZjt107Sq04Tr5Ij9PIp0aSE4iw7lH/vVx4EwRqP/6OPczRPEcSH6GKvtkizoHkpPl3M/Qc3Mg+Rmq7JMt6v8PnddAZTmvEzkAAAAASUVORK5CYII=;shadow=0;" parent="1" vertex="1">
                    <mxGeometry x="340" y="488" width="137" height="124" as="geometry"/>
                </mxCell>
                <mxCell id="13" value="" style="rounded=1;whiteSpace=wrap;html=1;strokeWidth=2;fillWeight=4;hachureGap=8;hachureAngle=45;fillColor=#1ba1e2;sketch=1;shadow=0;" parent="1" vertex="1">
                    <mxGeometry x="380" y="525" width="50" height="45" as="geometry"/>
                </mxCell>
                <mxCell id="18" value="" style="edgeStyle=none;html=1;" parent="1" source="15" target="17" edge="1">
                    <mxGeometry relative="1" as="geometry"/>
                </mxCell>
                <mxCell id="15" value="" style="shape=image;verticalLabelPosition=bottom;verticalAlign=top;imageAspect=0;aspect=fixed;image=data:image/png,iVBORw0KGgoAAAANSUhEUgAAAIkAAAB8CAYAAABde5NjAAABQ2lDQ1BJQ0MgUHJvZmlsZQAAKJFjYGASSSwoyGFhYGDIzSspCnJ3UoiIjFJgf8bAyCDMIMjAymCVmFxc4BgQ4ANUwgCjUcG3a0DVQHBZF2RWXSC38XPz4l9xSROTlxomsWKqRwFcKanFyUD6DxCnJhcUlTAwMKYA2crlJQUgdgeQLVIEdBSQPQfEToewN4DYSRD2EbCakCBnIPsGkC2QnJEINIPxBZCtk4Qkno7EhtoLAtzB/n6RCiFhChFhBFxLBihJrSgB0c75BZVFmekZJQqOwFBKVfDMS9bTUTAyMDJiYACFOUT150xwWDJmiCDEcuUZGCzvMDAw/UWIxVUwMKwHhodEBEJM246BQQwYXtuvFyQWJcIdwPiNpTjN2AjClowHelf2//+XwPDh62Jg+Cv2//8P+///f79lYGCbwsAwxRwAF9pckZ/eqHMAAAA4ZVhJZk1NACoAAAAIAAGHaQAEAAAAAQAAABoAAAAAAAKgAgAEAAAAAQAAAImgAwAEAAAAAQAAAHwAAAAAhzQfzAAAQABJREFUeAHtvQmc3Fd15/urvar3RbssWatt2bIxlm3MeIkdHLPFGIeBhN0hkwm8ABmS94E38yDDYxKSDy+ZycyETCYkLyQQEjYTEhaDbcB2bCzvuy1ZsmXtW6v37trrfX/3X9VqyVJXS2q1lQ99pa7613+75577u+ece+6958ZqUVIjxWIxcUr+dqrVqhzH+Za44g+O+Ygu1x/jPCdi/qrfo6pP+YlJ7/Jl/z7y4XA2XKnn28j/6O/GjY3z/l2tVhWPx8O3aT5M9+F8A/HkWYPAGLRXnU+chzkOxYhV+OG/dCA/lNXXI+rDt1TmWfjgJ8wbs8Llm0SznzhW/o17fN3p6N/R2eizUZ5j3RNxefLdPo7OBj6Hn/WKiUiE2lARXKmf9z0nmGIQE6r2uM/VzDwqgUzigZFkWkmpmqwoXkuExyowuaaEklSYuV+KVZXi7jMjUbwqDOJ/FfoDzWZgoDkeQBODXoVypiKS+R3YAiiABiUzB8wHWB6KZV6cPNNPlC9uqFUAaQpS5Gty3SIrBj0USslwzRCOVxPhei1Bud2Y4+PhumouW1SLAVgG+jRTstl95RiVT34xFVWtpBXjiUBktahisU+1+C6lK0la0EJV0u0wt1MpmHumYMRsrARyYGAd1JYaMY7dOqqAJVatqFKE3UMVDfaVVBiB7ZmUsl1ltfYmVUvGlEwDlVgpVIK5MbvlMzJdwREgnLmleZWKqFQpV7mokdKgXty3Ub1tZ2tRx2olkK7xMsCoZRVPQC/kmxduHJafdRnarPrD9aYgSarE292WjES3ygpSpKpD+/5GO7feru7ePs1rQdilVirZ8XplMzdDUHZamc/GTQZCEMVuVf4Bs+FQkBRmu2h5I9tjevHeirY9PqqR/nEVxmFwKqmWDmnxeUktvyqpxRcCFHhQA3FuKLOZqFcqnT+3/gp/HFepl9H8QT389Pe0sGutiokh3Xr3f9Gr19ygqy+8RS9ue1r9wwd1zaX/FiXaFWrPwEAm8S8ZpON0yzB1ca2JxioqP/cgrYnjc9YrmapqtO8zyhXu0Pi+EY3sHFL7Oaib7NMaz9+reNsLSvd+lPxb+XMLeGWTraKgRAJAAActzGK7poKS+Zi23l/SxlvHdPAZWuVgQdUiqtTgQWogNrT3oXFtvSOl9W+SNrxtvqodtEfEPDCatYLVqKVGjrU4JbJ2TBiwSd23+XYNj39NrZ0t6svv0WCpT9++/0t6atdPdeMlv4L0BBAUp4Y6NURsOKiGRIoHrkyrDFPbJICkODKi1Jf+RJVv/1DJW96t0pVlFcpf1ku7rtW89i5VU99UPP+0EilaGLZKvKVF7Yv/Tsn2q2G0JdArnWCKDQm+lKD9BYuVw4L0wu013fM3B5CIBTCRhYnob8BUq+a4GTAk8qrls8q10Pa6pQtuyumaD3YEQRla9SwVDbgatpAfFIYqtp+w/8qlojYNPaHPffHXVM2MKpEYVS4+X6XxhNace6l+48pPqqd1DbqThgHgrWDjts9sDkwfI0p8mnTcsiLeEomMCi29OvTYI6p+6+tqWfQjbaxcoT/83f165KlRXX/DVcpmN6IbC5CAmVfEOMwBrNabzhCQUDqrGnMZ3gSNXClq4NmE7v3KgHY+OqK4bS3AUzXz4yinalnlfElp7i+XKxqlTGkeHjxQVrK1pgWr0jQKv3B2UkJj5A4xpbiGKsPaNPiQ/mXrt/Wjp76pnbuf1KGRPajIPJqoX6NxzAGM1EXJJSr3tmpf8SW1tLUoE89iW6JwAIythxm1SZSEWeecLf27j2jrl/6blvfco6VLRrTugjatPXeNUskBVYfd+mBYrAUmF2DwPgAThDbfTm4Bs8fUkGX9I+Rfx0hEEUAZLWnLvWVteRwLlVYVrxVBA0BANJvKIvp+3Zs7dMlbW2iVNd31xQH13e9batr844JWrG/VvPNms0zwlYIU0iU9u+0+fffO/609B7ZoNOluOZdq44HbsUoHjSBBecrauu0hbdr9iDqLSb323Dfq5rd8XLH0vCBQLZkyk5nU5Hhqm8QPuxeQyar3qqvVsapHxfHfUG/yfv3up39O5dozGu//CdSPq4ytmobYGgowHj8rZGuTxr4J+xjcBZuAycRBuO20foTsJ+WXrJXUvy+nTXcMKj6CRKiUaHllFVNpbPKKkoWYWlZmdNm7c1p+GWVByvQs6tSfvXMIlVTU7ifL2v10Sb1r8KnQ6wnvr5cgKuuJtdLpFD7qupfoNWa0ani+brwTqfbwmPZ0VDXcGdP+hVU9/hqr+3atfaqmFS9axea1YldSHQPjSl/woLRos6pXzwNAuCfqKnc6efue5iCBwbEqFYy0a1m4XJmRm7Vv7x9L47ehG8vYQPxhTKUtskFFLZ5Wpu0ajsGqnzVSeNhQiToYRQQnDJ61FCEk+D1Qn3aIDR+s6cDuAVRkLipbAj9DuYZ6wbQrW3dzH7rbwrFapdsrbBREeQ2jtjRYUd92pOVYWql2DHbsLhvHLpz/cTDjJbOvJkV3NtF3UMm//aHmf/0FzS+XtBQKW7j23WulfCaj195V1HW3VTWvv4akcDmSykN98q49GvjsF9T56W7lXrUKc4DKPAGjpDlIYKp7XuHGFIS2vUMd3Y+pcPC72IMFpIb9ELjSAEyqDDBa29E6r+VaBAZjJHC7wbrYCVhMjWdO8Tuqtqgia4BgsA+9nbdkK0I7VQv9SeiyrySVLmtgd1xP3zam9nibCmPSnV/doRj3Z7I4CpE8QzxfHKkAEpxuVIULGFxuzsjMmuFkgKMNNfqdO9T3R9+kX9ZP1QfXmTME2DH93B0VveEbRc2jAWLCco+hZVuqDHUFHfrB/aqt+ZoySz6g+LKlfmzaqSlIQh0jU+O2rKtZejNL1drzKWWSl2l0+J9h9iYlygdQ9BQEjGQ6PsA9KylCTCV0fRymxd3LCTXljpwdQrMMlHrlmS+xQAsWUxk2U64Kkq9Wc3vDnLJBhw2WqLXq4a+VtPXHh1REbI/3xdXWjpS01LQ4DKUzOAAbnz46nSmFQR3vH9Wh3/9r2HiQ/OzrCBRrCBqu/xcEO3aU7YxR7sDs5tPXKzgiSurKJjSYH9Hgl7+n9tddobalCykCdTBNQPtNUyb7E1zhsbj71nS7QHUps1ax+UiUhZ9RquUcGIvBl8S/UMAnEW9VovioEngAU9goCXtqA9HQZAbbCzibiSzNC6sCSzXT0tGFasyUUDdccPe4hvoDNIqVVSplcFwV0dtFDe6XhvfFOU4DeECCEzHOcUt7RqksLZjnEULh3aFIHDcb5TjhoptobKXCj+7SwEsvUeXmp8vhrgHihW9Kg9qxcnEnF7uKK75mqIygKvP5MnVYUpICFe7GPhlAPPq900xNJUkMpsTcNYQUjxUkYV5VWRULi3D7fg/d/CTDAxAxjOYei6vQ//9otDujWOd6tXX8kpJtb1I8e1awRyiLOTq7yZVLjuGPvOMYm+290vzFHTqwk25jEYcJV602zFolGFqojgIGxDmgyOB5TeDyLIRuMq2VjkbvsoRSHbwsAbhcY261ZGD3w+lI1VJZB+68B67bz5rgn6VXVCpkTJAmztqN2f0zW0kMJgATN4kcHegSnxXsk7KGH3lCuQODynVgFkyT3qYgCYVulB5J4haZLMHSxPMaHPgyramIwymj5DDcwiubwqeggSIN8wEdqDylbPkeWu4naLlrGWuAfLrJx8aJC+107KvRtak/Q+Pw4z4IohQVGbof0TurqMzyaEIvPnVAo6MIaHS5WWofbJxxkCpioYz0Qz7guIoBkBKvynDfeBj/sDm16LyKlp7ney3wqRYzOgDFtDXK4OOZS/j0lHzqJV7oKk/ZkiInU2mIxNTBJ5Ry3uW0PeJ6qtKsbbcwFsV9OY4y/NX2A5Ahd/1N9PQUZVMsBcsdhltTRPa+D/jLb1F5+DGYSAnGII/xjhJMNp5qJQgYoMczPKzK3ttU3vundDc3B9Fshh5u2w1GRq3ipJlsUET//QVwEcbOhx8RuzhJASpI2ce/Kd3zv8Y0coAyuHuP8yl8c7N7PnHus1RxJSBKVMA4x5qlYcSU7U5o9fWt6l1rleTqqSdzkT9Dzv9mNFGGGCpxaHSILFyx/vOnv02DDYKonG7xlh+GhiEU3WkbxSoetcn5arEaQOY7p5uaShJnZyvZLc7GkP9iqJyR4hbyKcFYsi7Zywcp8CdeRhTjK8mOIxo5rqLnC6PfR8x3K19tV7ayUInuD1Byjxw3kHyKjOXxqmnhuwZDE35v4JAJghWAJj8obfzqqB79BiXABll6fgZ1A20DXPcIGgLaUyDiCOWArjgCm+cyvC+ZKivd064LfiGudb+AisHrakjMVjKQ07ksRqlrwimq4EiuH7+yG7XmOxjn5qkkEhGJk0oEOya8ahofZmGTBDPMD//ZnxtECqTC0yoV7aF2vGgYR1zHj12gS5mAuaGXXkC9INJrlbxGBr+ikT1/qvzAV6kDPJyhFicXsJEJl04whbcEMgOEgxSxOqglYA1qZHQspo1/268nvtavfHlUV7w/p4vfnFIuE3VgawCiArBjGdhOuWJ4MqvJMVQJtFOmGjbMhndl9Jp35hiXwkC0tTpbyWzBjkotX8yBG6mtw0hR2DCdmpLQQoLPxPfSjMRgjtJIxlCfvGc6qbkkgYqoxddxaaKRKrn0+YgtiLAq6oG5u6j2PUllFuDU5pkCvaEcfeIUIKkCilo5j6QhO/eEYH6kzMPLQsO1FDj5RAUHAPMGjIQy2QSWoHMKh+L66VdGtfk7eFbxkbzhYx3qWpHU7X80oBGuYZfS4cKb2ZrWvPlVwIz3dczu47K6F6e17OKaNrxxkTJLa8p2Yoe4d2beT6N5nXx5jnyylkmGruvQP/6IcjXkRwRwCszNx4aKDViDo5M/j4W7vtrWr1Wqp5PBy4YUPzKvY/1qCpLJiIvqMRJbydir6ApepeLAnWEgIInFP7q1pq4cd+FTSDHvoYpXsAogyum00gwsjbrL2HkDRqJ15Cmh4hhliWqN6S42JQLbagM5Pf2Ngp75e7q2/HvTxxZq6RUZff3De3VwO2ZftqS116W07vpuxbE3zl6BkTpa0yAeyxy+ha5OqMT5gNsE4Lm1WJIeI+vTeYrWU6Jhdbzl5/XCRz5P82SiV/gX9WTcFT5ecic4ZZGPqmFiBL861HH1a1SZ30UdTJ//02gPkfkTLNKJ9/JYqhep8UnmV1yqcrVV5SU0rstKGqbbiF8tYiiTkQrzqaCOcY1Xk0p3X6bWtlu4aMInXhZsiUj91PPi6okml7lmu4R69GS+2GBGj30rr3tv3a1ErqzX/3a32i5I6hu/PqT+F7mOLyRr8yKZ0fJVrVpzfpbhhJjaFsTpvSTUvZLuYw/9hK4hBKc9l4h83m8Jhdg6UfJO6f6MHV/dC7Xg028nf09jcLVZpU/NL5u1KaDBRAi6wUjKt16r5OUXIcytbg7zvxlxTSWJX2XkhleGyo/0YgxjqpJbr5Yln8LO+HNVRh5TMX2QQcCyKnl8KhYWSI9YMqG2xAJGIC9Vbt4nKB/TvUIhJxMZXhxy4uOkklsUHQ6I9RgnLByI69m7+gFCuy67BbXXk9Dtvz+kA3ssdGOad3ZW63+egctVYKALduNyNwAwU/l2splnuHHGrthQH7jyJxgRbpqdD6Qj3jt1/vubFXvgGQ1+j0lgVLuN0clcPNzwohL4GpMXNUg5Wi9epwXvf4uSK5dN2OnTJb45SLDugxGIgepZTh74CjPo6NVgT1H51yqx8HwdevLzGtt/h3resAY3Pb6GZFYjW3dpBJf2WZe9S8mut2Kb9NSZfGTRDhfu6PPTK0bUsLGNsEfc9TOLKhjYibakNryOFnRWRnfT7d37NP4BBumS7Qn1npfWhve1KtVmZDWSkd2gJtLZ9JWii5NvO6pqohtO46cnNZPii1dq/n/+KF7hP9Xo7Q9A2dCELKk340lE+Iy7xxml161T7//575S+8RoKR5VP8h1NeuC4h01BYgeTjXm3KD5C8kz5aolJRgMlje3brRTKe//GFBb4ryiNhzUIuP68YoUt6n/kMXWu2qDunhaVg+eJ+Sl+1wwnM8Q9KtwZ8CCvZG9cV97SLqa26Cd/OaSDz8I0/CDLr2jV2quxnS7MKUxAm2E6TsvrzH9qym735AXnq/sPPqbk+f+ooW/cofiufZTb/RbLUhu1big2WQ3uTuXedoVyv36TWv7N5UhDlA9+iqaVflQhmt4fGUk4ZNxK3SWkx5CkpzL404e199EndZAZay1LF6FuhrX29W+iy7talYGDeu4vvqBDTz3JDPRxLbziEDq+RZ5wXrPRenIC4yjSD//0DPAgPpB6NRCNp0aJlmJg1T3/MKK+5zimV5Ii77aemi69GR8lEuQE1PLhzF6JIwi1tktVGD9ryar91ReqfeF89V5/lUZuu1N9jz6l6rN7lOjHW2jr6cIF6rhwtea98Q2KbThP1fPOBjoeyES18hfAFBrs9ArTFCRmvgfmMnWO4vpQbXRM+x54VPf/3ueUGGReKJVy9rvQd/OWqlw4pOf/8gvaf+89OnDHwzye0vgH+lRKeVApE8ZEjPOZTKEzCJ24RsKM8oS5Uc5hlFa0YnVG7Riu+QFaYUtKHeci0bJFRrHtbXCaeakWvXcmP+mn4Kz0WFGKoQU3hNgCJhC97mp1X7FBnSOMNZXGVB5nQJU+fTzXxsR0Rmu6WsOs/4TFEM/4n1VN5MWafrmbgiQMdHlcI2QQNdgKiN39/E61tTL/Fb9CJcOk/cvXK9eD+5oKKg+PApCnAE2P1n7wl7Xk6qupCgb98MDSRZhJ7oV3uZ1V8ctYNSawlQKVGJs9F1V03Tnt2Cd4Upnm4I5Jsr0AYLMwnWN3wyIzZMZpmtkX0oGdcBvgE6IxVFm1kKJToAz9dNR9cEE1MqVYsCI0mkIYY+KHl8KwLsPO+mDinEA7nXq2PJlazMXxoAaDBErsJfEEIxZ9aHRPn8YHBhTLtqht5ULFcvhDii3acfdd2vOPX9dZN92oBde+loK4z9BWfxvPModjphNsABtY+0i9kpdDUPvWzjGsbLcZjyvZsaekJxrRmihSyk6QE2CWs3hFEtLDyVMT8CS4uUYShSGPajDWKSfnfL5RnIgfPmEToRwNVeDlrAGUsBS1cSO3NEvTA4nFt2UJGUbrYW2jRAZtglHgKtMJwmQiZ4xoGzm4k2UI7YpnGHtMs1QB6JcxGkNvaHJJmlF3QtfdvCIRWgqtJ9K/foV7PUHU8hn3CGQ91aArglDjzBn6Dc/CaAj1UA18pwycM9hdsggipr0BFR+7xFFPz3UXllJQf6GdnGAdNAWJs5tLP9scONysfrb5MFf6KTgwB5IpmDN3KeLAHEjmkNCUA3MgacqiuRvmQDKHgaYcmANJUxbN3TAHkjkMNOXAHEiasmjuhjmQzGGgKQfmQNKURXM3zIFkDgNNOTAHkqYsmruhKUjCALD55JFD//HhiMo+9CyTifPhmmeIMVocjn1v/RF/h5O+MOmibzjtaVKeHDZ+Nb5D9hM/PCXCf437XM6orI1bGt/hpjPhwwSR/NWgvlE7E4UNd0zmfP2h+vlmX81BEuYd8FJPEWSeRpWgcx5gLxMRo+phd8975bKHoMOsHkI4eC6Pl0jWPA+C/+HPX55+NxlBfmRWUkSHSXE6TNLho+iKC+O5KNEkYhfJw/CeN+y/MzNFDTXQCo2ebMTQfp3PJtrQ8bf/onSi4TGaThUIr65XrAmpMrGhWB3X07v+X7WllmlJ52vUklvORB/mlICBAy/s1J49W7Vk1WotWryUNcDEIvODvCgUxB/hyN+zlFwI8jVzoigDUVuLZo421jibxAY4PK26cdWPuiLqTA7TOJu2rVkqWASBwFfnaBLrZPpn0YvhoT0Eq4B+zzIMc09cllAO39U8NZ2+WEV9ODiDM3f+JqhSG9bjL3xR+doYK/ZW6oIVb9Wqnrdrz5ZD+tRv/Zq6WJZ4w/t+S2+9+d8CKpATpvEHdARV5VWes5ZMtwk39czkYipS+DMMQoFcIv67vfkgOu8JVtF0Hs8IDed8E5IzvMuP8HcmpDBrMIi5qARh+Swr1PwrTbTrqLx1Sif4cGKUNwVJVKGI4DoKo1X7LYQHb9fg6D7t7X9AQ+UHVWU984v3ZTR2YEg9Z3frddddxwp2wGXeBuSaMHP3xAg81bs9oyvK1hyCaa5oa85QMH6bJOjzlMwoVBY0w+EEcpsFGjxjqeFyIGdombbDoiULPv/KJ0e4NkZqrIUOwK3z118O3mQqY6j9id0zuMkS80SobwoSczEQ0Hgtucdh4OLeS7Vn6AXmiTr+RVWPbv6Wnr67QzFma7/pPR8jcM08KsLLJwKZgZu2U7ztyGyn0IBgjKcqBoCYAKYuelmoA/vGaizlrDKbn7BTiDoKSCETbUwPbOebSdPAxUw2s7xYq14Ps12MY+cHuZYaXjDncnqSNIGvsU2IVMJ8Xk85dfTqEBOfcllCnuikzaYgccaeY20KfOwp2AnUx+olb9fmkTvVPzaiDBJj9/Yn9dQzrbrqul/UtW+5EQ3jdR4RQKAxPByhORTFb3pFUoRZuFg7SDS6rYqPPa1K4Sns1Rc4R1i6CtIFYMRTS1ideA7rc9YrkbmQCcgO/eAmYz3vZFH+yicvzBomutQh4tWNoF4cHS3hubvuZVJPcYDfSqOel2PNESRbiZ5ocMOmIDFO/c+RAEKM0/FRlQ72qXtPmy7O36gtldtU6i1q/wiRks89V7/xno8o8fQmjFvMpXm9qs1jFj3x5gn/EQmVVwgjjhZkm6QaI1Ag65ZrI8R7GybMc34ry4cJy82EbjPDwDYbqzTHOGCpZc6C/nWKd70RJX82Mpzw15lFTFdfxd3EVwtixVLKTZnChd/hY+YQZJ5ZBFKEEGOEfPYQqfqxvoIeGapq39CY+ka8KN8SxfRbvUAiUr2FSE1nEWMl25LULyzp1ms6s0R4ML0vTy5LpIqOvNq8d1P3e7i7W9n3kvLf+o6G7sAG6TtELkRXXjaqwlUL9dDBktYcWKBr+lM6sPdF4pHAy95epV9zidrf+UtKLDg7LFVkn4LZTTDYPCYQKxXMzP6hr7LC8MuKDW0iDv4oF+DsMZJVLCwPwE6w0KvQBdhZfJ4sALR5b1Oq+xaEyWKbOLzfLdc9B94V+DuzhbS5nQTEXk9RAARPHsrrC8/t1X0HxvTUGNAucocDvdZtwAisEOJuZa6mN7S3qpUwG1UWd/3HC5fo4vlezchLA2P4ridHtPYpl2Ryag4SlxuIVrY8rgN//HmN/+helXYNExDFhp2FLouuurPKE8OjlVhplX3DxEBHDxKbi7ao+JIWdb/mUnX/l48rfs46QnhCgKMWzlqiALTCCjZHeeB/KrHjr4kkcQCeEoWd5mbH4DGTJacrH6Ck2OMmbCHidTrYVNVlH2GtMdu1xDo4b8Y6j9AH5JzfdySTj/n+EzoZ8dILyp5g/fV/emi3bt9dAASAwwuI7Jiy6AjGeL08JsGigWvxRFEfWTNfz40kddOKnH71nE4lQrhR32QZGORgRLr5Ed5zmMCp1Y3zhob87i0a/pO/0L6/v5M1tV5vSgwy4OGIfgmYWCUQbZbAL2apgaFiFHrJJl5y97j2f+tuje/aq5U//CvWsp5lZM1aChrAYm3gr1Tb8SXWZrGCnOgI3t3LBjdK+5i0OIi/VaTFe+idoa4qaZbNt72W5aKoHqJFO0V7FFLyiQA3ZvzMJtPghY/jAPAxYrDevp1AbwZsIJ38JvjJTRTJVeDK938oZPFeBoCMakVbSv3YLkV+txGXxZcj2VFXl+FMeMgPTqSp5SKqpjJ+SIO33qrtX/wnFooXoIdgNHy28e3egqMNWJuP8+ewwM7OOt1ZOc6f446mM0DpgU3a8dE/ZuMhSna81jtB1swdxNyDGbmN0JR/RVz8feyDAJPiJQACcAhOc9xEdyEWAhPTe0NalBIsZ01igxCIp5ZbTRkoqxtR+Dc1G4+bxzQvmNMEGCOAMmbqWMiU36hP02+AhJ4B3wEg3Ovf3Ba+LQZQOyPQW2Lpa54lryNIyXgoHzXIfUdQ76yOSkdcP+oaUpru4fPbVLj1BwDDQX69UUYVQDh4ikNMWQx64aehYArDtkKhSIYLvlY+gVB7tOC274dIlCcxFmcRJCq9pMoh4s2yJ4wy0IyUjoVAeubi8VMQDF4uCoMTRGu0RE16M4ISC+Rtr7gu4J73yTGbLW2iVnn8d578FaJX01PJEOeshwYXKt9RgsIf5bC6aUgQV7KL5q48UTGDygEJrVxvR8WmgnokPJa7w0Gt1AEVHopeczSdU4MEY2jo+a3KP7YdOWEPQRRI1kyxBPFvSw6imvIrelVLOOOrFuduZ4hiNFSyM622vQNsbnFbVICjKTldv8cA5eCjvB10mEb+O65awuE4w3jBsTO2KrJKd/x5h0wPWrtCcJ7ydnQ3XeXAWzjvCuGHu/eNBn3sN578WUdmsNS2+puHyuhJo2qciBLp8oQUvusVHnw9nA1dSr4B8ABg3laiozFe0t6hmrbTG+3jvmIguv5csKei103+nNomqSAntrxIp8CSI3IiGbBeiu2mZKhYYPvP3PI/RxWL7PxIz/kuu/bTEGlW51/cxh1+emaT8w7vdO15IBJjNU60RY0+zhYk/Vyj5WDkhdYPJaaxWaUGw9sMh3lRiW3o0jQsVkgTZZg4OJUy+Z28CPpdBEdNJHBAOOUAxCW6siWCWxHvL9gWh4gXL3bMCEMeVjmmMICe86anCpBC3BYupsb1wEEkD72jty6J6eH949RhmTG3nLoJg76iPa3lIfjhYcz5jY00NUioXBHzwvmHrUVpXcEYpQCjHDvYnJnnSndyRUQU+jMSvi5nOk/ltNpuQew5fudpSAF4EXdpYRbJMItWr/HnqGPHjY142GgsDlMxVfLVBOWP01csNvbCAVXxJDHfJkKfU3oXeSId8WPi7HQOzCfzEu3sMC4cmwKri0ha54txvTBS0q4+YpDY50Mww7BxggHrQjk4i19Qpefo8JPUjqogADnvvXrQubo89qwWplbrpfHV8IYF/Pi8ckMxvXSopPO6S1rfA2jsoziqGFODBEOntmRhEFvEwQ2GqRWLd0qINjZy0V6eXDxf8Z/BEuc9JYs+x0Ht7Hn5AzNyBlDCMAfyC+I/hOs/RA+x76Tebvhb1RSQpmWCAseJtSbc9PHUOiRQXdyf1JuP/ZAVtPll8uOWEC4GHyOIvuf2DejRMfbpwXFWoFyrMgN6MM1QQhnAYpASIIY/6HPgEQ/F65CWJA5obW2vLqht1eqW7VpX2oy0GNfduc9qi84jHzah5PYaWnicLVr6sbXa2Qu5lZ248KIcgZMpQWKGt1x4PkFuMyofJChdEFJBCEP+sQFiFhiIljiWJTZr1UFBkCDE1FX6oguOIMD3z0wyNC1+PSZDsSxVUDk1jM2jGsa0sksCkBLviWO8uy0niDdWSS9TrO06nqcGZzi5i+t4b3m8odkgKWIapLVvxO/0KODI43catbpEuFzRvU+/M/4pjY0Pqy/RA4/dRSBMGeHc25DX85Hz82PD6kYCenDPOjbOhpv3dtyol5IApDqE+iKoD+rYYzkeCEyXUtpG6LIVBMQhLM4RaUqQ2HEUX7hQuVefo4HbN2K8OgXZwHfkFwmnjvFhNhpGRC8Lobdj/bSV7ja1OKjNUc6aYzx+YqfMh6g7AlVYG8YHgIkDEM9/OZkUWhld5TTdxUQesBEaPdl5JTEv15kFpyU5SlQCcBbNH3bufHh/Xo8dKGgYyVKrEHMO0JbYwWZXaoMOdL9Fr9I/6cLifjAAfTzigD0WDxV6QaX4Qr3U0au+2Dna0rpOu3Kv1WDyXLbBg1mo3xidEu+4XkbCtwG8DM61rpacslw+Ok0JEoeWTs5foPS1V6pyOxsdgVkbqQAPwLjfcuzkfDyobqAQQZUC0uWiJbRff6WSa1a6Ro/94CmedQ8jKiNU2hMZyxGD1RuMnXiyqR6nRZcBCqGcFO/dwEY373NN1Ok3F2YuRcFpsOqoZEfT3oGrfTf2YB4JZolcq4yGsGNpgD/GFkh3tH9QT2avU3dxL+wcIX4PdPo+V3ysS4XaYvVlejWeJOihbSvKk6YeyhjABpS7xA6W2BLP0LWuaGGuorVE884GW+3I+pkSJJYkyW4297vqtWq99NvKP7QNa6SCVrTjzFr0yJc1WOZC2TqnigjyBtGHQO78FvV+6L1EZ2b4faZBQusLlITmZJjAMOtqZtDZHX8yyUPsSZhbo0cQ775I5Xm/T5jx8+hxWIHSRI5d9JPJqv7M4RcGoNBA40iIFAap7e5RggRW8O/E0A1pYOJezd7Mem3PXmxsUH43WYPEtWKHBfWEqozjTMww7uMGW8E2dAz+HFI3gQSxehsvjGgJGzxduahDi2wLU7DDlESkTQ0S7nHWKWKHdt78epV2/r0ye/s5Z6Huf1Y5Udu1qdMYz/EZV1u0wwoe2VxS3e99o1KXvJrSzLw+D1wKmbpbazoI0snsOQ3/gD0C98EYmEbJvY+Uk7uUToGt3O/SWPZ5aiP/sf+4DrOL9kd0blBm/u/SUXg1b3UmjajQfsPMJTdgZ2uawIJ6IXhVV5v6832EYiekGIOMtrGwPGxKQKvpJXY8D5le75Fo4i0zXNFRQyGmNUBPIE1T8N2TpvL2fZXy2l/MaxEzCDeAjMt6slrawZZJx6mbpiAJGzS2d6jtPe/V8MPPKXHrPWhF+xmMXuPVyLMF4M9Y2CjQHS+frRKrvTZSVOsNGzT/A7+K8UR2Hqmc4eSq8waK7gXacI1hR9TYPLI0fg/+pjEYh4rwdZhnUNt7aT56fMaTc8zf4EBxa6WXgNzD9mhXpusN1Na/p7d5Ps43nFmuyWAYR3bPDBcjOE4hM4AxTVku7MiyG8g8fe+lQebtjKMKEoQbbWereSrc6hRWVmxjGLx1x5n5HshE3tToKZTpMIzheT1AlO59zP0pFDFumbpx/dlduoC9BC8hCHMOe6QaeEPxAi+OLFlTkHi/mAQzzNKLVmrhf/iIdm7dq8zjm1A3bMlugiDQAs4QcWIGBp/2whK/eJTqWb9EPb/zYSVWnIsQMcp9daYT3UdeGia9IV7dhfNcj1jybHZ4YLdRb9oEXQkma5s877fj3wFTrhQ73ujWlgFCgR5dK6CIdd1Cr+zNGFXs2o3KSRlVEG9++JD/M57cfCJJ4DwqaiO/i7MprV7doWeH0rp9z0GmZPTpEHqilT1rKCFqwxIA/ruSkRolVEwRz2qZb5yqOgg4xomQvbwlo2sWzdO1SxZrHeDroEG0Ms8kHubYRDH0Q/zbwJUjpX3TqQJwFObAUsRfjQ0Zh++4U4c+8p80/tJeimSfSRXbA+bCdKsca2yf7+DX2Noe9f7f/0Gd73ibkmlad8Ku8HCZj5lLztGKJImuDjt5IY/d29fYA0xA+0PFRh5BRHt8iRGnYFMYFEhB1zblSnlGlxtm61lMLvoVNpm8CXCcDRI4z3t9WxL54l3S/Wb/nmmQhJn85BWmLpjXzteQMb3MlgtqFIHYD52bBkbp9Qxqc9+QtrHR5BA7n4+iQkrcm0FXdaRy4e9sBqovmj9flxJP9yxswxakTdJ/vLxkHFAI52NwBukT1JW7/G5kh1NTkNjOsEXtVmQpUEOnjf34J9r3u59T8YUdeMChnFQaxEDqQYcju8sMQsVXLteCD/+qet72dpoq/Xj227WYTxl0VNBMJxvLDrcfr0WyrESLT9vfUOunevtRF0xuYBRbhZ14NTchp3fzBwQY8q9m2Zm05XycBZdxv70ERjJ00tp8FDYy4Wdwx5sJdaBwMGPJOZkrYQYdmXpjJ+ft3OxtCr8wOoPMDirSfIRkOzlIoffr4nLsZ6LEk9S+pay3gfX+G4afr8dw2/teZ2pDOcxNAWBlWsDR6qUpSLyZkLdAL6G3kojlGCK5gp4vb9qi0W99n/64x2USGtuxXy2rFjO6CEGjReWuYz3OhtfQ1yKENZS4KCW6aQawDdoZTS4tf1FcU1gLMx3w19LEvoeoXUZgtvEXMdwPWVnyD8aE3XXrqsQSI9LNlo++B3rNWR5x67YkCdz11wylaMzLTjtzqp5clFCJNNKgSyPTOdASIOTRMHeRI0nqp/x0UBYGs+0VpFJ0v0vtAgTiOeUus2Fj/vg9XKPc4Q3RLRxHqTlIeDaF547uemCSP6KAsTbeIlTam1qxOEed1Ijoa2LM2hhiPPREqRi784Oo5jV1OuskzMCXy8drLD08Tu3phpYC0RRE51pnPNd9X8RK6PAP/sK4GNd8viH2eYhrE0+G5zy9z6z2WbfoGU282m+3RAicCuCObC1Hua6Twx2+i1/1L38HSvzbqX7J34Hc6Gx0ftK9FTaFcmfaQ1y0KYpq0NCY/SO8sPGg32OuTJEC67BJAmO509P1/JZAQJ0gH0eIjN4ejEifM6HcHV3j24WNbpkix5O9VDdEXYkuaIOLR+Rn2p0aJ6OyROcmf5pip0Y5/SuCfjgXrs3wR5008yzi12TaInojieh8G/RPoqH+/MQZ3zLxCr8xusFwc9OOJEfILLwuagDHLl1TkExkOnfwM8uBSQrwZ5YHcwVvwoE5kDRh0NzlYGjMsWGOA1NzYE6STM2fuatwYA4kczBoyoE5kDRl0dwNcyCZw0BTDsyBpCmL5m6YA8kcBppyYA4kTVk0d8McSOYw0JQDcyBpyqK5G5qCxGPEYZy4/h0GhD2g6LkO0QcHDDN7Cle40UsqvVSoPizfeIGfD1c8JD2bifFPh58I80jI10SEPxfAo9sTJzjyb86YZiZPVXgmmh/LHBRmfYX7G7eHO8/sD88aDEWqFzXUiMvsMpxAagqSsM6EF1YNBEJKhYVAzJlk3SN5Mf8ijFozNM8SwxJzK2thLSrzLZg8wzIPGM4NzCXwZOPA+zAx5QQoPOVbPSzuiZWePFx/mWn27LgwQy4UgBPR3JiqV8l5PoP/823shwe51yvwvT7mX0ua2G6e2YQxyuWpo2GxWmjM0y9F06kCZqyBYUhGk3g84caZmZkwzBNp3QaZNhjCNHDsZzyjw1GEqsx2qniRA/dFkQlmfh2tszpuatQpREc0e4a/SwN5XIvmdhoQ0RssRfznObAUZSLly6wITBPAJzA4IGji2pl6YFJjNGxmvhLyxk3Fc9G8wO7oWaxTl+Do6YwvvztMMrIKYbYXKczgN484H2eKWqHCvHlmNSXDHvMsIhrtV2smS0yuLIvoMuF+r/uIWqqhzGFz+eWsZiZBa1TXtCSvvgss8nTKUAgKEmUTFvz5FGgJ4DdYfJEZ0mOscGMVg5JIStDOTW4C9QdnhsrT8xZm27mRxitDavFKP8IV1JjPW2Xh14mkptVlVtVqXhjkozyLe3YyO3s7RwSUio/qxb136JkXvqpxFkH1Dz6njU99VoPj+wi7RAgm1r6MVTYzi3sYllqCNMfkiRA/nXsNkAgkFNWqjuURng7o9Tae72o7JFw/ihOeXVcDVAf379KOH9yl57//I40NDnJvmJg5naxf8Xss6KsxAu+MPazytg+psvMTihXuoy68qjHiynSInEatWaf7nW5BVe08+FNt3f8DdXbP1+J5V6m/sk2PP/93SrFkYuuuu7Rv4AldcOG79cL+z6u/b7M6U8u0/qz3KJ1ieWeSibd+zXQom7F7zAz+PNmWVKX2KyhnVqdACBOPg0zxsnZaF4RFIprJfSzcqg2P6id/9Gfa9L27NEZ8lXd85v/SBW9+PVCf3RIEwk/iw/aTpQfLGFSZz6KQsfuUKXQrlTkHibiYN05PokwDJJYkZIYh6gjDna3nMOH5bv302b/WkjX3wsgW9bFM4f7nPq+B0QNqae/U/Ts+pT39W5UrLdHSlVexaLs12DVVzwTHTrFtMlvJEPc/V34VcIxrWNsOPKs9g9vVnurUynnr1NE2D3IACiv/jCdDoIpqee4n/6L7iVs7vH2v1lx/WVh+mXQZZo/8U2JTNKkZYzt9oZId70Zm/p4KpXsIJPQs9UCZj7Os8+hMmxqu1uFwNyxXSFgGEwZhsLZTD+78su4b/gtli4S0eWmI9Theo8oi5V4iFC5OqLd6jq5f8gktmnclC5dz0Ux6Hg9tMHwcTcrp+W0TyIoy4Wgt5bT2x0b1mX96m14c3qJUIaWlLQt13trLdMO579FZXatYXN3J0tCSXrjrx/qHP/gfWtg7Xwsvv1gb3ni9upedpXQngWMoxVHa6fQQf6pvRZ16xWFYq1DZT4P+JEtff6BUC7uHdH6WMnhxS11OMHncUp7KflnpmkoSLxkKbZE3mOEFQlF3jCzT5T3vZgH5NgKsfE9ji6Sh0bzSLWyVhJF39taVumH9e7Use6kSBYKlYLc6XKfX4lqnz64ksboxOpES5J+CacuQHg/tvF2lYkLbn9ump158TD9++Af6+Dv/q9Zlr9HY5l267c+/oq6F8/T6T/225q8APMkcZXAkBaf6O8PxGfyBinW7TvERKx2A+vFAf6V8uzIVghXHl0N8JBa9ctAYOamoAu7gpm3xW6dj3CeHD6ry0KMqfuWfddGjO9U+nFTf6naNeakLq/l6dsW0fFNKuYu+r4Grdqj17dcTTQBxh2gn7BddSCgJiJ0d5hrgTkVaCtpS7awF+sXz36fHt/5QWzc/p+KBiga3FlVY8KL+OPmb+tz1t+qJr34NQBd04yc+oZ5zVmNyA3QH9PG76AaF7UNmh/xTywVyHWU3ln+Q+K+fVL7yjMp5QoKwRjvW+qe8+5PEZ+sC8uYSIiBIE/cAj9SniU+TpqLE8QMq7uJSuZUdezT2P76kl/6Pzyn/xDOq7t+njsG0FrwY1/Lns1q8NadFB9Is1CqrsGePRjY+qcH7HlMnIrpy3mprfZDUqLapcp25a8ZkMEhcwfw3DVnQQkBJbdu9ibiBw+hsgnuN0hsbrWj06RdYQrxLV33017Xy8ssBCIbfxEL3uk/WjcYvO6MTtNowL+1VpfifVRl9DJWPw5MllvueI6BNx2YliMEVSxHfhFV+XuhnkFTo0QUjflLZmoKEJbwAhEWBRMk99Pm/1cBnvwQ2h0GfV5da+DpgTUWl5SytbCOU07A316gqtYb+eZaexLYDKjz4vFouI678kqVR4LtZ5K/tEVPosC4xeizeDCnFmtezFlygaveYdonufHWEmHkZQjqwq8ODg7r5/R/WhW96i9L27wDqsHTVJYVuPx9cRwDlTE8ud6z0dxod/AdK71WWRH1A6x7aCU9YYJ5btBWoX4IPaFlUFAxZh6DwiuPJqalN4savQkGxx57R+HfvQqsdUup8gh4MF1XcYdRZOBH5aDtReXi5+y4eyBnb4hAQkXdzZM9OZf/8y8pdfiFc9oLsI4ngxGlLYaUa3tPIiwq1GHMxgsp1ZTK6adWHtLL1Aj27+jFidnRp99/cowVL5+tVb7kJZyD3Rm0g7OgQgc2Uzx7tp8YUmjBx9AvjX2ZkBaeanZ2oyhSbQ7AVkfL9BLipjDDU8D1lkxvom7SFknlDpVDuSZmbDVMmL1p32KTCxmdVfmQHMqKm8R3Edt0RFBHPRgaPwWL3e+slUew+B5M1RIxgMKzhb96vCn6HMJYzZY4ze9GValsi7AMTfCVQSmuxr2NR+zL9wtp36f1Xf1y/vPJDyj1S0es+8CGlOlppXRh9lN2PBMcbZAVvrMk743GCkkVqVvN/iw2yDTVDLwcTIAyb0GC8U4jrJM65SvF57iWyJjyxanZ9HZ2agiTh0VBCTVe3blOhyu4IvKRl2CGnosB5ugAbhLOAk29UzuBYkC4W714pn0KnZ69ow0M7rPFtuxF/6K/ZTNYRrm1SVLc20TDm6qN9rIWnRWV1/5e+qvbeBZq3YQ132ohz9Cb/c+miMW2zz/e7sc1q8uioM+XLNEyMsJsITpSpZF8Og6gOE8JfpWwj9RucrxCSk6Xh/LmBE9TRm4ig9m2A04QcfiNEn3JjoqzH8J00BUmMcBHx4TEVhkcAghlmeeG+tI/aNLw5khQeRnL0o6GtI5ASD257bkE9FZXfPApU0ioc6m/UlC/NUjL7iHgAKIp0f/MFpGAen8koEC6gEgkPlRnPa/N992vZFRfiYDPco0SkMQBPSRm/SSBOYwUYbhbMdiKArxd0GwSGuFt7BHLvAkIdE6UpspPAjA8I21kc/28qFvYhNYi4yCnf4GEn9oUiUB+DJN5rjRAGceLAhri3LpPtLPI5OjWxSdya2NkBA7SAskqu6FDrki6N37efKidmCRHS0oSdMAYhk3PGosUW+i6cxYrm+dqhyKHTjl4Mxt/RVJzW3y44jj7KHj+4R+l7HlThvoc0lGJs9Jy1aiHY33hrSjtGhvXuW95Ho8JZ5lZH8/HQuj3NRUJpu+teoZWFmP/mI6+dreSgwwlvC+dKdMx4A9XdTXOc3ki0547VBxfKu+jB/He2E7xHKcdCwxdUce+DaEmOuDh6iFA/Y7gpLuLWPAOxXYQpCzsXWShZZrgGbTwcTk1A4uFlNs9ha67s0gXKDzH0PzoSXuFQnQaHw6rYl+LB59zajIafH+TtxrujvjqGGvZMAE1WqZUrMKCO7mBxw2lNMNaTQtgarvLnX9Tw//y69YsS/cyH6c5p/OI1GlixUOeX8+p44kmNt2xibAMJsvws1RYswsjNBLnpKrG4DnykfLOZvMOXAWGZHUMa2pIO6oWzcSRk3IZTZQ8CcyMAuRWv6gNgiK69iWb42pMDklYtjP7mD9BQ2bsn00PwMPbOySSuoWB2FHIrc4ReHucIdnFt6oTzKUaoytj5K1Vq7aBHMxAkhrmVfHVWlRcwiAiF5VflC1HvxvIksYYu8gjd4b3+lVT2otWqLl1OIZtquKnpOcGr5lMsnlfx69+W/r9/VHloCPha2kHHoRHlf/RYmATxpiU5FYkFVzVTuxlrupKxmvfcrNpFFxHGu9XwoDUbJLNLv4sbVItxAhgstz0OZZwGbhOntlK8T9XCd1Qq382oyR5sEC5aZHNjlTCOCUKCO+Z8MZ/S8MGYFqwgeqlVZ8taJCd+Ejd2305Nxdjbx++enKYBEl5BhL+2yy7RyKpViu/YB+ocagrjdQd6fdAqBYMV6yO13ZIlqoLaFvR+SO5bxNX6jp+DELILkJ1Mwuk9rjEBprZ9t0p3/ItiewaBayTlLFwMFROUNoh3E62Q7n2SVltN7Fdpx0HF9x9Sy+/9jrT8PGKYuRQkGH8s17Uvna4U6MTRBcFkj9qxLqzuJszZRjYP+BG9mMfxdu+APuQ74AjbrSDGHbc14dBJdqrhAzq4FVuSKuhaSvgyNi9obf0wUunwoObxZEbzZpEACIi39LIV6rn2Muhsha1mNG5qdvA0YKxW6lG3OLJX0rAxHN3HIfboiiXqeuPPE/aa4jbPcWZ5TTTk2IOPK7VzJ3RFfTJvweKYYZh05OWy4AwMShEbDPFdI0ZcjIHM4h0bVdv0vIqIZ5sACccBczMOTXlmyZz6bSh1/DtYpNhIDKYWv6v8yKeVH/0Dtq/9FvsKbuE80tyqxxOrmAVYSQEYei1oEIZE2DuY2McDL7Gp0iouU5/dmeuYQnBNAJWbiucpOyhyqMyjiGlaZdXQJaL10JIyv/Z2ZTacT/xQ3r/Be/FZgwGKDqIqriHCIsc+l70uB/vtYrPhG9f8D75P6ZXrMaCoHMfAnsXkzZNLe3epOMrODNBmo8weYksQQ9ii1qrH+wc60a5IZjRx1xnnKD/1LOKaJ/0Iet3qJpgI4b7Z+fCEbGQBNgcTuIY/qvHhj9NLuZ163Ul3lrkxqEgLaGCMfRIdl6A/hCEFIJXxFu18qKoFy7ExFzju60pi1P5HiuL9mqkxihXmQfjgGLqlKUjMVu9AFUPP1eZ1a97vfUDlRfOJxojRB2MNk8QYpisToM1HdlFR4cfepc9VElf369j98vWvVYx9+EKUw2P0w12805XM3jh+HrZ3wYj2fFub0Z6MmYZWwyHyOkRz1CJt6OMUdVKgNeQPDQMS2jC9u6qREpqduTpbCfqpvHjxEQ0NvA+w341q6aNXyag7kTBzACiD48wotlfHXTIHJk7hBbU0ybHV1qY7impnL+Cu8zlf6VSm/bPgaYlFCoVolKXx/fJyTQMkMAiu1hgcSjN3NXvdFWq95SbVNlpU2yiltTH/IvWCDUIrGceCrrKPApLkrLPU+pvvUvLclfRqKAyPREE6X07I6TpjoHpOp3tVptVeEEs8bxttSdJgQOPbPYgEatH6JUa/uX3ZMo6jGXW0lEBmwMnpIvhl7yW3yi4MzQ8rS/cWawKbA8sKSeHdJyo0zjJ2h+PLZzE640zPtA0Sz+LP2hfTI9+Pq+ucmla+2u+Zz6bXn6Aur+YeutLTTMcQLkc9CV/QEgCVA8RaLNGmBR//oGqAYuxr/xycZZY2tlM8dlOifXrUJqEF6v7gO9R2/VXB8PXEhhKtMW2j5PigPSrzGfgJQBKLmarX7iDAB9HqVoOGtzvpFgyucvcZTJRLgc+nDVMWOstZtm248Fxutt/Hz0QAi+7lx2wkG8qjX0Os4f9AcngXsjJSw0o77j14aMExuiYVXO9l6sgdsBJe9gECdlf6alq2HvtjeTtq6WylWt9PT/oXkejWANOvhKYgKeKpS7tLBSH+sv5Lt89X7+9/hE2j2an79vsABQ6zRVlEMq1wl51qLer67RuVev9bVW5vCwafbb54vSXOBm8becSgN75hvTLMMBtnxDeNovEMVyLJ88+QiKShpYsHJLPEYE/x58D98WtepTKz0dzjiYxVz95qAKqRw+n9NoQfvu0BLVpdoutKJzUPYOm1VOzcdNYY1UVsJ/vb7U0d6QcwMJs9BtR5CSBio6NK7AolWn+VuSPXUsLpS5BGyZqCJO3+NsyMBC1HXntAK4svXqSuz3yUHgu2xnfuwnNNO6O7SWdZXR97l3p+852qLlgYKiJc4jVsZReA1hDtDSJO57c3PdCqFYrddINqL9LD2TOuNB7k1DBMJWM7Ai0jLPtaehHXjKV7X4vCysXKvOPNAVyWHzbgaQOkyPydPXGIl3Ts1XrwgY36pfNGNc5Ed29N7M0SivxVmOhVHEcuwvs0KqZ9Hm5NysCKFtXsB0neoGTu9YBpLbRHZrk7Z8b9dFNTkLibbQnid9qpY9Ovgks7Rv86x4yz+Z/+LQ325jTwjbtUa29V7x++R63vfasqi5bSAumnuyZISQwqG65hXxb3EmYtAfAM2zP9ytvUzdjRwJ/8vcZxMCXZpCkBgJJ0/VLYK+4JxNhqBdcUO4hn1H3zzyt21ZU4I5kWEQph33IDGoePZqMYr/rFX9YLT++gor8dfB/uutv55Q0U4rm4eroAML9rqFZR1lhqPd3e17HG5ufg+UrqrotKhP8e1wEhUSOdfh1MYyL08dngORpigMxLD4b3HwDB7OE2vxc3Pt2qJKidPh3Hz+QUr9jm8NgGTY/RRnbA/OHdGvjCV6RHnmGeJ3NgKEKFjedGsgjiYRTOUtTLR39Z6be/ib0JPKOcQpxIsztFel/+OCqGIX0MDBxiT6mUvw/p8QROMvbeYyihytyYWLwbs2kV4Dhf8cw6DPWzgdGCoD6jcZhTk92nDJKGAVRl1nzcSAbSoZ29ooydxGqrR+rZfoOUdTdd4OoYk4I3Pqrag0+rtmMvDqkx1dowUi89X6lr/o1iK9Yg+tDdOJ3OhBQGJ41Vk19jsRUz/sPev6xCUNwLrUwnx2Gyt/0+ltqeyxOpl1MtwymBJGRuaRKhIvrJj7Dg+lQpm6nnoc1WRzCc+bbPI2J25CEpIYLd00khbSwZS6z39fobb8F2xpTDkrDhqjbxjAjbfBDk/XoAAAGASURBVC7T5Q17IZtX0GsHRPTPJ0gzhPFTAklQNxO0mCILd2g7U6RIoCjY0wHItmEpMMe0NY7NaIPBtnngPfe7AL7mdGpCOnrHzHzaiYeUDsz1G/kdoO9zdSrN/oneo6V5Q8b7/lNLTQ3XqV4fwYI7AIXp90cAiCviDAGKaYwK6dZ4mK64rfF6Mu1BuvBt4y7y+vj6mQETj5OZ3Ia9fxgAVin1cjQKYJpdIKfDRYx+n+TnKUkSE4OQDsSY/3YfB7o8kaFRopMkbKYeC7INcW2PSBgW8ItNnhujMUDrK0G3Df8wYjoZF5OP/dwrlaxuJkBgDtvuiLAQye7DeIjUja86zQxKThEkEYlGeRDdposCBWf3zNDnN55aqvMrCA6OA3sDvXU9PwFsflOKSh3c0Sj2GVKIiTrnwK0xoNvk+hgaJ5MZjt107Sq04Tr5Ij9PIp0aSE4iw7lH/vVx4EwRqP/6OPczRPEcSH6GKvtkizoHkpPl3M/Qc3Mg+Rmq7JMt6v8PnddAZTmvEzkAAAAASUVORK5CYII=;shadow=0;" parent="1" vertex="1">
                    <mxGeometry x="640" y="488" width="137" height="124" as="geometry"/>
                </mxCell>
                <mxCell id="20" value="" style="edgeStyle=none;html=1;" parent="1" source="17" target="19" edge="1">
                    <mxGeometry relative="1" as="geometry"/>
                </mxCell>
                <mxCell id="17" value="" style="sketch=0;aspect=fixed;html=1;points=[];align=center;image;fontSize=12;image=img/lib/mscae/Person.svg;shadow=0;" parent="1" vertex="1">
                    <mxGeometry x="690" y="650" width="37" height="50" as="geometry"/>
                </mxCell>
                <mxCell id="23" value="" style="edgeStyle=none;html=1;" parent="1" source="19" target="22" edge="1">
                    <mxGeometry relative="1" as="geometry"/>
                </mxCell>
                <mxCell id="70" style="edgeStyle=orthogonalEdgeStyle;html=1;exitX=0.25;exitY=1;exitDx=0;exitDy=0;" edge="1" parent="1" source="19" target="67">
                    <mxGeometry relative="1" as="geometry"/>
                </mxCell>
                <mxCell id="19" value="" style="shape=image;verticalLabelPosition=bottom;verticalAlign=top;imageAspect=0;aspect=fixed;image=data:image/png,iVBORw0KGgoAAAANSUhEUgAAAIkAAAB8CAYAAABde5NjAAABQ2lDQ1BJQ0MgUHJvZmlsZQAAKJFjYGASSSwoyGFhYGDIzSspCnJ3UoiIjFJgf8bAyCDMIMjAymCVmFxc4BgQ4ANUwgCjUcG3a0DVQHBZF2RWXSC38XPz4l9xSROTlxomsWKqRwFcKanFyUD6DxCnJhcUlTAwMKYA2crlJQUgdgeQLVIEdBSQPQfEToewN4DYSRD2EbCakCBnIPsGkC2QnJEINIPxBZCtk4Qkno7EhtoLAtzB/n6RCiFhChFhBFxLBihJrSgB0c75BZVFmekZJQqOwFBKVfDMS9bTUTAyMDJiYACFOUT150xwWDJmiCDEcuUZGCzvMDAw/UWIxVUwMKwHhodEBEJM246BQQwYXtuvFyQWJcIdwPiNpTjN2AjClowHelf2//+XwPDh62Jg+Cv2//8P+///f79lYGCbwsAwxRwAF9pckZ/eqHMAAAA4ZVhJZk1NACoAAAAIAAGHaQAEAAAAAQAAABoAAAAAAAKgAgAEAAAAAQAAAImgAwAEAAAAAQAAAHwAAAAAhzQfzAAAQABJREFUeAHtvQmc3Fd15/urvar3RbssWatt2bIxlm3MeIkdHLPFGIeBhN0hkwm8ABmS94E38yDDYxKSDy+ZycyETCYkLyQQEjYTEhaDbcB2bCzvuy1ZsmXtW6v37trrfX/3X9VqyVJXS2q1lQ99pa7613+75577u+ece+6958ZqUVIjxWIxcUr+dqrVqhzH+Za44g+O+Ygu1x/jPCdi/qrfo6pP+YlJ7/Jl/z7y4XA2XKnn28j/6O/GjY3z/l2tVhWPx8O3aT5M9+F8A/HkWYPAGLRXnU+chzkOxYhV+OG/dCA/lNXXI+rDt1TmWfjgJ8wbs8Llm0SznzhW/o17fN3p6N/R2eizUZ5j3RNxefLdPo7OBj6Hn/WKiUiE2lARXKmf9z0nmGIQE6r2uM/VzDwqgUzigZFkWkmpmqwoXkuExyowuaaEklSYuV+KVZXi7jMjUbwqDOJ/FfoDzWZgoDkeQBODXoVypiKS+R3YAiiABiUzB8wHWB6KZV6cPNNPlC9uqFUAaQpS5Gty3SIrBj0USslwzRCOVxPhei1Bud2Y4+PhumouW1SLAVgG+jRTstl95RiVT34xFVWtpBXjiUBktahisU+1+C6lK0la0EJV0u0wt1MpmHumYMRsrARyYGAd1JYaMY7dOqqAJVatqFKE3UMVDfaVVBiB7ZmUsl1ltfYmVUvGlEwDlVgpVIK5MbvlMzJdwREgnLmleZWKqFQpV7mokdKgXty3Ub1tZ2tRx2olkK7xMsCoZRVPQC/kmxduHJafdRnarPrD9aYgSarE292WjES3ygpSpKpD+/5GO7feru7ePs1rQdilVirZ8XplMzdDUHZamc/GTQZCEMVuVf4Bs+FQkBRmu2h5I9tjevHeirY9PqqR/nEVxmFwKqmWDmnxeUktvyqpxRcCFHhQA3FuKLOZqFcqnT+3/gp/HFepl9H8QT389Pe0sGutiokh3Xr3f9Gr19ygqy+8RS9ue1r9wwd1zaX/FiXaFWrPwEAm8S8ZpON0yzB1ca2JxioqP/cgrYnjc9YrmapqtO8zyhXu0Pi+EY3sHFL7Oaib7NMaz9+reNsLSvd+lPxb+XMLeGWTraKgRAJAAActzGK7poKS+Zi23l/SxlvHdPAZWuVgQdUiqtTgQWogNrT3oXFtvSOl9W+SNrxtvqodtEfEPDCatYLVqKVGjrU4JbJ2TBiwSd23+XYNj39NrZ0t6svv0WCpT9++/0t6atdPdeMlv4L0BBAUp4Y6NURsOKiGRIoHrkyrDFPbJICkODKi1Jf+RJVv/1DJW96t0pVlFcpf1ku7rtW89i5VU99UPP+0EilaGLZKvKVF7Yv/Tsn2q2G0JdArnWCKDQm+lKD9BYuVw4L0wu013fM3B5CIBTCRhYnob8BUq+a4GTAk8qrls8q10Pa6pQtuyumaD3YEQRla9SwVDbgatpAfFIYqtp+w/8qlojYNPaHPffHXVM2MKpEYVS4+X6XxhNace6l+48pPqqd1DbqThgHgrWDjts9sDkwfI0p8mnTcsiLeEomMCi29OvTYI6p+6+tqWfQjbaxcoT/83f165KlRXX/DVcpmN6IbC5CAmVfEOMwBrNabzhCQUDqrGnMZ3gSNXClq4NmE7v3KgHY+OqK4bS3AUzXz4yinalnlfElp7i+XKxqlTGkeHjxQVrK1pgWr0jQKv3B2UkJj5A4xpbiGKsPaNPiQ/mXrt/Wjp76pnbuf1KGRPajIPJqoX6NxzAGM1EXJJSr3tmpf8SW1tLUoE89iW6JwAIythxm1SZSEWeecLf27j2jrl/6blvfco6VLRrTugjatPXeNUskBVYfd+mBYrAUmF2DwPgAThDbfTm4Bs8fUkGX9I+Rfx0hEEUAZLWnLvWVteRwLlVYVrxVBA0BANJvKIvp+3Zs7dMlbW2iVNd31xQH13e9batr844JWrG/VvPNms0zwlYIU0iU9u+0+fffO/609B7ZoNOluOZdq44HbsUoHjSBBecrauu0hbdr9iDqLSb323Dfq5rd8XLH0vCBQLZkyk5nU5Hhqm8QPuxeQyar3qqvVsapHxfHfUG/yfv3up39O5dozGu//CdSPq4ytmobYGgowHj8rZGuTxr4J+xjcBZuAycRBuO20foTsJ+WXrJXUvy+nTXcMKj6CRKiUaHllFVNpbPKKkoWYWlZmdNm7c1p+GWVByvQs6tSfvXMIlVTU7ifL2v10Sb1r8KnQ6wnvr5cgKuuJtdLpFD7qupfoNWa0ani+brwTqfbwmPZ0VDXcGdP+hVU9/hqr+3atfaqmFS9axea1YldSHQPjSl/woLRos6pXzwNAuCfqKnc6efue5iCBwbEqFYy0a1m4XJmRm7Vv7x9L47ehG8vYQPxhTKUtskFFLZ5Wpu0ajsGqnzVSeNhQiToYRQQnDJ61FCEk+D1Qn3aIDR+s6cDuAVRkLipbAj9DuYZ6wbQrW3dzH7rbwrFapdsrbBREeQ2jtjRYUd92pOVYWql2DHbsLhvHLpz/cTDjJbOvJkV3NtF3UMm//aHmf/0FzS+XtBQKW7j23WulfCaj195V1HW3VTWvv4akcDmSykN98q49GvjsF9T56W7lXrUKc4DKPAGjpDlIYKp7XuHGFIS2vUMd3Y+pcPC72IMFpIb9ELjSAEyqDDBa29E6r+VaBAZjJHC7wbrYCVhMjWdO8Tuqtqgia4BgsA+9nbdkK0I7VQv9SeiyrySVLmtgd1xP3zam9nibCmPSnV/doRj3Z7I4CpE8QzxfHKkAEpxuVIULGFxuzsjMmuFkgKMNNfqdO9T3R9+kX9ZP1QfXmTME2DH93B0VveEbRc2jAWLCco+hZVuqDHUFHfrB/aqt+ZoySz6g+LKlfmzaqSlIQh0jU+O2rKtZejNL1drzKWWSl2l0+J9h9iYlygdQ9BQEjGQ6PsA9KylCTCV0fRymxd3LCTXljpwdQrMMlHrlmS+xQAsWUxk2U64Kkq9Wc3vDnLJBhw2WqLXq4a+VtPXHh1REbI/3xdXWjpS01LQ4DKUzOAAbnz46nSmFQR3vH9Wh3/9r2HiQ/OzrCBRrCBqu/xcEO3aU7YxR7sDs5tPXKzgiSurKJjSYH9Hgl7+n9tddobalCykCdTBNQPtNUyb7E1zhsbj71nS7QHUps1ax+UiUhZ9RquUcGIvBl8S/UMAnEW9VovioEngAU9goCXtqA9HQZAbbCzibiSzNC6sCSzXT0tGFasyUUDdccPe4hvoDNIqVVSplcFwV0dtFDe6XhvfFOU4DeECCEzHOcUt7RqksLZjnEULh3aFIHDcb5TjhoptobKXCj+7SwEsvUeXmp8vhrgHihW9Kg9qxcnEnF7uKK75mqIygKvP5MnVYUpICFe7GPhlAPPq900xNJUkMpsTcNYQUjxUkYV5VWRULi3D7fg/d/CTDAxAxjOYei6vQ//9otDujWOd6tXX8kpJtb1I8e1awRyiLOTq7yZVLjuGPvOMYm+290vzFHTqwk25jEYcJV602zFolGFqojgIGxDmgyOB5TeDyLIRuMq2VjkbvsoRSHbwsAbhcY261ZGD3w+lI1VJZB+68B67bz5rgn6VXVCpkTJAmztqN2f0zW0kMJgATN4kcHegSnxXsk7KGH3lCuQODynVgFkyT3qYgCYVulB5J4haZLMHSxPMaHPgyramIwymj5DDcwiubwqeggSIN8wEdqDylbPkeWu4naLlrGWuAfLrJx8aJC+107KvRtak/Q+Pw4z4IohQVGbof0TurqMzyaEIvPnVAo6MIaHS5WWofbJxxkCpioYz0Qz7guIoBkBKvynDfeBj/sDm16LyKlp7ney3wqRYzOgDFtDXK4OOZS/j0lHzqJV7oKk/ZkiInU2mIxNTBJ5Ry3uW0PeJ6qtKsbbcwFsV9OY4y/NX2A5Ahd/1N9PQUZVMsBcsdhltTRPa+D/jLb1F5+DGYSAnGII/xjhJMNp5qJQgYoMczPKzK3ttU3vundDc3B9Fshh5u2w1GRq3ipJlsUET//QVwEcbOhx8RuzhJASpI2ce/Kd3zv8Y0coAyuHuP8yl8c7N7PnHus1RxJSBKVMA4x5qlYcSU7U5o9fWt6l1rleTqqSdzkT9Dzv9mNFGGGCpxaHSILFyx/vOnv02DDYKonG7xlh+GhiEU3WkbxSoetcn5arEaQOY7p5uaShJnZyvZLc7GkP9iqJyR4hbyKcFYsi7Zywcp8CdeRhTjK8mOIxo5rqLnC6PfR8x3K19tV7ayUInuD1Byjxw3kHyKjOXxqmnhuwZDE35v4JAJghWAJj8obfzqqB79BiXABll6fgZ1A20DXPcIGgLaUyDiCOWArjgCm+cyvC+ZKivd064LfiGudb+AisHrakjMVjKQ07ksRqlrwimq4EiuH7+yG7XmOxjn5qkkEhGJk0oEOya8ahofZmGTBDPMD//ZnxtECqTC0yoV7aF2vGgYR1zHj12gS5mAuaGXXkC9INJrlbxGBr+ikT1/qvzAV6kDPJyhFicXsJEJl04whbcEMgOEgxSxOqglYA1qZHQspo1/268nvtavfHlUV7w/p4vfnFIuE3VgawCiArBjGdhOuWJ4MqvJMVQJtFOmGjbMhndl9Jp35hiXwkC0tTpbyWzBjkotX8yBG6mtw0hR2DCdmpLQQoLPxPfSjMRgjtJIxlCfvGc6qbkkgYqoxddxaaKRKrn0+YgtiLAq6oG5u6j2PUllFuDU5pkCvaEcfeIUIKkCilo5j6QhO/eEYH6kzMPLQsO1FDj5RAUHAPMGjIQy2QSWoHMKh+L66VdGtfk7eFbxkbzhYx3qWpHU7X80oBGuYZfS4cKb2ZrWvPlVwIz3dczu47K6F6e17OKaNrxxkTJLa8p2Yoe4d2beT6N5nXx5jnyylkmGruvQP/6IcjXkRwRwCszNx4aKDViDo5M/j4W7vtrWr1Wqp5PBy4YUPzKvY/1qCpLJiIvqMRJbydir6ApepeLAnWEgIInFP7q1pq4cd+FTSDHvoYpXsAogyum00gwsjbrL2HkDRqJ15Cmh4hhliWqN6S42JQLbagM5Pf2Ngp75e7q2/HvTxxZq6RUZff3De3VwO2ZftqS116W07vpuxbE3zl6BkTpa0yAeyxy+ha5OqMT5gNsE4Lm1WJIeI+vTeYrWU6Jhdbzl5/XCRz5P82SiV/gX9WTcFT5ecic4ZZGPqmFiBL861HH1a1SZ30UdTJ//02gPkfkTLNKJ9/JYqhep8UnmV1yqcrVV5SU0rstKGqbbiF8tYiiTkQrzqaCOcY1Xk0p3X6bWtlu4aMInXhZsiUj91PPi6okml7lmu4R69GS+2GBGj30rr3tv3a1ErqzX/3a32i5I6hu/PqT+F7mOLyRr8yKZ0fJVrVpzfpbhhJjaFsTpvSTUvZLuYw/9hK4hBKc9l4h83m8Jhdg6UfJO6f6MHV/dC7Xg028nf09jcLVZpU/NL5u1KaDBRAi6wUjKt16r5OUXIcytbg7zvxlxTSWJX2XkhleGyo/0YgxjqpJbr5Yln8LO+HNVRh5TMX2QQcCyKnl8KhYWSI9YMqG2xAJGIC9Vbt4nKB/TvUIhJxMZXhxy4uOkklsUHQ6I9RgnLByI69m7+gFCuy67BbXXk9Dtvz+kA3ssdGOad3ZW63+egctVYKALduNyNwAwU/l2splnuHHGrthQH7jyJxgRbpqdD6Qj3jt1/vubFXvgGQ1+j0lgVLuN0clcPNzwohL4GpMXNUg5Wi9epwXvf4uSK5dN2OnTJb45SLDugxGIgepZTh74CjPo6NVgT1H51yqx8HwdevLzGtt/h3resAY3Pb6GZFYjW3dpBJf2WZe9S8mut2Kb9NSZfGTRDhfu6PPTK0bUsLGNsEfc9TOLKhjYibakNryOFnRWRnfT7d37NP4BBumS7Qn1npfWhve1KtVmZDWSkd2gJtLZ9JWii5NvO6pqohtO46cnNZPii1dq/n/+KF7hP9Xo7Q9A2dCELKk340lE+Iy7xxml161T7//575S+8RoKR5VP8h1NeuC4h01BYgeTjXm3KD5C8kz5aolJRgMlje3brRTKe//GFBb4ryiNhzUIuP68YoUt6n/kMXWu2qDunhaVg+eJ+Sl+1wwnM8Q9KtwZ8CCvZG9cV97SLqa26Cd/OaSDz8I0/CDLr2jV2quxnS7MKUxAm2E6TsvrzH9qym735AXnq/sPPqbk+f+ooW/cofiufZTb/RbLUhu1big2WQ3uTuXedoVyv36TWv7N5UhDlA9+iqaVflQhmt4fGUk4ZNxK3SWkx5CkpzL404e199EndZAZay1LF6FuhrX29W+iy7talYGDeu4vvqBDTz3JDPRxLbziEDq+RZ5wXrPRenIC4yjSD//0DPAgPpB6NRCNp0aJlmJg1T3/MKK+5zimV5Ii77aemi69GR8lEuQE1PLhzF6JIwi1tktVGD9ryar91ReqfeF89V5/lUZuu1N9jz6l6rN7lOjHW2jr6cIF6rhwtea98Q2KbThP1fPOBjoeyES18hfAFBrs9ArTFCRmvgfmMnWO4vpQbXRM+x54VPf/3ueUGGReKJVy9rvQd/OWqlw4pOf/8gvaf+89OnDHwzye0vgH+lRKeVApE8ZEjPOZTKEzCJ24RsKM8oS5Uc5hlFa0YnVG7Riu+QFaYUtKHeci0bJFRrHtbXCaeakWvXcmP+mn4Kz0WFGKoQU3hNgCJhC97mp1X7FBnSOMNZXGVB5nQJU+fTzXxsR0Rmu6WsOs/4TFEM/4n1VN5MWafrmbgiQMdHlcI2QQNdgKiN39/E61tTL/Fb9CJcOk/cvXK9eD+5oKKg+PApCnAE2P1n7wl7Xk6qupCgb98MDSRZhJ7oV3uZ1V8ctYNSawlQKVGJs9F1V03Tnt2Cd4Upnm4I5Jsr0AYLMwnWN3wyIzZMZpmtkX0oGdcBvgE6IxVFm1kKJToAz9dNR9cEE1MqVYsCI0mkIYY+KHl8KwLsPO+mDinEA7nXq2PJlazMXxoAaDBErsJfEEIxZ9aHRPn8YHBhTLtqht5ULFcvhDii3acfdd2vOPX9dZN92oBde+loK4z9BWfxvPModjphNsABtY+0i9kpdDUPvWzjGsbLcZjyvZsaekJxrRmihSyk6QE2CWs3hFEtLDyVMT8CS4uUYShSGPajDWKSfnfL5RnIgfPmEToRwNVeDlrAGUsBS1cSO3NEvTA4nFt2UJGUbrYW2jRAZtglHgKtMJwmQiZ4xoGzm4k2UI7YpnGHtMs1QB6JcxGkNvaHJJmlF3QtfdvCIRWgqtJ9K/foV7PUHU8hn3CGQ91aArglDjzBn6Dc/CaAj1UA18pwycM9hdsggipr0BFR+7xFFPz3UXllJQf6GdnGAdNAWJs5tLP9scONysfrb5MFf6KTgwB5IpmDN3KeLAHEjmkNCUA3MgacqiuRvmQDKHgaYcmANJUxbN3TAHkjkMNOXAHEiasmjuhjmQzGGgKQfmQNKURXM3zIFkDgNNOTAHkqYsmruhKUjCALD55JFD//HhiMo+9CyTifPhmmeIMVocjn1v/RF/h5O+MOmibzjtaVKeHDZ+Nb5D9hM/PCXCf437XM6orI1bGt/hpjPhwwSR/NWgvlE7E4UNd0zmfP2h+vlmX81BEuYd8FJPEWSeRpWgcx5gLxMRo+phd8975bKHoMOsHkI4eC6Pl0jWPA+C/+HPX55+NxlBfmRWUkSHSXE6TNLho+iKC+O5KNEkYhfJw/CeN+y/MzNFDTXQCo2ebMTQfp3PJtrQ8bf/onSi4TGaThUIr65XrAmpMrGhWB3X07v+X7WllmlJ52vUklvORB/mlICBAy/s1J49W7Vk1WotWryUNcDEIvODvCgUxB/hyN+zlFwI8jVzoigDUVuLZo421jibxAY4PK26cdWPuiLqTA7TOJu2rVkqWASBwFfnaBLrZPpn0YvhoT0Eq4B+zzIMc09cllAO39U8NZ2+WEV9ODiDM3f+JqhSG9bjL3xR+doYK/ZW6oIVb9Wqnrdrz5ZD+tRv/Zq6WJZ4w/t+S2+9+d8CKpATpvEHdARV5VWes5ZMtwk39czkYipS+DMMQoFcIv67vfkgOu8JVtF0Hs8IDed8E5IzvMuP8HcmpDBrMIi5qARh+Swr1PwrTbTrqLx1Sif4cGKUNwVJVKGI4DoKo1X7LYQHb9fg6D7t7X9AQ+UHVWU984v3ZTR2YEg9Z3frddddxwp2wGXeBuSaMHP3xAg81bs9oyvK1hyCaa5oa85QMH6bJOjzlMwoVBY0w+EEcpsFGjxjqeFyIGdombbDoiULPv/KJ0e4NkZqrIUOwK3z118O3mQqY6j9id0zuMkS80SobwoSczEQ0Hgtucdh4OLeS7Vn6AXmiTr+RVWPbv6Wnr67QzFma7/pPR8jcM08KsLLJwKZgZu2U7ztyGyn0IBgjKcqBoCYAKYuelmoA/vGaizlrDKbn7BTiDoKSCETbUwPbOebSdPAxUw2s7xYq14Ps12MY+cHuZYaXjDncnqSNIGvsU2IVMJ8Xk85dfTqEBOfcllCnuikzaYgccaeY20KfOwp2AnUx+olb9fmkTvVPzaiDBJj9/Yn9dQzrbrqul/UtW+5EQ3jdR4RQKAxPByhORTFb3pFUoRZuFg7SDS6rYqPPa1K4Sns1Rc4R1i6CtIFYMRTS1ideA7rc9YrkbmQCcgO/eAmYz3vZFH+yicvzBomutQh4tWNoF4cHS3hubvuZVJPcYDfSqOel2PNESRbiZ5ocMOmIDFO/c+RAEKM0/FRlQ72qXtPmy7O36gtldtU6i1q/wiRks89V7/xno8o8fQmjFvMpXm9qs1jFj3x5gn/EQmVVwgjjhZkm6QaI1Ag65ZrI8R7GybMc34ry4cJy82EbjPDwDYbqzTHOGCpZc6C/nWKd70RJX82Mpzw15lFTFdfxd3EVwtixVLKTZnChd/hY+YQZJ5ZBFKEEGOEfPYQqfqxvoIeGapq39CY+ka8KN8SxfRbvUAiUr2FSE1nEWMl25LULyzp1ms6s0R4ML0vTy5LpIqOvNq8d1P3e7i7W9n3kvLf+o6G7sAG6TtELkRXXjaqwlUL9dDBktYcWKBr+lM6sPdF4pHAy95epV9zidrf+UtKLDg7LFVkn4LZTTDYPCYQKxXMzP6hr7LC8MuKDW0iDv4oF+DsMZJVLCwPwE6w0KvQBdhZfJ4sALR5b1Oq+xaEyWKbOLzfLdc9B94V+DuzhbS5nQTEXk9RAARPHsrrC8/t1X0HxvTUGNAucocDvdZtwAisEOJuZa6mN7S3qpUwG1UWd/3HC5fo4vlezchLA2P4ridHtPYpl2Ryag4SlxuIVrY8rgN//HmN/+helXYNExDFhp2FLouuurPKE8OjlVhplX3DxEBHDxKbi7ao+JIWdb/mUnX/l48rfs46QnhCgKMWzlqiALTCCjZHeeB/KrHjr4kkcQCeEoWd5mbH4DGTJacrH6Ck2OMmbCHidTrYVNVlH2GtMdu1xDo4b8Y6j9AH5JzfdySTj/n+EzoZ8dILyp5g/fV/emi3bt9dAASAwwuI7Jiy6AjGeL08JsGigWvxRFEfWTNfz40kddOKnH71nE4lQrhR32QZGORgRLr5Ed5zmMCp1Y3zhob87i0a/pO/0L6/v5M1tV5vSgwy4OGIfgmYWCUQbZbAL2apgaFiFHrJJl5y97j2f+tuje/aq5U//CvWsp5lZM1aChrAYm3gr1Tb8SXWZrGCnOgI3t3LBjdK+5i0OIi/VaTFe+idoa4qaZbNt72W5aKoHqJFO0V7FFLyiQA3ZvzMJtPghY/jAPAxYrDevp1AbwZsIJ38JvjJTRTJVeDK938oZPFeBoCMakVbSv3YLkV+txGXxZcj2VFXl+FMeMgPTqSp5SKqpjJ+SIO33qrtX/wnFooXoIdgNHy28e3egqMNWJuP8+ewwM7OOt1ZOc6f446mM0DpgU3a8dE/ZuMhSna81jtB1swdxNyDGbmN0JR/RVz8feyDAJPiJQACcAhOc9xEdyEWAhPTe0NalBIsZ01igxCIp5ZbTRkoqxtR+Dc1G4+bxzQvmNMEGCOAMmbqWMiU36hP02+AhJ4B3wEg3Ovf3Ba+LQZQOyPQW2Lpa54lryNIyXgoHzXIfUdQ76yOSkdcP+oaUpru4fPbVLj1BwDDQX69UUYVQDh4ikNMWQx64aehYArDtkKhSIYLvlY+gVB7tOC274dIlCcxFmcRJCq9pMoh4s2yJ4wy0IyUjoVAeubi8VMQDF4uCoMTRGu0RE16M4ISC+Rtr7gu4J73yTGbLW2iVnn8d578FaJX01PJEOeshwYXKt9RgsIf5bC6aUgQV7KL5q48UTGDygEJrVxvR8WmgnokPJa7w0Gt1AEVHopeczSdU4MEY2jo+a3KP7YdOWEPQRRI1kyxBPFvSw6imvIrelVLOOOrFuduZ4hiNFSyM622vQNsbnFbVICjKTldv8cA5eCjvB10mEb+O65awuE4w3jBsTO2KrJKd/x5h0wPWrtCcJ7ydnQ3XeXAWzjvCuGHu/eNBn3sN578WUdmsNS2+puHyuhJo2qciBLp8oQUvusVHnw9nA1dSr4B8ABg3laiozFe0t6hmrbTG+3jvmIguv5csKei103+nNomqSAntrxIp8CSI3IiGbBeiu2mZKhYYPvP3PI/RxWL7PxIz/kuu/bTEGlW51/cxh1+emaT8w7vdO15IBJjNU60RY0+zhYk/Vyj5WDkhdYPJaaxWaUGw9sMh3lRiW3o0jQsVkgTZZg4OJUy+Z28CPpdBEdNJHBAOOUAxCW6siWCWxHvL9gWh4gXL3bMCEMeVjmmMICe86anCpBC3BYupsb1wEEkD72jty6J6eH949RhmTG3nLoJg76iPa3lIfjhYcz5jY00NUioXBHzwvmHrUVpXcEYpQCjHDvYnJnnSndyRUQU+jMSvi5nOk/ltNpuQew5fudpSAF4EXdpYRbJMItWr/HnqGPHjY142GgsDlMxVfLVBOWP01csNvbCAVXxJDHfJkKfU3oXeSId8WPi7HQOzCfzEu3sMC4cmwKri0ha54txvTBS0q4+YpDY50Mww7BxggHrQjk4i19Qpefo8JPUjqogADnvvXrQubo89qwWplbrpfHV8IYF/Pi8ckMxvXSopPO6S1rfA2jsoziqGFODBEOntmRhEFvEwQ2GqRWLd0qINjZy0V6eXDxf8Z/BEuc9JYs+x0Ht7Hn5AzNyBlDCMAfyC+I/hOs/RA+x76Tebvhb1RSQpmWCAseJtSbc9PHUOiRQXdyf1JuP/ZAVtPll8uOWEC4GHyOIvuf2DejRMfbpwXFWoFyrMgN6MM1QQhnAYpASIIY/6HPgEQ/F65CWJA5obW2vLqht1eqW7VpX2oy0GNfduc9qi84jHzah5PYaWnicLVr6sbXa2Qu5lZ248KIcgZMpQWKGt1x4PkFuMyofJChdEFJBCEP+sQFiFhiIljiWJTZr1UFBkCDE1FX6oguOIMD3z0wyNC1+PSZDsSxVUDk1jM2jGsa0sksCkBLviWO8uy0niDdWSS9TrO06nqcGZzi5i+t4b3m8odkgKWIapLVvxO/0KODI43catbpEuFzRvU+/M/4pjY0Pqy/RA4/dRSBMGeHc25DX85Hz82PD6kYCenDPOjbOhpv3dtyol5IApDqE+iKoD+rYYzkeCEyXUtpG6LIVBMQhLM4RaUqQ2HEUX7hQuVefo4HbN2K8OgXZwHfkFwmnjvFhNhpGRC8Lobdj/bSV7ja1OKjNUc6aYzx+YqfMh6g7AlVYG8YHgIkDEM9/OZkUWhld5TTdxUQesBEaPdl5JTEv15kFpyU5SlQCcBbNH3bufHh/Xo8dKGgYyVKrEHMO0JbYwWZXaoMOdL9Fr9I/6cLifjAAfTzigD0WDxV6QaX4Qr3U0au+2Dna0rpOu3Kv1WDyXLbBg1mo3xidEu+4XkbCtwG8DM61rpacslw+Ok0JEoeWTs5foPS1V6pyOxsdgVkbqQAPwLjfcuzkfDyobqAQQZUC0uWiJbRff6WSa1a6Ro/94CmedQ8jKiNU2hMZyxGD1RuMnXiyqR6nRZcBCqGcFO/dwEY373NN1Ok3F2YuRcFpsOqoZEfT3oGrfTf2YB4JZolcq4yGsGNpgD/GFkh3tH9QT2avU3dxL+wcIX4PdPo+V3ysS4XaYvVlejWeJOihbSvKk6YeyhjABpS7xA6W2BLP0LWuaGGuorVE884GW+3I+pkSJJYkyW4297vqtWq99NvKP7QNa6SCVrTjzFr0yJc1WOZC2TqnigjyBtGHQO78FvV+6L1EZ2b4faZBQusLlITmZJjAMOtqZtDZHX8yyUPsSZhbo0cQ775I5Xm/T5jx8+hxWIHSRI5d9JPJqv7M4RcGoNBA40iIFAap7e5RggRW8O/E0A1pYOJezd7Mem3PXmxsUH43WYPEtWKHBfWEqozjTMww7uMGW8E2dAz+HFI3gQSxehsvjGgJGzxduahDi2wLU7DDlESkTQ0S7nHWKWKHdt78epV2/r0ye/s5Z6Huf1Y5Udu1qdMYz/EZV1u0wwoe2VxS3e99o1KXvJrSzLw+D1wKmbpbazoI0snsOQ3/gD0C98EYmEbJvY+Uk7uUToGt3O/SWPZ5aiP/sf+4DrOL9kd0blBm/u/SUXg1b3UmjajQfsPMJTdgZ2uawIJ6IXhVV5v6832EYiekGIOMtrGwPGxKQKvpJXY8D5le75Fo4i0zXNFRQyGmNUBPIE1T8N2TpvL2fZXy2l/MaxEzCDeAjMt6slrawZZJx6mbpiAJGzS2d6jtPe/V8MPPKXHrPWhF+xmMXuPVyLMF4M9Y2CjQHS+frRKrvTZSVOsNGzT/A7+K8UR2Hqmc4eSq8waK7gXacI1hR9TYPLI0fg/+pjEYh4rwdZhnUNt7aT56fMaTc8zf4EBxa6WXgNzD9mhXpusN1Na/p7d5Ps43nFmuyWAYR3bPDBcjOE4hM4AxTVku7MiyG8g8fe+lQebtjKMKEoQbbWereSrc6hRWVmxjGLx1x5n5HshE3tToKZTpMIzheT1AlO59zP0pFDFumbpx/dlduoC9BC8hCHMOe6QaeEPxAi+OLFlTkHi/mAQzzNKLVmrhf/iIdm7dq8zjm1A3bMlugiDQAs4QcWIGBp/2whK/eJTqWb9EPb/zYSVWnIsQMcp9daYT3UdeGia9IV7dhfNcj1jybHZ4YLdRb9oEXQkma5s877fj3wFTrhQ73ujWlgFCgR5dK6CIdd1Cr+zNGFXs2o3KSRlVEG9++JD/M57cfCJJ4DwqaiO/i7MprV7doWeH0rp9z0GmZPTpEHqilT1rKCFqwxIA/ruSkRolVEwRz2qZb5yqOgg4xomQvbwlo2sWzdO1SxZrHeDroEG0Ms8kHubYRDH0Q/zbwJUjpX3TqQJwFObAUsRfjQ0Zh++4U4c+8p80/tJeimSfSRXbA+bCdKsca2yf7+DX2Noe9f7f/0Gd73ibkmlad8Ku8HCZj5lLztGKJImuDjt5IY/d29fYA0xA+0PFRh5BRHt8iRGnYFMYFEhB1zblSnlGlxtm61lMLvoVNpm8CXCcDRI4z3t9WxL54l3S/Wb/nmmQhJn85BWmLpjXzteQMb3MlgtqFIHYD52bBkbp9Qxqc9+QtrHR5BA7n4+iQkrcm0FXdaRy4e9sBqovmj9flxJP9yxswxakTdJ/vLxkHFAI52NwBukT1JW7/G5kh1NTkNjOsEXtVmQpUEOnjf34J9r3u59T8YUdeMChnFQaxEDqQYcju8sMQsVXLteCD/+qet72dpoq/Xj227WYTxl0VNBMJxvLDrcfr0WyrESLT9vfUOunevtRF0xuYBRbhZ14NTchp3fzBwQY8q9m2Zm05XycBZdxv70ERjJ00tp8FDYy4Wdwx5sJdaBwMGPJOZkrYQYdmXpjJ+ft3OxtCr8wOoPMDirSfIRkOzlIoffr4nLsZ6LEk9S+pay3gfX+G4afr8dw2/teZ2pDOcxNAWBlWsDR6qUpSLyZkLdAL6G3kojlGCK5gp4vb9qi0W99n/64x2USGtuxXy2rFjO6CEGjReWuYz3OhtfQ1yKENZS4KCW6aQawDdoZTS4tf1FcU1gLMx3w19LEvoeoXUZgtvEXMdwPWVnyD8aE3XXrqsQSI9LNlo++B3rNWR5x67YkCdz11wylaMzLTjtzqp5clFCJNNKgSyPTOdASIOTRMHeRI0nqp/x0UBYGs+0VpFJ0v0vtAgTiOeUus2Fj/vg9XKPc4Q3RLRxHqTlIeDaF547uemCSP6KAsTbeIlTam1qxOEed1Ijoa2LM2hhiPPREqRi784Oo5jV1OuskzMCXy8drLD08Tu3phpYC0RRE51pnPNd9X8RK6PAP/sK4GNd8viH2eYhrE0+G5zy9z6z2WbfoGU282m+3RAicCuCObC1Hua6Twx2+i1/1L38HSvzbqX7J34Hc6Gx0ftK9FTaFcmfaQ1y0KYpq0NCY/SO8sPGg32OuTJEC67BJAmO509P1/JZAQJ0gH0eIjN4ejEifM6HcHV3j24WNbpkix5O9VDdEXYkuaIOLR+Rn2p0aJ6OyROcmf5pip0Y5/SuCfjgXrs3wR5008yzi12TaInojieh8G/RPoqH+/MQZ3zLxCr8xusFwc9OOJEfILLwuagDHLl1TkExkOnfwM8uBSQrwZ5YHcwVvwoE5kDRh0NzlYGjMsWGOA1NzYE6STM2fuatwYA4kczBoyoE5kDRl0dwNcyCZw0BTDsyBpCmL5m6YA8kcBppyYA4kTVk0d8McSOYw0JQDcyBpyqK5G5qCxGPEYZy4/h0GhD2g6LkO0QcHDDN7Cle40UsqvVSoPizfeIGfD1c8JD2bifFPh58I80jI10SEPxfAo9sTJzjyb86YZiZPVXgmmh/LHBRmfYX7G7eHO8/sD88aDEWqFzXUiMvsMpxAagqSsM6EF1YNBEJKhYVAzJlk3SN5Mf8ijFozNM8SwxJzK2thLSrzLZg8wzIPGM4NzCXwZOPA+zAx5QQoPOVbPSzuiZWePFx/mWn27LgwQy4UgBPR3JiqV8l5PoP/823shwe51yvwvT7mX0ua2G6e2YQxyuWpo2GxWmjM0y9F06kCZqyBYUhGk3g84caZmZkwzBNp3QaZNhjCNHDsZzyjw1GEqsx2qniRA/dFkQlmfh2tszpuatQpREc0e4a/SwN5XIvmdhoQ0RssRfznObAUZSLly6wITBPAJzA4IGji2pl6YFJjNGxmvhLyxk3Fc9G8wO7oWaxTl+Do6YwvvztMMrIKYbYXKczgN484H2eKWqHCvHlmNSXDHvMsIhrtV2smS0yuLIvoMuF+r/uIWqqhzGFz+eWsZiZBa1TXtCSvvgss8nTKUAgKEmUTFvz5FGgJ4DdYfJEZ0mOscGMVg5JIStDOTW4C9QdnhsrT8xZm27mRxitDavFKP8IV1JjPW2Xh14mkptVlVtVqXhjkozyLe3YyO3s7RwSUio/qxb136JkXvqpxFkH1Dz6njU99VoPj+wi7RAgm1r6MVTYzi3sYllqCNMfkiRA/nXsNkAgkFNWqjuURng7o9Tae72o7JFw/ihOeXVcDVAf379KOH9yl57//I40NDnJvmJg5naxf8Xss6KsxAu+MPazytg+psvMTihXuoy68qjHiynSInEatWaf7nW5BVe08+FNt3f8DdXbP1+J5V6m/sk2PP/93SrFkYuuuu7Rv4AldcOG79cL+z6u/b7M6U8u0/qz3KJ1ieWeSibd+zXQom7F7zAz+PNmWVKX2KyhnVqdACBOPg0zxsnZaF4RFIprJfSzcqg2P6id/9Gfa9L27NEZ8lXd85v/SBW9+PVCf3RIEwk/iw/aTpQfLGFSZz6KQsfuUKXQrlTkHibiYN05PokwDJJYkZIYh6gjDna3nMOH5bv302b/WkjX3wsgW9bFM4f7nPq+B0QNqae/U/Ts+pT39W5UrLdHSlVexaLs12DVVzwTHTrFtMlvJEPc/V34VcIxrWNsOPKs9g9vVnurUynnr1NE2D3IACiv/jCdDoIpqee4n/6L7iVs7vH2v1lx/WVh+mXQZZo/8U2JTNKkZYzt9oZId70Zm/p4KpXsIJPQs9UCZj7Os8+hMmxqu1uFwNyxXSFgGEwZhsLZTD+78su4b/gtli4S0eWmI9Theo8oi5V4iFC5OqLd6jq5f8gktmnclC5dz0Ux6Hg9tMHwcTcrp+W0TyIoy4Wgt5bT2x0b1mX96m14c3qJUIaWlLQt13trLdMO579FZXatYXN3J0tCSXrjrx/qHP/gfWtg7Xwsvv1gb3ni9upedpXQngWMoxVHa6fQQf6pvRZ16xWFYq1DZT4P+JEtff6BUC7uHdH6WMnhxS11OMHncUp7KflnpmkoSLxkKbZE3mOEFQlF3jCzT5T3vZgH5NgKsfE9ji6Sh0bzSLWyVhJF39taVumH9e7Use6kSBYKlYLc6XKfX4lqnz64ksboxOpES5J+CacuQHg/tvF2lYkLbn9ump158TD9++Af6+Dv/q9Zlr9HY5l267c+/oq6F8/T6T/225q8APMkcZXAkBaf6O8PxGfyBinW7TvERKx2A+vFAf6V8uzIVghXHl0N8JBa9ctAYOamoAu7gpm3xW6dj3CeHD6ry0KMqfuWfddGjO9U+nFTf6naNeakLq/l6dsW0fFNKuYu+r4Grdqj17dcTTQBxh2gn7BddSCgJiJ0d5hrgTkVaCtpS7awF+sXz36fHt/5QWzc/p+KBiga3FlVY8KL+OPmb+tz1t+qJr34NQBd04yc+oZ5zVmNyA3QH9PG76AaF7UNmh/xTywVyHWU3ln+Q+K+fVL7yjMp5QoKwRjvW+qe8+5PEZ+sC8uYSIiBIE/cAj9SniU+TpqLE8QMq7uJSuZUdezT2P76kl/6Pzyn/xDOq7t+njsG0FrwY1/Lns1q8NadFB9Is1CqrsGePRjY+qcH7HlMnIrpy3mprfZDUqLapcp25a8ZkMEhcwfw3DVnQQkBJbdu9ibiBw+hsgnuN0hsbrWj06RdYQrxLV33017Xy8ssBCIbfxEL3uk/WjcYvO6MTtNowL+1VpfifVRl9DJWPw5MllvueI6BNx2YliMEVSxHfhFV+XuhnkFTo0QUjflLZmoKEJbwAhEWBRMk99Pm/1cBnvwQ2h0GfV5da+DpgTUWl5SytbCOU07A316gqtYb+eZaexLYDKjz4vFouI678kqVR4LtZ5K/tEVPosC4xeizeDCnFmtezFlygaveYdonufHWEmHkZQjqwq8ODg7r5/R/WhW96i9L27wDqsHTVJYVuPx9cRwDlTE8ud6z0dxod/AdK71WWRH1A6x7aCU9YYJ5btBWoX4IPaFlUFAxZh6DwiuPJqalN4savQkGxx57R+HfvQqsdUup8gh4MF1XcYdRZOBH5aDtReXi5+y4eyBnb4hAQkXdzZM9OZf/8y8pdfiFc9oLsI4ngxGlLYaUa3tPIiwq1GHMxgsp1ZTK6adWHtLL1Aj27+jFidnRp99/cowVL5+tVb7kJZyD3Rm0g7OgQgc2Uzx7tp8YUmjBx9AvjX2ZkBaeanZ2oyhSbQ7AVkfL9BLipjDDU8D1lkxvom7SFknlDpVDuSZmbDVMmL1p32KTCxmdVfmQHMqKm8R3Edt0RFBHPRgaPwWL3e+slUew+B5M1RIxgMKzhb96vCn6HMJYzZY4ze9GValsi7AMTfCVQSmuxr2NR+zL9wtp36f1Xf1y/vPJDyj1S0es+8CGlOlppXRh9lN2PBMcbZAVvrMk743GCkkVqVvN/iw2yDTVDLwcTIAyb0GC8U4jrJM65SvF57iWyJjyxanZ9HZ2agiTh0VBCTVe3blOhyu4IvKRl2CGnosB5ugAbhLOAk29UzuBYkC4W714pn0KnZ69ow0M7rPFtuxF/6K/ZTNYRrm1SVLc20TDm6qN9rIWnRWV1/5e+qvbeBZq3YQ132ohz9Cb/c+miMW2zz/e7sc1q8uioM+XLNEyMsJsITpSpZF8Og6gOE8JfpWwj9RucrxCSk6Xh/LmBE9TRm4ig9m2A04QcfiNEn3JjoqzH8J00BUmMcBHx4TEVhkcAghlmeeG+tI/aNLw5khQeRnL0o6GtI5ASD257bkE9FZXfPApU0ioc6m/UlC/NUjL7iHgAKIp0f/MFpGAen8koEC6gEgkPlRnPa/N992vZFRfiYDPco0SkMQBPSRm/SSBOYwUYbhbMdiKArxd0GwSGuFt7BHLvAkIdE6UpspPAjA8I21kc/28qFvYhNYi4yCnf4GEn9oUiUB+DJN5rjRAGceLAhri3LpPtLPI5OjWxSdya2NkBA7SAskqu6FDrki6N37efKidmCRHS0oSdMAYhk3PGosUW+i6cxYrm+dqhyKHTjl4Mxt/RVJzW3y44jj7KHj+4R+l7HlThvoc0lGJs9Jy1aiHY33hrSjtGhvXuW95Ho8JZ5lZH8/HQuj3NRUJpu+teoZWFmP/mI6+dreSgwwlvC+dKdMx4A9XdTXOc3ki0547VBxfKu+jB/He2E7xHKcdCwxdUce+DaEmOuDh6iFA/Y7gpLuLWPAOxXYQpCzsXWShZZrgGbTwcTk1A4uFlNs9ha67s0gXKDzH0PzoSXuFQnQaHw6rYl+LB59zajIafH+TtxrujvjqGGvZMAE1WqZUrMKCO7mBxw2lNMNaTQtgarvLnX9Tw//y69YsS/cyH6c5p/OI1GlixUOeX8+p44kmNt2xibAMJsvws1RYswsjNBLnpKrG4DnykfLOZvMOXAWGZHUMa2pIO6oWzcSRk3IZTZQ8CcyMAuRWv6gNgiK69iWb42pMDklYtjP7mD9BQ2bsn00PwMPbOySSuoWB2FHIrc4ReHucIdnFt6oTzKUaoytj5K1Vq7aBHMxAkhrmVfHVWlRcwiAiF5VflC1HvxvIksYYu8gjd4b3+lVT2otWqLl1OIZtquKnpOcGr5lMsnlfx69+W/r9/VHloCPha2kHHoRHlf/RYmATxpiU5FYkFVzVTuxlrupKxmvfcrNpFFxHGu9XwoDUbJLNLv4sbVItxAhgstz0OZZwGbhOntlK8T9XCd1Qq382oyR5sEC5aZHNjlTCOCUKCO+Z8MZ/S8MGYFqwgeqlVZ8taJCd+Ejd2305Nxdjbx++enKYBEl5BhL+2yy7RyKpViu/YB+ocagrjdQd6fdAqBYMV6yO13ZIlqoLaFvR+SO5bxNX6jp+DELILkJ1Mwuk9rjEBprZ9t0p3/ItiewaBayTlLFwMFROUNoh3E62Q7n2SVltN7Fdpx0HF9x9Sy+/9jrT8PGKYuRQkGH8s17Uvna4U6MTRBcFkj9qxLqzuJszZRjYP+BG9mMfxdu+APuQ74AjbrSDGHbc14dBJdqrhAzq4FVuSKuhaSvgyNi9obf0wUunwoObxZEbzZpEACIi39LIV6rn2Muhsha1mNG5qdvA0YKxW6lG3OLJX0rAxHN3HIfboiiXqeuPPE/aa4jbPcWZ5TTTk2IOPK7VzJ3RFfTJvweKYYZh05OWy4AwMShEbDPFdI0ZcjIHM4h0bVdv0vIqIZ5sACccBczMOTXlmyZz6bSh1/DtYpNhIDKYWv6v8yKeVH/0Dtq/9FvsKbuE80tyqxxOrmAVYSQEYei1oEIZE2DuY2McDL7Gp0iouU5/dmeuYQnBNAJWbiucpOyhyqMyjiGlaZdXQJaL10JIyv/Z2ZTacT/xQ3r/Be/FZgwGKDqIqriHCIsc+l70uB/vtYrPhG9f8D75P6ZXrMaCoHMfAnsXkzZNLe3epOMrODNBmo8weYksQQ9ii1qrH+wc60a5IZjRx1xnnKD/1LOKaJ/0Iet3qJpgI4b7Z+fCEbGQBNgcTuIY/qvHhj9NLuZ163Ul3lrkxqEgLaGCMfRIdl6A/hCEFIJXxFu18qKoFy7ExFzju60pi1P5HiuL9mqkxihXmQfjgGLqlKUjMVu9AFUPP1eZ1a97vfUDlRfOJxojRB2MNk8QYpisToM1HdlFR4cfepc9VElf369j98vWvVYx9+EKUw2P0w12805XM3jh+HrZ3wYj2fFub0Z6MmYZWwyHyOkRz1CJt6OMUdVKgNeQPDQMS2jC9u6qREpqduTpbCfqpvHjxEQ0NvA+w341q6aNXyag7kTBzACiD48wotlfHXTIHJk7hBbU0ybHV1qY7impnL+Cu8zlf6VSm/bPgaYlFCoVolKXx/fJyTQMkMAiu1hgcSjN3NXvdFWq95SbVNlpU2yiltTH/IvWCDUIrGceCrrKPApLkrLPU+pvvUvLclfRqKAyPREE6X07I6TpjoHpOp3tVptVeEEs8bxttSdJgQOPbPYgEatH6JUa/uX3ZMo6jGXW0lEBmwMnpIvhl7yW3yi4MzQ8rS/cWawKbA8sKSeHdJyo0zjJ2h+PLZzE640zPtA0Sz+LP2hfTI9+Pq+ucmla+2u+Zz6bXn6Aur+YeutLTTMcQLkc9CV/QEgCVA8RaLNGmBR//oGqAYuxr/xycZZY2tlM8dlOifXrUJqEF6v7gO9R2/VXB8PXEhhKtMW2j5PigPSrzGfgJQBKLmarX7iDAB9HqVoOGtzvpFgyucvcZTJRLgc+nDVMWOstZtm248Fxutt/Hz0QAi+7lx2wkG8qjX0Os4f9AcngXsjJSw0o77j14aMExuiYVXO9l6sgdsBJe9gECdlf6alq2HvtjeTtq6WylWt9PT/oXkejWANOvhKYgKeKpS7tLBSH+sv5Lt89X7+9/hE2j2an79vsABQ6zRVlEMq1wl51qLer67RuVev9bVW5vCwafbb54vSXOBm8becSgN75hvTLMMBtnxDeNovEMVyLJ88+QiKShpYsHJLPEYE/x58D98WtepTKz0dzjiYxVz95qAKqRw+n9NoQfvu0BLVpdoutKJzUPYOm1VOzcdNYY1UVsJ/vb7U0d6QcwMJs9BtR5CSBio6NK7AolWn+VuSPXUsLpS5BGyZqCJO3+NsyMBC1HXntAK4svXqSuz3yUHgu2xnfuwnNNO6O7SWdZXR97l3p+852qLlgYKiJc4jVsZReA1hDtDSJO57c3PdCqFYrddINqL9LD2TOuNB7k1DBMJWM7Ai0jLPtaehHXjKV7X4vCysXKvOPNAVyWHzbgaQOkyPydPXGIl3Ts1XrwgY36pfNGNc5Ed29N7M0SivxVmOhVHEcuwvs0KqZ9Hm5NysCKFtXsB0neoGTu9YBpLbRHZrk7Z8b9dFNTkLibbQnid9qpY9Ovgks7Rv86x4yz+Z/+LQ325jTwjbtUa29V7x++R63vfasqi5bSAumnuyZISQwqG65hXxb3EmYtAfAM2zP9ytvUzdjRwJ/8vcZxMCXZpCkBgJJ0/VLYK+4JxNhqBdcUO4hn1H3zzyt21ZU4I5kWEQph33IDGoePZqMYr/rFX9YLT++gor8dfB/uutv55Q0U4rm4eroAML9rqFZR1lhqPd3e17HG5ufg+UrqrotKhP8e1wEhUSOdfh1MYyL08dngORpigMxLD4b3HwDB7OE2vxc3Pt2qJKidPh3Hz+QUr9jm8NgGTY/RRnbA/OHdGvjCV6RHnmGeJ3NgKEKFjedGsgjiYRTOUtTLR39Z6be/ib0JPKOcQpxIsztFel/+OCqGIX0MDBxiT6mUvw/p8QROMvbeYyihytyYWLwbs2kV4Dhf8cw6DPWzgdGCoD6jcZhTk92nDJKGAVRl1nzcSAbSoZ29ooydxGqrR+rZfoOUdTdd4OoYk4I3Pqrag0+rtmMvDqkx1dowUi89X6lr/o1iK9Yg+tDdOJ3OhBQGJ41Vk19jsRUz/sPev6xCUNwLrUwnx2Gyt/0+ltqeyxOpl1MtwymBJGRuaRKhIvrJj7Dg+lQpm6nnoc1WRzCc+bbPI2J25CEpIYLd00khbSwZS6z39fobb8F2xpTDkrDhqjbxjAjbfBDk/XoAAAGASURBVC7T5Q17IZtX0GsHRPTPJ0gzhPFTAklQNxO0mCILd2g7U6RIoCjY0wHItmEpMMe0NY7NaIPBtnngPfe7AL7mdGpCOnrHzHzaiYeUDsz1G/kdoO9zdSrN/oneo6V5Q8b7/lNLTQ3XqV4fwYI7AIXp90cAiCviDAGKaYwK6dZ4mK64rfF6Mu1BuvBt4y7y+vj6mQETj5OZ3Ia9fxgAVin1cjQKYJpdIKfDRYx+n+TnKUkSE4OQDsSY/3YfB7o8kaFRopMkbKYeC7INcW2PSBgW8ItNnhujMUDrK0G3Df8wYjoZF5OP/dwrlaxuJkBgDtvuiLAQye7DeIjUja86zQxKThEkEYlGeRDdposCBWf3zNDnN55aqvMrCA6OA3sDvXU9PwFsflOKSh3c0Sj2GVKIiTrnwK0xoNvk+hgaJ5MZjt107Sq04Tr5Ij9PIp0aSE4iw7lH/vVx4EwRqP/6OPczRPEcSH6GKvtkizoHkpPl3M/Qc3Mg+Rmq7JMt6v8PnddAZTmvEzkAAAAASUVORK5CYII=;shadow=0;" parent="1" vertex="1">
                    <mxGeometry x="640" y="740" width="137" height="124" as="geometry"/>
                </mxCell>
                <mxCell id="25" value="" style="edgeStyle=none;html=1;" parent="1" source="22" target="24" edge="1">
                    <mxGeometry relative="1" as="geometry"/>
                </mxCell>
                <mxCell id="22" value="" style="sketch=0;aspect=fixed;html=1;points=[];align=center;image;fontSize=12;image=img/lib/mscae/Cognitive_Services.svg;shadow=0;" parent="1" vertex="1">
                    <mxGeometry x="683.5" y="890" width="50" height="30" as="geometry"/>
                </mxCell>
                <mxCell id="31" value="" style="edgeStyle=none;html=1;startArrow=none;" parent="1" source="32" edge="1">
                    <mxGeometry relative="1" as="geometry">
                        <mxPoint x="544" y="1012" as="targetPoint"/>
                    </mxGeometry>
                </mxCell>
                <mxCell id="34" value="" style="edgeStyle=none;html=1;" parent="1" source="24" target="32" edge="1">
                    <mxGeometry relative="1" as="geometry"/>
                </mxCell>
                <mxCell id="24" value="" style="shape=image;verticalLabelPosition=bottom;verticalAlign=top;imageAspect=0;aspect=fixed;image=data:image/png,iVBORw0KGgoAAAANSUhEUgAAAIkAAAB8CAYAAABde5NjAAABQ2lDQ1BJQ0MgUHJvZmlsZQAAKJFjYGASSSwoyGFhYGDIzSspCnJ3UoiIjFJgf8bAyCDMIMjAymCVmFxc4BgQ4ANUwgCjUcG3a0DVQHBZF2RWXSC38XPz4l9xSROTlxomsWKqRwFcKanFyUD6DxCnJhcUlTAwMKYA2crlJQUgdgeQLVIEdBSQPQfEToewN4DYSRD2EbCakCBnIPsGkC2QnJEINIPxBZCtk4Qkno7EhtoLAtzB/n6RCiFhChFhBFxLBihJrSgB0c75BZVFmekZJQqOwFBKVfDMS9bTUTAyMDJiYACFOUT150xwWDJmiCDEcuUZGCzvMDAw/UWIxVUwMKwHhodEBEJM246BQQwYXtuvFyQWJcIdwPiNpTjN2AjClowHelf2//+XwPDh62Jg+Cv2//8P+///f79lYGCbwsAwxRwAF9pckZ/eqHMAAAA4ZVhJZk1NACoAAAAIAAGHaQAEAAAAAQAAABoAAAAAAAKgAgAEAAAAAQAAAImgAwAEAAAAAQAAAHwAAAAAhzQfzAAAQABJREFUeAHtvQmc3Fd15/urvar3RbssWatt2bIxlm3MeIkdHLPFGIeBhN0hkwm8ABmS94E38yDDYxKSDy+ZycyETCYkLyQQEjYTEhaDbcB2bCzvuy1ZsmXtW6v37trrfX/3X9VqyVJXS2q1lQ99pa7613+75577u+ece+6958ZqUVIjxWIxcUr+dqrVqhzH+Za44g+O+Ygu1x/jPCdi/qrfo6pP+YlJ7/Jl/z7y4XA2XKnn28j/6O/GjY3z/l2tVhWPx8O3aT5M9+F8A/HkWYPAGLRXnU+chzkOxYhV+OG/dCA/lNXXI+rDt1TmWfjgJ8wbs8Llm0SznzhW/o17fN3p6N/R2eizUZ5j3RNxefLdPo7OBj6Hn/WKiUiE2lARXKmf9z0nmGIQE6r2uM/VzDwqgUzigZFkWkmpmqwoXkuExyowuaaEklSYuV+KVZXi7jMjUbwqDOJ/FfoDzWZgoDkeQBODXoVypiKS+R3YAiiABiUzB8wHWB6KZV6cPNNPlC9uqFUAaQpS5Gty3SIrBj0USslwzRCOVxPhei1Bud2Y4+PhumouW1SLAVgG+jRTstl95RiVT34xFVWtpBXjiUBktahisU+1+C6lK0la0EJV0u0wt1MpmHumYMRsrARyYGAd1JYaMY7dOqqAJVatqFKE3UMVDfaVVBiB7ZmUsl1ltfYmVUvGlEwDlVgpVIK5MbvlMzJdwREgnLmleZWKqFQpV7mokdKgXty3Ub1tZ2tRx2olkK7xMsCoZRVPQC/kmxduHJafdRnarPrD9aYgSarE292WjES3ygpSpKpD+/5GO7feru7ePs1rQdilVirZ8XplMzdDUHZamc/GTQZCEMVuVf4Bs+FQkBRmu2h5I9tjevHeirY9PqqR/nEVxmFwKqmWDmnxeUktvyqpxRcCFHhQA3FuKLOZqFcqnT+3/gp/HFepl9H8QT389Pe0sGutiokh3Xr3f9Gr19ygqy+8RS9ue1r9wwd1zaX/FiXaFWrPwEAm8S8ZpON0yzB1ca2JxioqP/cgrYnjc9YrmapqtO8zyhXu0Pi+EY3sHFL7Oaib7NMaz9+reNsLSvd+lPxb+XMLeGWTraKgRAJAAActzGK7poKS+Zi23l/SxlvHdPAZWuVgQdUiqtTgQWogNrT3oXFtvSOl9W+SNrxtvqodtEfEPDCatYLVqKVGjrU4JbJ2TBiwSd23+XYNj39NrZ0t6svv0WCpT9++/0t6atdPdeMlv4L0BBAUp4Y6NURsOKiGRIoHrkyrDFPbJICkODKi1Jf+RJVv/1DJW96t0pVlFcpf1ku7rtW89i5VU99UPP+0EilaGLZKvKVF7Yv/Tsn2q2G0JdArnWCKDQm+lKD9BYuVw4L0wu013fM3B5CIBTCRhYnob8BUq+a4GTAk8qrls8q10Pa6pQtuyumaD3YEQRla9SwVDbgatpAfFIYqtp+w/8qlojYNPaHPffHXVM2MKpEYVS4+X6XxhNace6l+48pPqqd1DbqThgHgrWDjts9sDkwfI0p8mnTcsiLeEomMCi29OvTYI6p+6+tqWfQjbaxcoT/83f165KlRXX/DVcpmN6IbC5CAmVfEOMwBrNabzhCQUDqrGnMZ3gSNXClq4NmE7v3KgHY+OqK4bS3AUzXz4yinalnlfElp7i+XKxqlTGkeHjxQVrK1pgWr0jQKv3B2UkJj5A4xpbiGKsPaNPiQ/mXrt/Wjp76pnbuf1KGRPajIPJqoX6NxzAGM1EXJJSr3tmpf8SW1tLUoE89iW6JwAIythxm1SZSEWeecLf27j2jrl/6blvfco6VLRrTugjatPXeNUskBVYfd+mBYrAUmF2DwPgAThDbfTm4Bs8fUkGX9I+Rfx0hEEUAZLWnLvWVteRwLlVYVrxVBA0BANJvKIvp+3Zs7dMlbW2iVNd31xQH13e9batr844JWrG/VvPNms0zwlYIU0iU9u+0+fffO/609B7ZoNOluOZdq44HbsUoHjSBBecrauu0hbdr9iDqLSb323Dfq5rd8XLH0vCBQLZkyk5nU5Hhqm8QPuxeQyar3qqvVsapHxfHfUG/yfv3up39O5dozGu//CdSPq4ytmobYGgowHj8rZGuTxr4J+xjcBZuAycRBuO20foTsJ+WXrJXUvy+nTXcMKj6CRKiUaHllFVNpbPKKkoWYWlZmdNm7c1p+GWVByvQs6tSfvXMIlVTU7ifL2v10Sb1r8KnQ6wnvr5cgKuuJtdLpFD7qupfoNWa0ani+brwTqfbwmPZ0VDXcGdP+hVU9/hqr+3atfaqmFS9axea1YldSHQPjSl/woLRos6pXzwNAuCfqKnc6efue5iCBwbEqFYy0a1m4XJmRm7Vv7x9L47ehG8vYQPxhTKUtskFFLZ5Wpu0ajsGqnzVSeNhQiToYRQQnDJ61FCEk+D1Qn3aIDR+s6cDuAVRkLipbAj9DuYZ6wbQrW3dzH7rbwrFapdsrbBREeQ2jtjRYUd92pOVYWql2DHbsLhvHLpz/cTDjJbOvJkV3NtF3UMm//aHmf/0FzS+XtBQKW7j23WulfCaj195V1HW3VTWvv4akcDmSykN98q49GvjsF9T56W7lXrUKc4DKPAGjpDlIYKp7XuHGFIS2vUMd3Y+pcPC72IMFpIb9ELjSAEyqDDBa29E6r+VaBAZjJHC7wbrYCVhMjWdO8Tuqtqgia4BgsA+9nbdkK0I7VQv9SeiyrySVLmtgd1xP3zam9nibCmPSnV/doRj3Z7I4CpE8QzxfHKkAEpxuVIULGFxuzsjMmuFkgKMNNfqdO9T3R9+kX9ZP1QfXmTME2DH93B0VveEbRc2jAWLCco+hZVuqDHUFHfrB/aqt+ZoySz6g+LKlfmzaqSlIQh0jU+O2rKtZejNL1drzKWWSl2l0+J9h9iYlygdQ9BQEjGQ6PsA9KylCTCV0fRymxd3LCTXljpwdQrMMlHrlmS+xQAsWUxk2U64Kkq9Wc3vDnLJBhw2WqLXq4a+VtPXHh1REbI/3xdXWjpS01LQ4DKUzOAAbnz46nSmFQR3vH9Wh3/9r2HiQ/OzrCBRrCBqu/xcEO3aU7YxR7sDs5tPXKzgiSurKJjSYH9Hgl7+n9tddobalCykCdTBNQPtNUyb7E1zhsbj71nS7QHUps1ax+UiUhZ9RquUcGIvBl8S/UMAnEW9VovioEngAU9goCXtqA9HQZAbbCzibiSzNC6sCSzXT0tGFasyUUDdccPe4hvoDNIqVVSplcFwV0dtFDe6XhvfFOU4DeECCEzHOcUt7RqksLZjnEULh3aFIHDcb5TjhoptobKXCj+7SwEsvUeXmp8vhrgHihW9Kg9qxcnEnF7uKK75mqIygKvP5MnVYUpICFe7GPhlAPPq900xNJUkMpsTcNYQUjxUkYV5VWRULi3D7fg/d/CTDAxAxjOYei6vQ//9otDujWOd6tXX8kpJtb1I8e1awRyiLOTq7yZVLjuGPvOMYm+290vzFHTqwk25jEYcJV602zFolGFqojgIGxDmgyOB5TeDyLIRuMq2VjkbvsoRSHbwsAbhcY261ZGD3w+lI1VJZB+68B67bz5rgn6VXVCpkTJAmztqN2f0zW0kMJgATN4kcHegSnxXsk7KGH3lCuQODynVgFkyT3qYgCYVulB5J4haZLMHSxPMaHPgyramIwymj5DDcwiubwqeggSIN8wEdqDylbPkeWu4naLlrGWuAfLrJx8aJC+107KvRtak/Q+Pw4z4IohQVGbof0TurqMzyaEIvPnVAo6MIaHS5WWofbJxxkCpioYz0Qz7guIoBkBKvynDfeBj/sDm16LyKlp7ney3wqRYzOgDFtDXK4OOZS/j0lHzqJV7oKk/ZkiInU2mIxNTBJ5Ry3uW0PeJ6qtKsbbcwFsV9OY4y/NX2A5Ahd/1N9PQUZVMsBcsdhltTRPa+D/jLb1F5+DGYSAnGII/xjhJMNp5qJQgYoMczPKzK3ttU3vundDc3B9Fshh5u2w1GRq3ipJlsUET//QVwEcbOhx8RuzhJASpI2ce/Kd3zv8Y0coAyuHuP8yl8c7N7PnHus1RxJSBKVMA4x5qlYcSU7U5o9fWt6l1rleTqqSdzkT9Dzv9mNFGGGCpxaHSILFyx/vOnv02DDYKonG7xlh+GhiEU3WkbxSoetcn5arEaQOY7p5uaShJnZyvZLc7GkP9iqJyR4hbyKcFYsi7Zywcp8CdeRhTjK8mOIxo5rqLnC6PfR8x3K19tV7ayUInuD1Byjxw3kHyKjOXxqmnhuwZDE35v4JAJghWAJj8obfzqqB79BiXABll6fgZ1A20DXPcIGgLaUyDiCOWArjgCm+cyvC+ZKivd064LfiGudb+AisHrakjMVjKQ07ksRqlrwimq4EiuH7+yG7XmOxjn5qkkEhGJk0oEOya8ahofZmGTBDPMD//ZnxtECqTC0yoV7aF2vGgYR1zHj12gS5mAuaGXXkC9INJrlbxGBr+ikT1/qvzAV6kDPJyhFicXsJEJl04whbcEMgOEgxSxOqglYA1qZHQspo1/268nvtavfHlUV7w/p4vfnFIuE3VgawCiArBjGdhOuWJ4MqvJMVQJtFOmGjbMhndl9Jp35hiXwkC0tTpbyWzBjkotX8yBG6mtw0hR2DCdmpLQQoLPxPfSjMRgjtJIxlCfvGc6qbkkgYqoxddxaaKRKrn0+YgtiLAq6oG5u6j2PUllFuDU5pkCvaEcfeIUIKkCilo5j6QhO/eEYH6kzMPLQsO1FDj5RAUHAPMGjIQy2QSWoHMKh+L66VdGtfk7eFbxkbzhYx3qWpHU7X80oBGuYZfS4cKb2ZrWvPlVwIz3dczu47K6F6e17OKaNrxxkTJLa8p2Yoe4d2beT6N5nXx5jnyylkmGruvQP/6IcjXkRwRwCszNx4aKDViDo5M/j4W7vtrWr1Wqp5PBy4YUPzKvY/1qCpLJiIvqMRJbydir6ApepeLAnWEgIInFP7q1pq4cd+FTSDHvoYpXsAogyum00gwsjbrL2HkDRqJ15Cmh4hhliWqN6S42JQLbagM5Pf2Ngp75e7q2/HvTxxZq6RUZff3De3VwO2ZftqS116W07vpuxbE3zl6BkTpa0yAeyxy+ha5OqMT5gNsE4Lm1WJIeI+vTeYrWU6Jhdbzl5/XCRz5P82SiV/gX9WTcFT5ecic4ZZGPqmFiBL861HH1a1SZ30UdTJ//02gPkfkTLNKJ9/JYqhep8UnmV1yqcrVV5SU0rstKGqbbiF8tYiiTkQrzqaCOcY1Xk0p3X6bWtlu4aMInXhZsiUj91PPi6okml7lmu4R69GS+2GBGj30rr3tv3a1ErqzX/3a32i5I6hu/PqT+F7mOLyRr8yKZ0fJVrVpzfpbhhJjaFsTpvSTUvZLuYw/9hK4hBKc9l4h83m8Jhdg6UfJO6f6MHV/dC7Xg028nf09jcLVZpU/NL5u1KaDBRAi6wUjKt16r5OUXIcytbg7zvxlxTSWJX2XkhleGyo/0YgxjqpJbr5Yln8LO+HNVRh5TMX2QQcCyKnl8KhYWSI9YMqG2xAJGIC9Vbt4nKB/TvUIhJxMZXhxy4uOkklsUHQ6I9RgnLByI69m7+gFCuy67BbXXk9Dtvz+kA3ssdGOad3ZW63+egctVYKALduNyNwAwU/l2splnuHHGrthQH7jyJxgRbpqdD6Qj3jt1/vubFXvgGQ1+j0lgVLuN0clcPNzwohL4GpMXNUg5Wi9epwXvf4uSK5dN2OnTJb45SLDugxGIgepZTh74CjPo6NVgT1H51yqx8HwdevLzGtt/h3resAY3Pb6GZFYjW3dpBJf2WZe9S8mut2Kb9NSZfGTRDhfu6PPTK0bUsLGNsEfc9TOLKhjYibakNryOFnRWRnfT7d37NP4BBumS7Qn1npfWhve1KtVmZDWSkd2gJtLZ9JWii5NvO6pqohtO46cnNZPii1dq/n/+KF7hP9Xo7Q9A2dCELKk340lE+Iy7xxml161T7//575S+8RoKR5VP8h1NeuC4h01BYgeTjXm3KD5C8kz5aolJRgMlje3brRTKe//GFBb4ryiNhzUIuP68YoUt6n/kMXWu2qDunhaVg+eJ+Sl+1wwnM8Q9KtwZ8CCvZG9cV97SLqa26Cd/OaSDz8I0/CDLr2jV2quxnS7MKUxAm2E6TsvrzH9qym735AXnq/sPPqbk+f+ooW/cofiufZTb/RbLUhu1big2WQ3uTuXedoVyv36TWv7N5UhDlA9+iqaVflQhmt4fGUk4ZNxK3SWkx5CkpzL404e199EndZAZay1LF6FuhrX29W+iy7talYGDeu4vvqBDTz3JDPRxLbziEDq+RZ5wXrPRenIC4yjSD//0DPAgPpB6NRCNp0aJlmJg1T3/MKK+5zimV5Ii77aemi69GR8lEuQE1PLhzF6JIwi1tktVGD9ryar91ReqfeF89V5/lUZuu1N9jz6l6rN7lOjHW2jr6cIF6rhwtea98Q2KbThP1fPOBjoeyES18hfAFBrs9ArTFCRmvgfmMnWO4vpQbXRM+x54VPf/3ueUGGReKJVy9rvQd/OWqlw4pOf/8gvaf+89OnDHwzye0vgH+lRKeVApE8ZEjPOZTKEzCJ24RsKM8oS5Uc5hlFa0YnVG7Riu+QFaYUtKHeci0bJFRrHtbXCaeakWvXcmP+mn4Kz0WFGKoQU3hNgCJhC97mp1X7FBnSOMNZXGVB5nQJU+fTzXxsR0Rmu6WsOs/4TFEM/4n1VN5MWafrmbgiQMdHlcI2QQNdgKiN39/E61tTL/Fb9CJcOk/cvXK9eD+5oKKg+PApCnAE2P1n7wl7Xk6qupCgb98MDSRZhJ7oV3uZ1V8ctYNSawlQKVGJs9F1V03Tnt2Cd4Upnm4I5Jsr0AYLMwnWN3wyIzZMZpmtkX0oGdcBvgE6IxVFm1kKJToAz9dNR9cEE1MqVYsCI0mkIYY+KHl8KwLsPO+mDinEA7nXq2PJlazMXxoAaDBErsJfEEIxZ9aHRPn8YHBhTLtqht5ULFcvhDii3acfdd2vOPX9dZN92oBde+loK4z9BWfxvPModjphNsABtY+0i9kpdDUPvWzjGsbLcZjyvZsaekJxrRmihSyk6QE2CWs3hFEtLDyVMT8CS4uUYShSGPajDWKSfnfL5RnIgfPmEToRwNVeDlrAGUsBS1cSO3NEvTA4nFt2UJGUbrYW2jRAZtglHgKtMJwmQiZ4xoGzm4k2UI7YpnGHtMs1QB6JcxGkNvaHJJmlF3QtfdvCIRWgqtJ9K/foV7PUHU8hn3CGQ91aArglDjzBn6Dc/CaAj1UA18pwycM9hdsggipr0BFR+7xFFPz3UXllJQf6GdnGAdNAWJs5tLP9scONysfrb5MFf6KTgwB5IpmDN3KeLAHEjmkNCUA3MgacqiuRvmQDKHgaYcmANJUxbN3TAHkjkMNOXAHEiasmjuhjmQzGGgKQfmQNKURXM3zIFkDgNNOTAHkqYsmruhKUjCALD55JFD//HhiMo+9CyTifPhmmeIMVocjn1v/RF/h5O+MOmibzjtaVKeHDZ+Nb5D9hM/PCXCf437XM6orI1bGt/hpjPhwwSR/NWgvlE7E4UNd0zmfP2h+vlmX81BEuYd8FJPEWSeRpWgcx5gLxMRo+phd8975bKHoMOsHkI4eC6Pl0jWPA+C/+HPX55+NxlBfmRWUkSHSXE6TNLho+iKC+O5KNEkYhfJw/CeN+y/MzNFDTXQCo2ebMTQfp3PJtrQ8bf/onSi4TGaThUIr65XrAmpMrGhWB3X07v+X7WllmlJ52vUklvORB/mlICBAy/s1J49W7Vk1WotWryUNcDEIvODvCgUxB/hyN+zlFwI8jVzoigDUVuLZo421jibxAY4PK26cdWPuiLqTA7TOJu2rVkqWASBwFfnaBLrZPpn0YvhoT0Eq4B+zzIMc09cllAO39U8NZ2+WEV9ODiDM3f+JqhSG9bjL3xR+doYK/ZW6oIVb9Wqnrdrz5ZD+tRv/Zq6WJZ4w/t+S2+9+d8CKpATpvEHdARV5VWes5ZMtwk39czkYipS+DMMQoFcIv67vfkgOu8JVtF0Hs8IDed8E5IzvMuP8HcmpDBrMIi5qARh+Swr1PwrTbTrqLx1Sif4cGKUNwVJVKGI4DoKo1X7LYQHb9fg6D7t7X9AQ+UHVWU984v3ZTR2YEg9Z3frddddxwp2wGXeBuSaMHP3xAg81bs9oyvK1hyCaa5oa85QMH6bJOjzlMwoVBY0w+EEcpsFGjxjqeFyIGdombbDoiULPv/KJ0e4NkZqrIUOwK3z118O3mQqY6j9id0zuMkS80SobwoSczEQ0Hgtucdh4OLeS7Vn6AXmiTr+RVWPbv6Wnr67QzFma7/pPR8jcM08KsLLJwKZgZu2U7ztyGyn0IBgjKcqBoCYAKYuelmoA/vGaizlrDKbn7BTiDoKSCETbUwPbOebSdPAxUw2s7xYq14Ps12MY+cHuZYaXjDncnqSNIGvsU2IVMJ8Xk85dfTqEBOfcllCnuikzaYgccaeY20KfOwp2AnUx+olb9fmkTvVPzaiDBJj9/Yn9dQzrbrqul/UtW+5EQ3jdR4RQKAxPByhORTFb3pFUoRZuFg7SDS6rYqPPa1K4Sns1Rc4R1i6CtIFYMRTS1ideA7rc9YrkbmQCcgO/eAmYz3vZFH+yicvzBomutQh4tWNoF4cHS3hubvuZVJPcYDfSqOel2PNESRbiZ5ocMOmIDFO/c+RAEKM0/FRlQ72qXtPmy7O36gtldtU6i1q/wiRks89V7/xno8o8fQmjFvMpXm9qs1jFj3x5gn/EQmVVwgjjhZkm6QaI1Ag65ZrI8R7GybMc34ry4cJy82EbjPDwDYbqzTHOGCpZc6C/nWKd70RJX82Mpzw15lFTFdfxd3EVwtixVLKTZnChd/hY+YQZJ5ZBFKEEGOEfPYQqfqxvoIeGapq39CY+ka8KN8SxfRbvUAiUr2FSE1nEWMl25LULyzp1ms6s0R4ML0vTy5LpIqOvNq8d1P3e7i7W9n3kvLf+o6G7sAG6TtELkRXXjaqwlUL9dDBktYcWKBr+lM6sPdF4pHAy95epV9zidrf+UtKLDg7LFVkn4LZTTDYPCYQKxXMzP6hr7LC8MuKDW0iDv4oF+DsMZJVLCwPwE6w0KvQBdhZfJ4sALR5b1Oq+xaEyWKbOLzfLdc9B94V+DuzhbS5nQTEXk9RAARPHsrrC8/t1X0HxvTUGNAucocDvdZtwAisEOJuZa6mN7S3qpUwG1UWd/3HC5fo4vlezchLA2P4ridHtPYpl2Ryag4SlxuIVrY8rgN//HmN/+helXYNExDFhp2FLouuurPKE8OjlVhplX3DxEBHDxKbi7ao+JIWdb/mUnX/l48rfs46QnhCgKMWzlqiALTCCjZHeeB/KrHjr4kkcQCeEoWd5mbH4DGTJacrH6Ck2OMmbCHidTrYVNVlH2GtMdu1xDo4b8Y6j9AH5JzfdySTj/n+EzoZ8dILyp5g/fV/emi3bt9dAASAwwuI7Jiy6AjGeL08JsGigWvxRFEfWTNfz40kddOKnH71nE4lQrhR32QZGORgRLr5Ed5zmMCp1Y3zhob87i0a/pO/0L6/v5M1tV5vSgwy4OGIfgmYWCUQbZbAL2apgaFiFHrJJl5y97j2f+tuje/aq5U//CvWsp5lZM1aChrAYm3gr1Tb8SXWZrGCnOgI3t3LBjdK+5i0OIi/VaTFe+idoa4qaZbNt72W5aKoHqJFO0V7FFLyiQA3ZvzMJtPghY/jAPAxYrDevp1AbwZsIJ38JvjJTRTJVeDK938oZPFeBoCMakVbSv3YLkV+txGXxZcj2VFXl+FMeMgPTqSp5SKqpjJ+SIO33qrtX/wnFooXoIdgNHy28e3egqMNWJuP8+ewwM7OOt1ZOc6f446mM0DpgU3a8dE/ZuMhSna81jtB1swdxNyDGbmN0JR/RVz8feyDAJPiJQACcAhOc9xEdyEWAhPTe0NalBIsZ01igxCIp5ZbTRkoqxtR+Dc1G4+bxzQvmNMEGCOAMmbqWMiU36hP02+AhJ4B3wEg3Ovf3Ba+LQZQOyPQW2Lpa54lryNIyXgoHzXIfUdQ76yOSkdcP+oaUpru4fPbVLj1BwDDQX69UUYVQDh4ikNMWQx64aehYArDtkKhSIYLvlY+gVB7tOC274dIlCcxFmcRJCq9pMoh4s2yJ4wy0IyUjoVAeubi8VMQDF4uCoMTRGu0RE16M4ISC+Rtr7gu4J73yTGbLW2iVnn8d578FaJX01PJEOeshwYXKt9RgsIf5bC6aUgQV7KL5q48UTGDygEJrVxvR8WmgnokPJa7w0Gt1AEVHopeczSdU4MEY2jo+a3KP7YdOWEPQRRI1kyxBPFvSw6imvIrelVLOOOrFuduZ4hiNFSyM622vQNsbnFbVICjKTldv8cA5eCjvB10mEb+O65awuE4w3jBsTO2KrJKd/x5h0wPWrtCcJ7ydnQ3XeXAWzjvCuGHu/eNBn3sN578WUdmsNS2+puHyuhJo2qciBLp8oQUvusVHnw9nA1dSr4B8ABg3laiozFe0t6hmrbTG+3jvmIguv5csKei103+nNomqSAntrxIp8CSI3IiGbBeiu2mZKhYYPvP3PI/RxWL7PxIz/kuu/bTEGlW51/cxh1+emaT8w7vdO15IBJjNU60RY0+zhYk/Vyj5WDkhdYPJaaxWaUGw9sMh3lRiW3o0jQsVkgTZZg4OJUy+Z28CPpdBEdNJHBAOOUAxCW6siWCWxHvL9gWh4gXL3bMCEMeVjmmMICe86anCpBC3BYupsb1wEEkD72jty6J6eH949RhmTG3nLoJg76iPa3lIfjhYcz5jY00NUioXBHzwvmHrUVpXcEYpQCjHDvYnJnnSndyRUQU+jMSvi5nOk/ltNpuQew5fudpSAF4EXdpYRbJMItWr/HnqGPHjY142GgsDlMxVfLVBOWP01csNvbCAVXxJDHfJkKfU3oXeSId8WPi7HQOzCfzEu3sMC4cmwKri0ha54txvTBS0q4+YpDY50Mww7BxggHrQjk4i19Qpefo8JPUjqogADnvvXrQubo89qwWplbrpfHV8IYF/Pi8ckMxvXSopPO6S1rfA2jsoziqGFODBEOntmRhEFvEwQ2GqRWLd0qINjZy0V6eXDxf8Z/BEuc9JYs+x0Ht7Hn5AzNyBlDCMAfyC+I/hOs/RA+x76Tebvhb1RSQpmWCAseJtSbc9PHUOiRQXdyf1JuP/ZAVtPll8uOWEC4GHyOIvuf2DejRMfbpwXFWoFyrMgN6MM1QQhnAYpASIIY/6HPgEQ/F65CWJA5obW2vLqht1eqW7VpX2oy0GNfduc9qi84jHzah5PYaWnicLVr6sbXa2Qu5lZ248KIcgZMpQWKGt1x4PkFuMyofJChdEFJBCEP+sQFiFhiIljiWJTZr1UFBkCDE1FX6oguOIMD3z0wyNC1+PSZDsSxVUDk1jM2jGsa0sksCkBLviWO8uy0niDdWSS9TrO06nqcGZzi5i+t4b3m8odkgKWIapLVvxO/0KODI43catbpEuFzRvU+/M/4pjY0Pqy/RA4/dRSBMGeHc25DX85Hz82PD6kYCenDPOjbOhpv3dtyol5IApDqE+iKoD+rYYzkeCEyXUtpG6LIVBMQhLM4RaUqQ2HEUX7hQuVefo4HbN2K8OgXZwHfkFwmnjvFhNhpGRC8Lobdj/bSV7ja1OKjNUc6aYzx+YqfMh6g7AlVYG8YHgIkDEM9/OZkUWhld5TTdxUQesBEaPdl5JTEv15kFpyU5SlQCcBbNH3bufHh/Xo8dKGgYyVKrEHMO0JbYwWZXaoMOdL9Fr9I/6cLifjAAfTzigD0WDxV6QaX4Qr3U0au+2Dna0rpOu3Kv1WDyXLbBg1mo3xidEu+4XkbCtwG8DM61rpacslw+Ok0JEoeWTs5foPS1V6pyOxsdgVkbqQAPwLjfcuzkfDyobqAQQZUC0uWiJbRff6WSa1a6Ro/94CmedQ8jKiNU2hMZyxGD1RuMnXiyqR6nRZcBCqGcFO/dwEY373NN1Ok3F2YuRcFpsOqoZEfT3oGrfTf2YB4JZolcq4yGsGNpgD/GFkh3tH9QT2avU3dxL+wcIX4PdPo+V3ysS4XaYvVlejWeJOihbSvKk6YeyhjABpS7xA6W2BLP0LWuaGGuorVE884GW+3I+pkSJJYkyW4297vqtWq99NvKP7QNa6SCVrTjzFr0yJc1WOZC2TqnigjyBtGHQO78FvV+6L1EZ2b4faZBQusLlITmZJjAMOtqZtDZHX8yyUPsSZhbo0cQ775I5Xm/T5jx8+hxWIHSRI5d9JPJqv7M4RcGoNBA40iIFAap7e5RggRW8O/E0A1pYOJezd7Mem3PXmxsUH43WYPEtWKHBfWEqozjTMww7uMGW8E2dAz+HFI3gQSxehsvjGgJGzxduahDi2wLU7DDlESkTQ0S7nHWKWKHdt78epV2/r0ye/s5Z6Huf1Y5Udu1qdMYz/EZV1u0wwoe2VxS3e99o1KXvJrSzLw+D1wKmbpbazoI0snsOQ3/gD0C98EYmEbJvY+Uk7uUToGt3O/SWPZ5aiP/sf+4DrOL9kd0blBm/u/SUXg1b3UmjajQfsPMJTdgZ2uawIJ6IXhVV5v6832EYiekGIOMtrGwPGxKQKvpJXY8D5le75Fo4i0zXNFRQyGmNUBPIE1T8N2TpvL2fZXy2l/MaxEzCDeAjMt6slrawZZJx6mbpiAJGzS2d6jtPe/V8MPPKXHrPWhF+xmMXuPVyLMF4M9Y2CjQHS+frRKrvTZSVOsNGzT/A7+K8UR2Hqmc4eSq8waK7gXacI1hR9TYPLI0fg/+pjEYh4rwdZhnUNt7aT56fMaTc8zf4EBxa6WXgNzD9mhXpusN1Na/p7d5Ps43nFmuyWAYR3bPDBcjOE4hM4AxTVku7MiyG8g8fe+lQebtjKMKEoQbbWereSrc6hRWVmxjGLx1x5n5HshE3tToKZTpMIzheT1AlO59zP0pFDFumbpx/dlduoC9BC8hCHMOe6QaeEPxAi+OLFlTkHi/mAQzzNKLVmrhf/iIdm7dq8zjm1A3bMlugiDQAs4QcWIGBp/2whK/eJTqWb9EPb/zYSVWnIsQMcp9daYT3UdeGia9IV7dhfNcj1jybHZ4YLdRb9oEXQkma5s877fj3wFTrhQ73ujWlgFCgR5dK6CIdd1Cr+zNGFXs2o3KSRlVEG9++JD/M57cfCJJ4DwqaiO/i7MprV7doWeH0rp9z0GmZPTpEHqilT1rKCFqwxIA/ruSkRolVEwRz2qZb5yqOgg4xomQvbwlo2sWzdO1SxZrHeDroEG0Ms8kHubYRDH0Q/zbwJUjpX3TqQJwFObAUsRfjQ0Zh++4U4c+8p80/tJeimSfSRXbA+bCdKsca2yf7+DX2Noe9f7f/0Gd73ibkmlad8Ku8HCZj5lLztGKJImuDjt5IY/d29fYA0xA+0PFRh5BRHt8iRGnYFMYFEhB1zblSnlGlxtm61lMLvoVNpm8CXCcDRI4z3t9WxL54l3S/Wb/nmmQhJn85BWmLpjXzteQMb3MlgtqFIHYD52bBkbp9Qxqc9+QtrHR5BA7n4+iQkrcm0FXdaRy4e9sBqovmj9flxJP9yxswxakTdJ/vLxkHFAI52NwBukT1JW7/G5kh1NTkNjOsEXtVmQpUEOnjf34J9r3u59T8YUdeMChnFQaxEDqQYcju8sMQsVXLteCD/+qet72dpoq/Xj227WYTxl0VNBMJxvLDrcfr0WyrESLT9vfUOunevtRF0xuYBRbhZ14NTchp3fzBwQY8q9m2Zm05XycBZdxv70ERjJ00tp8FDYy4Wdwx5sJdaBwMGPJOZkrYQYdmXpjJ+ft3OxtCr8wOoPMDirSfIRkOzlIoffr4nLsZ6LEk9S+pay3gfX+G4afr8dw2/teZ2pDOcxNAWBlWsDR6qUpSLyZkLdAL6G3kojlGCK5gp4vb9qi0W99n/64x2USGtuxXy2rFjO6CEGjReWuYz3OhtfQ1yKENZS4KCW6aQawDdoZTS4tf1FcU1gLMx3w19LEvoeoXUZgtvEXMdwPWVnyD8aE3XXrqsQSI9LNlo++B3rNWR5x67YkCdz11wylaMzLTjtzqp5clFCJNNKgSyPTOdASIOTRMHeRI0nqp/x0UBYGs+0VpFJ0v0vtAgTiOeUus2Fj/vg9XKPc4Q3RLRxHqTlIeDaF547uemCSP6KAsTbeIlTam1qxOEed1Ijoa2LM2hhiPPREqRi784Oo5jV1OuskzMCXy8drLD08Tu3phpYC0RRE51pnPNd9X8RK6PAP/sK4GNd8viH2eYhrE0+G5zy9z6z2WbfoGU282m+3RAicCuCObC1Hua6Twx2+i1/1L38HSvzbqX7J34Hc6Gx0ftK9FTaFcmfaQ1y0KYpq0NCY/SO8sPGg32OuTJEC67BJAmO509P1/JZAQJ0gH0eIjN4ejEifM6HcHV3j24WNbpkix5O9VDdEXYkuaIOLR+Rn2p0aJ6OyROcmf5pip0Y5/SuCfjgXrs3wR5008yzi12TaInojieh8G/RPoqH+/MQZ3zLxCr8xusFwc9OOJEfILLwuagDHLl1TkExkOnfwM8uBSQrwZ5YHcwVvwoE5kDRh0NzlYGjMsWGOA1NzYE6STM2fuatwYA4kczBoyoE5kDRl0dwNcyCZw0BTDsyBpCmL5m6YA8kcBppyYA4kTVk0d8McSOYw0JQDcyBpyqK5G5qCxGPEYZy4/h0GhD2g6LkO0QcHDDN7Cle40UsqvVSoPizfeIGfD1c8JD2bifFPh58I80jI10SEPxfAo9sTJzjyb86YZiZPVXgmmh/LHBRmfYX7G7eHO8/sD88aDEWqFzXUiMvsMpxAagqSsM6EF1YNBEJKhYVAzJlk3SN5Mf8ijFozNM8SwxJzK2thLSrzLZg8wzIPGM4NzCXwZOPA+zAx5QQoPOVbPSzuiZWePFx/mWn27LgwQy4UgBPR3JiqV8l5PoP/823shwe51yvwvT7mX0ua2G6e2YQxyuWpo2GxWmjM0y9F06kCZqyBYUhGk3g84caZmZkwzBNp3QaZNhjCNHDsZzyjw1GEqsx2qniRA/dFkQlmfh2tszpuatQpREc0e4a/SwN5XIvmdhoQ0RssRfznObAUZSLly6wITBPAJzA4IGji2pl6YFJjNGxmvhLyxk3Fc9G8wO7oWaxTl+Do6YwvvztMMrIKYbYXKczgN484H2eKWqHCvHlmNSXDHvMsIhrtV2smS0yuLIvoMuF+r/uIWqqhzGFz+eWsZiZBa1TXtCSvvgss8nTKUAgKEmUTFvz5FGgJ4DdYfJEZ0mOscGMVg5JIStDOTW4C9QdnhsrT8xZm27mRxitDavFKP8IV1JjPW2Xh14mkptVlVtVqXhjkozyLe3YyO3s7RwSUio/qxb136JkXvqpxFkH1Dz6njU99VoPj+wi7RAgm1r6MVTYzi3sYllqCNMfkiRA/nXsNkAgkFNWqjuURng7o9Tae72o7JFw/ihOeXVcDVAf379KOH9yl57//I40NDnJvmJg5naxf8Xss6KsxAu+MPazytg+psvMTihXuoy68qjHiynSInEatWaf7nW5BVe08+FNt3f8DdXbP1+J5V6m/sk2PP/93SrFkYuuuu7Rv4AldcOG79cL+z6u/b7M6U8u0/qz3KJ1ieWeSibd+zXQom7F7zAz+PNmWVKX2KyhnVqdACBOPg0zxsnZaF4RFIprJfSzcqg2P6id/9Gfa9L27NEZ8lXd85v/SBW9+PVCf3RIEwk/iw/aTpQfLGFSZz6KQsfuUKXQrlTkHibiYN05PokwDJJYkZIYh6gjDna3nMOH5bv302b/WkjX3wsgW9bFM4f7nPq+B0QNqae/U/Ts+pT39W5UrLdHSlVexaLs12DVVzwTHTrFtMlvJEPc/V34VcIxrWNsOPKs9g9vVnurUynnr1NE2D3IACiv/jCdDoIpqee4n/6L7iVs7vH2v1lx/WVh+mXQZZo/8U2JTNKkZYzt9oZId70Zm/p4KpXsIJPQs9UCZj7Os8+hMmxqu1uFwNyxXSFgGEwZhsLZTD+78su4b/gtli4S0eWmI9Theo8oi5V4iFC5OqLd6jq5f8gktmnclC5dz0Ux6Hg9tMHwcTcrp+W0TyIoy4Wgt5bT2x0b1mX96m14c3qJUIaWlLQt13trLdMO579FZXatYXN3J0tCSXrjrx/qHP/gfWtg7Xwsvv1gb3ni9upedpXQngWMoxVHa6fQQf6pvRZ16xWFYq1DZT4P+JEtff6BUC7uHdH6WMnhxS11OMHncUp7KflnpmkoSLxkKbZE3mOEFQlF3jCzT5T3vZgH5NgKsfE9ji6Sh0bzSLWyVhJF39taVumH9e7Use6kSBYKlYLc6XKfX4lqnz64ksboxOpES5J+CacuQHg/tvF2lYkLbn9ump158TD9++Af6+Dv/q9Zlr9HY5l267c+/oq6F8/T6T/225q8APMkcZXAkBaf6O8PxGfyBinW7TvERKx2A+vFAf6V8uzIVghXHl0N8JBa9ctAYOamoAu7gpm3xW6dj3CeHD6ry0KMqfuWfddGjO9U+nFTf6naNeakLq/l6dsW0fFNKuYu+r4Grdqj17dcTTQBxh2gn7BddSCgJiJ0d5hrgTkVaCtpS7awF+sXz36fHt/5QWzc/p+KBiga3FlVY8KL+OPmb+tz1t+qJr34NQBd04yc+oZ5zVmNyA3QH9PG76AaF7UNmh/xTywVyHWU3ln+Q+K+fVL7yjMp5QoKwRjvW+qe8+5PEZ+sC8uYSIiBIE/cAj9SniU+TpqLE8QMq7uJSuZUdezT2P76kl/6Pzyn/xDOq7t+njsG0FrwY1/Lns1q8NadFB9Is1CqrsGePRjY+qcH7HlMnIrpy3mprfZDUqLapcp25a8ZkMEhcwfw3DVnQQkBJbdu9ibiBw+hsgnuN0hsbrWj06RdYQrxLV33017Xy8ssBCIbfxEL3uk/WjcYvO6MTtNowL+1VpfifVRl9DJWPw5MllvueI6BNx2YliMEVSxHfhFV+XuhnkFTo0QUjflLZmoKEJbwAhEWBRMk99Pm/1cBnvwQ2h0GfV5da+DpgTUWl5SytbCOU07A316gqtYb+eZaexLYDKjz4vFouI678kqVR4LtZ5K/tEVPosC4xeizeDCnFmtezFlygaveYdonufHWEmHkZQjqwq8ODg7r5/R/WhW96i9L27wDqsHTVJYVuPx9cRwDlTE8ud6z0dxod/AdK71WWRH1A6x7aCU9YYJ5btBWoX4IPaFlUFAxZh6DwiuPJqalN4savQkGxx57R+HfvQqsdUup8gh4MF1XcYdRZOBH5aDtReXi5+y4eyBnb4hAQkXdzZM9OZf/8y8pdfiFc9oLsI4ngxGlLYaUa3tPIiwq1GHMxgsp1ZTK6adWHtLL1Aj27+jFidnRp99/cowVL5+tVb7kJZyD3Rm0g7OgQgc2Uzx7tp8YUmjBx9AvjX2ZkBaeanZ2oyhSbQ7AVkfL9BLipjDDU8D1lkxvom7SFknlDpVDuSZmbDVMmL1p32KTCxmdVfmQHMqKm8R3Edt0RFBHPRgaPwWL3e+slUew+B5M1RIxgMKzhb96vCn6HMJYzZY4ze9GValsi7AMTfCVQSmuxr2NR+zL9wtp36f1Xf1y/vPJDyj1S0es+8CGlOlppXRh9lN2PBMcbZAVvrMk743GCkkVqVvN/iw2yDTVDLwcTIAyb0GC8U4jrJM65SvF57iWyJjyxanZ9HZ2agiTh0VBCTVe3blOhyu4IvKRl2CGnosB5ugAbhLOAk29UzuBYkC4W714pn0KnZ69ow0M7rPFtuxF/6K/ZTNYRrm1SVLc20TDm6qN9rIWnRWV1/5e+qvbeBZq3YQ132ohz9Cb/c+miMW2zz/e7sc1q8uioM+XLNEyMsJsITpSpZF8Og6gOE8JfpWwj9RucrxCSk6Xh/LmBE9TRm4ig9m2A04QcfiNEn3JjoqzH8J00BUmMcBHx4TEVhkcAghlmeeG+tI/aNLw5khQeRnL0o6GtI5ASD257bkE9FZXfPApU0ioc6m/UlC/NUjL7iHgAKIp0f/MFpGAen8koEC6gEgkPlRnPa/N992vZFRfiYDPco0SkMQBPSRm/SSBOYwUYbhbMdiKArxd0GwSGuFt7BHLvAkIdE6UpspPAjA8I21kc/28qFvYhNYi4yCnf4GEn9oUiUB+DJN5rjRAGceLAhri3LpPtLPI5OjWxSdya2NkBA7SAskqu6FDrki6N37efKidmCRHS0oSdMAYhk3PGosUW+i6cxYrm+dqhyKHTjl4Mxt/RVJzW3y44jj7KHj+4R+l7HlThvoc0lGJs9Jy1aiHY33hrSjtGhvXuW95Ho8JZ5lZH8/HQuj3NRUJpu+teoZWFmP/mI6+dreSgwwlvC+dKdMx4A9XdTXOc3ki0547VBxfKu+jB/He2E7xHKcdCwxdUce+DaEmOuDh6iFA/Y7gpLuLWPAOxXYQpCzsXWShZZrgGbTwcTk1A4uFlNs9ha67s0gXKDzH0PzoSXuFQnQaHw6rYl+LB59zajIafH+TtxrujvjqGGvZMAE1WqZUrMKCO7mBxw2lNMNaTQtgarvLnX9Tw//y69YsS/cyH6c5p/OI1GlixUOeX8+p44kmNt2xibAMJsvws1RYswsjNBLnpKrG4DnykfLOZvMOXAWGZHUMa2pIO6oWzcSRk3IZTZQ8CcyMAuRWv6gNgiK69iWb42pMDklYtjP7mD9BQ2bsn00PwMPbOySSuoWB2FHIrc4ReHucIdnFt6oTzKUaoytj5K1Vq7aBHMxAkhrmVfHVWlRcwiAiF5VflC1HvxvIksYYu8gjd4b3+lVT2otWqLl1OIZtquKnpOcGr5lMsnlfx69+W/r9/VHloCPha2kHHoRHlf/RYmATxpiU5FYkFVzVTuxlrupKxmvfcrNpFFxHGu9XwoDUbJLNLv4sbVItxAhgstz0OZZwGbhOntlK8T9XCd1Qq382oyR5sEC5aZHNjlTCOCUKCO+Z8MZ/S8MGYFqwgeqlVZ8taJCd+Ejd2305Nxdjbx++enKYBEl5BhL+2yy7RyKpViu/YB+ocagrjdQd6fdAqBYMV6yO13ZIlqoLaFvR+SO5bxNX6jp+DELILkJ1Mwuk9rjEBprZ9t0p3/ItiewaBayTlLFwMFROUNoh3E62Q7n2SVltN7Fdpx0HF9x9Sy+/9jrT8PGKYuRQkGH8s17Uvna4U6MTRBcFkj9qxLqzuJszZRjYP+BG9mMfxdu+APuQ74AjbrSDGHbc14dBJdqrhAzq4FVuSKuhaSvgyNi9obf0wUunwoObxZEbzZpEACIi39LIV6rn2Muhsha1mNG5qdvA0YKxW6lG3OLJX0rAxHN3HIfboiiXqeuPPE/aa4jbPcWZ5TTTk2IOPK7VzJ3RFfTJvweKYYZh05OWy4AwMShEbDPFdI0ZcjIHM4h0bVdv0vIqIZ5sACccBczMOTXlmyZz6bSh1/DtYpNhIDKYWv6v8yKeVH/0Dtq/9FvsKbuE80tyqxxOrmAVYSQEYei1oEIZE2DuY2McDL7Gp0iouU5/dmeuYQnBNAJWbiucpOyhyqMyjiGlaZdXQJaL10JIyv/Z2ZTacT/xQ3r/Be/FZgwGKDqIqriHCIsc+l70uB/vtYrPhG9f8D75P6ZXrMaCoHMfAnsXkzZNLe3epOMrODNBmo8weYksQQ9ii1qrH+wc60a5IZjRx1xnnKD/1LOKaJ/0Iet3qJpgI4b7Z+fCEbGQBNgcTuIY/qvHhj9NLuZ163Ul3lrkxqEgLaGCMfRIdl6A/hCEFIJXxFu18qKoFy7ExFzju60pi1P5HiuL9mqkxihXmQfjgGLqlKUjMVu9AFUPP1eZ1a97vfUDlRfOJxojRB2MNk8QYpisToM1HdlFR4cfepc9VElf369j98vWvVYx9+EKUw2P0w12805XM3jh+HrZ3wYj2fFub0Z6MmYZWwyHyOkRz1CJt6OMUdVKgNeQPDQMS2jC9u6qREpqduTpbCfqpvHjxEQ0NvA+w341q6aNXyag7kTBzACiD48wotlfHXTIHJk7hBbU0ybHV1qY7impnL+Cu8zlf6VSm/bPgaYlFCoVolKXx/fJyTQMkMAiu1hgcSjN3NXvdFWq95SbVNlpU2yiltTH/IvWCDUIrGceCrrKPApLkrLPU+pvvUvLclfRqKAyPREE6X07I6TpjoHpOp3tVptVeEEs8bxttSdJgQOPbPYgEatH6JUa/uX3ZMo6jGXW0lEBmwMnpIvhl7yW3yi4MzQ8rS/cWawKbA8sKSeHdJyo0zjJ2h+PLZzE640zPtA0Sz+LP2hfTI9+Pq+ucmla+2u+Zz6bXn6Aur+YeutLTTMcQLkc9CV/QEgCVA8RaLNGmBR//oGqAYuxr/xycZZY2tlM8dlOifXrUJqEF6v7gO9R2/VXB8PXEhhKtMW2j5PigPSrzGfgJQBKLmarX7iDAB9HqVoOGtzvpFgyucvcZTJRLgc+nDVMWOstZtm248Fxutt/Hz0QAi+7lx2wkG8qjX0Os4f9AcngXsjJSw0o77j14aMExuiYVXO9l6sgdsBJe9gECdlf6alq2HvtjeTtq6WylWt9PT/oXkejWANOvhKYgKeKpS7tLBSH+sv5Lt89X7+9/hE2j2an79vsABQ6zRVlEMq1wl51qLer67RuVev9bVW5vCwafbb54vSXOBm8becSgN75hvTLMMBtnxDeNovEMVyLJ88+QiKShpYsHJLPEYE/x58D98WtepTKz0dzjiYxVz95qAKqRw+n9NoQfvu0BLVpdoutKJzUPYOm1VOzcdNYY1UVsJ/vb7U0d6QcwMJs9BtR5CSBio6NK7AolWn+VuSPXUsLpS5BGyZqCJO3+NsyMBC1HXntAK4svXqSuz3yUHgu2xnfuwnNNO6O7SWdZXR97l3p+852qLlgYKiJc4jVsZReA1hDtDSJO57c3PdCqFYrddINqL9LD2TOuNB7k1DBMJWM7Ai0jLPtaehHXjKV7X4vCysXKvOPNAVyWHzbgaQOkyPydPXGIl3Ts1XrwgY36pfNGNc5Ed29N7M0SivxVmOhVHEcuwvs0KqZ9Hm5NysCKFtXsB0neoGTu9YBpLbRHZrk7Z8b9dFNTkLibbQnid9qpY9Ovgks7Rv86x4yz+Z/+LQ325jTwjbtUa29V7x++R63vfasqi5bSAumnuyZISQwqG65hXxb3EmYtAfAM2zP9ytvUzdjRwJ/8vcZxMCXZpCkBgJJ0/VLYK+4JxNhqBdcUO4hn1H3zzyt21ZU4I5kWEQph33IDGoePZqMYr/rFX9YLT++gor8dfB/uutv55Q0U4rm4eroAML9rqFZR1lhqPd3e17HG5ufg+UrqrotKhP8e1wEhUSOdfh1MYyL08dngORpigMxLD4b3HwDB7OE2vxc3Pt2qJKidPh3Hz+QUr9jm8NgGTY/RRnbA/OHdGvjCV6RHnmGeJ3NgKEKFjedGsgjiYRTOUtTLR39Z6be/ib0JPKOcQpxIsztFel/+OCqGIX0MDBxiT6mUvw/p8QROMvbeYyihytyYWLwbs2kV4Dhf8cw6DPWzgdGCoD6jcZhTk92nDJKGAVRl1nzcSAbSoZ29ooydxGqrR+rZfoOUdTdd4OoYk4I3Pqrag0+rtmMvDqkx1dowUi89X6lr/o1iK9Yg+tDdOJ3OhBQGJ41Vk19jsRUz/sPev6xCUNwLrUwnx2Gyt/0+ltqeyxOpl1MtwymBJGRuaRKhIvrJj7Dg+lQpm6nnoc1WRzCc+bbPI2J25CEpIYLd00khbSwZS6z39fobb8F2xpTDkrDhqjbxjAjbfBDk/XoAAAGASURBVC7T5Q17IZtX0GsHRPTPJ0gzhPFTAklQNxO0mCILd2g7U6RIoCjY0wHItmEpMMe0NY7NaIPBtnngPfe7AL7mdGpCOnrHzHzaiYeUDsz1G/kdoO9zdSrN/oneo6V5Q8b7/lNLTQ3XqV4fwYI7AIXp90cAiCviDAGKaYwK6dZ4mK64rfF6Mu1BuvBt4y7y+vj6mQETj5OZ3Ia9fxgAVin1cjQKYJpdIKfDRYx+n+TnKUkSE4OQDsSY/3YfB7o8kaFRopMkbKYeC7INcW2PSBgW8ItNnhujMUDrK0G3Df8wYjoZF5OP/dwrlaxuJkBgDtvuiLAQye7DeIjUja86zQxKThEkEYlGeRDdposCBWf3zNDnN55aqvMrCA6OA3sDvXU9PwFsflOKSh3c0Sj2GVKIiTrnwK0xoNvk+hgaJ5MZjt107Sq04Tr5Ij9PIp0aSE4iw7lH/vVx4EwRqP/6OPczRPEcSH6GKvtkizoHkpPl3M/Qc3Mg+Rmq7JMt6v8PnddAZTmvEzkAAAAASUVORK5CYII=;shadow=0;" parent="1" vertex="1">
                    <mxGeometry x="640" y="950" width="137" height="124" as="geometry"/>
                </mxCell>
                <mxCell id="36" value="" style="edgeStyle=none;html=1;" parent="1" source="32" target="35" edge="1">
                    <mxGeometry relative="1" as="geometry"/>
                </mxCell>
                <mxCell id="32" value="" style="sketch=0;aspect=fixed;html=1;points=[];align=center;image;fontSize=12;image=img/lib/mscae/Person.svg;shadow=0;" parent="1" vertex="1">
                    <mxGeometry x="546.5" y="987" width="37" height="50" as="geometry"/>
                </mxCell>
                <mxCell id="46" value="" style="edgeStyle=none;html=1;" parent="1" source="35" target="41" edge="1">
                    <mxGeometry relative="1" as="geometry"/>
                </mxCell>
                <mxCell id="72" style="edgeStyle=orthogonalEdgeStyle;html=1;exitX=0;exitY=0.25;exitDx=0;exitDy=0;" edge="1" parent="1" source="35" target="68">
                    <mxGeometry relative="1" as="geometry"/>
                </mxCell>
                <mxCell id="35" value="" style="shape=image;verticalLabelPosition=bottom;verticalAlign=top;imageAspect=0;aspect=fixed;image=data:image/png,iVBORw0KGgoAAAANSUhEUgAAAIkAAAB8CAYAAABde5NjAAABQ2lDQ1BJQ0MgUHJvZmlsZQAAKJFjYGASSSwoyGFhYGDIzSspCnJ3UoiIjFJgf8bAyCDMIMjAymCVmFxc4BgQ4ANUwgCjUcG3a0DVQHBZF2RWXSC38XPz4l9xSROTlxomsWKqRwFcKanFyUD6DxCnJhcUlTAwMKYA2crlJQUgdgeQLVIEdBSQPQfEToewN4DYSRD2EbCakCBnIPsGkC2QnJEINIPxBZCtk4Qkno7EhtoLAtzB/n6RCiFhChFhBFxLBihJrSgB0c75BZVFmekZJQqOwFBKVfDMS9bTUTAyMDJiYACFOUT150xwWDJmiCDEcuUZGCzvMDAw/UWIxVUwMKwHhodEBEJM246BQQwYXtuvFyQWJcIdwPiNpTjN2AjClowHelf2//+XwPDh62Jg+Cv2//8P+///f79lYGCbwsAwxRwAF9pckZ/eqHMAAAA4ZVhJZk1NACoAAAAIAAGHaQAEAAAAAQAAABoAAAAAAAKgAgAEAAAAAQAAAImgAwAEAAAAAQAAAHwAAAAAhzQfzAAAQABJREFUeAHtvQmc3Fd15/urvar3RbssWatt2bIxlm3MeIkdHLPFGIeBhN0hkwm8ABmS94E38yDDYxKSDy+ZycyETCYkLyQQEjYTEhaDbcB2bCzvuy1ZsmXtW6v37trrfX/3X9VqyVJXS2q1lQ99pa7613+75577u+ece+6958ZqUVIjxWIxcUr+dqrVqhzH+Za44g+O+Ygu1x/jPCdi/qrfo6pP+YlJ7/Jl/z7y4XA2XKnn28j/6O/GjY3z/l2tVhWPx8O3aT5M9+F8A/HkWYPAGLRXnU+chzkOxYhV+OG/dCA/lNXXI+rDt1TmWfjgJ8wbs8Llm0SznzhW/o17fN3p6N/R2eizUZ5j3RNxefLdPo7OBj6Hn/WKiUiE2lARXKmf9z0nmGIQE6r2uM/VzDwqgUzigZFkWkmpmqwoXkuExyowuaaEklSYuV+KVZXi7jMjUbwqDOJ/FfoDzWZgoDkeQBODXoVypiKS+R3YAiiABiUzB8wHWB6KZV6cPNNPlC9uqFUAaQpS5Gty3SIrBj0USslwzRCOVxPhei1Bud2Y4+PhumouW1SLAVgG+jRTstl95RiVT34xFVWtpBXjiUBktahisU+1+C6lK0la0EJV0u0wt1MpmHumYMRsrARyYGAd1JYaMY7dOqqAJVatqFKE3UMVDfaVVBiB7ZmUsl1ltfYmVUvGlEwDlVgpVIK5MbvlMzJdwREgnLmleZWKqFQpV7mokdKgXty3Ub1tZ2tRx2olkK7xMsCoZRVPQC/kmxduHJafdRnarPrD9aYgSarE292WjES3ygpSpKpD+/5GO7feru7ePs1rQdilVirZ8XplMzdDUHZamc/GTQZCEMVuVf4Bs+FQkBRmu2h5I9tjevHeirY9PqqR/nEVxmFwKqmWDmnxeUktvyqpxRcCFHhQA3FuKLOZqFcqnT+3/gp/HFepl9H8QT389Pe0sGutiokh3Xr3f9Gr19ygqy+8RS9ue1r9wwd1zaX/FiXaFWrPwEAm8S8ZpON0yzB1ca2JxioqP/cgrYnjc9YrmapqtO8zyhXu0Pi+EY3sHFL7Oaib7NMaz9+reNsLSvd+lPxb+XMLeGWTraKgRAJAAActzGK7poKS+Zi23l/SxlvHdPAZWuVgQdUiqtTgQWogNrT3oXFtvSOl9W+SNrxtvqodtEfEPDCatYLVqKVGjrU4JbJ2TBiwSd23+XYNj39NrZ0t6svv0WCpT9++/0t6atdPdeMlv4L0BBAUp4Y6NURsOKiGRIoHrkyrDFPbJICkODKi1Jf+RJVv/1DJW96t0pVlFcpf1ku7rtW89i5VU99UPP+0EilaGLZKvKVF7Yv/Tsn2q2G0JdArnWCKDQm+lKD9BYuVw4L0wu013fM3B5CIBTCRhYnob8BUq+a4GTAk8qrls8q10Pa6pQtuyumaD3YEQRla9SwVDbgatpAfFIYqtp+w/8qlojYNPaHPffHXVM2MKpEYVS4+X6XxhNace6l+48pPqqd1DbqThgHgrWDjts9sDkwfI0p8mnTcsiLeEomMCi29OvTYI6p+6+tqWfQjbaxcoT/83f165KlRXX/DVcpmN6IbC5CAmVfEOMwBrNabzhCQUDqrGnMZ3gSNXClq4NmE7v3KgHY+OqK4bS3AUzXz4yinalnlfElp7i+XKxqlTGkeHjxQVrK1pgWr0jQKv3B2UkJj5A4xpbiGKsPaNPiQ/mXrt/Wjp76pnbuf1KGRPajIPJqoX6NxzAGM1EXJJSr3tmpf8SW1tLUoE89iW6JwAIythxm1SZSEWeecLf27j2jrl/6blvfco6VLRrTugjatPXeNUskBVYfd+mBYrAUmF2DwPgAThDbfTm4Bs8fUkGX9I+Rfx0hEEUAZLWnLvWVteRwLlVYVrxVBA0BANJvKIvp+3Zs7dMlbW2iVNd31xQH13e9batr844JWrG/VvPNms0zwlYIU0iU9u+0+fffO/609B7ZoNOluOZdq44HbsUoHjSBBecrauu0hbdr9iDqLSb323Dfq5rd8XLH0vCBQLZkyk5nU5Hhqm8QPuxeQyar3qqvVsapHxfHfUG/yfv3up39O5dozGu//CdSPq4ytmobYGgowHj8rZGuTxr4J+xjcBZuAycRBuO20foTsJ+WXrJXUvy+nTXcMKj6CRKiUaHllFVNpbPKKkoWYWlZmdNm7c1p+GWVByvQs6tSfvXMIlVTU7ifL2v10Sb1r8KnQ6wnvr5cgKuuJtdLpFD7qupfoNWa0ani+brwTqfbwmPZ0VDXcGdP+hVU9/hqr+3atfaqmFS9axea1YldSHQPjSl/woLRos6pXzwNAuCfqKnc6efue5iCBwbEqFYy0a1m4XJmRm7Vv7x9L47ehG8vYQPxhTKUtskFFLZ5Wpu0ajsGqnzVSeNhQiToYRQQnDJ61FCEk+D1Qn3aIDR+s6cDuAVRkLipbAj9DuYZ6wbQrW3dzH7rbwrFapdsrbBREeQ2jtjRYUd92pOVYWql2DHbsLhvHLpz/cTDjJbOvJkV3NtF3UMm//aHmf/0FzS+XtBQKW7j23WulfCaj195V1HW3VTWvv4akcDmSykN98q49GvjsF9T56W7lXrUKc4DKPAGjpDlIYKp7XuHGFIS2vUMd3Y+pcPC72IMFpIb9ELjSAEyqDDBa29E6r+VaBAZjJHC7wbrYCVhMjWdO8Tuqtqgia4BgsA+9nbdkK0I7VQv9SeiyrySVLmtgd1xP3zam9nibCmPSnV/doRj3Z7I4CpE8QzxfHKkAEpxuVIULGFxuzsjMmuFkgKMNNfqdO9T3R9+kX9ZP1QfXmTME2DH93B0VveEbRc2jAWLCco+hZVuqDHUFHfrB/aqt+ZoySz6g+LKlfmzaqSlIQh0jU+O2rKtZejNL1drzKWWSl2l0+J9h9iYlygdQ9BQEjGQ6PsA9KylCTCV0fRymxd3LCTXljpwdQrMMlHrlmS+xQAsWUxk2U64Kkq9Wc3vDnLJBhw2WqLXq4a+VtPXHh1REbI/3xdXWjpS01LQ4DKUzOAAbnz46nSmFQR3vH9Wh3/9r2HiQ/OzrCBRrCBqu/xcEO3aU7YxR7sDs5tPXKzgiSurKJjSYH9Hgl7+n9tddobalCykCdTBNQPtNUyb7E1zhsbj71nS7QHUps1ax+UiUhZ9RquUcGIvBl8S/UMAnEW9VovioEngAU9goCXtqA9HQZAbbCzibiSzNC6sCSzXT0tGFasyUUDdccPe4hvoDNIqVVSplcFwV0dtFDe6XhvfFOU4DeECCEzHOcUt7RqksLZjnEULh3aFIHDcb5TjhoptobKXCj+7SwEsvUeXmp8vhrgHihW9Kg9qxcnEnF7uKK75mqIygKvP5MnVYUpICFe7GPhlAPPq900xNJUkMpsTcNYQUjxUkYV5VWRULi3D7fg/d/CTDAxAxjOYei6vQ//9otDujWOd6tXX8kpJtb1I8e1awRyiLOTq7yZVLjuGPvOMYm+290vzFHTqwk25jEYcJV602zFolGFqojgIGxDmgyOB5TeDyLIRuMq2VjkbvsoRSHbwsAbhcY261ZGD3w+lI1VJZB+68B67bz5rgn6VXVCpkTJAmztqN2f0zW0kMJgATN4kcHegSnxXsk7KGH3lCuQODynVgFkyT3qYgCYVulB5J4haZLMHSxPMaHPgyramIwymj5DDcwiubwqeggSIN8wEdqDylbPkeWu4naLlrGWuAfLrJx8aJC+107KvRtak/Q+Pw4z4IohQVGbof0TurqMzyaEIvPnVAo6MIaHS5WWofbJxxkCpioYz0Qz7guIoBkBKvynDfeBj/sDm16LyKlp7ney3wqRYzOgDFtDXK4OOZS/j0lHzqJV7oKk/ZkiInU2mIxNTBJ5Ry3uW0PeJ6qtKsbbcwFsV9OY4y/NX2A5Ahd/1N9PQUZVMsBcsdhltTRPa+D/jLb1F5+DGYSAnGII/xjhJMNp5qJQgYoMczPKzK3ttU3vundDc3B9Fshh5u2w1GRq3ipJlsUET//QVwEcbOhx8RuzhJASpI2ce/Kd3zv8Y0coAyuHuP8yl8c7N7PnHus1RxJSBKVMA4x5qlYcSU7U5o9fWt6l1rleTqqSdzkT9Dzv9mNFGGGCpxaHSILFyx/vOnv02DDYKonG7xlh+GhiEU3WkbxSoetcn5arEaQOY7p5uaShJnZyvZLc7GkP9iqJyR4hbyKcFYsi7Zywcp8CdeRhTjK8mOIxo5rqLnC6PfR8x3K19tV7ayUInuD1Byjxw3kHyKjOXxqmnhuwZDE35v4JAJghWAJj8obfzqqB79BiXABll6fgZ1A20DXPcIGgLaUyDiCOWArjgCm+cyvC+ZKivd064LfiGudb+AisHrakjMVjKQ07ksRqlrwimq4EiuH7+yG7XmOxjn5qkkEhGJk0oEOya8ahofZmGTBDPMD//ZnxtECqTC0yoV7aF2vGgYR1zHj12gS5mAuaGXXkC9INJrlbxGBr+ikT1/qvzAV6kDPJyhFicXsJEJl04whbcEMgOEgxSxOqglYA1qZHQspo1/268nvtavfHlUV7w/p4vfnFIuE3VgawCiArBjGdhOuWJ4MqvJMVQJtFOmGjbMhndl9Jp35hiXwkC0tTpbyWzBjkotX8yBG6mtw0hR2DCdmpLQQoLPxPfSjMRgjtJIxlCfvGc6qbkkgYqoxddxaaKRKrn0+YgtiLAq6oG5u6j2PUllFuDU5pkCvaEcfeIUIKkCilo5j6QhO/eEYH6kzMPLQsO1FDj5RAUHAPMGjIQy2QSWoHMKh+L66VdGtfk7eFbxkbzhYx3qWpHU7X80oBGuYZfS4cKb2ZrWvPlVwIz3dczu47K6F6e17OKaNrxxkTJLa8p2Yoe4d2beT6N5nXx5jnyylkmGruvQP/6IcjXkRwRwCszNx4aKDViDo5M/j4W7vtrWr1Wqp5PBy4YUPzKvY/1qCpLJiIvqMRJbydir6ApepeLAnWEgIInFP7q1pq4cd+FTSDHvoYpXsAogyum00gwsjbrL2HkDRqJ15Cmh4hhliWqN6S42JQLbagM5Pf2Ngp75e7q2/HvTxxZq6RUZff3De3VwO2ZftqS116W07vpuxbE3zl6BkTpa0yAeyxy+ha5OqMT5gNsE4Lm1WJIeI+vTeYrWU6Jhdbzl5/XCRz5P82SiV/gX9WTcFT5ecic4ZZGPqmFiBL861HH1a1SZ30UdTJ//02gPkfkTLNKJ9/JYqhep8UnmV1yqcrVV5SU0rstKGqbbiF8tYiiTkQrzqaCOcY1Xk0p3X6bWtlu4aMInXhZsiUj91PPi6okml7lmu4R69GS+2GBGj30rr3tv3a1ErqzX/3a32i5I6hu/PqT+F7mOLyRr8yKZ0fJVrVpzfpbhhJjaFsTpvSTUvZLuYw/9hK4hBKc9l4h83m8Jhdg6UfJO6f6MHV/dC7Xg028nf09jcLVZpU/NL5u1KaDBRAi6wUjKt16r5OUXIcytbg7zvxlxTSWJX2XkhleGyo/0YgxjqpJbr5Yln8LO+HNVRh5TMX2QQcCyKnl8KhYWSI9YMqG2xAJGIC9Vbt4nKB/TvUIhJxMZXhxy4uOkklsUHQ6I9RgnLByI69m7+gFCuy67BbXXk9Dtvz+kA3ssdGOad3ZW63+egctVYKALduNyNwAwU/l2splnuHHGrthQH7jyJxgRbpqdD6Qj3jt1/vubFXvgGQ1+j0lgVLuN0clcPNzwohL4GpMXNUg5Wi9epwXvf4uSK5dN2OnTJb45SLDugxGIgepZTh74CjPo6NVgT1H51yqx8HwdevLzGtt/h3resAY3Pb6GZFYjW3dpBJf2WZe9S8mut2Kb9NSZfGTRDhfu6PPTK0bUsLGNsEfc9TOLKhjYibakNryOFnRWRnfT7d37NP4BBumS7Qn1npfWhve1KtVmZDWSkd2gJtLZ9JWii5NvO6pqohtO46cnNZPii1dq/n/+KF7hP9Xo7Q9A2dCELKk340lE+Iy7xxml161T7//575S+8RoKR5VP8h1NeuC4h01BYgeTjXm3KD5C8kz5aolJRgMlje3brRTKe//GFBb4ryiNhzUIuP68YoUt6n/kMXWu2qDunhaVg+eJ+Sl+1wwnM8Q9KtwZ8CCvZG9cV97SLqa26Cd/OaSDz8I0/CDLr2jV2quxnS7MKUxAm2E6TsvrzH9qym735AXnq/sPPqbk+f+ooW/cofiufZTb/RbLUhu1big2WQ3uTuXedoVyv36TWv7N5UhDlA9+iqaVflQhmt4fGUk4ZNxK3SWkx5CkpzL404e199EndZAZay1LF6FuhrX29W+iy7talYGDeu4vvqBDTz3JDPRxLbziEDq+RZ5wXrPRenIC4yjSD//0DPAgPpB6NRCNp0aJlmJg1T3/MKK+5zimV5Ii77aemi69GR8lEuQE1PLhzF6JIwi1tktVGD9ryar91ReqfeF89V5/lUZuu1N9jz6l6rN7lOjHW2jr6cIF6rhwtea98Q2KbThP1fPOBjoeyES18hfAFBrs9ArTFCRmvgfmMnWO4vpQbXRM+x54VPf/3ueUGGReKJVy9rvQd/OWqlw4pOf/8gvaf+89OnDHwzye0vgH+lRKeVApE8ZEjPOZTKEzCJ24RsKM8oS5Uc5hlFa0YnVG7Riu+QFaYUtKHeci0bJFRrHtbXCaeakWvXcmP+mn4Kz0WFGKoQU3hNgCJhC97mp1X7FBnSOMNZXGVB5nQJU+fTzXxsR0Rmu6WsOs/4TFEM/4n1VN5MWafrmbgiQMdHlcI2QQNdgKiN39/E61tTL/Fb9CJcOk/cvXK9eD+5oKKg+PApCnAE2P1n7wl7Xk6qupCgb98MDSRZhJ7oV3uZ1V8ctYNSawlQKVGJs9F1V03Tnt2Cd4Upnm4I5Jsr0AYLMwnWN3wyIzZMZpmtkX0oGdcBvgE6IxVFm1kKJToAz9dNR9cEE1MqVYsCI0mkIYY+KHl8KwLsPO+mDinEA7nXq2PJlazMXxoAaDBErsJfEEIxZ9aHRPn8YHBhTLtqht5ULFcvhDii3acfdd2vOPX9dZN92oBde+loK4z9BWfxvPModjphNsABtY+0i9kpdDUPvWzjGsbLcZjyvZsaekJxrRmihSyk6QE2CWs3hFEtLDyVMT8CS4uUYShSGPajDWKSfnfL5RnIgfPmEToRwNVeDlrAGUsBS1cSO3NEvTA4nFt2UJGUbrYW2jRAZtglHgKtMJwmQiZ4xoGzm4k2UI7YpnGHtMs1QB6JcxGkNvaHJJmlF3QtfdvCIRWgqtJ9K/foV7PUHU8hn3CGQ91aArglDjzBn6Dc/CaAj1UA18pwycM9hdsggipr0BFR+7xFFPz3UXllJQf6GdnGAdNAWJs5tLP9scONysfrb5MFf6KTgwB5IpmDN3KeLAHEjmkNCUA3MgacqiuRvmQDKHgaYcmANJUxbN3TAHkjkMNOXAHEiasmjuhjmQzGGgKQfmQNKURXM3zIFkDgNNOTAHkqYsmruhKUjCALD55JFD//HhiMo+9CyTifPhmmeIMVocjn1v/RF/h5O+MOmibzjtaVKeHDZ+Nb5D9hM/PCXCf437XM6orI1bGt/hpjPhwwSR/NWgvlE7E4UNd0zmfP2h+vlmX81BEuYd8FJPEWSeRpWgcx5gLxMRo+phd8975bKHoMOsHkI4eC6Pl0jWPA+C/+HPX55+NxlBfmRWUkSHSXE6TNLho+iKC+O5KNEkYhfJw/CeN+y/MzNFDTXQCo2ebMTQfp3PJtrQ8bf/onSi4TGaThUIr65XrAmpMrGhWB3X07v+X7WllmlJ52vUklvORB/mlICBAy/s1J49W7Vk1WotWryUNcDEIvODvCgUxB/hyN+zlFwI8jVzoigDUVuLZo421jibxAY4PK26cdWPuiLqTA7TOJu2rVkqWASBwFfnaBLrZPpn0YvhoT0Eq4B+zzIMc09cllAO39U8NZ2+WEV9ODiDM3f+JqhSG9bjL3xR+doYK/ZW6oIVb9Wqnrdrz5ZD+tRv/Zq6WJZ4w/t+S2+9+d8CKpATpvEHdARV5VWes5ZMtwk39czkYipS+DMMQoFcIv67vfkgOu8JVtF0Hs8IDed8E5IzvMuP8HcmpDBrMIi5qARh+Swr1PwrTbTrqLx1Sif4cGKUNwVJVKGI4DoKo1X7LYQHb9fg6D7t7X9AQ+UHVWU984v3ZTR2YEg9Z3frddddxwp2wGXeBuSaMHP3xAg81bs9oyvK1hyCaa5oa85QMH6bJOjzlMwoVBY0w+EEcpsFGjxjqeFyIGdombbDoiULPv/KJ0e4NkZqrIUOwK3z118O3mQqY6j9id0zuMkS80SobwoSczEQ0Hgtucdh4OLeS7Vn6AXmiTr+RVWPbv6Wnr67QzFma7/pPR8jcM08KsLLJwKZgZu2U7ztyGyn0IBgjKcqBoCYAKYuelmoA/vGaizlrDKbn7BTiDoKSCETbUwPbOebSdPAxUw2s7xYq14Ps12MY+cHuZYaXjDncnqSNIGvsU2IVMJ8Xk85dfTqEBOfcllCnuikzaYgccaeY20KfOwp2AnUx+olb9fmkTvVPzaiDBJj9/Yn9dQzrbrqul/UtW+5EQ3jdR4RQKAxPByhORTFb3pFUoRZuFg7SDS6rYqPPa1K4Sns1Rc4R1i6CtIFYMRTS1ideA7rc9YrkbmQCcgO/eAmYz3vZFH+yicvzBomutQh4tWNoF4cHS3hubvuZVJPcYDfSqOel2PNESRbiZ5ocMOmIDFO/c+RAEKM0/FRlQ72qXtPmy7O36gtldtU6i1q/wiRks89V7/xno8o8fQmjFvMpXm9qs1jFj3x5gn/EQmVVwgjjhZkm6QaI1Ag65ZrI8R7GybMc34ry4cJy82EbjPDwDYbqzTHOGCpZc6C/nWKd70RJX82Mpzw15lFTFdfxd3EVwtixVLKTZnChd/hY+YQZJ5ZBFKEEGOEfPYQqfqxvoIeGapq39CY+ka8KN8SxfRbvUAiUr2FSE1nEWMl25LULyzp1ms6s0R4ML0vTy5LpIqOvNq8d1P3e7i7W9n3kvLf+o6G7sAG6TtELkRXXjaqwlUL9dDBktYcWKBr+lM6sPdF4pHAy95epV9zidrf+UtKLDg7LFVkn4LZTTDYPCYQKxXMzP6hr7LC8MuKDW0iDv4oF+DsMZJVLCwPwE6w0KvQBdhZfJ4sALR5b1Oq+xaEyWKbOLzfLdc9B94V+DuzhbS5nQTEXk9RAARPHsrrC8/t1X0HxvTUGNAucocDvdZtwAisEOJuZa6mN7S3qpUwG1UWd/3HC5fo4vlezchLA2P4ridHtPYpl2Ryag4SlxuIVrY8rgN//HmN/+helXYNExDFhp2FLouuurPKE8OjlVhplX3DxEBHDxKbi7ao+JIWdb/mUnX/l48rfs46QnhCgKMWzlqiALTCCjZHeeB/KrHjr4kkcQCeEoWd5mbH4DGTJacrH6Ck2OMmbCHidTrYVNVlH2GtMdu1xDo4b8Y6j9AH5JzfdySTj/n+EzoZ8dILyp5g/fV/emi3bt9dAASAwwuI7Jiy6AjGeL08JsGigWvxRFEfWTNfz40kddOKnH71nE4lQrhR32QZGORgRLr5Ed5zmMCp1Y3zhob87i0a/pO/0L6/v5M1tV5vSgwy4OGIfgmYWCUQbZbAL2apgaFiFHrJJl5y97j2f+tuje/aq5U//CvWsp5lZM1aChrAYm3gr1Tb8SXWZrGCnOgI3t3LBjdK+5i0OIi/VaTFe+idoa4qaZbNt72W5aKoHqJFO0V7FFLyiQA3ZvzMJtPghY/jAPAxYrDevp1AbwZsIJ38JvjJTRTJVeDK938oZPFeBoCMakVbSv3YLkV+txGXxZcj2VFXl+FMeMgPTqSp5SKqpjJ+SIO33qrtX/wnFooXoIdgNHy28e3egqMNWJuP8+ewwM7OOt1ZOc6f446mM0DpgU3a8dE/ZuMhSna81jtB1swdxNyDGbmN0JR/RVz8feyDAJPiJQACcAhOc9xEdyEWAhPTe0NalBIsZ01igxCIp5ZbTRkoqxtR+Dc1G4+bxzQvmNMEGCOAMmbqWMiU36hP02+AhJ4B3wEg3Ovf3Ba+LQZQOyPQW2Lpa54lryNIyXgoHzXIfUdQ76yOSkdcP+oaUpru4fPbVLj1BwDDQX69UUYVQDh4ikNMWQx64aehYArDtkKhSIYLvlY+gVB7tOC274dIlCcxFmcRJCq9pMoh4s2yJ4wy0IyUjoVAeubi8VMQDF4uCoMTRGu0RE16M4ISC+Rtr7gu4J73yTGbLW2iVnn8d578FaJX01PJEOeshwYXKt9RgsIf5bC6aUgQV7KL5q48UTGDygEJrVxvR8WmgnokPJa7w0Gt1AEVHopeczSdU4MEY2jo+a3KP7YdOWEPQRRI1kyxBPFvSw6imvIrelVLOOOrFuduZ4hiNFSyM622vQNsbnFbVICjKTldv8cA5eCjvB10mEb+O65awuE4w3jBsTO2KrJKd/x5h0wPWrtCcJ7ydnQ3XeXAWzjvCuGHu/eNBn3sN578WUdmsNS2+puHyuhJo2qciBLp8oQUvusVHnw9nA1dSr4B8ABg3laiozFe0t6hmrbTG+3jvmIguv5csKei103+nNomqSAntrxIp8CSI3IiGbBeiu2mZKhYYPvP3PI/RxWL7PxIz/kuu/bTEGlW51/cxh1+emaT8w7vdO15IBJjNU60RY0+zhYk/Vyj5WDkhdYPJaaxWaUGw9sMh3lRiW3o0jQsVkgTZZg4OJUy+Z28CPpdBEdNJHBAOOUAxCW6siWCWxHvL9gWh4gXL3bMCEMeVjmmMICe86anCpBC3BYupsb1wEEkD72jty6J6eH949RhmTG3nLoJg76iPa3lIfjhYcz5jY00NUioXBHzwvmHrUVpXcEYpQCjHDvYnJnnSndyRUQU+jMSvi5nOk/ltNpuQew5fudpSAF4EXdpYRbJMItWr/HnqGPHjY142GgsDlMxVfLVBOWP01csNvbCAVXxJDHfJkKfU3oXeSId8WPi7HQOzCfzEu3sMC4cmwKri0ha54txvTBS0q4+YpDY50Mww7BxggHrQjk4i19Qpefo8JPUjqogADnvvXrQubo89qwWplbrpfHV8IYF/Pi8ckMxvXSopPO6S1rfA2jsoziqGFODBEOntmRhEFvEwQ2GqRWLd0qINjZy0V6eXDxf8Z/BEuc9JYs+x0Ht7Hn5AzNyBlDCMAfyC+I/hOs/RA+x76Tebvhb1RSQpmWCAseJtSbc9PHUOiRQXdyf1JuP/ZAVtPll8uOWEC4GHyOIvuf2DejRMfbpwXFWoFyrMgN6MM1QQhnAYpASIIY/6HPgEQ/F65CWJA5obW2vLqht1eqW7VpX2oy0GNfduc9qi84jHzah5PYaWnicLVr6sbXa2Qu5lZ248KIcgZMpQWKGt1x4PkFuMyofJChdEFJBCEP+sQFiFhiIljiWJTZr1UFBkCDE1FX6oguOIMD3z0wyNC1+PSZDsSxVUDk1jM2jGsa0sksCkBLviWO8uy0niDdWSS9TrO06nqcGZzi5i+t4b3m8odkgKWIapLVvxO/0KODI43catbpEuFzRvU+/M/4pjY0Pqy/RA4/dRSBMGeHc25DX85Hz82PD6kYCenDPOjbOhpv3dtyol5IApDqE+iKoD+rYYzkeCEyXUtpG6LIVBMQhLM4RaUqQ2HEUX7hQuVefo4HbN2K8OgXZwHfkFwmnjvFhNhpGRC8Lobdj/bSV7ja1OKjNUc6aYzx+YqfMh6g7AlVYG8YHgIkDEM9/OZkUWhld5TTdxUQesBEaPdl5JTEv15kFpyU5SlQCcBbNH3bufHh/Xo8dKGgYyVKrEHMO0JbYwWZXaoMOdL9Fr9I/6cLifjAAfTzigD0WDxV6QaX4Qr3U0au+2Dna0rpOu3Kv1WDyXLbBg1mo3xidEu+4XkbCtwG8DM61rpacslw+Ok0JEoeWTs5foPS1V6pyOxsdgVkbqQAPwLjfcuzkfDyobqAQQZUC0uWiJbRff6WSa1a6Ro/94CmedQ8jKiNU2hMZyxGD1RuMnXiyqR6nRZcBCqGcFO/dwEY373NN1Ok3F2YuRcFpsOqoZEfT3oGrfTf2YB4JZolcq4yGsGNpgD/GFkh3tH9QT2avU3dxL+wcIX4PdPo+V3ysS4XaYvVlejWeJOihbSvKk6YeyhjABpS7xA6W2BLP0LWuaGGuorVE884GW+3I+pkSJJYkyW4297vqtWq99NvKP7QNa6SCVrTjzFr0yJc1WOZC2TqnigjyBtGHQO78FvV+6L1EZ2b4faZBQusLlITmZJjAMOtqZtDZHX8yyUPsSZhbo0cQ775I5Xm/T5jx8+hxWIHSRI5d9JPJqv7M4RcGoNBA40iIFAap7e5RggRW8O/E0A1pYOJezd7Mem3PXmxsUH43WYPEtWKHBfWEqozjTMww7uMGW8E2dAz+HFI3gQSxehsvjGgJGzxduahDi2wLU7DDlESkTQ0S7nHWKWKHdt78epV2/r0ye/s5Z6Huf1Y5Udu1qdMYz/EZV1u0wwoe2VxS3e99o1KXvJrSzLw+D1wKmbpbazoI0snsOQ3/gD0C98EYmEbJvY+Uk7uUToGt3O/SWPZ5aiP/sf+4DrOL9kd0blBm/u/SUXg1b3UmjajQfsPMJTdgZ2uawIJ6IXhVV5v6832EYiekGIOMtrGwPGxKQKvpJXY8D5le75Fo4i0zXNFRQyGmNUBPIE1T8N2TpvL2fZXy2l/MaxEzCDeAjMt6slrawZZJx6mbpiAJGzS2d6jtPe/V8MPPKXHrPWhF+xmMXuPVyLMF4M9Y2CjQHS+frRKrvTZSVOsNGzT/A7+K8UR2Hqmc4eSq8waK7gXacI1hR9TYPLI0fg/+pjEYh4rwdZhnUNt7aT56fMaTc8zf4EBxa6WXgNzD9mhXpusN1Na/p7d5Ps43nFmuyWAYR3bPDBcjOE4hM4AxTVku7MiyG8g8fe+lQebtjKMKEoQbbWereSrc6hRWVmxjGLx1x5n5HshE3tToKZTpMIzheT1AlO59zP0pFDFumbpx/dlduoC9BC8hCHMOe6QaeEPxAi+OLFlTkHi/mAQzzNKLVmrhf/iIdm7dq8zjm1A3bMlugiDQAs4QcWIGBp/2whK/eJTqWb9EPb/zYSVWnIsQMcp9daYT3UdeGia9IV7dhfNcj1jybHZ4YLdRb9oEXQkma5s877fj3wFTrhQ73ujWlgFCgR5dK6CIdd1Cr+zNGFXs2o3KSRlVEG9++JD/M57cfCJJ4DwqaiO/i7MprV7doWeH0rp9z0GmZPTpEHqilT1rKCFqwxIA/ruSkRolVEwRz2qZb5yqOgg4xomQvbwlo2sWzdO1SxZrHeDroEG0Ms8kHubYRDH0Q/zbwJUjpX3TqQJwFObAUsRfjQ0Zh++4U4c+8p80/tJeimSfSRXbA+bCdKsca2yf7+DX2Noe9f7f/0Gd73ibkmlad8Ku8HCZj5lLztGKJImuDjt5IY/d29fYA0xA+0PFRh5BRHt8iRGnYFMYFEhB1zblSnlGlxtm61lMLvoVNpm8CXCcDRI4z3t9WxL54l3S/Wb/nmmQhJn85BWmLpjXzteQMb3MlgtqFIHYD52bBkbp9Qxqc9+QtrHR5BA7n4+iQkrcm0FXdaRy4e9sBqovmj9flxJP9yxswxakTdJ/vLxkHFAI52NwBukT1JW7/G5kh1NTkNjOsEXtVmQpUEOnjf34J9r3u59T8YUdeMChnFQaxEDqQYcju8sMQsVXLteCD/+qet72dpoq/Xj227WYTxl0VNBMJxvLDrcfr0WyrESLT9vfUOunevtRF0xuYBRbhZ14NTchp3fzBwQY8q9m2Zm05XycBZdxv70ERjJ00tp8FDYy4Wdwx5sJdaBwMGPJOZkrYQYdmXpjJ+ft3OxtCr8wOoPMDirSfIRkOzlIoffr4nLsZ6LEk9S+pay3gfX+G4afr8dw2/teZ2pDOcxNAWBlWsDR6qUpSLyZkLdAL6G3kojlGCK5gp4vb9qi0W99n/64x2USGtuxXy2rFjO6CEGjReWuYz3OhtfQ1yKENZS4KCW6aQawDdoZTS4tf1FcU1gLMx3w19LEvoeoXUZgtvEXMdwPWVnyD8aE3XXrqsQSI9LNlo++B3rNWR5x67YkCdz11wylaMzLTjtzqp5clFCJNNKgSyPTOdASIOTRMHeRI0nqp/x0UBYGs+0VpFJ0v0vtAgTiOeUus2Fj/vg9XKPc4Q3RLRxHqTlIeDaF547uemCSP6KAsTbeIlTam1qxOEed1Ijoa2LM2hhiPPREqRi784Oo5jV1OuskzMCXy8drLD08Tu3phpYC0RRE51pnPNd9X8RK6PAP/sK4GNd8viH2eYhrE0+G5zy9z6z2WbfoGU282m+3RAicCuCObC1Hua6Twx2+i1/1L38HSvzbqX7J34Hc6Gx0ftK9FTaFcmfaQ1y0KYpq0NCY/SO8sPGg32OuTJEC67BJAmO509P1/JZAQJ0gH0eIjN4ejEifM6HcHV3j24WNbpkix5O9VDdEXYkuaIOLR+Rn2p0aJ6OyROcmf5pip0Y5/SuCfjgXrs3wR5008yzi12TaInojieh8G/RPoqH+/MQZ3zLxCr8xusFwc9OOJEfILLwuagDHLl1TkExkOnfwM8uBSQrwZ5YHcwVvwoE5kDRh0NzlYGjMsWGOA1NzYE6STM2fuatwYA4kczBoyoE5kDRl0dwNcyCZw0BTDsyBpCmL5m6YA8kcBppyYA4kTVk0d8McSOYw0JQDcyBpyqK5G5qCxGPEYZy4/h0GhD2g6LkO0QcHDDN7Cle40UsqvVSoPizfeIGfD1c8JD2bifFPh58I80jI10SEPxfAo9sTJzjyb86YZiZPVXgmmh/LHBRmfYX7G7eHO8/sD88aDEWqFzXUiMvsMpxAagqSsM6EF1YNBEJKhYVAzJlk3SN5Mf8ijFozNM8SwxJzK2thLSrzLZg8wzIPGM4NzCXwZOPA+zAx5QQoPOVbPSzuiZWePFx/mWn27LgwQy4UgBPR3JiqV8l5PoP/823shwe51yvwvT7mX0ua2G6e2YQxyuWpo2GxWmjM0y9F06kCZqyBYUhGk3g84caZmZkwzBNp3QaZNhjCNHDsZzyjw1GEqsx2qniRA/dFkQlmfh2tszpuatQpREc0e4a/SwN5XIvmdhoQ0RssRfznObAUZSLly6wITBPAJzA4IGji2pl6YFJjNGxmvhLyxk3Fc9G8wO7oWaxTl+Do6YwvvztMMrIKYbYXKczgN484H2eKWqHCvHlmNSXDHvMsIhrtV2smS0yuLIvoMuF+r/uIWqqhzGFz+eWsZiZBa1TXtCSvvgss8nTKUAgKEmUTFvz5FGgJ4DdYfJEZ0mOscGMVg5JIStDOTW4C9QdnhsrT8xZm27mRxitDavFKP8IV1JjPW2Xh14mkptVlVtVqXhjkozyLe3YyO3s7RwSUio/qxb136JkXvqpxFkH1Dz6njU99VoPj+wi7RAgm1r6MVTYzi3sYllqCNMfkiRA/nXsNkAgkFNWqjuURng7o9Tae72o7JFw/ihOeXVcDVAf379KOH9yl57//I40NDnJvmJg5naxf8Xss6KsxAu+MPazytg+psvMTihXuoy68qjHiynSInEatWaf7nW5BVe08+FNt3f8DdXbP1+J5V6m/sk2PP/93SrFkYuuuu7Rv4AldcOG79cL+z6u/b7M6U8u0/qz3KJ1ieWeSibd+zXQom7F7zAz+PNmWVKX2KyhnVqdACBOPg0zxsnZaF4RFIprJfSzcqg2P6id/9Gfa9L27NEZ8lXd85v/SBW9+PVCf3RIEwk/iw/aTpQfLGFSZz6KQsfuUKXQrlTkHibiYN05PokwDJJYkZIYh6gjDna3nMOH5bv302b/WkjX3wsgW9bFM4f7nPq+B0QNqae/U/Ts+pT39W5UrLdHSlVexaLs12DVVzwTHTrFtMlvJEPc/V34VcIxrWNsOPKs9g9vVnurUynnr1NE2D3IACiv/jCdDoIpqee4n/6L7iVs7vH2v1lx/WVh+mXQZZo/8U2JTNKkZYzt9oZId70Zm/p4KpXsIJPQs9UCZj7Os8+hMmxqu1uFwNyxXSFgGEwZhsLZTD+78su4b/gtli4S0eWmI9Theo8oi5V4iFC5OqLd6jq5f8gktmnclC5dz0Ux6Hg9tMHwcTcrp+W0TyIoy4Wgt5bT2x0b1mX96m14c3qJUIaWlLQt13trLdMO579FZXatYXN3J0tCSXrjrx/qHP/gfWtg7Xwsvv1gb3ni9upedpXQngWMoxVHa6fQQf6pvRZ16xWFYq1DZT4P+JEtff6BUC7uHdH6WMnhxS11OMHncUp7KflnpmkoSLxkKbZE3mOEFQlF3jCzT5T3vZgH5NgKsfE9ji6Sh0bzSLWyVhJF39taVumH9e7Use6kSBYKlYLc6XKfX4lqnz64ksboxOpES5J+CacuQHg/tvF2lYkLbn9ump158TD9++Af6+Dv/q9Zlr9HY5l267c+/oq6F8/T6T/225q8APMkcZXAkBaf6O8PxGfyBinW7TvERKx2A+vFAf6V8uzIVghXHl0N8JBa9ctAYOamoAu7gpm3xW6dj3CeHD6ry0KMqfuWfddGjO9U+nFTf6naNeakLq/l6dsW0fFNKuYu+r4Grdqj17dcTTQBxh2gn7BddSCgJiJ0d5hrgTkVaCtpS7awF+sXz36fHt/5QWzc/p+KBiga3FlVY8KL+OPmb+tz1t+qJr34NQBd04yc+oZ5zVmNyA3QH9PG76AaF7UNmh/xTywVyHWU3ln+Q+K+fVL7yjMp5QoKwRjvW+qe8+5PEZ+sC8uYSIiBIE/cAj9SniU+TpqLE8QMq7uJSuZUdezT2P76kl/6Pzyn/xDOq7t+njsG0FrwY1/Lns1q8NadFB9Is1CqrsGePRjY+qcH7HlMnIrpy3mprfZDUqLapcp25a8ZkMEhcwfw3DVnQQkBJbdu9ibiBw+hsgnuN0hsbrWj06RdYQrxLV33017Xy8ssBCIbfxEL3uk/WjcYvO6MTtNowL+1VpfifVRl9DJWPw5MllvueI6BNx2YliMEVSxHfhFV+XuhnkFTo0QUjflLZmoKEJbwAhEWBRMk99Pm/1cBnvwQ2h0GfV5da+DpgTUWl5SytbCOU07A316gqtYb+eZaexLYDKjz4vFouI678kqVR4LtZ5K/tEVPosC4xeizeDCnFmtezFlygaveYdonufHWEmHkZQjqwq8ODg7r5/R/WhW96i9L27wDqsHTVJYVuPx9cRwDlTE8ud6z0dxod/AdK71WWRH1A6x7aCU9YYJ5btBWoX4IPaFlUFAxZh6DwiuPJqalN4savQkGxx57R+HfvQqsdUup8gh4MF1XcYdRZOBH5aDtReXi5+y4eyBnb4hAQkXdzZM9OZf/8y8pdfiFc9oLsI4ngxGlLYaUa3tPIiwq1GHMxgsp1ZTK6adWHtLL1Aj27+jFidnRp99/cowVL5+tVb7kJZyD3Rm0g7OgQgc2Uzx7tp8YUmjBx9AvjX2ZkBaeanZ2oyhSbQ7AVkfL9BLipjDDU8D1lkxvom7SFknlDpVDuSZmbDVMmL1p32KTCxmdVfmQHMqKm8R3Edt0RFBHPRgaPwWL3e+slUew+B5M1RIxgMKzhb96vCn6HMJYzZY4ze9GValsi7AMTfCVQSmuxr2NR+zL9wtp36f1Xf1y/vPJDyj1S0es+8CGlOlppXRh9lN2PBMcbZAVvrMk743GCkkVqVvN/iw2yDTVDLwcTIAyb0GC8U4jrJM65SvF57iWyJjyxanZ9HZ2agiTh0VBCTVe3blOhyu4IvKRl2CGnosB5ugAbhLOAk29UzuBYkC4W714pn0KnZ69ow0M7rPFtuxF/6K/ZTNYRrm1SVLc20TDm6qN9rIWnRWV1/5e+qvbeBZq3YQ132ohz9Cb/c+miMW2zz/e7sc1q8uioM+XLNEyMsJsITpSpZF8Og6gOE8JfpWwj9RucrxCSk6Xh/LmBE9TRm4ig9m2A04QcfiNEn3JjoqzH8J00BUmMcBHx4TEVhkcAghlmeeG+tI/aNLw5khQeRnL0o6GtI5ASD257bkE9FZXfPApU0ioc6m/UlC/NUjL7iHgAKIp0f/MFpGAen8koEC6gEgkPlRnPa/N992vZFRfiYDPco0SkMQBPSRm/SSBOYwUYbhbMdiKArxd0GwSGuFt7BHLvAkIdE6UpspPAjA8I21kc/28qFvYhNYi4yCnf4GEn9oUiUB+DJN5rjRAGceLAhri3LpPtLPI5OjWxSdya2NkBA7SAskqu6FDrki6N37efKidmCRHS0oSdMAYhk3PGosUW+i6cxYrm+dqhyKHTjl4Mxt/RVJzW3y44jj7KHj+4R+l7HlThvoc0lGJs9Jy1aiHY33hrSjtGhvXuW95Ho8JZ5lZH8/HQuj3NRUJpu+teoZWFmP/mI6+dreSgwwlvC+dKdMx4A9XdTXOc3ki0547VBxfKu+jB/He2E7xHKcdCwxdUce+DaEmOuDh6iFA/Y7gpLuLWPAOxXYQpCzsXWShZZrgGbTwcTk1A4uFlNs9ha67s0gXKDzH0PzoSXuFQnQaHw6rYl+LB59zajIafH+TtxrujvjqGGvZMAE1WqZUrMKCO7mBxw2lNMNaTQtgarvLnX9Tw//y69YsS/cyH6c5p/OI1GlixUOeX8+p44kmNt2xibAMJsvws1RYswsjNBLnpKrG4DnykfLOZvMOXAWGZHUMa2pIO6oWzcSRk3IZTZQ8CcyMAuRWv6gNgiK69iWb42pMDklYtjP7mD9BQ2bsn00PwMPbOySSuoWB2FHIrc4ReHucIdnFt6oTzKUaoytj5K1Vq7aBHMxAkhrmVfHVWlRcwiAiF5VflC1HvxvIksYYu8gjd4b3+lVT2otWqLl1OIZtquKnpOcGr5lMsnlfx69+W/r9/VHloCPha2kHHoRHlf/RYmATxpiU5FYkFVzVTuxlrupKxmvfcrNpFFxHGu9XwoDUbJLNLv4sbVItxAhgstz0OZZwGbhOntlK8T9XCd1Qq382oyR5sEC5aZHNjlTCOCUKCO+Z8MZ/S8MGYFqwgeqlVZ8taJCd+Ejd2305Nxdjbx++enKYBEl5BhL+2yy7RyKpViu/YB+ocagrjdQd6fdAqBYMV6yO13ZIlqoLaFvR+SO5bxNX6jp+DELILkJ1Mwuk9rjEBprZ9t0p3/ItiewaBayTlLFwMFROUNoh3E62Q7n2SVltN7Fdpx0HF9x9Sy+/9jrT8PGKYuRQkGH8s17Uvna4U6MTRBcFkj9qxLqzuJszZRjYP+BG9mMfxdu+APuQ74AjbrSDGHbc14dBJdqrhAzq4FVuSKuhaSvgyNi9obf0wUunwoObxZEbzZpEACIi39LIV6rn2Muhsha1mNG5qdvA0YKxW6lG3OLJX0rAxHN3HIfboiiXqeuPPE/aa4jbPcWZ5TTTk2IOPK7VzJ3RFfTJvweKYYZh05OWy4AwMShEbDPFdI0ZcjIHM4h0bVdv0vIqIZ5sACccBczMOTXlmyZz6bSh1/DtYpNhIDKYWv6v8yKeVH/0Dtq/9FvsKbuE80tyqxxOrmAVYSQEYei1oEIZE2DuY2McDL7Gp0iouU5/dmeuYQnBNAJWbiucpOyhyqMyjiGlaZdXQJaL10JIyv/Z2ZTacT/xQ3r/Be/FZgwGKDqIqriHCIsc+l70uB/vtYrPhG9f8D75P6ZXrMaCoHMfAnsXkzZNLe3epOMrODNBmo8weYksQQ9ii1qrH+wc60a5IZjRx1xnnKD/1LOKaJ/0Iet3qJpgI4b7Z+fCEbGQBNgcTuIY/qvHhj9NLuZ163Ul3lrkxqEgLaGCMfRIdl6A/hCEFIJXxFu18qKoFy7ExFzju60pi1P5HiuL9mqkxihXmQfjgGLqlKUjMVu9AFUPP1eZ1a97vfUDlRfOJxojRB2MNk8QYpisToM1HdlFR4cfepc9VElf369j98vWvVYx9+EKUw2P0w12805XM3jh+HrZ3wYj2fFub0Z6MmYZWwyHyOkRz1CJt6OMUdVKgNeQPDQMS2jC9u6qREpqduTpbCfqpvHjxEQ0NvA+w341q6aNXyag7kTBzACiD48wotlfHXTIHJk7hBbU0ybHV1qY7impnL+Cu8zlf6VSm/bPgaYlFCoVolKXx/fJyTQMkMAiu1hgcSjN3NXvdFWq95SbVNlpU2yiltTH/IvWCDUIrGceCrrKPApLkrLPU+pvvUvLclfRqKAyPREE6X07I6TpjoHpOp3tVptVeEEs8bxttSdJgQOPbPYgEatH6JUa/uX3ZMo6jGXW0lEBmwMnpIvhl7yW3yi4MzQ8rS/cWawKbA8sKSeHdJyo0zjJ2h+PLZzE640zPtA0Sz+LP2hfTI9+Pq+ucmla+2u+Zz6bXn6Aur+YeutLTTMcQLkc9CV/QEgCVA8RaLNGmBR//oGqAYuxr/xycZZY2tlM8dlOifXrUJqEF6v7gO9R2/VXB8PXEhhKtMW2j5PigPSrzGfgJQBKLmarX7iDAB9HqVoOGtzvpFgyucvcZTJRLgc+nDVMWOstZtm248Fxutt/Hz0QAi+7lx2wkG8qjX0Os4f9AcngXsjJSw0o77j14aMExuiYVXO9l6sgdsBJe9gECdlf6alq2HvtjeTtq6WylWt9PT/oXkejWANOvhKYgKeKpS7tLBSH+sv5Lt89X7+9/hE2j2an79vsABQ6zRVlEMq1wl51qLer67RuVev9bVW5vCwafbb54vSXOBm8becSgN75hvTLMMBtnxDeNovEMVyLJ88+QiKShpYsHJLPEYE/x58D98WtepTKz0dzjiYxVz95qAKqRw+n9NoQfvu0BLVpdoutKJzUPYOm1VOzcdNYY1UVsJ/vb7U0d6QcwMJs9BtR5CSBio6NK7AolWn+VuSPXUsLpS5BGyZqCJO3+NsyMBC1HXntAK4svXqSuz3yUHgu2xnfuwnNNO6O7SWdZXR97l3p+852qLlgYKiJc4jVsZReA1hDtDSJO57c3PdCqFYrddINqL9LD2TOuNB7k1DBMJWM7Ai0jLPtaehHXjKV7X4vCysXKvOPNAVyWHzbgaQOkyPydPXGIl3Ts1XrwgY36pfNGNc5Ed29N7M0SivxVmOhVHEcuwvs0KqZ9Hm5NysCKFtXsB0neoGTu9YBpLbRHZrk7Z8b9dFNTkLibbQnid9qpY9Ovgks7Rv86x4yz+Z/+LQ325jTwjbtUa29V7x++R63vfasqi5bSAumnuyZISQwqG65hXxb3EmYtAfAM2zP9ytvUzdjRwJ/8vcZxMCXZpCkBgJJ0/VLYK+4JxNhqBdcUO4hn1H3zzyt21ZU4I5kWEQph33IDGoePZqMYr/rFX9YLT++gor8dfB/uutv55Q0U4rm4eroAML9rqFZR1lhqPd3e17HG5ufg+UrqrotKhP8e1wEhUSOdfh1MYyL08dngORpigMxLD4b3HwDB7OE2vxc3Pt2qJKidPh3Hz+QUr9jm8NgGTY/RRnbA/OHdGvjCV6RHnmGeJ3NgKEKFjedGsgjiYRTOUtTLR39Z6be/ib0JPKOcQpxIsztFel/+OCqGIX0MDBxiT6mUvw/p8QROMvbeYyihytyYWLwbs2kV4Dhf8cw6DPWzgdGCoD6jcZhTk92nDJKGAVRl1nzcSAbSoZ29ooydxGqrR+rZfoOUdTdd4OoYk4I3Pqrag0+rtmMvDqkx1dowUi89X6lr/o1iK9Yg+tDdOJ3OhBQGJ41Vk19jsRUz/sPev6xCUNwLrUwnx2Gyt/0+ltqeyxOpl1MtwymBJGRuaRKhIvrJj7Dg+lQpm6nnoc1WRzCc+bbPI2J25CEpIYLd00khbSwZS6z39fobb8F2xpTDkrDhqjbxjAjbfBDk/XoAAAGASURBVC7T5Q17IZtX0GsHRPTPJ0gzhPFTAklQNxO0mCILd2g7U6RIoCjY0wHItmEpMMe0NY7NaIPBtnngPfe7AL7mdGpCOnrHzHzaiYeUDsz1G/kdoO9zdSrN/oneo6V5Q8b7/lNLTQ3XqV4fwYI7AIXp90cAiCviDAGKaYwK6dZ4mK64rfF6Mu1BuvBt4y7y+vj6mQETj5OZ3Ia9fxgAVin1cjQKYJpdIKfDRYx+n+TnKUkSE4OQDsSY/3YfB7o8kaFRopMkbKYeC7INcW2PSBgW8ItNnhujMUDrK0G3Df8wYjoZF5OP/dwrlaxuJkBgDtvuiLAQye7DeIjUja86zQxKThEkEYlGeRDdposCBWf3zNDnN55aqvMrCA6OA3sDvXU9PwFsflOKSh3c0Sj2GVKIiTrnwK0xoNvk+hgaJ5MZjt107Sq04Tr5Ij9PIp0aSE4iw7lH/vVx4EwRqP/6OPczRPEcSH6GKvtkizoHkpPl3M/Qc3Mg+Rmq7JMt6v8PnddAZTmvEzkAAAAASUVORK5CYII=;shadow=0;" parent="1" vertex="1">
                    <mxGeometry x="370" y="950" width="137" height="124" as="geometry"/>
                </mxCell>
                <mxCell id="37" value="" style="rounded=1;whiteSpace=wrap;html=1;strokeWidth=2;fillWeight=4;hachureGap=8;hachureAngle=45;fillColor=#1ba1e2;sketch=1;shadow=0;" parent="1" vertex="1">
                    <mxGeometry x="413.5" y="1029" width="50" height="45" as="geometry"/>
                </mxCell>
                <mxCell id="38" value="" style="rounded=1;whiteSpace=wrap;html=1;strokeWidth=2;fillWeight=4;hachureGap=8;hachureAngle=45;fillColor=#1ba1e2;sketch=1;shadow=0;" parent="1" vertex="1">
                    <mxGeometry x="633.5" y="730" width="50" height="45" as="geometry"/>
                </mxCell>
                <mxCell id="56" value="" style="edgeStyle=none;html=1;" parent="1" source="39" target="3" edge="1">
                    <mxGeometry relative="1" as="geometry"/>
                </mxCell>
                <mxCell id="39" value="" style="sketch=0;aspect=fixed;html=1;points=[];align=center;image;fontSize=12;image=img/lib/mscae/Cognitive_Services.svg;shadow=0;" parent="1" vertex="1">
                    <mxGeometry x="90" y="640" width="50" height="30" as="geometry"/>
                </mxCell>
                <mxCell id="47" value="" style="edgeStyle=none;html=1;" parent="1" source="41" target="43" edge="1">
                    <mxGeometry relative="1" as="geometry"/>
                </mxCell>
                <mxCell id="41" value="" style="sketch=0;aspect=fixed;html=1;points=[];align=center;image;fontSize=12;image=img/lib/mscae/Cognitive_Services.svg;shadow=0;" parent="1" vertex="1">
                    <mxGeometry x="250" y="999" width="50" height="30" as="geometry"/>
                </mxCell>
                <mxCell id="55" value="" style="edgeStyle=none;html=1;" parent="1" source="42" target="39" edge="1">
                    <mxGeometry relative="1" as="geometry"/>
                </mxCell>
                <mxCell id="42" value="" style="shape=image;verticalLabelPosition=bottom;verticalAlign=top;imageAspect=0;aspect=fixed;image=data:image/png,iVBORw0KGgoAAAANSUhEUgAAAIkAAAB8CAYAAABde5NjAAABQ2lDQ1BJQ0MgUHJvZmlsZQAAKJFjYGASSSwoyGFhYGDIzSspCnJ3UoiIjFJgf8bAyCDMIMjAymCVmFxc4BgQ4ANUwgCjUcG3a0DVQHBZF2RWXSC38XPz4l9xSROTlxomsWKqRwFcKanFyUD6DxCnJhcUlTAwMKYA2crlJQUgdgeQLVIEdBSQPQfEToewN4DYSRD2EbCakCBnIPsGkC2QnJEINIPxBZCtk4Qkno7EhtoLAtzB/n6RCiFhChFhBFxLBihJrSgB0c75BZVFmekZJQqOwFBKVfDMS9bTUTAyMDJiYACFOUT150xwWDJmiCDEcuUZGCzvMDAw/UWIxVUwMKwHhodEBEJM246BQQwYXtuvFyQWJcIdwPiNpTjN2AjClowHelf2//+XwPDh62Jg+Cv2//8P+///f79lYGCbwsAwxRwAF9pckZ/eqHMAAAA4ZVhJZk1NACoAAAAIAAGHaQAEAAAAAQAAABoAAAAAAAKgAgAEAAAAAQAAAImgAwAEAAAAAQAAAHwAAAAAhzQfzAAAQABJREFUeAHtvQmc3Fd15/urvar3RbssWatt2bIxlm3MeIkdHLPFGIeBhN0hkwm8ABmS94E38yDDYxKSDy+ZycyETCYkLyQQEjYTEhaDbcB2bCzvuy1ZsmXtW6v37trrfX/3X9VqyVJXS2q1lQ99pa7613+75577u+ece+6958ZqUVIjxWIxcUr+dqrVqhzH+Za44g+O+Ygu1x/jPCdi/qrfo6pP+YlJ7/Jl/z7y4XA2XKnn28j/6O/GjY3z/l2tVhWPx8O3aT5M9+F8A/HkWYPAGLRXnU+chzkOxYhV+OG/dCA/lNXXI+rDt1TmWfjgJ8wbs8Llm0SznzhW/o17fN3p6N/R2eizUZ5j3RNxefLdPo7OBj6Hn/WKiUiE2lARXKmf9z0nmGIQE6r2uM/VzDwqgUzigZFkWkmpmqwoXkuExyowuaaEklSYuV+KVZXi7jMjUbwqDOJ/FfoDzWZgoDkeQBODXoVypiKS+R3YAiiABiUzB8wHWB6KZV6cPNNPlC9uqFUAaQpS5Gty3SIrBj0USslwzRCOVxPhei1Bud2Y4+PhumouW1SLAVgG+jRTstl95RiVT34xFVWtpBXjiUBktahisU+1+C6lK0la0EJV0u0wt1MpmHumYMRsrARyYGAd1JYaMY7dOqqAJVatqFKE3UMVDfaVVBiB7ZmUsl1ltfYmVUvGlEwDlVgpVIK5MbvlMzJdwREgnLmleZWKqFQpV7mokdKgXty3Ub1tZ2tRx2olkK7xMsCoZRVPQC/kmxduHJafdRnarPrD9aYgSarE292WjES3ygpSpKpD+/5GO7feru7ePs1rQdilVirZ8XplMzdDUHZamc/GTQZCEMVuVf4Bs+FQkBRmu2h5I9tjevHeirY9PqqR/nEVxmFwKqmWDmnxeUktvyqpxRcCFHhQA3FuKLOZqFcqnT+3/gp/HFepl9H8QT389Pe0sGutiokh3Xr3f9Gr19ygqy+8RS9ue1r9wwd1zaX/FiXaFWrPwEAm8S8ZpON0yzB1ca2JxioqP/cgrYnjc9YrmapqtO8zyhXu0Pi+EY3sHFL7Oaib7NMaz9+reNsLSvd+lPxb+XMLeGWTraKgRAJAAActzGK7poKS+Zi23l/SxlvHdPAZWuVgQdUiqtTgQWogNrT3oXFtvSOl9W+SNrxtvqodtEfEPDCatYLVqKVGjrU4JbJ2TBiwSd23+XYNj39NrZ0t6svv0WCpT9++/0t6atdPdeMlv4L0BBAUp4Y6NURsOKiGRIoHrkyrDFPbJICkODKi1Jf+RJVv/1DJW96t0pVlFcpf1ku7rtW89i5VU99UPP+0EilaGLZKvKVF7Yv/Tsn2q2G0JdArnWCKDQm+lKD9BYuVw4L0wu013fM3B5CIBTCRhYnob8BUq+a4GTAk8qrls8q10Pa6pQtuyumaD3YEQRla9SwVDbgatpAfFIYqtp+w/8qlojYNPaHPffHXVM2MKpEYVS4+X6XxhNace6l+48pPqqd1DbqThgHgrWDjts9sDkwfI0p8mnTcsiLeEomMCi29OvTYI6p+6+tqWfQjbaxcoT/83f165KlRXX/DVcpmN6IbC5CAmVfEOMwBrNabzhCQUDqrGnMZ3gSNXClq4NmE7v3KgHY+OqK4bS3AUzXz4yinalnlfElp7i+XKxqlTGkeHjxQVrK1pgWr0jQKv3B2UkJj5A4xpbiGKsPaNPiQ/mXrt/Wjp76pnbuf1KGRPajIPJqoX6NxzAGM1EXJJSr3tmpf8SW1tLUoE89iW6JwAIythxm1SZSEWeecLf27j2jrl/6blvfco6VLRrTugjatPXeNUskBVYfd+mBYrAUmF2DwPgAThDbfTm4Bs8fUkGX9I+Rfx0hEEUAZLWnLvWVteRwLlVYVrxVBA0BANJvKIvp+3Zs7dMlbW2iVNd31xQH13e9batr844JWrG/VvPNms0zwlYIU0iU9u+0+fffO/609B7ZoNOluOZdq44HbsUoHjSBBecrauu0hbdr9iDqLSb323Dfq5rd8XLH0vCBQLZkyk5nU5Hhqm8QPuxeQyar3qqvVsapHxfHfUG/yfv3up39O5dozGu//CdSPq4ytmobYGgowHj8rZGuTxr4J+xjcBZuAycRBuO20foTsJ+WXrJXUvy+nTXcMKj6CRKiUaHllFVNpbPKKkoWYWlZmdNm7c1p+GWVByvQs6tSfvXMIlVTU7ifL2v10Sb1r8KnQ6wnvr5cgKuuJtdLpFD7qupfoNWa0ani+brwTqfbwmPZ0VDXcGdP+hVU9/hqr+3atfaqmFS9axea1YldSHQPjSl/woLRos6pXzwNAuCfqKnc6efue5iCBwbEqFYy0a1m4XJmRm7Vv7x9L47ehG8vYQPxhTKUtskFFLZ5Wpu0ajsGqnzVSeNhQiToYRQQnDJ61FCEk+D1Qn3aIDR+s6cDuAVRkLipbAj9DuYZ6wbQrW3dzH7rbwrFapdsrbBREeQ2jtjRYUd92pOVYWql2DHbsLhvHLpz/cTDjJbOvJkV3NtF3UMm//aHmf/0FzS+XtBQKW7j23WulfCaj195V1HW3VTWvv4akcDmSykN98q49GvjsF9T56W7lXrUKc4DKPAGjpDlIYKp7XuHGFIS2vUMd3Y+pcPC72IMFpIb9ELjSAEyqDDBa29E6r+VaBAZjJHC7wbrYCVhMjWdO8Tuqtqgia4BgsA+9nbdkK0I7VQv9SeiyrySVLmtgd1xP3zam9nibCmPSnV/doRj3Z7I4CpE8QzxfHKkAEpxuVIULGFxuzsjMmuFkgKMNNfqdO9T3R9+kX9ZP1QfXmTME2DH93B0VveEbRc2jAWLCco+hZVuqDHUFHfrB/aqt+ZoySz6g+LKlfmzaqSlIQh0jU+O2rKtZejNL1drzKWWSl2l0+J9h9iYlygdQ9BQEjGQ6PsA9KylCTCV0fRymxd3LCTXljpwdQrMMlHrlmS+xQAsWUxk2U64Kkq9Wc3vDnLJBhw2WqLXq4a+VtPXHh1REbI/3xdXWjpS01LQ4DKUzOAAbnz46nSmFQR3vH9Wh3/9r2HiQ/OzrCBRrCBqu/xcEO3aU7YxR7sDs5tPXKzgiSurKJjSYH9Hgl7+n9tddobalCykCdTBNQPtNUyb7E1zhsbj71nS7QHUps1ax+UiUhZ9RquUcGIvBl8S/UMAnEW9VovioEngAU9goCXtqA9HQZAbbCzibiSzNC6sCSzXT0tGFasyUUDdccPe4hvoDNIqVVSplcFwV0dtFDe6XhvfFOU4DeECCEzHOcUt7RqksLZjnEULh3aFIHDcb5TjhoptobKXCj+7SwEsvUeXmp8vhrgHihW9Kg9qxcnEnF7uKK75mqIygKvP5MnVYUpICFe7GPhlAPPq900xNJUkMpsTcNYQUjxUkYV5VWRULi3D7fg/d/CTDAxAxjOYei6vQ//9otDujWOd6tXX8kpJtb1I8e1awRyiLOTq7yZVLjuGPvOMYm+290vzFHTqwk25jEYcJV602zFolGFqojgIGxDmgyOB5TeDyLIRuMq2VjkbvsoRSHbwsAbhcY261ZGD3w+lI1VJZB+68B67bz5rgn6VXVCpkTJAmztqN2f0zW0kMJgATN4kcHegSnxXsk7KGH3lCuQODynVgFkyT3qYgCYVulB5J4haZLMHSxPMaHPgyramIwymj5DDcwiubwqeggSIN8wEdqDylbPkeWu4naLlrGWuAfLrJx8aJC+107KvRtak/Q+Pw4z4IohQVGbof0TurqMzyaEIvPnVAo6MIaHS5WWofbJxxkCpioYz0Qz7guIoBkBKvynDfeBj/sDm16LyKlp7ney3wqRYzOgDFtDXK4OOZS/j0lHzqJV7oKk/ZkiInU2mIxNTBJ5Ry3uW0PeJ6qtKsbbcwFsV9OY4y/NX2A5Ahd/1N9PQUZVMsBcsdhltTRPa+D/jLb1F5+DGYSAnGII/xjhJMNp5qJQgYoMczPKzK3ttU3vundDc3B9Fshh5u2w1GRq3ipJlsUET//QVwEcbOhx8RuzhJASpI2ce/Kd3zv8Y0coAyuHuP8yl8c7N7PnHus1RxJSBKVMA4x5qlYcSU7U5o9fWt6l1rleTqqSdzkT9Dzv9mNFGGGCpxaHSILFyx/vOnv02DDYKonG7xlh+GhiEU3WkbxSoetcn5arEaQOY7p5uaShJnZyvZLc7GkP9iqJyR4hbyKcFYsi7Zywcp8CdeRhTjK8mOIxo5rqLnC6PfR8x3K19tV7ayUInuD1Byjxw3kHyKjOXxqmnhuwZDE35v4JAJghWAJj8obfzqqB79BiXABll6fgZ1A20DXPcIGgLaUyDiCOWArjgCm+cyvC+ZKivd064LfiGudb+AisHrakjMVjKQ07ksRqlrwimq4EiuH7+yG7XmOxjn5qkkEhGJk0oEOya8ahofZmGTBDPMD//ZnxtECqTC0yoV7aF2vGgYR1zHj12gS5mAuaGXXkC9INJrlbxGBr+ikT1/qvzAV6kDPJyhFicXsJEJl04whbcEMgOEgxSxOqglYA1qZHQspo1/268nvtavfHlUV7w/p4vfnFIuE3VgawCiArBjGdhOuWJ4MqvJMVQJtFOmGjbMhndl9Jp35hiXwkC0tTpbyWzBjkotX8yBG6mtw0hR2DCdmpLQQoLPxPfSjMRgjtJIxlCfvGc6qbkkgYqoxddxaaKRKrn0+YgtiLAq6oG5u6j2PUllFuDU5pkCvaEcfeIUIKkCilo5j6QhO/eEYH6kzMPLQsO1FDj5RAUHAPMGjIQy2QSWoHMKh+L66VdGtfk7eFbxkbzhYx3qWpHU7X80oBGuYZfS4cKb2ZrWvPlVwIz3dczu47K6F6e17OKaNrxxkTJLa8p2Yoe4d2beT6N5nXx5jnyylkmGruvQP/6IcjXkRwRwCszNx4aKDViDo5M/j4W7vtrWr1Wqp5PBy4YUPzKvY/1qCpLJiIvqMRJbydir6ApepeLAnWEgIInFP7q1pq4cd+FTSDHvoYpXsAogyum00gwsjbrL2HkDRqJ15Cmh4hhliWqN6S42JQLbagM5Pf2Ngp75e7q2/HvTxxZq6RUZff3De3VwO2ZftqS116W07vpuxbE3zl6BkTpa0yAeyxy+ha5OqMT5gNsE4Lm1WJIeI+vTeYrWU6Jhdbzl5/XCRz5P82SiV/gX9WTcFT5ecic4ZZGPqmFiBL861HH1a1SZ30UdTJ//02gPkfkTLNKJ9/JYqhep8UnmV1yqcrVV5SU0rstKGqbbiF8tYiiTkQrzqaCOcY1Xk0p3X6bWtlu4aMInXhZsiUj91PPi6okml7lmu4R69GS+2GBGj30rr3tv3a1ErqzX/3a32i5I6hu/PqT+F7mOLyRr8yKZ0fJVrVpzfpbhhJjaFsTpvSTUvZLuYw/9hK4hBKc9l4h83m8Jhdg6UfJO6f6MHV/dC7Xg028nf09jcLVZpU/NL5u1KaDBRAi6wUjKt16r5OUXIcytbg7zvxlxTSWJX2XkhleGyo/0YgxjqpJbr5Yln8LO+HNVRh5TMX2QQcCyKnl8KhYWSI9YMqG2xAJGIC9Vbt4nKB/TvUIhJxMZXhxy4uOkklsUHQ6I9RgnLByI69m7+gFCuy67BbXXk9Dtvz+kA3ssdGOad3ZW63+egctVYKALduNyNwAwU/l2splnuHHGrthQH7jyJxgRbpqdD6Qj3jt1/vubFXvgGQ1+j0lgVLuN0clcPNzwohL4GpMXNUg5Wi9epwXvf4uSK5dN2OnTJb45SLDugxGIgepZTh74CjPo6NVgT1H51yqx8HwdevLzGtt/h3resAY3Pb6GZFYjW3dpBJf2WZe9S8mut2Kb9NSZfGTRDhfu6PPTK0bUsLGNsEfc9TOLKhjYibakNryOFnRWRnfT7d37NP4BBumS7Qn1npfWhve1KtVmZDWSkd2gJtLZ9JWii5NvO6pqohtO46cnNZPii1dq/n/+KF7hP9Xo7Q9A2dCELKk340lE+Iy7xxml161T7//575S+8RoKR5VP8h1NeuC4h01BYgeTjXm3KD5C8kz5aolJRgMlje3brRTKe//GFBb4ryiNhzUIuP68YoUt6n/kMXWu2qDunhaVg+eJ+Sl+1wwnM8Q9KtwZ8CCvZG9cV97SLqa26Cd/OaSDz8I0/CDLr2jV2quxnS7MKUxAm2E6TsvrzH9qym735AXnq/sPPqbk+f+ooW/cofiufZTb/RbLUhu1big2WQ3uTuXedoVyv36TWv7N5UhDlA9+iqaVflQhmt4fGUk4ZNxK3SWkx5CkpzL404e199EndZAZay1LF6FuhrX29W+iy7talYGDeu4vvqBDTz3JDPRxLbziEDq+RZ5wXrPRenIC4yjSD//0DPAgPpB6NRCNp0aJlmJg1T3/MKK+5zimV5Ii77aemi69GR8lEuQE1PLhzF6JIwi1tktVGD9ryar91ReqfeF89V5/lUZuu1N9jz6l6rN7lOjHW2jr6cIF6rhwtea98Q2KbThP1fPOBjoeyES18hfAFBrs9ArTFCRmvgfmMnWO4vpQbXRM+x54VPf/3ueUGGReKJVy9rvQd/OWqlw4pOf/8gvaf+89OnDHwzye0vgH+lRKeVApE8ZEjPOZTKEzCJ24RsKM8oS5Uc5hlFa0YnVG7Riu+QFaYUtKHeci0bJFRrHtbXCaeakWvXcmP+mn4Kz0WFGKoQU3hNgCJhC97mp1X7FBnSOMNZXGVB5nQJU+fTzXxsR0Rmu6WsOs/4TFEM/4n1VN5MWafrmbgiQMdHlcI2QQNdgKiN39/E61tTL/Fb9CJcOk/cvXK9eD+5oKKg+PApCnAE2P1n7wl7Xk6qupCgb98MDSRZhJ7oV3uZ1V8ctYNSawlQKVGJs9F1V03Tnt2Cd4Upnm4I5Jsr0AYLMwnWN3wyIzZMZpmtkX0oGdcBvgE6IxVFm1kKJToAz9dNR9cEE1MqVYsCI0mkIYY+KHl8KwLsPO+mDinEA7nXq2PJlazMXxoAaDBErsJfEEIxZ9aHRPn8YHBhTLtqht5ULFcvhDii3acfdd2vOPX9dZN92oBde+loK4z9BWfxvPModjphNsABtY+0i9kpdDUPvWzjGsbLcZjyvZsaekJxrRmihSyk6QE2CWs3hFEtLDyVMT8CS4uUYShSGPajDWKSfnfL5RnIgfPmEToRwNVeDlrAGUsBS1cSO3NEvTA4nFt2UJGUbrYW2jRAZtglHgKtMJwmQiZ4xoGzm4k2UI7YpnGHtMs1QB6JcxGkNvaHJJmlF3QtfdvCIRWgqtJ9K/foV7PUHU8hn3CGQ91aArglDjzBn6Dc/CaAj1UA18pwycM9hdsggipr0BFR+7xFFPz3UXllJQf6GdnGAdNAWJs5tLP9scONysfrb5MFf6KTgwB5IpmDN3KeLAHEjmkNCUA3MgacqiuRvmQDKHgaYcmANJUxbN3TAHkjkMNOXAHEiasmjuhjmQzGGgKQfmQNKURXM3zIFkDgNNOTAHkqYsmruhKUjCALD55JFD//HhiMo+9CyTifPhmmeIMVocjn1v/RF/h5O+MOmibzjtaVKeHDZ+Nb5D9hM/PCXCf437XM6orI1bGt/hpjPhwwSR/NWgvlE7E4UNd0zmfP2h+vlmX81BEuYd8FJPEWSeRpWgcx5gLxMRo+phd8975bKHoMOsHkI4eC6Pl0jWPA+C/+HPX55+NxlBfmRWUkSHSXE6TNLho+iKC+O5KNEkYhfJw/CeN+y/MzNFDTXQCo2ebMTQfp3PJtrQ8bf/onSi4TGaThUIr65XrAmpMrGhWB3X07v+X7WllmlJ52vUklvORB/mlICBAy/s1J49W7Vk1WotWryUNcDEIvODvCgUxB/hyN+zlFwI8jVzoigDUVuLZo421jibxAY4PK26cdWPuiLqTA7TOJu2rVkqWASBwFfnaBLrZPpn0YvhoT0Eq4B+zzIMc09cllAO39U8NZ2+WEV9ODiDM3f+JqhSG9bjL3xR+doYK/ZW6oIVb9Wqnrdrz5ZD+tRv/Zq6WJZ4w/t+S2+9+d8CKpATpvEHdARV5VWes5ZMtwk39czkYipS+DMMQoFcIv67vfkgOu8JVtF0Hs8IDed8E5IzvMuP8HcmpDBrMIi5qARh+Swr1PwrTbTrqLx1Sif4cGKUNwVJVKGI4DoKo1X7LYQHb9fg6D7t7X9AQ+UHVWU984v3ZTR2YEg9Z3frddddxwp2wGXeBuSaMHP3xAg81bs9oyvK1hyCaa5oa85QMH6bJOjzlMwoVBY0w+EEcpsFGjxjqeFyIGdombbDoiULPv/KJ0e4NkZqrIUOwK3z118O3mQqY6j9id0zuMkS80SobwoSczEQ0Hgtucdh4OLeS7Vn6AXmiTr+RVWPbv6Wnr67QzFma7/pPR8jcM08KsLLJwKZgZu2U7ztyGyn0IBgjKcqBoCYAKYuelmoA/vGaizlrDKbn7BTiDoKSCETbUwPbOebSdPAxUw2s7xYq14Ps12MY+cHuZYaXjDncnqSNIGvsU2IVMJ8Xk85dfTqEBOfcllCnuikzaYgccaeY20KfOwp2AnUx+olb9fmkTvVPzaiDBJj9/Yn9dQzrbrqul/UtW+5EQ3jdR4RQKAxPByhORTFb3pFUoRZuFg7SDS6rYqPPa1K4Sns1Rc4R1i6CtIFYMRTS1ideA7rc9YrkbmQCcgO/eAmYz3vZFH+yicvzBomutQh4tWNoF4cHS3hubvuZVJPcYDfSqOel2PNESRbiZ5ocMOmIDFO/c+RAEKM0/FRlQ72qXtPmy7O36gtldtU6i1q/wiRks89V7/xno8o8fQmjFvMpXm9qs1jFj3x5gn/EQmVVwgjjhZkm6QaI1Ag65ZrI8R7GybMc34ry4cJy82EbjPDwDYbqzTHOGCpZc6C/nWKd70RJX82Mpzw15lFTFdfxd3EVwtixVLKTZnChd/hY+YQZJ5ZBFKEEGOEfPYQqfqxvoIeGapq39CY+ka8KN8SxfRbvUAiUr2FSE1nEWMl25LULyzp1ms6s0R4ML0vTy5LpIqOvNq8d1P3e7i7W9n3kvLf+o6G7sAG6TtELkRXXjaqwlUL9dDBktYcWKBr+lM6sPdF4pHAy95epV9zidrf+UtKLDg7LFVkn4LZTTDYPCYQKxXMzP6hr7LC8MuKDW0iDv4oF+DsMZJVLCwPwE6w0KvQBdhZfJ4sALR5b1Oq+xaEyWKbOLzfLdc9B94V+DuzhbS5nQTEXk9RAARPHsrrC8/t1X0HxvTUGNAucocDvdZtwAisEOJuZa6mN7S3qpUwG1UWd/3HC5fo4vlezchLA2P4ridHtPYpl2Ryag4SlxuIVrY8rgN//HmN/+helXYNExDFhp2FLouuurPKE8OjlVhplX3DxEBHDxKbi7ao+JIWdb/mUnX/l48rfs46QnhCgKMWzlqiALTCCjZHeeB/KrHjr4kkcQCeEoWd5mbH4DGTJacrH6Ck2OMmbCHidTrYVNVlH2GtMdu1xDo4b8Y6j9AH5JzfdySTj/n+EzoZ8dILyp5g/fV/emi3bt9dAASAwwuI7Jiy6AjGeL08JsGigWvxRFEfWTNfz40kddOKnH71nE4lQrhR32QZGORgRLr5Ed5zmMCp1Y3zhob87i0a/pO/0L6/v5M1tV5vSgwy4OGIfgmYWCUQbZbAL2apgaFiFHrJJl5y97j2f+tuje/aq5U//CvWsp5lZM1aChrAYm3gr1Tb8SXWZrGCnOgI3t3LBjdK+5i0OIi/VaTFe+idoa4qaZbNt72W5aKoHqJFO0V7FFLyiQA3ZvzMJtPghY/jAPAxYrDevp1AbwZsIJ38JvjJTRTJVeDK938oZPFeBoCMakVbSv3YLkV+txGXxZcj2VFXl+FMeMgPTqSp5SKqpjJ+SIO33qrtX/wnFooXoIdgNHy28e3egqMNWJuP8+ewwM7OOt1ZOc6f446mM0DpgU3a8dE/ZuMhSna81jtB1swdxNyDGbmN0JR/RVz8feyDAJPiJQACcAhOc9xEdyEWAhPTe0NalBIsZ01igxCIp5ZbTRkoqxtR+Dc1G4+bxzQvmNMEGCOAMmbqWMiU36hP02+AhJ4B3wEg3Ovf3Ba+LQZQOyPQW2Lpa54lryNIyXgoHzXIfUdQ76yOSkdcP+oaUpru4fPbVLj1BwDDQX69UUYVQDh4ikNMWQx64aehYArDtkKhSIYLvlY+gVB7tOC274dIlCcxFmcRJCq9pMoh4s2yJ4wy0IyUjoVAeubi8VMQDF4uCoMTRGu0RE16M4ISC+Rtr7gu4J73yTGbLW2iVnn8d578FaJX01PJEOeshwYXKt9RgsIf5bC6aUgQV7KL5q48UTGDygEJrVxvR8WmgnokPJa7w0Gt1AEVHopeczSdU4MEY2jo+a3KP7YdOWEPQRRI1kyxBPFvSw6imvIrelVLOOOrFuduZ4hiNFSyM622vQNsbnFbVICjKTldv8cA5eCjvB10mEb+O65awuE4w3jBsTO2KrJKd/x5h0wPWrtCcJ7ydnQ3XeXAWzjvCuGHu/eNBn3sN578WUdmsNS2+puHyuhJo2qciBLp8oQUvusVHnw9nA1dSr4B8ABg3laiozFe0t6hmrbTG+3jvmIguv5csKei103+nNomqSAntrxIp8CSI3IiGbBeiu2mZKhYYPvP3PI/RxWL7PxIz/kuu/bTEGlW51/cxh1+emaT8w7vdO15IBJjNU60RY0+zhYk/Vyj5WDkhdYPJaaxWaUGw9sMh3lRiW3o0jQsVkgTZZg4OJUy+Z28CPpdBEdNJHBAOOUAxCW6siWCWxHvL9gWh4gXL3bMCEMeVjmmMICe86anCpBC3BYupsb1wEEkD72jty6J6eH949RhmTG3nLoJg76iPa3lIfjhYcz5jY00NUioXBHzwvmHrUVpXcEYpQCjHDvYnJnnSndyRUQU+jMSvi5nOk/ltNpuQew5fudpSAF4EXdpYRbJMItWr/HnqGPHjY142GgsDlMxVfLVBOWP01csNvbCAVXxJDHfJkKfU3oXeSId8WPi7HQOzCfzEu3sMC4cmwKri0ha54txvTBS0q4+YpDY50Mww7BxggHrQjk4i19Qpefo8JPUjqogADnvvXrQubo89qwWplbrpfHV8IYF/Pi8ckMxvXSopPO6S1rfA2jsoziqGFODBEOntmRhEFvEwQ2GqRWLd0qINjZy0V6eXDxf8Z/BEuc9JYs+x0Ht7Hn5AzNyBlDCMAfyC+I/hOs/RA+x76Tebvhb1RSQpmWCAseJtSbc9PHUOiRQXdyf1JuP/ZAVtPll8uOWEC4GHyOIvuf2DejRMfbpwXFWoFyrMgN6MM1QQhnAYpASIIY/6HPgEQ/F65CWJA5obW2vLqht1eqW7VpX2oy0GNfduc9qi84jHzah5PYaWnicLVr6sbXa2Qu5lZ248KIcgZMpQWKGt1x4PkFuMyofJChdEFJBCEP+sQFiFhiIljiWJTZr1UFBkCDE1FX6oguOIMD3z0wyNC1+PSZDsSxVUDk1jM2jGsa0sksCkBLviWO8uy0niDdWSS9TrO06nqcGZzi5i+t4b3m8odkgKWIapLVvxO/0KODI43catbpEuFzRvU+/M/4pjY0Pqy/RA4/dRSBMGeHc25DX85Hz82PD6kYCenDPOjbOhpv3dtyol5IApDqE+iKoD+rYYzkeCEyXUtpG6LIVBMQhLM4RaUqQ2HEUX7hQuVefo4HbN2K8OgXZwHfkFwmnjvFhNhpGRC8Lobdj/bSV7ja1OKjNUc6aYzx+YqfMh6g7AlVYG8YHgIkDEM9/OZkUWhld5TTdxUQesBEaPdl5JTEv15kFpyU5SlQCcBbNH3bufHh/Xo8dKGgYyVKrEHMO0JbYwWZXaoMOdL9Fr9I/6cLifjAAfTzigD0WDxV6QaX4Qr3U0au+2Dna0rpOu3Kv1WDyXLbBg1mo3xidEu+4XkbCtwG8DM61rpacslw+Ok0JEoeWTs5foPS1V6pyOxsdgVkbqQAPwLjfcuzkfDyobqAQQZUC0uWiJbRff6WSa1a6Ro/94CmedQ8jKiNU2hMZyxGD1RuMnXiyqR6nRZcBCqGcFO/dwEY373NN1Ok3F2YuRcFpsOqoZEfT3oGrfTf2YB4JZolcq4yGsGNpgD/GFkh3tH9QT2avU3dxL+wcIX4PdPo+V3ysS4XaYvVlejWeJOihbSvKk6YeyhjABpS7xA6W2BLP0LWuaGGuorVE884GW+3I+pkSJJYkyW4297vqtWq99NvKP7QNa6SCVrTjzFr0yJc1WOZC2TqnigjyBtGHQO78FvV+6L1EZ2b4faZBQusLlITmZJjAMOtqZtDZHX8yyUPsSZhbo0cQ775I5Xm/T5jx8+hxWIHSRI5d9JPJqv7M4RcGoNBA40iIFAap7e5RggRW8O/E0A1pYOJezd7Mem3PXmxsUH43WYPEtWKHBfWEqozjTMww7uMGW8E2dAz+HFI3gQSxehsvjGgJGzxduahDi2wLU7DDlESkTQ0S7nHWKWKHdt78epV2/r0ye/s5Z6Huf1Y5Udu1qdMYz/EZV1u0wwoe2VxS3e99o1KXvJrSzLw+D1wKmbpbazoI0snsOQ3/gD0C98EYmEbJvY+Uk7uUToGt3O/SWPZ5aiP/sf+4DrOL9kd0blBm/u/SUXg1b3UmjajQfsPMJTdgZ2uawIJ6IXhVV5v6832EYiekGIOMtrGwPGxKQKvpJXY8D5le75Fo4i0zXNFRQyGmNUBPIE1T8N2TpvL2fZXy2l/MaxEzCDeAjMt6slrawZZJx6mbpiAJGzS2d6jtPe/V8MPPKXHrPWhF+xmMXuPVyLMF4M9Y2CjQHS+frRKrvTZSVOsNGzT/A7+K8UR2Hqmc4eSq8waK7gXacI1hR9TYPLI0fg/+pjEYh4rwdZhnUNt7aT56fMaTc8zf4EBxa6WXgNzD9mhXpusN1Na/p7d5Ps43nFmuyWAYR3bPDBcjOE4hM4AxTVku7MiyG8g8fe+lQebtjKMKEoQbbWereSrc6hRWVmxjGLx1x5n5HshE3tToKZTpMIzheT1AlO59zP0pFDFumbpx/dlduoC9BC8hCHMOe6QaeEPxAi+OLFlTkHi/mAQzzNKLVmrhf/iIdm7dq8zjm1A3bMlugiDQAs4QcWIGBp/2whK/eJTqWb9EPb/zYSVWnIsQMcp9daYT3UdeGia9IV7dhfNcj1jybHZ4YLdRb9oEXQkma5s877fj3wFTrhQ73ujWlgFCgR5dK6CIdd1Cr+zNGFXs2o3KSRlVEG9++JD/M57cfCJJ4DwqaiO/i7MprV7doWeH0rp9z0GmZPTpEHqilT1rKCFqwxIA/ruSkRolVEwRz2qZb5yqOgg4xomQvbwlo2sWzdO1SxZrHeDroEG0Ms8kHubYRDH0Q/zbwJUjpX3TqQJwFObAUsRfjQ0Zh++4U4c+8p80/tJeimSfSRXbA+bCdKsca2yf7+DX2Noe9f7f/0Gd73ibkmlad8Ku8HCZj5lLztGKJImuDjt5IY/d29fYA0xA+0PFRh5BRHt8iRGnYFMYFEhB1zblSnlGlxtm61lMLvoVNpm8CXCcDRI4z3t9WxL54l3S/Wb/nmmQhJn85BWmLpjXzteQMb3MlgtqFIHYD52bBkbp9Qxqc9+QtrHR5BA7n4+iQkrcm0FXdaRy4e9sBqovmj9flxJP9yxswxakTdJ/vLxkHFAI52NwBukT1JW7/G5kh1NTkNjOsEXtVmQpUEOnjf34J9r3u59T8YUdeMChnFQaxEDqQYcju8sMQsVXLteCD/+qet72dpoq/Xj227WYTxl0VNBMJxvLDrcfr0WyrESLT9vfUOunevtRF0xuYBRbhZ14NTchp3fzBwQY8q9m2Zm05XycBZdxv70ERjJ00tp8FDYy4Wdwx5sJdaBwMGPJOZkrYQYdmXpjJ+ft3OxtCr8wOoPMDirSfIRkOzlIoffr4nLsZ6LEk9S+pay3gfX+G4afr8dw2/teZ2pDOcxNAWBlWsDR6qUpSLyZkLdAL6G3kojlGCK5gp4vb9qi0W99n/64x2USGtuxXy2rFjO6CEGjReWuYz3OhtfQ1yKENZS4KCW6aQawDdoZTS4tf1FcU1gLMx3w19LEvoeoXUZgtvEXMdwPWVnyD8aE3XXrqsQSI9LNlo++B3rNWR5x67YkCdz11wylaMzLTjtzqp5clFCJNNKgSyPTOdASIOTRMHeRI0nqp/x0UBYGs+0VpFJ0v0vtAgTiOeUus2Fj/vg9XKPc4Q3RLRxHqTlIeDaF547uemCSP6KAsTbeIlTam1qxOEed1Ijoa2LM2hhiPPREqRi784Oo5jV1OuskzMCXy8drLD08Tu3phpYC0RRE51pnPNd9X8RK6PAP/sK4GNd8viH2eYhrE0+G5zy9z6z2WbfoGU282m+3RAicCuCObC1Hua6Twx2+i1/1L38HSvzbqX7J34Hc6Gx0ftK9FTaFcmfaQ1y0KYpq0NCY/SO8sPGg32OuTJEC67BJAmO509P1/JZAQJ0gH0eIjN4ejEifM6HcHV3j24WNbpkix5O9VDdEXYkuaIOLR+Rn2p0aJ6OyROcmf5pip0Y5/SuCfjgXrs3wR5008yzi12TaInojieh8G/RPoqH+/MQZ3zLxCr8xusFwc9OOJEfILLwuagDHLl1TkExkOnfwM8uBSQrwZ5YHcwVvwoE5kDRh0NzlYGjMsWGOA1NzYE6STM2fuatwYA4kczBoyoE5kDRl0dwNcyCZw0BTDsyBpCmL5m6YA8kcBppyYA4kTVk0d8McSOYw0JQDcyBpyqK5G5qCxGPEYZy4/h0GhD2g6LkO0QcHDDN7Cle40UsqvVSoPizfeIGfD1c8JD2bifFPh58I80jI10SEPxfAo9sTJzjyb86YZiZPVXgmmh/LHBRmfYX7G7eHO8/sD88aDEWqFzXUiMvsMpxAagqSsM6EF1YNBEJKhYVAzJlk3SN5Mf8ijFozNM8SwxJzK2thLSrzLZg8wzIPGM4NzCXwZOPA+zAx5QQoPOVbPSzuiZWePFx/mWn27LgwQy4UgBPR3JiqV8l5PoP/823shwe51yvwvT7mX0ua2G6e2YQxyuWpo2GxWmjM0y9F06kCZqyBYUhGk3g84caZmZkwzBNp3QaZNhjCNHDsZzyjw1GEqsx2qniRA/dFkQlmfh2tszpuatQpREc0e4a/SwN5XIvmdhoQ0RssRfznObAUZSLly6wITBPAJzA4IGji2pl6YFJjNGxmvhLyxk3Fc9G8wO7oWaxTl+Do6YwvvztMMrIKYbYXKczgN484H2eKWqHCvHlmNSXDHvMsIhrtV2smS0yuLIvoMuF+r/uIWqqhzGFz+eWsZiZBa1TXtCSvvgss8nTKUAgKEmUTFvz5FGgJ4DdYfJEZ0mOscGMVg5JIStDOTW4C9QdnhsrT8xZm27mRxitDavFKP8IV1JjPW2Xh14mkptVlVtVqXhjkozyLe3YyO3s7RwSUio/qxb136JkXvqpxFkH1Dz6njU99VoPj+wi7RAgm1r6MVTYzi3sYllqCNMfkiRA/nXsNkAgkFNWqjuURng7o9Tae72o7JFw/ihOeXVcDVAf379KOH9yl57//I40NDnJvmJg5naxf8Xss6KsxAu+MPazytg+psvMTihXuoy68qjHiynSInEatWaf7nW5BVe08+FNt3f8DdXbP1+J5V6m/sk2PP/93SrFkYuuuu7Rv4AldcOG79cL+z6u/b7M6U8u0/qz3KJ1ieWeSibd+zXQom7F7zAz+PNmWVKX2KyhnVqdACBOPg0zxsnZaF4RFIprJfSzcqg2P6id/9Gfa9L27NEZ8lXd85v/SBW9+PVCf3RIEwk/iw/aTpQfLGFSZz6KQsfuUKXQrlTkHibiYN05PokwDJJYkZIYh6gjDna3nMOH5bv302b/WkjX3wsgW9bFM4f7nPq+B0QNqae/U/Ts+pT39W5UrLdHSlVexaLs12DVVzwTHTrFtMlvJEPc/V34VcIxrWNsOPKs9g9vVnurUynnr1NE2D3IACiv/jCdDoIpqee4n/6L7iVs7vH2v1lx/WVh+mXQZZo/8U2JTNKkZYzt9oZId70Zm/p4KpXsIJPQs9UCZj7Os8+hMmxqu1uFwNyxXSFgGEwZhsLZTD+78su4b/gtli4S0eWmI9Theo8oi5V4iFC5OqLd6jq5f8gktmnclC5dz0Ux6Hg9tMHwcTcrp+W0TyIoy4Wgt5bT2x0b1mX96m14c3qJUIaWlLQt13trLdMO579FZXatYXN3J0tCSXrjrx/qHP/gfWtg7Xwsvv1gb3ni9upedpXQngWMoxVHa6fQQf6pvRZ16xWFYq1DZT4P+JEtff6BUC7uHdH6WMnhxS11OMHncUp7KflnpmkoSLxkKbZE3mOEFQlF3jCzT5T3vZgH5NgKsfE9ji6Sh0bzSLWyVhJF39taVumH9e7Use6kSBYKlYLc6XKfX4lqnz64ksboxOpES5J+CacuQHg/tvF2lYkLbn9ump158TD9++Af6+Dv/q9Zlr9HY5l267c+/oq6F8/T6T/225q8APMkcZXAkBaf6O8PxGfyBinW7TvERKx2A+vFAf6V8uzIVghXHl0N8JBa9ctAYOamoAu7gpm3xW6dj3CeHD6ry0KMqfuWfddGjO9U+nFTf6naNeakLq/l6dsW0fFNKuYu+r4Grdqj17dcTTQBxh2gn7BddSCgJiJ0d5hrgTkVaCtpS7awF+sXz36fHt/5QWzc/p+KBiga3FlVY8KL+OPmb+tz1t+qJr34NQBd04yc+oZ5zVmNyA3QH9PG76AaF7UNmh/xTywVyHWU3ln+Q+K+fVL7yjMp5QoKwRjvW+qe8+5PEZ+sC8uYSIiBIE/cAj9SniU+TpqLE8QMq7uJSuZUdezT2P76kl/6Pzyn/xDOq7t+njsG0FrwY1/Lns1q8NadFB9Is1CqrsGePRjY+qcH7HlMnIrpy3mprfZDUqLapcp25a8ZkMEhcwfw3DVnQQkBJbdu9ibiBw+hsgnuN0hsbrWj06RdYQrxLV33017Xy8ssBCIbfxEL3uk/WjcYvO6MTtNowL+1VpfifVRl9DJWPw5MllvueI6BNx2YliMEVSxHfhFV+XuhnkFTo0QUjflLZmoKEJbwAhEWBRMk99Pm/1cBnvwQ2h0GfV5da+DpgTUWl5SytbCOU07A316gqtYb+eZaexLYDKjz4vFouI678kqVR4LtZ5K/tEVPosC4xeizeDCnFmtezFlygaveYdonufHWEmHkZQjqwq8ODg7r5/R/WhW96i9L27wDqsHTVJYVuPx9cRwDlTE8ud6z0dxod/AdK71WWRH1A6x7aCU9YYJ5btBWoX4IPaFlUFAxZh6DwiuPJqalN4savQkGxx57R+HfvQqsdUup8gh4MF1XcYdRZOBH5aDtReXi5+y4eyBnb4hAQkXdzZM9OZf/8y8pdfiFc9oLsI4ngxGlLYaUa3tPIiwq1GHMxgsp1ZTK6adWHtLL1Aj27+jFidnRp99/cowVL5+tVb7kJZyD3Rm0g7OgQgc2Uzx7tp8YUmjBx9AvjX2ZkBaeanZ2oyhSbQ7AVkfL9BLipjDDU8D1lkxvom7SFknlDpVDuSZmbDVMmL1p32KTCxmdVfmQHMqKm8R3Edt0RFBHPRgaPwWL3e+slUew+B5M1RIxgMKzhb96vCn6HMJYzZY4ze9GValsi7AMTfCVQSmuxr2NR+zL9wtp36f1Xf1y/vPJDyj1S0es+8CGlOlppXRh9lN2PBMcbZAVvrMk743GCkkVqVvN/iw2yDTVDLwcTIAyb0GC8U4jrJM65SvF57iWyJjyxanZ9HZ2agiTh0VBCTVe3blOhyu4IvKRl2CGnosB5ugAbhLOAk29UzuBYkC4W714pn0KnZ69ow0M7rPFtuxF/6K/ZTNYRrm1SVLc20TDm6qN9rIWnRWV1/5e+qvbeBZq3YQ132ohz9Cb/c+miMW2zz/e7sc1q8uioM+XLNEyMsJsITpSpZF8Og6gOE8JfpWwj9RucrxCSk6Xh/LmBE9TRm4ig9m2A04QcfiNEn3JjoqzH8J00BUmMcBHx4TEVhkcAghlmeeG+tI/aNLw5khQeRnL0o6GtI5ASD257bkE9FZXfPApU0ioc6m/UlC/NUjL7iHgAKIp0f/MFpGAen8koEC6gEgkPlRnPa/N992vZFRfiYDPco0SkMQBPSRm/SSBOYwUYbhbMdiKArxd0GwSGuFt7BHLvAkIdE6UpspPAjA8I21kc/28qFvYhNYi4yCnf4GEn9oUiUB+DJN5rjRAGceLAhri3LpPtLPI5OjWxSdya2NkBA7SAskqu6FDrki6N37efKidmCRHS0oSdMAYhk3PGosUW+i6cxYrm+dqhyKHTjl4Mxt/RVJzW3y44jj7KHj+4R+l7HlThvoc0lGJs9Jy1aiHY33hrSjtGhvXuW95Ho8JZ5lZH8/HQuj3NRUJpu+teoZWFmP/mI6+dreSgwwlvC+dKdMx4A9XdTXOc3ki0547VBxfKu+jB/He2E7xHKcdCwxdUce+DaEmOuDh6iFA/Y7gpLuLWPAOxXYQpCzsXWShZZrgGbTwcTk1A4uFlNs9ha67s0gXKDzH0PzoSXuFQnQaHw6rYl+LB59zajIafH+TtxrujvjqGGvZMAE1WqZUrMKCO7mBxw2lNMNaTQtgarvLnX9Tw//y69YsS/cyH6c5p/OI1GlixUOeX8+p44kmNt2xibAMJsvws1RYswsjNBLnpKrG4DnykfLOZvMOXAWGZHUMa2pIO6oWzcSRk3IZTZQ8CcyMAuRWv6gNgiK69iWb42pMDklYtjP7mD9BQ2bsn00PwMPbOySSuoWB2FHIrc4ReHucIdnFt6oTzKUaoytj5K1Vq7aBHMxAkhrmVfHVWlRcwiAiF5VflC1HvxvIksYYu8gjd4b3+lVT2otWqLl1OIZtquKnpOcGr5lMsnlfx69+W/r9/VHloCPha2kHHoRHlf/RYmATxpiU5FYkFVzVTuxlrupKxmvfcrNpFFxHGu9XwoDUbJLNLv4sbVItxAhgstz0OZZwGbhOntlK8T9XCd1Qq382oyR5sEC5aZHNjlTCOCUKCO+Z8MZ/S8MGYFqwgeqlVZ8taJCd+Ejd2305Nxdjbx++enKYBEl5BhL+2yy7RyKpViu/YB+ocagrjdQd6fdAqBYMV6yO13ZIlqoLaFvR+SO5bxNX6jp+DELILkJ1Mwuk9rjEBprZ9t0p3/ItiewaBayTlLFwMFROUNoh3E62Q7n2SVltN7Fdpx0HF9x9Sy+/9jrT8PGKYuRQkGH8s17Uvna4U6MTRBcFkj9qxLqzuJszZRjYP+BG9mMfxdu+APuQ74AjbrSDGHbc14dBJdqrhAzq4FVuSKuhaSvgyNi9obf0wUunwoObxZEbzZpEACIi39LIV6rn2Muhsha1mNG5qdvA0YKxW6lG3OLJX0rAxHN3HIfboiiXqeuPPE/aa4jbPcWZ5TTTk2IOPK7VzJ3RFfTJvweKYYZh05OWy4AwMShEbDPFdI0ZcjIHM4h0bVdv0vIqIZ5sACccBczMOTXlmyZz6bSh1/DtYpNhIDKYWv6v8yKeVH/0Dtq/9FvsKbuE80tyqxxOrmAVYSQEYei1oEIZE2DuY2McDL7Gp0iouU5/dmeuYQnBNAJWbiucpOyhyqMyjiGlaZdXQJaL10JIyv/Z2ZTacT/xQ3r/Be/FZgwGKDqIqriHCIsc+l70uB/vtYrPhG9f8D75P6ZXrMaCoHMfAnsXkzZNLe3epOMrODNBmo8weYksQQ9ii1qrH+wc60a5IZjRx1xnnKD/1LOKaJ/0Iet3qJpgI4b7Z+fCEbGQBNgcTuIY/qvHhj9NLuZ163Ul3lrkxqEgLaGCMfRIdl6A/hCEFIJXxFu18qKoFy7ExFzju60pi1P5HiuL9mqkxihXmQfjgGLqlKUjMVu9AFUPP1eZ1a97vfUDlRfOJxojRB2MNk8QYpisToM1HdlFR4cfepc9VElf369j98vWvVYx9+EKUw2P0w12805XM3jh+HrZ3wYj2fFub0Z6MmYZWwyHyOkRz1CJt6OMUdVKgNeQPDQMS2jC9u6qREpqduTpbCfqpvHjxEQ0NvA+w341q6aNXyag7kTBzACiD48wotlfHXTIHJk7hBbU0ybHV1qY7impnL+Cu8zlf6VSm/bPgaYlFCoVolKXx/fJyTQMkMAiu1hgcSjN3NXvdFWq95SbVNlpU2yiltTH/IvWCDUIrGceCrrKPApLkrLPU+pvvUvLclfRqKAyPREE6X07I6TpjoHpOp3tVptVeEEs8bxttSdJgQOPbPYgEatH6JUa/uX3ZMo6jGXW0lEBmwMnpIvhl7yW3yi4MzQ8rS/cWawKbA8sKSeHdJyo0zjJ2h+PLZzE640zPtA0Sz+LP2hfTI9+Pq+ucmla+2u+Zz6bXn6Aur+YeutLTTMcQLkc9CV/QEgCVA8RaLNGmBR//oGqAYuxr/xycZZY2tlM8dlOifXrUJqEF6v7gO9R2/VXB8PXEhhKtMW2j5PigPSrzGfgJQBKLmarX7iDAB9HqVoOGtzvpFgyucvcZTJRLgc+nDVMWOstZtm248Fxutt/Hz0QAi+7lx2wkG8qjX0Os4f9AcngXsjJSw0o77j14aMExuiYVXO9l6sgdsBJe9gECdlf6alq2HvtjeTtq6WylWt9PT/oXkejWANOvhKYgKeKpS7tLBSH+sv5Lt89X7+9/hE2j2an79vsABQ6zRVlEMq1wl51qLer67RuVev9bVW5vCwafbb54vSXOBm8becSgN75hvTLMMBtnxDeNovEMVyLJ88+QiKShpYsHJLPEYE/x58D98WtepTKz0dzjiYxVz95qAKqRw+n9NoQfvu0BLVpdoutKJzUPYOm1VOzcdNYY1UVsJ/vb7U0d6QcwMJs9BtR5CSBio6NK7AolWn+VuSPXUsLpS5BGyZqCJO3+NsyMBC1HXntAK4svXqSuz3yUHgu2xnfuwnNNO6O7SWdZXR97l3p+852qLlgYKiJc4jVsZReA1hDtDSJO57c3PdCqFYrddINqL9LD2TOuNB7k1DBMJWM7Ai0jLPtaehHXjKV7X4vCysXKvOPNAVyWHzbgaQOkyPydPXGIl3Ts1XrwgY36pfNGNc5Ed29N7M0SivxVmOhVHEcuwvs0KqZ9Hm5NysCKFtXsB0neoGTu9YBpLbRHZrk7Z8b9dFNTkLibbQnid9qpY9Ovgks7Rv86x4yz+Z/+LQ325jTwjbtUa29V7x++R63vfasqi5bSAumnuyZISQwqG65hXxb3EmYtAfAM2zP9ytvUzdjRwJ/8vcZxMCXZpCkBgJJ0/VLYK+4JxNhqBdcUO4hn1H3zzyt21ZU4I5kWEQph33IDGoePZqMYr/rFX9YLT++gor8dfB/uutv55Q0U4rm4eroAML9rqFZR1lhqPd3e17HG5ufg+UrqrotKhP8e1wEhUSOdfh1MYyL08dngORpigMxLD4b3HwDB7OE2vxc3Pt2qJKidPh3Hz+QUr9jm8NgGTY/RRnbA/OHdGvjCV6RHnmGeJ3NgKEKFjedGsgjiYRTOUtTLR39Z6be/ib0JPKOcQpxIsztFel/+OCqGIX0MDBxiT6mUvw/p8QROMvbeYyihytyYWLwbs2kV4Dhf8cw6DPWzgdGCoD6jcZhTk92nDJKGAVRl1nzcSAbSoZ29ooydxGqrR+rZfoOUdTdd4OoYk4I3Pqrag0+rtmMvDqkx1dowUi89X6lr/o1iK9Yg+tDdOJ3OhBQGJ41Vk19jsRUz/sPev6xCUNwLrUwnx2Gyt/0+ltqeyxOpl1MtwymBJGRuaRKhIvrJj7Dg+lQpm6nnoc1WRzCc+bbPI2J25CEpIYLd00khbSwZS6z39fobb8F2xpTDkrDhqjbxjAjbfBDk/XoAAAGASURBVC7T5Q17IZtX0GsHRPTPJ0gzhPFTAklQNxO0mCILd2g7U6RIoCjY0wHItmEpMMe0NY7NaIPBtnngPfe7AL7mdGpCOnrHzHzaiYeUDsz1G/kdoO9zdSrN/oneo6V5Q8b7/lNLTQ3XqV4fwYI7AIXp90cAiCviDAGKaYwK6dZ4mK64rfF6Mu1BuvBt4y7y+vj6mQETj5OZ3Ia9fxgAVin1cjQKYJpdIKfDRYx+n+TnKUkSE4OQDsSY/3YfB7o8kaFRopMkbKYeC7INcW2PSBgW8ItNnhujMUDrK0G3Df8wYjoZF5OP/dwrlaxuJkBgDtvuiLAQye7DeIjUja86zQxKThEkEYlGeRDdposCBWf3zNDnN55aqvMrCA6OA3sDvXU9PwFsflOKSh3c0Sj2GVKIiTrnwK0xoNvk+hgaJ5MZjt107Sq04Tr5Ij9PIp0aSE4iw7lH/vVx4EwRqP/6OPczRPEcSH6GKvtkizoHkpPl3M/Qc3Mg+Rmq7JMt6v8PnddAZTmvEzkAAAAASUVORK5CYII=;shadow=0;" parent="1" vertex="1">
                    <mxGeometry x="50" y="710" width="137" height="124" as="geometry"/>
                </mxCell>
                <mxCell id="48" value="" style="edgeStyle=none;html=1;" parent="1" source="43" target="44" edge="1">
                    <mxGeometry relative="1" as="geometry"/>
                </mxCell>
                <mxCell id="43" value="" style="shape=image;verticalLabelPosition=bottom;verticalAlign=top;imageAspect=0;aspect=fixed;image=data:image/png,iVBORw0KGgoAAAANSUhEUgAAAIkAAAB8CAYAAABde5NjAAABQ2lDQ1BJQ0MgUHJvZmlsZQAAKJFjYGASSSwoyGFhYGDIzSspCnJ3UoiIjFJgf8bAyCDMIMjAymCVmFxc4BgQ4ANUwgCjUcG3a0DVQHBZF2RWXSC38XPz4l9xSROTlxomsWKqRwFcKanFyUD6DxCnJhcUlTAwMKYA2crlJQUgdgeQLVIEdBSQPQfEToewN4DYSRD2EbCakCBnIPsGkC2QnJEINIPxBZCtk4Qkno7EhtoLAtzB/n6RCiFhChFhBFxLBihJrSgB0c75BZVFmekZJQqOwFBKVfDMS9bTUTAyMDJiYACFOUT150xwWDJmiCDEcuUZGCzvMDAw/UWIxVUwMKwHhodEBEJM246BQQwYXtuvFyQWJcIdwPiNpTjN2AjClowHelf2//+XwPDh62Jg+Cv2//8P+///f79lYGCbwsAwxRwAF9pckZ/eqHMAAAA4ZVhJZk1NACoAAAAIAAGHaQAEAAAAAQAAABoAAAAAAAKgAgAEAAAAAQAAAImgAwAEAAAAAQAAAHwAAAAAhzQfzAAAQABJREFUeAHtvQmc3Fd15/urvar3RbssWatt2bIxlm3MeIkdHLPFGIeBhN0hkwm8ABmS94E38yDDYxKSDy+ZycyETCYkLyQQEjYTEhaDbcB2bCzvuy1ZsmXtW6v37trrfX/3X9VqyVJXS2q1lQ99pa7613+75577u+ece+6958ZqUVIjxWIxcUr+dqrVqhzH+Za44g+O+Ygu1x/jPCdi/qrfo6pP+YlJ7/Jl/z7y4XA2XKnn28j/6O/GjY3z/l2tVhWPx8O3aT5M9+F8A/HkWYPAGLRXnU+chzkOxYhV+OG/dCA/lNXXI+rDt1TmWfjgJ8wbs8Llm0SznzhW/o17fN3p6N/R2eizUZ5j3RNxefLdPo7OBj6Hn/WKiUiE2lARXKmf9z0nmGIQE6r2uM/VzDwqgUzigZFkWkmpmqwoXkuExyowuaaEklSYuV+KVZXi7jMjUbwqDOJ/FfoDzWZgoDkeQBODXoVypiKS+R3YAiiABiUzB8wHWB6KZV6cPNNPlC9uqFUAaQpS5Gty3SIrBj0USslwzRCOVxPhei1Bud2Y4+PhumouW1SLAVgG+jRTstl95RiVT34xFVWtpBXjiUBktahisU+1+C6lK0la0EJV0u0wt1MpmHumYMRsrARyYGAd1JYaMY7dOqqAJVatqFKE3UMVDfaVVBiB7ZmUsl1ltfYmVUvGlEwDlVgpVIK5MbvlMzJdwREgnLmleZWKqFQpV7mokdKgXty3Ub1tZ2tRx2olkK7xMsCoZRVPQC/kmxduHJafdRnarPrD9aYgSarE292WjES3ygpSpKpD+/5GO7feru7ePs1rQdilVirZ8XplMzdDUHZamc/GTQZCEMVuVf4Bs+FQkBRmu2h5I9tjevHeirY9PqqR/nEVxmFwKqmWDmnxeUktvyqpxRcCFHhQA3FuKLOZqFcqnT+3/gp/HFepl9H8QT389Pe0sGutiokh3Xr3f9Gr19ygqy+8RS9ue1r9wwd1zaX/FiXaFWrPwEAm8S8ZpON0yzB1ca2JxioqP/cgrYnjc9YrmapqtO8zyhXu0Pi+EY3sHFL7Oaib7NMaz9+reNsLSvd+lPxb+XMLeGWTraKgRAJAAActzGK7poKS+Zi23l/SxlvHdPAZWuVgQdUiqtTgQWogNrT3oXFtvSOl9W+SNrxtvqodtEfEPDCatYLVqKVGjrU4JbJ2TBiwSd23+XYNj39NrZ0t6svv0WCpT9++/0t6atdPdeMlv4L0BBAUp4Y6NURsOKiGRIoHrkyrDFPbJICkODKi1Jf+RJVv/1DJW96t0pVlFcpf1ku7rtW89i5VU99UPP+0EilaGLZKvKVF7Yv/Tsn2q2G0JdArnWCKDQm+lKD9BYuVw4L0wu013fM3B5CIBTCRhYnob8BUq+a4GTAk8qrls8q10Pa6pQtuyumaD3YEQRla9SwVDbgatpAfFIYqtp+w/8qlojYNPaHPffHXVM2MKpEYVS4+X6XxhNace6l+48pPqqd1DbqThgHgrWDjts9sDkwfI0p8mnTcsiLeEomMCi29OvTYI6p+6+tqWfQjbaxcoT/83f165KlRXX/DVcpmN6IbC5CAmVfEOMwBrNabzhCQUDqrGnMZ3gSNXClq4NmE7v3KgHY+OqK4bS3AUzXz4yinalnlfElp7i+XKxqlTGkeHjxQVrK1pgWr0jQKv3B2UkJj5A4xpbiGKsPaNPiQ/mXrt/Wjp76pnbuf1KGRPajIPJqoX6NxzAGM1EXJJSr3tmpf8SW1tLUoE89iW6JwAIythxm1SZSEWeecLf27j2jrl/6blvfco6VLRrTugjatPXeNUskBVYfd+mBYrAUmF2DwPgAThDbfTm4Bs8fUkGX9I+Rfx0hEEUAZLWnLvWVteRwLlVYVrxVBA0BANJvKIvp+3Zs7dMlbW2iVNd31xQH13e9batr844JWrG/VvPNms0zwlYIU0iU9u+0+fffO/609B7ZoNOluOZdq44HbsUoHjSBBecrauu0hbdr9iDqLSb323Dfq5rd8XLH0vCBQLZkyk5nU5Hhqm8QPuxeQyar3qqvVsapHxfHfUG/yfv3up39O5dozGu//CdSPq4ytmobYGgowHj8rZGuTxr4J+xjcBZuAycRBuO20foTsJ+WXrJXUvy+nTXcMKj6CRKiUaHllFVNpbPKKkoWYWlZmdNm7c1p+GWVByvQs6tSfvXMIlVTU7ifL2v10Sb1r8KnQ6wnvr5cgKuuJtdLpFD7qupfoNWa0ani+brwTqfbwmPZ0VDXcGdP+hVU9/hqr+3atfaqmFS9axea1YldSHQPjSl/woLRos6pXzwNAuCfqKnc6efue5iCBwbEqFYy0a1m4XJmRm7Vv7x9L47ehG8vYQPxhTKUtskFFLZ5Wpu0ajsGqnzVSeNhQiToYRQQnDJ61FCEk+D1Qn3aIDR+s6cDuAVRkLipbAj9DuYZ6wbQrW3dzH7rbwrFapdsrbBREeQ2jtjRYUd92pOVYWql2DHbsLhvHLpz/cTDjJbOvJkV3NtF3UMm//aHmf/0FzS+XtBQKW7j23WulfCaj195V1HW3VTWvv4akcDmSykN98q49GvjsF9T56W7lXrUKc4DKPAGjpDlIYKp7XuHGFIS2vUMd3Y+pcPC72IMFpIb9ELjSAEyqDDBa29E6r+VaBAZjJHC7wbrYCVhMjWdO8Tuqtqgia4BgsA+9nbdkK0I7VQv9SeiyrySVLmtgd1xP3zam9nibCmPSnV/doRj3Z7I4CpE8QzxfHKkAEpxuVIULGFxuzsjMmuFkgKMNNfqdO9T3R9+kX9ZP1QfXmTME2DH93B0VveEbRc2jAWLCco+hZVuqDHUFHfrB/aqt+ZoySz6g+LKlfmzaqSlIQh0jU+O2rKtZejNL1drzKWWSl2l0+J9h9iYlygdQ9BQEjGQ6PsA9KylCTCV0fRymxd3LCTXljpwdQrMMlHrlmS+xQAsWUxk2U64Kkq9Wc3vDnLJBhw2WqLXq4a+VtPXHh1REbI/3xdXWjpS01LQ4DKUzOAAbnz46nSmFQR3vH9Wh3/9r2HiQ/OzrCBRrCBqu/xcEO3aU7YxR7sDs5tPXKzgiSurKJjSYH9Hgl7+n9tddobalCykCdTBNQPtNUyb7E1zhsbj71nS7QHUps1ax+UiUhZ9RquUcGIvBl8S/UMAnEW9VovioEngAU9goCXtqA9HQZAbbCzibiSzNC6sCSzXT0tGFasyUUDdccPe4hvoDNIqVVSplcFwV0dtFDe6XhvfFOU4DeECCEzHOcUt7RqksLZjnEULh3aFIHDcb5TjhoptobKXCj+7SwEsvUeXmp8vhrgHihW9Kg9qxcnEnF7uKK75mqIygKvP5MnVYUpICFe7GPhlAPPq900xNJUkMpsTcNYQUjxUkYV5VWRULi3D7fg/d/CTDAxAxjOYei6vQ//9otDujWOd6tXX8kpJtb1I8e1awRyiLOTq7yZVLjuGPvOMYm+290vzFHTqwk25jEYcJV602zFolGFqojgIGxDmgyOB5TeDyLIRuMq2VjkbvsoRSHbwsAbhcY261ZGD3w+lI1VJZB+68B67bz5rgn6VXVCpkTJAmztqN2f0zW0kMJgATN4kcHegSnxXsk7KGH3lCuQODynVgFkyT3qYgCYVulB5J4haZLMHSxPMaHPgyramIwymj5DDcwiubwqeggSIN8wEdqDylbPkeWu4naLlrGWuAfLrJx8aJC+107KvRtak/Q+Pw4z4IohQVGbof0TurqMzyaEIvPnVAo6MIaHS5WWofbJxxkCpioYz0Qz7guIoBkBKvynDfeBj/sDm16LyKlp7ney3wqRYzOgDFtDXK4OOZS/j0lHzqJV7oKk/ZkiInU2mIxNTBJ5Ry3uW0PeJ6qtKsbbcwFsV9OY4y/NX2A5Ahd/1N9PQUZVMsBcsdhltTRPa+D/jLb1F5+DGYSAnGII/xjhJMNp5qJQgYoMczPKzK3ttU3vundDc3B9Fshh5u2w1GRq3ipJlsUET//QVwEcbOhx8RuzhJASpI2ce/Kd3zv8Y0coAyuHuP8yl8c7N7PnHus1RxJSBKVMA4x5qlYcSU7U5o9fWt6l1rleTqqSdzkT9Dzv9mNFGGGCpxaHSILFyx/vOnv02DDYKonG7xlh+GhiEU3WkbxSoetcn5arEaQOY7p5uaShJnZyvZLc7GkP9iqJyR4hbyKcFYsi7Zywcp8CdeRhTjK8mOIxo5rqLnC6PfR8x3K19tV7ayUInuD1Byjxw3kHyKjOXxqmnhuwZDE35v4JAJghWAJj8obfzqqB79BiXABll6fgZ1A20DXPcIGgLaUyDiCOWArjgCm+cyvC+ZKivd064LfiGudb+AisHrakjMVjKQ07ksRqlrwimq4EiuH7+yG7XmOxjn5qkkEhGJk0oEOya8ahofZmGTBDPMD//ZnxtECqTC0yoV7aF2vGgYR1zHj12gS5mAuaGXXkC9INJrlbxGBr+ikT1/qvzAV6kDPJyhFicXsJEJl04whbcEMgOEgxSxOqglYA1qZHQspo1/268nvtavfHlUV7w/p4vfnFIuE3VgawCiArBjGdhOuWJ4MqvJMVQJtFOmGjbMhndl9Jp35hiXwkC0tTpbyWzBjkotX8yBG6mtw0hR2DCdmpLQQoLPxPfSjMRgjtJIxlCfvGc6qbkkgYqoxddxaaKRKrn0+YgtiLAq6oG5u6j2PUllFuDU5pkCvaEcfeIUIKkCilo5j6QhO/eEYH6kzMPLQsO1FDj5RAUHAPMGjIQy2QSWoHMKh+L66VdGtfk7eFbxkbzhYx3qWpHU7X80oBGuYZfS4cKb2ZrWvPlVwIz3dczu47K6F6e17OKaNrxxkTJLa8p2Yoe4d2beT6N5nXx5jnyylkmGruvQP/6IcjXkRwRwCszNx4aKDViDo5M/j4W7vtrWr1Wqp5PBy4YUPzKvY/1qCpLJiIvqMRJbydir6ApepeLAnWEgIInFP7q1pq4cd+FTSDHvoYpXsAogyum00gwsjbrL2HkDRqJ15Cmh4hhliWqN6S42JQLbagM5Pf2Ngp75e7q2/HvTxxZq6RUZff3De3VwO2ZftqS116W07vpuxbE3zl6BkTpa0yAeyxy+ha5OqMT5gNsE4Lm1WJIeI+vTeYrWU6Jhdbzl5/XCRz5P82SiV/gX9WTcFT5ecic4ZZGPqmFiBL861HH1a1SZ30UdTJ//02gPkfkTLNKJ9/JYqhep8UnmV1yqcrVV5SU0rstKGqbbiF8tYiiTkQrzqaCOcY1Xk0p3X6bWtlu4aMInXhZsiUj91PPi6okml7lmu4R69GS+2GBGj30rr3tv3a1ErqzX/3a32i5I6hu/PqT+F7mOLyRr8yKZ0fJVrVpzfpbhhJjaFsTpvSTUvZLuYw/9hK4hBKc9l4h83m8Jhdg6UfJO6f6MHV/dC7Xg028nf09jcLVZpU/NL5u1KaDBRAi6wUjKt16r5OUXIcytbg7zvxlxTSWJX2XkhleGyo/0YgxjqpJbr5Yln8LO+HNVRh5TMX2QQcCyKnl8KhYWSI9YMqG2xAJGIC9Vbt4nKB/TvUIhJxMZXhxy4uOkklsUHQ6I9RgnLByI69m7+gFCuy67BbXXk9Dtvz+kA3ssdGOad3ZW63+egctVYKALduNyNwAwU/l2splnuHHGrthQH7jyJxgRbpqdD6Qj3jt1/vubFXvgGQ1+j0lgVLuN0clcPNzwohL4GpMXNUg5Wi9epwXvf4uSK5dN2OnTJb45SLDugxGIgepZTh74CjPo6NVgT1H51yqx8HwdevLzGtt/h3resAY3Pb6GZFYjW3dpBJf2WZe9S8mut2Kb9NSZfGTRDhfu6PPTK0bUsLGNsEfc9TOLKhjYibakNryOFnRWRnfT7d37NP4BBumS7Qn1npfWhve1KtVmZDWSkd2gJtLZ9JWii5NvO6pqohtO46cnNZPii1dq/n/+KF7hP9Xo7Q9A2dCELKk340lE+Iy7xxml161T7//575S+8RoKR5VP8h1NeuC4h01BYgeTjXm3KD5C8kz5aolJRgMlje3brRTKe//GFBb4ryiNhzUIuP68YoUt6n/kMXWu2qDunhaVg+eJ+Sl+1wwnM8Q9KtwZ8CCvZG9cV97SLqa26Cd/OaSDz8I0/CDLr2jV2quxnS7MKUxAm2E6TsvrzH9qym735AXnq/sPPqbk+f+ooW/cofiufZTb/RbLUhu1big2WQ3uTuXedoVyv36TWv7N5UhDlA9+iqaVflQhmt4fGUk4ZNxK3SWkx5CkpzL404e199EndZAZay1LF6FuhrX29W+iy7talYGDeu4vvqBDTz3JDPRxLbziEDq+RZ5wXrPRenIC4yjSD//0DPAgPpB6NRCNp0aJlmJg1T3/MKK+5zimV5Ii77aemi69GR8lEuQE1PLhzF6JIwi1tktVGD9ryar91ReqfeF89V5/lUZuu1N9jz6l6rN7lOjHW2jr6cIF6rhwtea98Q2KbThP1fPOBjoeyES18hfAFBrs9ArTFCRmvgfmMnWO4vpQbXRM+x54VPf/3ueUGGReKJVy9rvQd/OWqlw4pOf/8gvaf+89OnDHwzye0vgH+lRKeVApE8ZEjPOZTKEzCJ24RsKM8oS5Uc5hlFa0YnVG7Riu+QFaYUtKHeci0bJFRrHtbXCaeakWvXcmP+mn4Kz0WFGKoQU3hNgCJhC97mp1X7FBnSOMNZXGVB5nQJU+fTzXxsR0Rmu6WsOs/4TFEM/4n1VN5MWafrmbgiQMdHlcI2QQNdgKiN39/E61tTL/Fb9CJcOk/cvXK9eD+5oKKg+PApCnAE2P1n7wl7Xk6qupCgb98MDSRZhJ7oV3uZ1V8ctYNSawlQKVGJs9F1V03Tnt2Cd4Upnm4I5Jsr0AYLMwnWN3wyIzZMZpmtkX0oGdcBvgE6IxVFm1kKJToAz9dNR9cEE1MqVYsCI0mkIYY+KHl8KwLsPO+mDinEA7nXq2PJlazMXxoAaDBErsJfEEIxZ9aHRPn8YHBhTLtqht5ULFcvhDii3acfdd2vOPX9dZN92oBde+loK4z9BWfxvPModjphNsABtY+0i9kpdDUPvWzjGsbLcZjyvZsaekJxrRmihSyk6QE2CWs3hFEtLDyVMT8CS4uUYShSGPajDWKSfnfL5RnIgfPmEToRwNVeDlrAGUsBS1cSO3NEvTA4nFt2UJGUbrYW2jRAZtglHgKtMJwmQiZ4xoGzm4k2UI7YpnGHtMs1QB6JcxGkNvaHJJmlF3QtfdvCIRWgqtJ9K/foV7PUHU8hn3CGQ91aArglDjzBn6Dc/CaAj1UA18pwycM9hdsggipr0BFR+7xFFPz3UXllJQf6GdnGAdNAWJs5tLP9scONysfrb5MFf6KTgwB5IpmDN3KeLAHEjmkNCUA3MgacqiuRvmQDKHgaYcmANJUxbN3TAHkjkMNOXAHEiasmjuhjmQzGGgKQfmQNKURXM3zIFkDgNNOTAHkqYsmruhKUjCALD55JFD//HhiMo+9CyTifPhmmeIMVocjn1v/RF/h5O+MOmibzjtaVKeHDZ+Nb5D9hM/PCXCf437XM6orI1bGt/hpjPhwwSR/NWgvlE7E4UNd0zmfP2h+vlmX81BEuYd8FJPEWSeRpWgcx5gLxMRo+phd8975bKHoMOsHkI4eC6Pl0jWPA+C/+HPX55+NxlBfmRWUkSHSXE6TNLho+iKC+O5KNEkYhfJw/CeN+y/MzNFDTXQCo2ebMTQfp3PJtrQ8bf/onSi4TGaThUIr65XrAmpMrGhWB3X07v+X7WllmlJ52vUklvORB/mlICBAy/s1J49W7Vk1WotWryUNcDEIvODvCgUxB/hyN+zlFwI8jVzoigDUVuLZo421jibxAY4PK26cdWPuiLqTA7TOJu2rVkqWASBwFfnaBLrZPpn0YvhoT0Eq4B+zzIMc09cllAO39U8NZ2+WEV9ODiDM3f+JqhSG9bjL3xR+doYK/ZW6oIVb9Wqnrdrz5ZD+tRv/Zq6WJZ4w/t+S2+9+d8CKpATpvEHdARV5VWes5ZMtwk39czkYipS+DMMQoFcIv67vfkgOu8JVtF0Hs8IDed8E5IzvMuP8HcmpDBrMIi5qARh+Swr1PwrTbTrqLx1Sif4cGKUNwVJVKGI4DoKo1X7LYQHb9fg6D7t7X9AQ+UHVWU984v3ZTR2YEg9Z3frddddxwp2wGXeBuSaMHP3xAg81bs9oyvK1hyCaa5oa85QMH6bJOjzlMwoVBY0w+EEcpsFGjxjqeFyIGdombbDoiULPv/KJ0e4NkZqrIUOwK3z118O3mQqY6j9id0zuMkS80SobwoSczEQ0Hgtucdh4OLeS7Vn6AXmiTr+RVWPbv6Wnr67QzFma7/pPR8jcM08KsLLJwKZgZu2U7ztyGyn0IBgjKcqBoCYAKYuelmoA/vGaizlrDKbn7BTiDoKSCETbUwPbOebSdPAxUw2s7xYq14Ps12MY+cHuZYaXjDncnqSNIGvsU2IVMJ8Xk85dfTqEBOfcllCnuikzaYgccaeY20KfOwp2AnUx+olb9fmkTvVPzaiDBJj9/Yn9dQzrbrqul/UtW+5EQ3jdR4RQKAxPByhORTFb3pFUoRZuFg7SDS6rYqPPa1K4Sns1Rc4R1i6CtIFYMRTS1ideA7rc9YrkbmQCcgO/eAmYz3vZFH+yicvzBomutQh4tWNoF4cHS3hubvuZVJPcYDfSqOel2PNESRbiZ5ocMOmIDFO/c+RAEKM0/FRlQ72qXtPmy7O36gtldtU6i1q/wiRks89V7/xno8o8fQmjFvMpXm9qs1jFj3x5gn/EQmVVwgjjhZkm6QaI1Ag65ZrI8R7GybMc34ry4cJy82EbjPDwDYbqzTHOGCpZc6C/nWKd70RJX82Mpzw15lFTFdfxd3EVwtixVLKTZnChd/hY+YQZJ5ZBFKEEGOEfPYQqfqxvoIeGapq39CY+ka8KN8SxfRbvUAiUr2FSE1nEWMl25LULyzp1ms6s0R4ML0vTy5LpIqOvNq8d1P3e7i7W9n3kvLf+o6G7sAG6TtELkRXXjaqwlUL9dDBktYcWKBr+lM6sPdF4pHAy95epV9zidrf+UtKLDg7LFVkn4LZTTDYPCYQKxXMzP6hr7LC8MuKDW0iDv4oF+DsMZJVLCwPwE6w0KvQBdhZfJ4sALR5b1Oq+xaEyWKbOLzfLdc9B94V+DuzhbS5nQTEXk9RAARPHsrrC8/t1X0HxvTUGNAucocDvdZtwAisEOJuZa6mN7S3qpUwG1UWd/3HC5fo4vlezchLA2P4ridHtPYpl2Ryag4SlxuIVrY8rgN//HmN/+helXYNExDFhp2FLouuurPKE8OjlVhplX3DxEBHDxKbi7ao+JIWdb/mUnX/l48rfs46QnhCgKMWzlqiALTCCjZHeeB/KrHjr4kkcQCeEoWd5mbH4DGTJacrH6Ck2OMmbCHidTrYVNVlH2GtMdu1xDo4b8Y6j9AH5JzfdySTj/n+EzoZ8dILyp5g/fV/emi3bt9dAASAwwuI7Jiy6AjGeL08JsGigWvxRFEfWTNfz40kddOKnH71nE4lQrhR32QZGORgRLr5Ed5zmMCp1Y3zhob87i0a/pO/0L6/v5M1tV5vSgwy4OGIfgmYWCUQbZbAL2apgaFiFHrJJl5y97j2f+tuje/aq5U//CvWsp5lZM1aChrAYm3gr1Tb8SXWZrGCnOgI3t3LBjdK+5i0OIi/VaTFe+idoa4qaZbNt72W5aKoHqJFO0V7FFLyiQA3ZvzMJtPghY/jAPAxYrDevp1AbwZsIJ38JvjJTRTJVeDK938oZPFeBoCMakVbSv3YLkV+txGXxZcj2VFXl+FMeMgPTqSp5SKqpjJ+SIO33qrtX/wnFooXoIdgNHy28e3egqMNWJuP8+ewwM7OOt1ZOc6f446mM0DpgU3a8dE/ZuMhSna81jtB1swdxNyDGbmN0JR/RVz8feyDAJPiJQACcAhOc9xEdyEWAhPTe0NalBIsZ01igxCIp5ZbTRkoqxtR+Dc1G4+bxzQvmNMEGCOAMmbqWMiU36hP02+AhJ4B3wEg3Ovf3Ba+LQZQOyPQW2Lpa54lryNIyXgoHzXIfUdQ76yOSkdcP+oaUpru4fPbVLj1BwDDQX69UUYVQDh4ikNMWQx64aehYArDtkKhSIYLvlY+gVB7tOC274dIlCcxFmcRJCq9pMoh4s2yJ4wy0IyUjoVAeubi8VMQDF4uCoMTRGu0RE16M4ISC+Rtr7gu4J73yTGbLW2iVnn8d578FaJX01PJEOeshwYXKt9RgsIf5bC6aUgQV7KL5q48UTGDygEJrVxvR8WmgnokPJa7w0Gt1AEVHopeczSdU4MEY2jo+a3KP7YdOWEPQRRI1kyxBPFvSw6imvIrelVLOOOrFuduZ4hiNFSyM622vQNsbnFbVICjKTldv8cA5eCjvB10mEb+O65awuE4w3jBsTO2KrJKd/x5h0wPWrtCcJ7ydnQ3XeXAWzjvCuGHu/eNBn3sN578WUdmsNS2+puHyuhJo2qciBLp8oQUvusVHnw9nA1dSr4B8ABg3laiozFe0t6hmrbTG+3jvmIguv5csKei103+nNomqSAntrxIp8CSI3IiGbBeiu2mZKhYYPvP3PI/RxWL7PxIz/kuu/bTEGlW51/cxh1+emaT8w7vdO15IBJjNU60RY0+zhYk/Vyj5WDkhdYPJaaxWaUGw9sMh3lRiW3o0jQsVkgTZZg4OJUy+Z28CPpdBEdNJHBAOOUAxCW6siWCWxHvL9gWh4gXL3bMCEMeVjmmMICe86anCpBC3BYupsb1wEEkD72jty6J6eH949RhmTG3nLoJg76iPa3lIfjhYcz5jY00NUioXBHzwvmHrUVpXcEYpQCjHDvYnJnnSndyRUQU+jMSvi5nOk/ltNpuQew5fudpSAF4EXdpYRbJMItWr/HnqGPHjY142GgsDlMxVfLVBOWP01csNvbCAVXxJDHfJkKfU3oXeSId8WPi7HQOzCfzEu3sMC4cmwKri0ha54txvTBS0q4+YpDY50Mww7BxggHrQjk4i19Qpefo8JPUjqogADnvvXrQubo89qwWplbrpfHV8IYF/Pi8ckMxvXSopPO6S1rfA2jsoziqGFODBEOntmRhEFvEwQ2GqRWLd0qINjZy0V6eXDxf8Z/BEuc9JYs+x0Ht7Hn5AzNyBlDCMAfyC+I/hOs/RA+x76Tebvhb1RSQpmWCAseJtSbc9PHUOiRQXdyf1JuP/ZAVtPll8uOWEC4GHyOIvuf2DejRMfbpwXFWoFyrMgN6MM1QQhnAYpASIIY/6HPgEQ/F65CWJA5obW2vLqht1eqW7VpX2oy0GNfduc9qi84jHzah5PYaWnicLVr6sbXa2Qu5lZ248KIcgZMpQWKGt1x4PkFuMyofJChdEFJBCEP+sQFiFhiIljiWJTZr1UFBkCDE1FX6oguOIMD3z0wyNC1+PSZDsSxVUDk1jM2jGsa0sksCkBLviWO8uy0niDdWSS9TrO06nqcGZzi5i+t4b3m8odkgKWIapLVvxO/0KODI43catbpEuFzRvU+/M/4pjY0Pqy/RA4/dRSBMGeHc25DX85Hz82PD6kYCenDPOjbOhpv3dtyol5IApDqE+iKoD+rYYzkeCEyXUtpG6LIVBMQhLM4RaUqQ2HEUX7hQuVefo4HbN2K8OgXZwHfkFwmnjvFhNhpGRC8Lobdj/bSV7ja1OKjNUc6aYzx+YqfMh6g7AlVYG8YHgIkDEM9/OZkUWhld5TTdxUQesBEaPdl5JTEv15kFpyU5SlQCcBbNH3bufHh/Xo8dKGgYyVKrEHMO0JbYwWZXaoMOdL9Fr9I/6cLifjAAfTzigD0WDxV6QaX4Qr3U0au+2Dna0rpOu3Kv1WDyXLbBg1mo3xidEu+4XkbCtwG8DM61rpacslw+Ok0JEoeWTs5foPS1V6pyOxsdgVkbqQAPwLjfcuzkfDyobqAQQZUC0uWiJbRff6WSa1a6Ro/94CmedQ8jKiNU2hMZyxGD1RuMnXiyqR6nRZcBCqGcFO/dwEY373NN1Ok3F2YuRcFpsOqoZEfT3oGrfTf2YB4JZolcq4yGsGNpgD/GFkh3tH9QT2avU3dxL+wcIX4PdPo+V3ysS4XaYvVlejWeJOihbSvKk6YeyhjABpS7xA6W2BLP0LWuaGGuorVE884GW+3I+pkSJJYkyW4297vqtWq99NvKP7QNa6SCVrTjzFr0yJc1WOZC2TqnigjyBtGHQO78FvV+6L1EZ2b4faZBQusLlITmZJjAMOtqZtDZHX8yyUPsSZhbo0cQ775I5Xm/T5jx8+hxWIHSRI5d9JPJqv7M4RcGoNBA40iIFAap7e5RggRW8O/E0A1pYOJezd7Mem3PXmxsUH43WYPEtWKHBfWEqozjTMww7uMGW8E2dAz+HFI3gQSxehsvjGgJGzxduahDi2wLU7DDlESkTQ0S7nHWKWKHdt78epV2/r0ye/s5Z6Huf1Y5Udu1qdMYz/EZV1u0wwoe2VxS3e99o1KXvJrSzLw+D1wKmbpbazoI0snsOQ3/gD0C98EYmEbJvY+Uk7uUToGt3O/SWPZ5aiP/sf+4DrOL9kd0blBm/u/SUXg1b3UmjajQfsPMJTdgZ2uawIJ6IXhVV5v6832EYiekGIOMtrGwPGxKQKvpJXY8D5le75Fo4i0zXNFRQyGmNUBPIE1T8N2TpvL2fZXy2l/MaxEzCDeAjMt6slrawZZJx6mbpiAJGzS2d6jtPe/V8MPPKXHrPWhF+xmMXuPVyLMF4M9Y2CjQHS+frRKrvTZSVOsNGzT/A7+K8UR2Hqmc4eSq8waK7gXacI1hR9TYPLI0fg/+pjEYh4rwdZhnUNt7aT56fMaTc8zf4EBxa6WXgNzD9mhXpusN1Na/p7d5Ps43nFmuyWAYR3bPDBcjOE4hM4AxTVku7MiyG8g8fe+lQebtjKMKEoQbbWereSrc6hRWVmxjGLx1x5n5HshE3tToKZTpMIzheT1AlO59zP0pFDFumbpx/dlduoC9BC8hCHMOe6QaeEPxAi+OLFlTkHi/mAQzzNKLVmrhf/iIdm7dq8zjm1A3bMlugiDQAs4QcWIGBp/2whK/eJTqWb9EPb/zYSVWnIsQMcp9daYT3UdeGia9IV7dhfNcj1jybHZ4YLdRb9oEXQkma5s877fj3wFTrhQ73ujWlgFCgR5dK6CIdd1Cr+zNGFXs2o3KSRlVEG9++JD/M57cfCJJ4DwqaiO/i7MprV7doWeH0rp9z0GmZPTpEHqilT1rKCFqwxIA/ruSkRolVEwRz2qZb5yqOgg4xomQvbwlo2sWzdO1SxZrHeDroEG0Ms8kHubYRDH0Q/zbwJUjpX3TqQJwFObAUsRfjQ0Zh++4U4c+8p80/tJeimSfSRXbA+bCdKsca2yf7+DX2Noe9f7f/0Gd73ibkmlad8Ku8HCZj5lLztGKJImuDjt5IY/d29fYA0xA+0PFRh5BRHt8iRGnYFMYFEhB1zblSnlGlxtm61lMLvoVNpm8CXCcDRI4z3t9WxL54l3S/Wb/nmmQhJn85BWmLpjXzteQMb3MlgtqFIHYD52bBkbp9Qxqc9+QtrHR5BA7n4+iQkrcm0FXdaRy4e9sBqovmj9flxJP9yxswxakTdJ/vLxkHFAI52NwBukT1JW7/G5kh1NTkNjOsEXtVmQpUEOnjf34J9r3u59T8YUdeMChnFQaxEDqQYcju8sMQsVXLteCD/+qet72dpoq/Xj227WYTxl0VNBMJxvLDrcfr0WyrESLT9vfUOunevtRF0xuYBRbhZ14NTchp3fzBwQY8q9m2Zm05XycBZdxv70ERjJ00tp8FDYy4Wdwx5sJdaBwMGPJOZkrYQYdmXpjJ+ft3OxtCr8wOoPMDirSfIRkOzlIoffr4nLsZ6LEk9S+pay3gfX+G4afr8dw2/teZ2pDOcxNAWBlWsDR6qUpSLyZkLdAL6G3kojlGCK5gp4vb9qi0W99n/64x2USGtuxXy2rFjO6CEGjReWuYz3OhtfQ1yKENZS4KCW6aQawDdoZTS4tf1FcU1gLMx3w19LEvoeoXUZgtvEXMdwPWVnyD8aE3XXrqsQSI9LNlo++B3rNWR5x67YkCdz11wylaMzLTjtzqp5clFCJNNKgSyPTOdASIOTRMHeRI0nqp/x0UBYGs+0VpFJ0v0vtAgTiOeUus2Fj/vg9XKPc4Q3RLRxHqTlIeDaF547uemCSP6KAsTbeIlTam1qxOEed1Ijoa2LM2hhiPPREqRi784Oo5jV1OuskzMCXy8drLD08Tu3phpYC0RRE51pnPNd9X8RK6PAP/sK4GNd8viH2eYhrE0+G5zy9z6z2WbfoGU282m+3RAicCuCObC1Hua6Twx2+i1/1L38HSvzbqX7J34Hc6Gx0ftK9FTaFcmfaQ1y0KYpq0NCY/SO8sPGg32OuTJEC67BJAmO509P1/JZAQJ0gH0eIjN4ejEifM6HcHV3j24WNbpkix5O9VDdEXYkuaIOLR+Rn2p0aJ6OyROcmf5pip0Y5/SuCfjgXrs3wR5008yzi12TaInojieh8G/RPoqH+/MQZ3zLxCr8xusFwc9OOJEfILLwuagDHLl1TkExkOnfwM8uBSQrwZ5YHcwVvwoE5kDRh0NzlYGjMsWGOA1NzYE6STM2fuatwYA4kczBoyoE5kDRl0dwNcyCZw0BTDsyBpCmL5m6YA8kcBppyYA4kTVk0d8McSOYw0JQDcyBpyqK5G5qCxGPEYZy4/h0GhD2g6LkO0QcHDDN7Cle40UsqvVSoPizfeIGfD1c8JD2bifFPh58I80jI10SEPxfAo9sTJzjyb86YZiZPVXgmmh/LHBRmfYX7G7eHO8/sD88aDEWqFzXUiMvsMpxAagqSsM6EF1YNBEJKhYVAzJlk3SN5Mf8ijFozNM8SwxJzK2thLSrzLZg8wzIPGM4NzCXwZOPA+zAx5QQoPOVbPSzuiZWePFx/mWn27LgwQy4UgBPR3JiqV8l5PoP/823shwe51yvwvT7mX0ua2G6e2YQxyuWpo2GxWmjM0y9F06kCZqyBYUhGk3g84caZmZkwzBNp3QaZNhjCNHDsZzyjw1GEqsx2qniRA/dFkQlmfh2tszpuatQpREc0e4a/SwN5XIvmdhoQ0RssRfznObAUZSLly6wITBPAJzA4IGji2pl6YFJjNGxmvhLyxk3Fc9G8wO7oWaxTl+Do6YwvvztMMrIKYbYXKczgN484H2eKWqHCvHlmNSXDHvMsIhrtV2smS0yuLIvoMuF+r/uIWqqhzGFz+eWsZiZBa1TXtCSvvgss8nTKUAgKEmUTFvz5FGgJ4DdYfJEZ0mOscGMVg5JIStDOTW4C9QdnhsrT8xZm27mRxitDavFKP8IV1JjPW2Xh14mkptVlVtVqXhjkozyLe3YyO3s7RwSUio/qxb136JkXvqpxFkH1Dz6njU99VoPj+wi7RAgm1r6MVTYzi3sYllqCNMfkiRA/nXsNkAgkFNWqjuURng7o9Tae72o7JFw/ihOeXVcDVAf379KOH9yl57//I40NDnJvmJg5naxf8Xss6KsxAu+MPazytg+psvMTihXuoy68qjHiynSInEatWaf7nW5BVe08+FNt3f8DdXbP1+J5V6m/sk2PP/93SrFkYuuuu7Rv4AldcOG79cL+z6u/b7M6U8u0/qz3KJ1ieWeSibd+zXQom7F7zAz+PNmWVKX2KyhnVqdACBOPg0zxsnZaF4RFIprJfSzcqg2P6id/9Gfa9L27NEZ8lXd85v/SBW9+PVCf3RIEwk/iw/aTpQfLGFSZz6KQsfuUKXQrlTkHibiYN05PokwDJJYkZIYh6gjDna3nMOH5bv302b/WkjX3wsgW9bFM4f7nPq+B0QNqae/U/Ts+pT39W5UrLdHSlVexaLs12DVVzwTHTrFtMlvJEPc/V34VcIxrWNsOPKs9g9vVnurUynnr1NE2D3IACiv/jCdDoIpqee4n/6L7iVs7vH2v1lx/WVh+mXQZZo/8U2JTNKkZYzt9oZId70Zm/p4KpXsIJPQs9UCZj7Os8+hMmxqu1uFwNyxXSFgGEwZhsLZTD+78su4b/gtli4S0eWmI9Theo8oi5V4iFC5OqLd6jq5f8gktmnclC5dz0Ux6Hg9tMHwcTcrp+W0TyIoy4Wgt5bT2x0b1mX96m14c3qJUIaWlLQt13trLdMO579FZXatYXN3J0tCSXrjrx/qHP/gfWtg7Xwsvv1gb3ni9upedpXQngWMoxVHa6fQQf6pvRZ16xWFYq1DZT4P+JEtff6BUC7uHdH6WMnhxS11OMHncUp7KflnpmkoSLxkKbZE3mOEFQlF3jCzT5T3vZgH5NgKsfE9ji6Sh0bzSLWyVhJF39taVumH9e7Use6kSBYKlYLc6XKfX4lqnz64ksboxOpES5J+CacuQHg/tvF2lYkLbn9ump158TD9++Af6+Dv/q9Zlr9HY5l267c+/oq6F8/T6T/225q8APMkcZXAkBaf6O8PxGfyBinW7TvERKx2A+vFAf6V8uzIVghXHl0N8JBa9ctAYOamoAu7gpm3xW6dj3CeHD6ry0KMqfuWfddGjO9U+nFTf6naNeakLq/l6dsW0fFNKuYu+r4Grdqj17dcTTQBxh2gn7BddSCgJiJ0d5hrgTkVaCtpS7awF+sXz36fHt/5QWzc/p+KBiga3FlVY8KL+OPmb+tz1t+qJr34NQBd04yc+oZ5zVmNyA3QH9PG76AaF7UNmh/xTywVyHWU3ln+Q+K+fVL7yjMp5QoKwRjvW+qe8+5PEZ+sC8uYSIiBIE/cAj9SniU+TpqLE8QMq7uJSuZUdezT2P76kl/6Pzyn/xDOq7t+njsG0FrwY1/Lns1q8NadFB9Is1CqrsGePRjY+qcH7HlMnIrpy3mprfZDUqLapcp25a8ZkMEhcwfw3DVnQQkBJbdu9ibiBw+hsgnuN0hsbrWj06RdYQrxLV33017Xy8ssBCIbfxEL3uk/WjcYvO6MTtNowL+1VpfifVRl9DJWPw5MllvueI6BNx2YliMEVSxHfhFV+XuhnkFTo0QUjflLZmoKEJbwAhEWBRMk99Pm/1cBnvwQ2h0GfV5da+DpgTUWl5SytbCOU07A316gqtYb+eZaexLYDKjz4vFouI678kqVR4LtZ5K/tEVPosC4xeizeDCnFmtezFlygaveYdonufHWEmHkZQjqwq8ODg7r5/R/WhW96i9L27wDqsHTVJYVuPx9cRwDlTE8ud6z0dxod/AdK71WWRH1A6x7aCU9YYJ5btBWoX4IPaFlUFAxZh6DwiuPJqalN4savQkGxx57R+HfvQqsdUup8gh4MF1XcYdRZOBH5aDtReXi5+y4eyBnb4hAQkXdzZM9OZf/8y8pdfiFc9oLsI4ngxGlLYaUa3tPIiwq1GHMxgsp1ZTK6adWHtLL1Aj27+jFidnRp99/cowVL5+tVb7kJZyD3Rm0g7OgQgc2Uzx7tp8YUmjBx9AvjX2ZkBaeanZ2oyhSbQ7AVkfL9BLipjDDU8D1lkxvom7SFknlDpVDuSZmbDVMmL1p32KTCxmdVfmQHMqKm8R3Edt0RFBHPRgaPwWL3e+slUew+B5M1RIxgMKzhb96vCn6HMJYzZY4ze9GValsi7AMTfCVQSmuxr2NR+zL9wtp36f1Xf1y/vPJDyj1S0es+8CGlOlppXRh9lN2PBMcbZAVvrMk743GCkkVqVvN/iw2yDTVDLwcTIAyb0GC8U4jrJM65SvF57iWyJjyxanZ9HZ2agiTh0VBCTVe3blOhyu4IvKRl2CGnosB5ugAbhLOAk29UzuBYkC4W714pn0KnZ69ow0M7rPFtuxF/6K/ZTNYRrm1SVLc20TDm6qN9rIWnRWV1/5e+qvbeBZq3YQ132ohz9Cb/c+miMW2zz/e7sc1q8uioM+XLNEyMsJsITpSpZF8Og6gOE8JfpWwj9RucrxCSk6Xh/LmBE9TRm4ig9m2A04QcfiNEn3JjoqzH8J00BUmMcBHx4TEVhkcAghlmeeG+tI/aNLw5khQeRnL0o6GtI5ASD257bkE9FZXfPApU0ioc6m/UlC/NUjL7iHgAKIp0f/MFpGAen8koEC6gEgkPlRnPa/N992vZFRfiYDPco0SkMQBPSRm/SSBOYwUYbhbMdiKArxd0GwSGuFt7BHLvAkIdE6UpspPAjA8I21kc/28qFvYhNYi4yCnf4GEn9oUiUB+DJN5rjRAGceLAhri3LpPtLPI5OjWxSdya2NkBA7SAskqu6FDrki6N37efKidmCRHS0oSdMAYhk3PGosUW+i6cxYrm+dqhyKHTjl4Mxt/RVJzW3y44jj7KHj+4R+l7HlThvoc0lGJs9Jy1aiHY33hrSjtGhvXuW95Ho8JZ5lZH8/HQuj3NRUJpu+teoZWFmP/mI6+dreSgwwlvC+dKdMx4A9XdTXOc3ki0547VBxfKu+jB/He2E7xHKcdCwxdUce+DaEmOuDh6iFA/Y7gpLuLWPAOxXYQpCzsXWShZZrgGbTwcTk1A4uFlNs9ha67s0gXKDzH0PzoSXuFQnQaHw6rYl+LB59zajIafH+TtxrujvjqGGvZMAE1WqZUrMKCO7mBxw2lNMNaTQtgarvLnX9Tw//y69YsS/cyH6c5p/OI1GlixUOeX8+p44kmNt2xibAMJsvws1RYswsjNBLnpKrG4DnykfLOZvMOXAWGZHUMa2pIO6oWzcSRk3IZTZQ8CcyMAuRWv6gNgiK69iWb42pMDklYtjP7mD9BQ2bsn00PwMPbOySSuoWB2FHIrc4ReHucIdnFt6oTzKUaoytj5K1Vq7aBHMxAkhrmVfHVWlRcwiAiF5VflC1HvxvIksYYu8gjd4b3+lVT2otWqLl1OIZtquKnpOcGr5lMsnlfx69+W/r9/VHloCPha2kHHoRHlf/RYmATxpiU5FYkFVzVTuxlrupKxmvfcrNpFFxHGu9XwoDUbJLNLv4sbVItxAhgstz0OZZwGbhOntlK8T9XCd1Qq382oyR5sEC5aZHNjlTCOCUKCO+Z8MZ/S8MGYFqwgeqlVZ8taJCd+Ejd2305Nxdjbx++enKYBEl5BhL+2yy7RyKpViu/YB+ocagrjdQd6fdAqBYMV6yO13ZIlqoLaFvR+SO5bxNX6jp+DELILkJ1Mwuk9rjEBprZ9t0p3/ItiewaBayTlLFwMFROUNoh3E62Q7n2SVltN7Fdpx0HF9x9Sy+/9jrT8PGKYuRQkGH8s17Uvna4U6MTRBcFkj9qxLqzuJszZRjYP+BG9mMfxdu+APuQ74AjbrSDGHbc14dBJdqrhAzq4FVuSKuhaSvgyNi9obf0wUunwoObxZEbzZpEACIi39LIV6rn2Muhsha1mNG5qdvA0YKxW6lG3OLJX0rAxHN3HIfboiiXqeuPPE/aa4jbPcWZ5TTTk2IOPK7VzJ3RFfTJvweKYYZh05OWy4AwMShEbDPFdI0ZcjIHM4h0bVdv0vIqIZ5sACccBczMOTXlmyZz6bSh1/DtYpNhIDKYWv6v8yKeVH/0Dtq/9FvsKbuE80tyqxxOrmAVYSQEYei1oEIZE2DuY2McDL7Gp0iouU5/dmeuYQnBNAJWbiucpOyhyqMyjiGlaZdXQJaL10JIyv/Z2ZTacT/xQ3r/Be/FZgwGKDqIqriHCIsc+l70uB/vtYrPhG9f8D75P6ZXrMaCoHMfAnsXkzZNLe3epOMrODNBmo8weYksQQ9ii1qrH+wc60a5IZjRx1xnnKD/1LOKaJ/0Iet3qJpgI4b7Z+fCEbGQBNgcTuIY/qvHhj9NLuZ163Ul3lrkxqEgLaGCMfRIdl6A/hCEFIJXxFu18qKoFy7ExFzju60pi1P5HiuL9mqkxihXmQfjgGLqlKUjMVu9AFUPP1eZ1a97vfUDlRfOJxojRB2MNk8QYpisToM1HdlFR4cfepc9VElf369j98vWvVYx9+EKUw2P0w12805XM3jh+HrZ3wYj2fFub0Z6MmYZWwyHyOkRz1CJt6OMUdVKgNeQPDQMS2jC9u6qREpqduTpbCfqpvHjxEQ0NvA+w341q6aNXyag7kTBzACiD48wotlfHXTIHJk7hBbU0ybHV1qY7impnL+Cu8zlf6VSm/bPgaYlFCoVolKXx/fJyTQMkMAiu1hgcSjN3NXvdFWq95SbVNlpU2yiltTH/IvWCDUIrGceCrrKPApLkrLPU+pvvUvLclfRqKAyPREE6X07I6TpjoHpOp3tVptVeEEs8bxttSdJgQOPbPYgEatH6JUa/uX3ZMo6jGXW0lEBmwMnpIvhl7yW3yi4MzQ8rS/cWawKbA8sKSeHdJyo0zjJ2h+PLZzE640zPtA0Sz+LP2hfTI9+Pq+ucmla+2u+Zz6bXn6Aur+YeutLTTMcQLkc9CV/QEgCVA8RaLNGmBR//oGqAYuxr/xycZZY2tlM8dlOifXrUJqEF6v7gO9R2/VXB8PXEhhKtMW2j5PigPSrzGfgJQBKLmarX7iDAB9HqVoOGtzvpFgyucvcZTJRLgc+nDVMWOstZtm248Fxutt/Hz0QAi+7lx2wkG8qjX0Os4f9AcngXsjJSw0o77j14aMExuiYVXO9l6sgdsBJe9gECdlf6alq2HvtjeTtq6WylWt9PT/oXkejWANOvhKYgKeKpS7tLBSH+sv5Lt89X7+9/hE2j2an79vsABQ6zRVlEMq1wl51qLer67RuVev9bVW5vCwafbb54vSXOBm8becSgN75hvTLMMBtnxDeNovEMVyLJ88+QiKShpYsHJLPEYE/x58D98WtepTKz0dzjiYxVz95qAKqRw+n9NoQfvu0BLVpdoutKJzUPYOm1VOzcdNYY1UVsJ/vb7U0d6QcwMJs9BtR5CSBio6NK7AolWn+VuSPXUsLpS5BGyZqCJO3+NsyMBC1HXntAK4svXqSuz3yUHgu2xnfuwnNNO6O7SWdZXR97l3p+852qLlgYKiJc4jVsZReA1hDtDSJO57c3PdCqFYrddINqL9LD2TOuNB7k1DBMJWM7Ai0jLPtaehHXjKV7X4vCysXKvOPNAVyWHzbgaQOkyPydPXGIl3Ts1XrwgY36pfNGNc5Ed29N7M0SivxVmOhVHEcuwvs0KqZ9Hm5NysCKFtXsB0neoGTu9YBpLbRHZrk7Z8b9dFNTkLibbQnid9qpY9Ovgks7Rv86x4yz+Z/+LQ325jTwjbtUa29V7x++R63vfasqi5bSAumnuyZISQwqG65hXxb3EmYtAfAM2zP9ytvUzdjRwJ/8vcZxMCXZpCkBgJJ0/VLYK+4JxNhqBdcUO4hn1H3zzyt21ZU4I5kWEQph33IDGoePZqMYr/rFX9YLT++gor8dfB/uutv55Q0U4rm4eroAML9rqFZR1lhqPd3e17HG5ufg+UrqrotKhP8e1wEhUSOdfh1MYyL08dngORpigMxLD4b3HwDB7OE2vxc3Pt2qJKidPh3Hz+QUr9jm8NgGTY/RRnbA/OHdGvjCV6RHnmGeJ3NgKEKFjedGsgjiYRTOUtTLR39Z6be/ib0JPKOcQpxIsztFel/+OCqGIX0MDBxiT6mUvw/p8QROMvbeYyihytyYWLwbs2kV4Dhf8cw6DPWzgdGCoD6jcZhTk92nDJKGAVRl1nzcSAbSoZ29ooydxGqrR+rZfoOUdTdd4OoYk4I3Pqrag0+rtmMvDqkx1dowUi89X6lr/o1iK9Yg+tDdOJ3OhBQGJ41Vk19jsRUz/sPev6xCUNwLrUwnx2Gyt/0+ltqeyxOpl1MtwymBJGRuaRKhIvrJj7Dg+lQpm6nnoc1WRzCc+bbPI2J25CEpIYLd00khbSwZS6z39fobb8F2xpTDkrDhqjbxjAjbfBDk/XoAAAGASURBVC7T5Q17IZtX0GsHRPTPJ0gzhPFTAklQNxO0mCILd2g7U6RIoCjY0wHItmEpMMe0NY7NaIPBtnngPfe7AL7mdGpCOnrHzHzaiYeUDsz1G/kdoO9zdSrN/oneo6V5Q8b7/lNLTQ3XqV4fwYI7AIXp90cAiCviDAGKaYwK6dZ4mK64rfF6Mu1BuvBt4y7y+vj6mQETj5OZ3Ia9fxgAVin1cjQKYJpdIKfDRYx+n+TnKUkSE4OQDsSY/3YfB7o8kaFRopMkbKYeC7INcW2PSBgW8ItNnhujMUDrK0G3Df8wYjoZF5OP/dwrlaxuJkBgDtvuiLAQye7DeIjUja86zQxKThEkEYlGeRDdposCBWf3zNDnN55aqvMrCA6OA3sDvXU9PwFsflOKSh3c0Sj2GVKIiTrnwK0xoNvk+hgaJ5MZjt107Sq04Tr5Ij9PIp0aSE4iw7lH/vVx4EwRqP/6OPczRPEcSH6GKvtkizoHkpPl3M/Qc3Mg+Rmq7JMt6v8PnddAZTmvEzkAAAAASUVORK5CYII=;shadow=0;" parent="1" vertex="1">
                    <mxGeometry x="46.5" y="952" width="137" height="124" as="geometry"/>
                </mxCell>
                <mxCell id="54" value="" style="edgeStyle=none;html=1;" parent="1" source="44" target="42" edge="1">
                    <mxGeometry relative="1" as="geometry"/>
                </mxCell>
                <mxCell id="44" value="" style="sketch=0;aspect=fixed;html=1;points=[];align=center;image;fontSize=12;image=img/lib/mscae/Person.svg;shadow=0;" parent="1" vertex="1">
                    <mxGeometry x="96.5" y="864" width="37" height="50" as="geometry"/>
                </mxCell>
                <mxCell id="45" value="" style="html=1;verticalLabelPosition=bottom;align=center;labelBackgroundColor=#ffffff;verticalAlign=top;strokeWidth=2;strokeColor=#0080F0;shadow=0;dashed=0;shape=mxgraph.ios7.icons.reload;" parent="1" vertex="1">
                    <mxGeometry x="250" y="650" width="300" height="270" as="geometry"/>
                </mxCell>
                <mxCell id="49" style="edgeStyle=none;html=1;exitX=0.5;exitY=1;exitDx=0;exitDy=0;entryX=0.25;entryY=1;entryDx=0;entryDy=0;" parent="1" source="13" target="13" edge="1">
                    <mxGeometry relative="1" as="geometry"/>
                </mxCell>
                <mxCell id="74" style="edgeStyle=orthogonalEdgeStyle;html=1;" edge="1" parent="1" source="51" target="69">
                    <mxGeometry relative="1" as="geometry"/>
                </mxCell>
                <mxCell id="51" value="" style="rounded=1;whiteSpace=wrap;html=1;strokeWidth=2;fillWeight=4;hachureGap=8;hachureAngle=45;fillColor=#1ba1e2;sketch=1;shadow=0;" parent="1" vertex="1">
                    <mxGeometry x="140" y="700" width="50" height="45" as="geometry"/>
                </mxCell>
                <mxCell id="63" value="" style="edgeStyle=orthogonalEdgeStyle;html=1;entryX=0;entryY=0.25;entryDx=0;entryDy=0;" edge="1" parent="1" source="61" target="15">
                    <mxGeometry relative="1" as="geometry"/>
                </mxCell>
                <mxCell id="61" value="" style="sketch=0;outlineConnect=0;fontColor=#232F3E;gradientColor=none;fillColor=#067F68;strokeColor=none;dashed=0;verticalLabelPosition=bottom;verticalAlign=top;align=center;html=1;fontSize=12;fontStyle=0;aspect=fixed;pointerEvents=1;shape=mxgraph.aws4.sagemaker_model;" vertex="1" parent="1">
                    <mxGeometry x="540" y="464.5" width="43.5" height="43.5" as="geometry"/>
                </mxCell>
                <mxCell id="71" style="edgeStyle=orthogonalEdgeStyle;html=1;entryX=0.25;entryY=0;entryDx=0;entryDy=0;" edge="1" parent="1" source="67" target="24">
                    <mxGeometry relative="1" as="geometry"/>
                </mxCell>
                <mxCell id="67" value="" style="sketch=0;outlineConnect=0;fontColor=#232F3E;gradientColor=none;fillColor=#067F68;strokeColor=none;dashed=0;verticalLabelPosition=bottom;verticalAlign=top;align=center;html=1;fontSize=12;fontStyle=0;aspect=fixed;pointerEvents=1;shape=mxgraph.aws4.sagemaker_model;" vertex="1" parent="1">
                    <mxGeometry x="610" y="883.25" width="36.75" height="36.75" as="geometry"/>
                </mxCell>
                <mxCell id="73" style="edgeStyle=orthogonalEdgeStyle;html=1;entryX=1;entryY=0.25;entryDx=0;entryDy=0;" edge="1" parent="1" source="68" target="43">
                    <mxGeometry relative="1" as="geometry"/>
                </mxCell>
                <mxCell id="68" value="" style="sketch=0;outlineConnect=0;fontColor=#232F3E;gradientColor=none;fillColor=#067F68;strokeColor=none;dashed=0;verticalLabelPosition=bottom;verticalAlign=top;align=center;html=1;fontSize=12;fontStyle=0;aspect=fixed;pointerEvents=1;shape=mxgraph.aws4.sagemaker_model;" vertex="1" parent="1">
                    <mxGeometry x="250" y="930" width="43.5" height="43.5" as="geometry"/>
                </mxCell>
                <mxCell id="75" style="edgeStyle=orthogonalEdgeStyle;html=1;" edge="1" parent="1" source="69" target="3">
                    <mxGeometry relative="1" as="geometry"/>
                </mxCell>
                <mxCell id="69" value="" style="sketch=0;outlineConnect=0;fontColor=#232F3E;gradientColor=none;fillColor=#067F68;strokeColor=none;dashed=0;verticalLabelPosition=bottom;verticalAlign=top;align=center;html=1;fontSize=12;fontStyle=0;aspect=fixed;pointerEvents=1;shape=mxgraph.aws4.sagemaker_model;" vertex="1" parent="1">
                    <mxGeometry x="170" y="633.25" width="43.5" height="43.5" as="geometry"/>
                </mxCell>
            </root>
        </mxGraphModel>
    </diagram>
</mxfile>